G04*
G04 #@! TF.GenerationSoftware,Altium Limited,Altium Designer,23.0.1 (38)*
G04*
G04 Layer_Color=8388736*
%FSLAX43Y43*%
%MOMM*%
G71*
G04*
G04 #@! TF.SameCoordinates,849B8B9A-CF0B-4B68-86F2-F378DEA603F9*
G04*
G04*
G04 #@! TF.FilePolarity,Negative*
G04*
G01*
G75*
G04:AMPARAMS|DCode=14|XSize=1.072mm|YSize=1.232mm|CornerRadius=0.191mm|HoleSize=0mm|Usage=FLASHONLY|Rotation=46.000|XOffset=0mm|YOffset=0mm|HoleType=Round|Shape=RoundedRectangle|*
%AMROUNDEDRECTD14*
21,1,1.072,0.850,0,0,46.0*
21,1,0.690,1.232,0,0,46.0*
1,1,0.382,0.545,-0.047*
1,1,0.382,0.066,-0.543*
1,1,0.382,-0.545,0.047*
1,1,0.382,-0.066,0.543*
%
%ADD14ROUNDEDRECTD14*%
G04:AMPARAMS|DCode=15|XSize=0.782mm|YSize=1.392mm|CornerRadius=0.155mm|HoleSize=0mm|Usage=FLASHONLY|Rotation=240.000|XOffset=0mm|YOffset=0mm|HoleType=Round|Shape=RoundedRectangle|*
%AMROUNDEDRECTD15*
21,1,0.782,1.083,0,0,240.0*
21,1,0.472,1.392,0,0,240.0*
1,1,0.310,-0.587,0.066*
1,1,0.310,-0.351,0.475*
1,1,0.310,0.587,-0.066*
1,1,0.310,0.351,-0.475*
%
%ADD15ROUNDEDRECTD15*%
G04:AMPARAMS|DCode=16|XSize=1.092mm|YSize=1.182mm|CornerRadius=0.194mm|HoleSize=0mm|Usage=FLASHONLY|Rotation=0.000|XOffset=0mm|YOffset=0mm|HoleType=Round|Shape=RoundedRectangle|*
%AMROUNDEDRECTD16*
21,1,1.092,0.795,0,0,0.0*
21,1,0.705,1.182,0,0,0.0*
1,1,0.387,0.353,-0.398*
1,1,0.387,-0.353,-0.398*
1,1,0.387,-0.353,0.398*
1,1,0.387,0.353,0.398*
%
%ADD16ROUNDEDRECTD16*%
G04:AMPARAMS|DCode=17|XSize=1.552mm|YSize=1.302mm|CornerRadius=0.22mm|HoleSize=0mm|Usage=FLASHONLY|Rotation=90.000|XOffset=0mm|YOffset=0mm|HoleType=Round|Shape=RoundedRectangle|*
%AMROUNDEDRECTD17*
21,1,1.552,0.863,0,0,90.0*
21,1,1.113,1.302,0,0,90.0*
1,1,0.440,0.431,0.556*
1,1,0.440,0.431,-0.556*
1,1,0.440,-0.431,-0.556*
1,1,0.440,-0.431,0.556*
%
%ADD17ROUNDEDRECTD17*%
G04:AMPARAMS|DCode=18|XSize=1.072mm|YSize=1.232mm|CornerRadius=0.191mm|HoleSize=0mm|Usage=FLASHONLY|Rotation=180.000|XOffset=0mm|YOffset=0mm|HoleType=Round|Shape=RoundedRectangle|*
%AMROUNDEDRECTD18*
21,1,1.072,0.850,0,0,180.0*
21,1,0.690,1.232,0,0,180.0*
1,1,0.382,-0.345,0.425*
1,1,0.382,0.345,0.425*
1,1,0.382,0.345,-0.425*
1,1,0.382,-0.345,-0.425*
%
%ADD18ROUNDEDRECTD18*%
G04:AMPARAMS|DCode=19|XSize=1.072mm|YSize=1.232mm|CornerRadius=0.191mm|HoleSize=0mm|Usage=FLASHONLY|Rotation=270.000|XOffset=0mm|YOffset=0mm|HoleType=Round|Shape=RoundedRectangle|*
%AMROUNDEDRECTD19*
21,1,1.072,0.850,0,0,270.0*
21,1,0.690,1.232,0,0,270.0*
1,1,0.382,-0.425,-0.345*
1,1,0.382,-0.425,0.345*
1,1,0.382,0.425,0.345*
1,1,0.382,0.425,-0.345*
%
%ADD19ROUNDEDRECTD19*%
G04:AMPARAMS|DCode=20|XSize=1.412mm|YSize=0.732mm|CornerRadius=0.149mm|HoleSize=0mm|Usage=FLASHONLY|Rotation=0.000|XOffset=0mm|YOffset=0mm|HoleType=Round|Shape=RoundedRectangle|*
%AMROUNDEDRECTD20*
21,1,1.412,0.435,0,0,0.0*
21,1,1.115,0.732,0,0,0.0*
1,1,0.297,0.558,-0.217*
1,1,0.297,-0.558,-0.217*
1,1,0.297,-0.558,0.217*
1,1,0.297,0.558,0.217*
%
%ADD20ROUNDEDRECTD20*%
G04:AMPARAMS|DCode=21|XSize=2.895mm|YSize=2.311mm|CornerRadius=0.346mm|HoleSize=0mm|Usage=FLASHONLY|Rotation=270.000|XOffset=0mm|YOffset=0mm|HoleType=Round|Shape=RoundedRectangle|*
%AMROUNDEDRECTD21*
21,1,2.895,1.619,0,0,270.0*
21,1,2.203,2.311,0,0,270.0*
1,1,0.692,-0.810,-1.102*
1,1,0.692,-0.810,1.102*
1,1,0.692,0.810,1.102*
1,1,0.692,0.810,-1.102*
%
%ADD21ROUNDEDRECTD21*%
G04:AMPARAMS|DCode=22|XSize=0.752mm|YSize=1.152mm|CornerRadius=0.151mm|HoleSize=0mm|Usage=FLASHONLY|Rotation=90.000|XOffset=0mm|YOffset=0mm|HoleType=Round|Shape=RoundedRectangle|*
%AMROUNDEDRECTD22*
21,1,0.752,0.850,0,0,90.0*
21,1,0.450,1.152,0,0,90.0*
1,1,0.302,0.425,0.225*
1,1,0.302,0.425,-0.225*
1,1,0.302,-0.425,-0.225*
1,1,0.302,-0.425,0.225*
%
%ADD22ROUNDEDRECTD22*%
G04:AMPARAMS|DCode=23|XSize=1.072mm|YSize=1.232mm|CornerRadius=0.191mm|HoleSize=0mm|Usage=FLASHONLY|Rotation=150.000|XOffset=0mm|YOffset=0mm|HoleType=Round|Shape=RoundedRectangle|*
%AMROUNDEDRECTD23*
21,1,1.072,0.850,0,0,150.0*
21,1,0.690,1.232,0,0,150.0*
1,1,0.382,-0.086,0.541*
1,1,0.382,0.511,0.196*
1,1,0.382,0.086,-0.541*
1,1,0.382,-0.511,-0.196*
%
%ADD23ROUNDEDRECTD23*%
G04:AMPARAMS|DCode=24|XSize=1.072mm|YSize=1.232mm|CornerRadius=0.191mm|HoleSize=0mm|Usage=FLASHONLY|Rotation=240.000|XOffset=0mm|YOffset=0mm|HoleType=Round|Shape=RoundedRectangle|*
%AMROUNDEDRECTD24*
21,1,1.072,0.850,0,0,240.0*
21,1,0.690,1.232,0,0,240.0*
1,1,0.382,-0.541,-0.086*
1,1,0.382,-0.196,0.511*
1,1,0.382,0.541,0.086*
1,1,0.382,0.196,-0.511*
%
%ADD24ROUNDEDRECTD24*%
G04:AMPARAMS|DCode=25|XSize=1.092mm|YSize=1.182mm|CornerRadius=0.194mm|HoleSize=0mm|Usage=FLASHONLY|Rotation=240.000|XOffset=0mm|YOffset=0mm|HoleType=Round|Shape=RoundedRectangle|*
%AMROUNDEDRECTD25*
21,1,1.092,0.795,0,0,240.0*
21,1,0.705,1.182,0,0,240.0*
1,1,0.387,-0.521,-0.107*
1,1,0.387,-0.168,0.504*
1,1,0.387,0.521,0.107*
1,1,0.387,0.168,-0.504*
%
%ADD25ROUNDEDRECTD25*%
G04:AMPARAMS|DCode=26|XSize=1.452mm|YSize=3.652mm|CornerRadius=0.239mm|HoleSize=0mm|Usage=FLASHONLY|Rotation=240.000|XOffset=0mm|YOffset=0mm|HoleType=Round|Shape=RoundedRectangle|*
%AMROUNDEDRECTD26*
21,1,1.452,3.175,0,0,240.0*
21,1,0.975,3.652,0,0,240.0*
1,1,0.477,-1.619,0.372*
1,1,0.477,-1.131,1.216*
1,1,0.477,1.619,-0.372*
1,1,0.477,1.131,-1.216*
%
%ADD26ROUNDEDRECTD26*%
G04:AMPARAMS|DCode=27|XSize=1.412mm|YSize=0.732mm|CornerRadius=0.149mm|HoleSize=0mm|Usage=FLASHONLY|Rotation=60.000|XOffset=0mm|YOffset=0mm|HoleType=Round|Shape=RoundedRectangle|*
%AMROUNDEDRECTD27*
21,1,1.412,0.435,0,0,60.0*
21,1,1.115,0.732,0,0,60.0*
1,1,0.297,0.467,0.374*
1,1,0.297,-0.090,-0.592*
1,1,0.297,-0.467,-0.374*
1,1,0.297,0.090,0.592*
%
%ADD27ROUNDEDRECTD27*%
G04:AMPARAMS|DCode=28|XSize=1.072mm|YSize=1.232mm|CornerRadius=0.191mm|HoleSize=0mm|Usage=FLASHONLY|Rotation=350.000|XOffset=0mm|YOffset=0mm|HoleType=Round|Shape=RoundedRectangle|*
%AMROUNDEDRECTD28*
21,1,1.072,0.850,0,0,350.0*
21,1,0.690,1.232,0,0,350.0*
1,1,0.382,0.266,-0.478*
1,1,0.382,-0.414,-0.359*
1,1,0.382,-0.266,0.478*
1,1,0.382,0.414,0.359*
%
%ADD28ROUNDEDRECTD28*%
G04:AMPARAMS|DCode=29|XSize=1.092mm|YSize=1.182mm|CornerRadius=0.194mm|HoleSize=0mm|Usage=FLASHONLY|Rotation=80.000|XOffset=0mm|YOffset=0mm|HoleType=Round|Shape=RoundedRectangle|*
%AMROUNDEDRECTD29*
21,1,1.092,0.795,0,0,80.0*
21,1,0.705,1.182,0,0,80.0*
1,1,0.387,0.453,0.278*
1,1,0.387,0.330,-0.416*
1,1,0.387,-0.453,-0.278*
1,1,0.387,-0.330,0.416*
%
%ADD29ROUNDEDRECTD29*%
G04:AMPARAMS|DCode=30|XSize=1.412mm|YSize=0.732mm|CornerRadius=0.149mm|HoleSize=0mm|Usage=FLASHONLY|Rotation=80.000|XOffset=0mm|YOffset=0mm|HoleType=Round|Shape=RoundedRectangle|*
%AMROUNDEDRECTD30*
21,1,1.412,0.435,0,0,80.0*
21,1,1.115,0.732,0,0,80.0*
1,1,0.297,0.311,0.511*
1,1,0.297,0.117,-0.587*
1,1,0.297,-0.311,-0.511*
1,1,0.297,-0.117,0.587*
%
%ADD30ROUNDEDRECTD30*%
G04:AMPARAMS|DCode=31|XSize=1.072mm|YSize=1.232mm|CornerRadius=0.191mm|HoleSize=0mm|Usage=FLASHONLY|Rotation=10.000|XOffset=0mm|YOffset=0mm|HoleType=Round|Shape=RoundedRectangle|*
%AMROUNDEDRECTD31*
21,1,1.072,0.850,0,0,10.0*
21,1,0.690,1.232,0,0,10.0*
1,1,0.382,0.414,-0.359*
1,1,0.382,-0.266,-0.478*
1,1,0.382,-0.414,0.359*
1,1,0.382,0.266,0.478*
%
%ADD31ROUNDEDRECTD31*%
G04:AMPARAMS|DCode=32|XSize=1.092mm|YSize=1.182mm|CornerRadius=0.194mm|HoleSize=0mm|Usage=FLASHONLY|Rotation=100.000|XOffset=0mm|YOffset=0mm|HoleType=Round|Shape=RoundedRectangle|*
%AMROUNDEDRECTD32*
21,1,1.092,0.795,0,0,100.0*
21,1,0.705,1.182,0,0,100.0*
1,1,0.387,0.330,0.416*
1,1,0.387,0.453,-0.278*
1,1,0.387,-0.330,-0.416*
1,1,0.387,-0.453,0.278*
%
%ADD32ROUNDEDRECTD32*%
G04:AMPARAMS|DCode=33|XSize=1.412mm|YSize=0.732mm|CornerRadius=0.149mm|HoleSize=0mm|Usage=FLASHONLY|Rotation=100.000|XOffset=0mm|YOffset=0mm|HoleType=Round|Shape=RoundedRectangle|*
%AMROUNDEDRECTD33*
21,1,1.412,0.435,0,0,100.0*
21,1,1.115,0.732,0,0,100.0*
1,1,0.297,0.117,0.587*
1,1,0.297,0.311,-0.511*
1,1,0.297,-0.117,-0.587*
1,1,0.297,-0.311,0.511*
%
%ADD33ROUNDEDRECTD33*%
G04:AMPARAMS|DCode=34|XSize=1.072mm|YSize=1.232mm|CornerRadius=0.191mm|HoleSize=0mm|Usage=FLASHONLY|Rotation=310.000|XOffset=0mm|YOffset=0mm|HoleType=Round|Shape=RoundedRectangle|*
%AMROUNDEDRECTD34*
21,1,1.072,0.850,0,0,310.0*
21,1,0.690,1.232,0,0,310.0*
1,1,0.382,-0.104,-0.537*
1,1,0.382,-0.547,-0.009*
1,1,0.382,0.104,0.537*
1,1,0.382,0.547,0.009*
%
%ADD34ROUNDEDRECTD34*%
G04:AMPARAMS|DCode=35|XSize=1.412mm|YSize=0.732mm|CornerRadius=0.149mm|HoleSize=0mm|Usage=FLASHONLY|Rotation=130.000|XOffset=0mm|YOffset=0mm|HoleType=Round|Shape=RoundedRectangle|*
%AMROUNDEDRECTD35*
21,1,1.412,0.435,0,0,130.0*
21,1,1.115,0.732,0,0,130.0*
1,1,0.297,-0.192,0.567*
1,1,0.297,0.525,-0.287*
1,1,0.297,0.192,-0.567*
1,1,0.297,-0.525,0.287*
%
%ADD35ROUNDEDRECTD35*%
G04:AMPARAMS|DCode=36|XSize=1.092mm|YSize=1.182mm|CornerRadius=0.194mm|HoleSize=0mm|Usage=FLASHONLY|Rotation=130.000|XOffset=0mm|YOffset=0mm|HoleType=Round|Shape=RoundedRectangle|*
%AMROUNDEDRECTD36*
21,1,1.092,0.795,0,0,130.0*
21,1,0.705,1.182,0,0,130.0*
1,1,0.387,0.078,0.526*
1,1,0.387,0.531,-0.015*
1,1,0.387,-0.078,-0.526*
1,1,0.387,-0.531,0.015*
%
%ADD36ROUNDEDRECTD36*%
G04:AMPARAMS|DCode=37|XSize=1.072mm|YSize=1.232mm|CornerRadius=0.191mm|HoleSize=0mm|Usage=FLASHONLY|Rotation=40.000|XOffset=0mm|YOffset=0mm|HoleType=Round|Shape=RoundedRectangle|*
%AMROUNDEDRECTD37*
21,1,1.072,0.850,0,0,40.0*
21,1,0.690,1.232,0,0,40.0*
1,1,0.382,0.537,-0.104*
1,1,0.382,0.009,-0.547*
1,1,0.382,-0.537,0.104*
1,1,0.382,-0.009,0.547*
%
%ADD37ROUNDEDRECTD37*%
G04:AMPARAMS|DCode=38|XSize=1.452mm|YSize=3.652mm|CornerRadius=0.239mm|HoleSize=0mm|Usage=FLASHONLY|Rotation=310.000|XOffset=0mm|YOffset=0mm|HoleType=Round|Shape=RoundedRectangle|*
%AMROUNDEDRECTD38*
21,1,1.452,3.175,0,0,310.0*
21,1,0.975,3.652,0,0,310.0*
1,1,0.477,-0.903,-1.394*
1,1,0.477,-1.529,-0.647*
1,1,0.477,0.903,1.394*
1,1,0.477,1.529,0.647*
%
%ADD38ROUNDEDRECTD38*%
G04:AMPARAMS|DCode=39|XSize=3.152mm|YSize=1.952mm|CornerRadius=0.301mm|HoleSize=0mm|Usage=FLASHONLY|Rotation=330.000|XOffset=0mm|YOffset=0mm|HoleType=Round|Shape=RoundedRectangle|*
%AMROUNDEDRECTD39*
21,1,3.152,1.350,0,0,330.0*
21,1,2.550,1.952,0,0,330.0*
1,1,0.602,0.767,-1.222*
1,1,0.602,-1.442,0.053*
1,1,0.602,-0.767,1.222*
1,1,0.602,1.442,-0.053*
%
%ADD39ROUNDEDRECTD39*%
G04:AMPARAMS|DCode=40|XSize=1.652mm|YSize=0.652mm|CornerRadius=0.139mm|HoleSize=0mm|Usage=FLASHONLY|Rotation=60.000|XOffset=0mm|YOffset=0mm|HoleType=Round|Shape=RoundedRectangle|*
%AMROUNDEDRECTD40*
21,1,1.652,0.375,0,0,60.0*
21,1,1.375,0.652,0,0,60.0*
1,1,0.277,0.506,0.502*
1,1,0.277,-0.181,-0.689*
1,1,0.277,-0.506,-0.502*
1,1,0.277,0.181,0.689*
%
%ADD40ROUNDEDRECTD40*%
G04:AMPARAMS|DCode=41|XSize=2.895mm|YSize=2.311mm|CornerRadius=0.346mm|HoleSize=0mm|Usage=FLASHONLY|Rotation=240.000|XOffset=0mm|YOffset=0mm|HoleType=Round|Shape=RoundedRectangle|*
%AMROUNDEDRECTD41*
21,1,2.895,1.619,0,0,240.0*
21,1,2.203,2.311,0,0,240.0*
1,1,0.692,-1.252,-0.549*
1,1,0.692,-0.150,1.359*
1,1,0.692,1.252,0.549*
1,1,0.692,0.150,-1.359*
%
%ADD41ROUNDEDRECTD41*%
G04:AMPARAMS|DCode=42|XSize=0.782mm|YSize=1.392mm|CornerRadius=0.155mm|HoleSize=0mm|Usage=FLASHONLY|Rotation=180.000|XOffset=0mm|YOffset=0mm|HoleType=Round|Shape=RoundedRectangle|*
%AMROUNDEDRECTD42*
21,1,0.782,1.083,0,0,180.0*
21,1,0.472,1.392,0,0,180.0*
1,1,0.310,-0.236,0.541*
1,1,0.310,0.236,0.541*
1,1,0.310,0.236,-0.541*
1,1,0.310,-0.236,-0.541*
%
%ADD42ROUNDEDRECTD42*%
G04:AMPARAMS|DCode=43|XSize=1.552mm|YSize=1.302mm|CornerRadius=0.22mm|HoleSize=0mm|Usage=FLASHONLY|Rotation=0.000|XOffset=0mm|YOffset=0mm|HoleType=Round|Shape=RoundedRectangle|*
%AMROUNDEDRECTD43*
21,1,1.552,0.863,0,0,0.0*
21,1,1.113,1.302,0,0,0.0*
1,1,0.440,0.556,-0.431*
1,1,0.440,-0.556,-0.431*
1,1,0.440,-0.556,0.431*
1,1,0.440,0.556,0.431*
%
%ADD43ROUNDEDRECTD43*%
G04:AMPARAMS|DCode=44|XSize=1.092mm|YSize=1.182mm|CornerRadius=0.194mm|HoleSize=0mm|Usage=FLASHONLY|Rotation=90.000|XOffset=0mm|YOffset=0mm|HoleType=Round|Shape=RoundedRectangle|*
%AMROUNDEDRECTD44*
21,1,1.092,0.795,0,0,90.0*
21,1,0.705,1.182,0,0,90.0*
1,1,0.387,0.398,0.353*
1,1,0.387,0.398,-0.353*
1,1,0.387,-0.398,-0.353*
1,1,0.387,-0.398,0.353*
%
%ADD44ROUNDEDRECTD44*%
G04:AMPARAMS|DCode=45|XSize=0.38mm|YSize=1.3mm|CornerRadius=0.12mm|HoleSize=0mm|Usage=FLASHONLY|Rotation=0.000|XOffset=0mm|YOffset=0mm|HoleType=Round|Shape=RoundedRectangle|*
%AMROUNDEDRECTD45*
21,1,0.380,1.060,0,0,0.0*
21,1,0.140,1.300,0,0,0.0*
1,1,0.240,0.070,-0.530*
1,1,0.240,-0.070,-0.530*
1,1,0.240,-0.070,0.530*
1,1,0.240,0.070,0.530*
%
%ADD45ROUNDEDRECTD45*%
G04:AMPARAMS|DCode=46|XSize=0.38mm|YSize=1.3mm|CornerRadius=0.12mm|HoleSize=0mm|Usage=FLASHONLY|Rotation=90.000|XOffset=0mm|YOffset=0mm|HoleType=Round|Shape=RoundedRectangle|*
%AMROUNDEDRECTD46*
21,1,0.380,1.060,0,0,90.0*
21,1,0.140,1.300,0,0,90.0*
1,1,0.240,0.530,0.070*
1,1,0.240,0.530,-0.070*
1,1,0.240,-0.530,-0.070*
1,1,0.240,-0.530,0.070*
%
%ADD46ROUNDEDRECTD46*%
G04:AMPARAMS|DCode=47|XSize=1.652mm|YSize=2.952mm|CornerRadius=0.264mm|HoleSize=0mm|Usage=FLASHONLY|Rotation=180.000|XOffset=0mm|YOffset=0mm|HoleType=Round|Shape=RoundedRectangle|*
%AMROUNDEDRECTD47*
21,1,1.652,2.425,0,0,180.0*
21,1,1.125,2.952,0,0,180.0*
1,1,0.527,-0.563,1.212*
1,1,0.527,0.563,1.212*
1,1,0.527,0.563,-1.212*
1,1,0.527,-0.563,-1.212*
%
%ADD47ROUNDEDRECTD47*%
%ADD48R,0.330X0.530*%
G04:AMPARAMS|DCode=49|XSize=0.84mm|YSize=0.42mm|CornerRadius=0.063mm|HoleSize=0mm|Usage=FLASHONLY|Rotation=180.000|XOffset=0mm|YOffset=0mm|HoleType=Round|Shape=RoundedRectangle|*
%AMROUNDEDRECTD49*
21,1,0.840,0.294,0,0,180.0*
21,1,0.714,0.420,0,0,180.0*
1,1,0.126,-0.357,0.147*
1,1,0.126,0.357,0.147*
1,1,0.126,0.357,-0.147*
1,1,0.126,-0.357,-0.147*
%
%ADD49ROUNDEDRECTD49*%
%ADD50R,1.900X2.840*%
G04:AMPARAMS|DCode=51|XSize=1.072mm|YSize=1.232mm|CornerRadius=0.191mm|HoleSize=0mm|Usage=FLASHONLY|Rotation=137.000|XOffset=0mm|YOffset=0mm|HoleType=Round|Shape=RoundedRectangle|*
%AMROUNDEDRECTD51*
21,1,1.072,0.850,0,0,137.0*
21,1,0.690,1.232,0,0,137.0*
1,1,0.382,0.038,0.546*
1,1,0.382,0.542,0.076*
1,1,0.382,-0.038,-0.546*
1,1,0.382,-0.542,-0.076*
%
%ADD51ROUNDEDRECTD51*%
%ADD52R,0.550X0.390*%
%ADD53R,0.390X0.550*%
G04:AMPARAMS|DCode=54|XSize=1.072mm|YSize=1.232mm|CornerRadius=0.191mm|HoleSize=0mm|Usage=FLASHONLY|Rotation=280.000|XOffset=0mm|YOffset=0mm|HoleType=Round|Shape=RoundedRectangle|*
%AMROUNDEDRECTD54*
21,1,1.072,0.850,0,0,280.0*
21,1,0.690,1.232,0,0,280.0*
1,1,0.382,-0.359,-0.414*
1,1,0.382,-0.478,0.266*
1,1,0.382,0.359,0.414*
1,1,0.382,0.478,-0.266*
%
%ADD54ROUNDEDRECTD54*%
G04:AMPARAMS|DCode=55|XSize=1.452mm|YSize=3.652mm|CornerRadius=0.239mm|HoleSize=0mm|Usage=FLASHONLY|Rotation=280.000|XOffset=0mm|YOffset=0mm|HoleType=Round|Shape=RoundedRectangle|*
%AMROUNDEDRECTD55*
21,1,1.452,3.175,0,0,280.0*
21,1,0.975,3.652,0,0,280.0*
1,1,0.477,-1.479,-0.756*
1,1,0.477,-1.648,0.204*
1,1,0.477,1.479,0.756*
1,1,0.477,1.648,-0.204*
%
%ADD55ROUNDEDRECTD55*%
G04:AMPARAMS|DCode=56|XSize=1.072mm|YSize=1.232mm|CornerRadius=0.191mm|HoleSize=0mm|Usage=FLASHONLY|Rotation=260.000|XOffset=0mm|YOffset=0mm|HoleType=Round|Shape=RoundedRectangle|*
%AMROUNDEDRECTD56*
21,1,1.072,0.850,0,0,260.0*
21,1,0.690,1.232,0,0,260.0*
1,1,0.382,-0.478,-0.266*
1,1,0.382,-0.359,0.414*
1,1,0.382,0.478,0.266*
1,1,0.382,0.359,-0.414*
%
%ADD56ROUNDEDRECTD56*%
G04:AMPARAMS|DCode=57|XSize=1.452mm|YSize=3.652mm|CornerRadius=0.239mm|HoleSize=0mm|Usage=FLASHONLY|Rotation=260.000|XOffset=0mm|YOffset=0mm|HoleType=Round|Shape=RoundedRectangle|*
%AMROUNDEDRECTD57*
21,1,1.452,3.175,0,0,260.0*
21,1,0.975,3.652,0,0,260.0*
1,1,0.477,-1.648,-0.204*
1,1,0.477,-1.479,0.756*
1,1,0.477,1.648,0.204*
1,1,0.477,1.479,-0.756*
%
%ADD57ROUNDEDRECTD57*%
G04:AMPARAMS|DCode=58|XSize=1.152mm|YSize=1.252mm|CornerRadius=0.201mm|HoleSize=0mm|Usage=FLASHONLY|Rotation=0.000|XOffset=0mm|YOffset=0mm|HoleType=Round|Shape=RoundedRectangle|*
%AMROUNDEDRECTD58*
21,1,1.152,0.850,0,0,0.0*
21,1,0.750,1.252,0,0,0.0*
1,1,0.402,0.375,-0.425*
1,1,0.402,-0.375,-0.425*
1,1,0.402,-0.375,0.425*
1,1,0.402,0.375,0.425*
%
%ADD58ROUNDEDRECTD58*%
G04:AMPARAMS|DCode=59|XSize=0.752mm|YSize=1.202mm|CornerRadius=0.151mm|HoleSize=0mm|Usage=FLASHONLY|Rotation=0.000|XOffset=0mm|YOffset=0mm|HoleType=Round|Shape=RoundedRectangle|*
%AMROUNDEDRECTD59*
21,1,0.752,0.900,0,0,0.0*
21,1,0.450,1.202,0,0,0.0*
1,1,0.302,0.225,-0.450*
1,1,0.302,-0.225,-0.450*
1,1,0.302,-0.225,0.450*
1,1,0.302,0.225,0.450*
%
%ADD59ROUNDEDRECTD59*%
G04:AMPARAMS|DCode=60|XSize=1.412mm|YSize=0.732mm|CornerRadius=0.149mm|HoleSize=0mm|Usage=FLASHONLY|Rotation=90.000|XOffset=0mm|YOffset=0mm|HoleType=Round|Shape=RoundedRectangle|*
%AMROUNDEDRECTD60*
21,1,1.412,0.435,0,0,90.0*
21,1,1.115,0.732,0,0,90.0*
1,1,0.297,0.217,0.558*
1,1,0.297,0.217,-0.558*
1,1,0.297,-0.217,-0.558*
1,1,0.297,-0.217,0.558*
%
%ADD60ROUNDEDRECTD60*%
%ADD61C,2.500*%
%ADD62C,1.852*%
%ADD63R,1.852X1.852*%
%ADD64C,1.552*%
%ADD65P,2.195X4X60.0*%
%ADD66C,1.352*%
%ADD67P,1.913X4X275.0*%
%ADD68C,1.052*%
%ADD69P,2.195X4X390.0*%
%ADD70P,1.913X4X175.0*%
%ADD71P,1.913X4X354.0*%
%ADD72C,1.580*%
%ADD73R,1.580X1.580*%
%ADD74C,2.552*%
%ADD75P,1.913X4X325.0*%
%ADD76P,1.913X4X305.0*%
%ADD77C,1.652*%
D14*
X-15819Y9250D02*
D03*
X-16931Y8100D02*
D03*
D15*
X-19424Y11372D02*
D03*
X-18474Y13017D02*
D03*
X-16482Y11867D02*
D03*
X-16957Y11044D02*
D03*
X-17432Y10222D02*
D03*
X-18949Y12194D02*
D03*
D16*
X-5200Y19300D02*
D03*
X-3600Y19300D02*
D03*
X-20282Y-12258D02*
D03*
X-21882Y-12258D02*
D03*
X-13845Y-6409D02*
D03*
X-15445Y-6409D02*
D03*
X799Y3200D02*
D03*
X-801Y3200D02*
D03*
X-5076Y11218D02*
D03*
X-6676Y11218D02*
D03*
D17*
X-8975Y19300D02*
D03*
X-7225Y19300D02*
D03*
X-6976Y13118D02*
D03*
X-5226Y13118D02*
D03*
D18*
X550Y17719D02*
D03*
X2150Y17719D02*
D03*
X-1450Y-9000D02*
D03*
X-3050Y-9000D02*
D03*
X-21894Y-14213D02*
D03*
X-20294Y-14213D02*
D03*
X-20294Y-6384D02*
D03*
X-21894Y-6384D02*
D03*
X-20294Y-8347D02*
D03*
X-21894Y-8347D02*
D03*
X-20294Y-10310D02*
D03*
X-21894Y-10310D02*
D03*
X8535Y23727D02*
D03*
X10135Y23727D02*
D03*
X13477Y23727D02*
D03*
X11877Y23727D02*
D03*
D19*
X-3000Y-12500D02*
D03*
X-3000Y-10900D02*
D03*
X-19241Y7732D02*
D03*
X-19241Y6132D02*
D03*
X-24565Y1524D02*
D03*
X-24565Y3124D02*
D03*
D20*
X5343Y-16710D02*
D03*
X7403Y-16710D02*
D03*
D21*
X-807Y-15575D02*
D03*
X2953D02*
D03*
D22*
X1013Y-11700D02*
D03*
X-1387Y-12650D02*
D03*
X-1387Y-10750D02*
D03*
D23*
X6960Y-12366D02*
D03*
X8345Y-13166D02*
D03*
X16843Y-18289D02*
D03*
X18228Y-19089D02*
D03*
X-19707Y21400D02*
D03*
X-21093Y22200D02*
D03*
D24*
X8242Y-10332D02*
D03*
X9042Y-8946D02*
D03*
D25*
X6592Y-9380D02*
D03*
X7392Y-7994D02*
D03*
X19421Y-16908D02*
D03*
X20221Y-15523D02*
D03*
D26*
X11730Y-10027D02*
D03*
X10460Y-12227D02*
D03*
X17987Y-13639D02*
D03*
X16717Y-15839D02*
D03*
D27*
X20964Y-18117D02*
D03*
X21994Y-16333D02*
D03*
D28*
X22901Y-8970D02*
D03*
X24477Y-9247D02*
D03*
X13140Y-6954D02*
D03*
X11564Y-6676D02*
D03*
D29*
X25129Y-5214D02*
D03*
X24852Y-6790D02*
D03*
X10198Y-3996D02*
D03*
X10476Y-2420D02*
D03*
D30*
X26715Y-7398D02*
D03*
X27073Y-5369D02*
D03*
D31*
X25888Y1790D02*
D03*
X24312Y1512D02*
D03*
X12999Y-517D02*
D03*
X14574Y-239D02*
D03*
D32*
X25121Y5803D02*
D03*
X25399Y4227D02*
D03*
X10798Y1534D02*
D03*
X10520Y3110D02*
D03*
D33*
X27358Y4294D02*
D03*
X27000Y6322D02*
D03*
D34*
X10414Y7487D02*
D03*
X9386Y8713D02*
D03*
D35*
X22192Y16711D02*
D03*
X20868Y18289D02*
D03*
D36*
X20528Y15674D02*
D03*
X19500Y16900D02*
D03*
X7927Y7487D02*
D03*
X8955Y6262D02*
D03*
D37*
X22013Y13914D02*
D03*
X20787Y12886D02*
D03*
X13113Y6614D02*
D03*
X11887Y5586D02*
D03*
D38*
X18549Y13552D02*
D03*
X16916Y15498D02*
D03*
X13014Y8908D02*
D03*
X11382Y10854D02*
D03*
D39*
X-16279Y15807D02*
D03*
X-24507Y20557D02*
D03*
D40*
X-18432Y18378D02*
D03*
X-19125Y18778D02*
D03*
X-19818Y19178D02*
D03*
X-20511Y19578D02*
D03*
X-21204Y19978D02*
D03*
D41*
X-15580Y19905D02*
D03*
X-12324Y18025D02*
D03*
D42*
X-25550Y-9099D02*
D03*
X-26500Y-11399D02*
D03*
X-25550Y-11399D02*
D03*
X-24600Y-11399D02*
D03*
X-24600Y-9099D02*
D03*
X-26500Y-9099D02*
D03*
X-25550Y11390D02*
D03*
X-26500Y9090D02*
D03*
X-25550Y9090D02*
D03*
X-24600Y9090D02*
D03*
X-24600Y11390D02*
D03*
X-26500Y11390D02*
D03*
D43*
X-23135Y6294D02*
D03*
X-23135Y8044D02*
D03*
X5145Y23402D02*
D03*
X5145Y21652D02*
D03*
X13285Y19585D02*
D03*
X13285Y21335D02*
D03*
D44*
X-21132Y7744D02*
D03*
X-21132Y6144D02*
D03*
X-24565Y-3138D02*
D03*
X-24565Y-1538D02*
D03*
X-11874Y5161D02*
D03*
X-11874Y3561D02*
D03*
X3199Y-800D02*
D03*
X3199Y800D02*
D03*
X-26525Y-3138D02*
D03*
X-26525Y-1538D02*
D03*
X-26525Y3124D02*
D03*
X-26525Y1524D02*
D03*
D45*
X-20932Y4149D02*
D03*
X-20432Y4149D02*
D03*
X-19932Y4149D02*
D03*
X-19432Y4149D02*
D03*
X-18932Y4149D02*
D03*
X-18432Y4149D02*
D03*
X-17932Y4149D02*
D03*
X-17432Y4149D02*
D03*
X-16932Y4149D02*
D03*
X-16432Y4149D02*
D03*
X-15932Y4149D02*
D03*
X-15432Y4149D02*
D03*
X-15432Y-4351D02*
D03*
X-15932Y-4351D02*
D03*
X-16432Y-4351D02*
D03*
X-16932Y-4351D02*
D03*
X-17432Y-4351D02*
D03*
X-17932D02*
D03*
X-18432Y-4351D02*
D03*
X-18932Y-4351D02*
D03*
X-19432Y-4351D02*
D03*
X-19932Y-4351D02*
D03*
X-20432Y-4351D02*
D03*
X-20932Y-4351D02*
D03*
D46*
X-13932Y2649D02*
D03*
X-13932Y2149D02*
D03*
X-13932Y1649D02*
D03*
X-13932Y1149D02*
D03*
X-13932Y649D02*
D03*
X-13932Y149D02*
D03*
X-13932Y-351D02*
D03*
Y-851D02*
D03*
X-13932Y-1351D02*
D03*
X-13932Y-1851D02*
D03*
X-13932Y-2351D02*
D03*
X-13932Y-2851D02*
D03*
X-22432Y-2851D02*
D03*
X-22432Y-2351D02*
D03*
X-22432Y-1851D02*
D03*
X-22432Y-1351D02*
D03*
X-22432Y-851D02*
D03*
X-22432Y-351D02*
D03*
X-22432Y149D02*
D03*
X-22432Y649D02*
D03*
X-22432Y1149D02*
D03*
X-22432Y1649D02*
D03*
X-22432Y2149D02*
D03*
X-22432Y2649D02*
D03*
D47*
X11785Y16327D02*
D03*
X7285Y16327D02*
D03*
D48*
X9610Y18900D02*
D03*
X8960Y18900D02*
D03*
X9610Y22020D02*
D03*
X8960Y22020D02*
D03*
D49*
X10805Y19485D02*
D03*
X10805Y20135D02*
D03*
X10805Y20785D02*
D03*
X10805Y21435D02*
D03*
X7765Y21435D02*
D03*
X7765Y20785D02*
D03*
X7765Y20135D02*
D03*
X7765Y19485D02*
D03*
D50*
X9285Y20460D02*
D03*
D51*
X-11936Y8394D02*
D03*
X-13107Y9485D02*
D03*
X-13188Y7037D02*
D03*
X-14358Y8128D02*
D03*
D52*
X-1226Y500D02*
D03*
X-1226Y0D02*
D03*
X-1226Y-500D02*
D03*
X1224Y-500D02*
D03*
X1224Y-0D02*
D03*
X1224Y500D02*
D03*
D53*
X-1001Y-1225D02*
D03*
X-501D02*
D03*
X-1Y-1225D02*
D03*
X499Y-1225D02*
D03*
X999Y-1225D02*
D03*
X999Y1225D02*
D03*
X499Y1225D02*
D03*
X-1Y1225D02*
D03*
X-501D02*
D03*
X-1001Y1225D02*
D03*
D54*
X12674Y1866D02*
D03*
X12396Y3442D02*
D03*
D55*
X15128Y4413D02*
D03*
X15569Y1911D02*
D03*
X22243Y5667D02*
D03*
X22684Y3166D02*
D03*
D56*
X12074Y-4326D02*
D03*
X12352Y-2750D02*
D03*
D57*
X15248Y-2847D02*
D03*
X14807Y-5348D02*
D03*
X22363Y-4101D02*
D03*
X21922Y-6603D02*
D03*
D58*
X-15465Y-8357D02*
D03*
X-13865Y-8357D02*
D03*
X-13865Y-10310D02*
D03*
X-15465Y-10310D02*
D03*
D59*
X-5212Y14631D02*
D03*
X-7112Y14631D02*
D03*
X-7112Y17381D02*
D03*
X-6162Y17381D02*
D03*
X-5212Y17381D02*
D03*
D60*
X5145Y17525D02*
D03*
X5145Y19585D02*
D03*
D61*
X12150Y-28500D02*
D03*
Y-21000D02*
D03*
X-8150Y-28500D02*
D03*
X-4650Y-21000D02*
D03*
X-11650D02*
D03*
D62*
X-29138Y-7709D02*
D03*
Y-10249D02*
D03*
Y10240D02*
D03*
Y12780D02*
D03*
D63*
Y-12789D02*
D03*
Y7700D02*
D03*
D64*
X-3365Y31458D02*
D03*
X-11092Y29388D02*
D03*
X-9161Y29905D02*
D03*
X-7229Y30423D02*
D03*
X-5297Y30941D02*
D03*
X13045Y28870D02*
D03*
X5317Y30941D02*
D03*
X7249Y30423D02*
D03*
X9181Y29906D02*
D03*
X11113Y29388D02*
D03*
D65*
X-13024Y28870D02*
D03*
D66*
X24106Y-20688D02*
D03*
X-25630Y-18665D02*
D03*
X-24344Y-20197D02*
D03*
X25381Y19153D02*
D03*
X31344Y5210D02*
D03*
X30700Y-8200D02*
D03*
D67*
X25391Y-19156D02*
D03*
D68*
X-24141Y17690D02*
D03*
X-18945Y14690D02*
D03*
D69*
X3385Y31459D02*
D03*
D70*
X-23059Y-21729D02*
D03*
D71*
X24122Y20707D02*
D03*
D72*
X2000Y24000D02*
D03*
X-2000Y24000D02*
D03*
Y22000D02*
D03*
X0Y24000D02*
D03*
Y22000D02*
D03*
D73*
X2000Y22000D02*
D03*
D74*
X-18000Y25000D02*
D03*
X18000D02*
D03*
Y-25000D02*
D03*
X-18000D02*
D03*
D75*
X30997Y7179D02*
D03*
D76*
X31047Y-6230D02*
D03*
D77*
X-30225Y2434D02*
D03*
X-30225Y-2446D02*
D03*
M02*
