G04*
G04 #@! TF.GenerationSoftware,Altium Limited,Altium Designer,23.0.1 (38)*
G04*
G04 Layer_Physical_Order=4*
G04 Layer_Color=16711680*
%FSLAX43Y43*%
%MOMM*%
G71*
G04*
G04 #@! TF.SameCoordinates,849B8B9A-CF0B-4B68-86F2-F378DEA603F9*
G04*
G04*
G04 #@! TF.FilePolarity,Positive*
G04*
G01*
G75*
%ADD10C,0.200*%
G04:AMPARAMS|DCode=85|XSize=2.743mm|YSize=2.159mm|CornerRadius=0.27mm|HoleSize=0mm|Usage=FLASHONLY|Rotation=270.000|XOffset=0mm|YOffset=0mm|HoleType=Round|Shape=RoundedRectangle|*
%AMROUNDEDRECTD85*
21,1,2.743,1.619,0,0,270.0*
21,1,2.203,2.159,0,0,270.0*
1,1,0.540,-0.810,-1.102*
1,1,0.540,-0.810,1.102*
1,1,0.540,0.810,1.102*
1,1,0.540,0.810,-1.102*
%
%ADD85ROUNDEDRECTD85*%
%ADD126C,1.000*%
%ADD129C,0.190*%
%ADD130C,2.300*%
%ADD131C,1.700*%
%ADD132R,1.700X1.700*%
%ADD133C,1.400*%
%ADD134P,1.980X4X60.0*%
%ADD135C,1.200*%
%ADD136P,1.697X4X275.0*%
%ADD137C,0.900*%
%ADD138P,1.980X4X390.0*%
%ADD139P,1.697X4X175.0*%
%ADD140P,1.697X4X354.0*%
%ADD141C,1.428*%
%ADD142R,1.428X1.428*%
%ADD143C,2.400*%
%ADD144P,1.697X4X325.0*%
%ADD145P,1.697X4X305.0*%
%ADD146C,1.500*%
%ADD147C,0.600*%
G36*
X-4671Y30152D02*
X-4497Y30327D01*
X-4497Y30327D01*
X-4366Y30399D01*
X-3950Y30491D01*
X-3868Y30478D01*
X-3790Y30433D01*
X-3510Y30358D01*
X-3220D01*
X-3200Y30343D01*
Y19022D01*
X-3190Y18824D01*
X-3113Y18435D01*
X-2961Y18069D01*
X-2741Y17739D01*
X-2461Y17459D01*
X-2131Y17239D01*
X-1765Y17087D01*
X-1376Y17010D01*
X-1178Y17000D01*
X6851D01*
X6851Y17000D01*
X6851Y17000D01*
X6853D01*
X7313Y16977D01*
X7543Y16955D01*
X7996Y16865D01*
X8438Y16730D01*
X8865Y16553D01*
X9273Y16336D01*
X9657Y16079D01*
X10014Y15786D01*
X10178Y15622D01*
X12946Y12854D01*
X12876Y12783D01*
X12800Y12599D01*
Y12401D01*
X12876Y12217D01*
X13017Y12076D01*
X13201Y12000D01*
X13399D01*
X13583Y12076D01*
X13654Y12146D01*
X17359Y8441D01*
X17963Y7837D01*
X17963Y7836D01*
X17963Y7836D01*
X17966Y7834D01*
X18284Y7479D01*
X18382Y7359D01*
X18617Y7007D01*
X18817Y6634D01*
X18979Y6243D01*
X19102Y5838D01*
X19184Y5422D01*
X19226Y5001D01*
X19226Y4789D01*
X19226Y-5113D01*
X19226Y-5113D01*
X19226Y-5287D01*
X19192Y-5632D01*
X19124Y-5971D01*
X19024Y-6303D01*
X18891Y-6623D01*
X18728Y-6929D01*
X18535Y-7217D01*
X18315Y-7485D01*
X18193Y-7607D01*
X15204Y-10596D01*
X14557Y-11243D01*
X14424Y-11217D01*
X14283Y-11076D01*
X14099Y-11000D01*
X13901D01*
X13717Y-11076D01*
X13576Y-11217D01*
X13500Y-11401D01*
Y-11599D01*
X13576Y-11783D01*
X13476Y-12324D01*
X12172Y-13628D01*
X12172Y-13628D01*
X12045Y-13755D01*
X11767Y-13983D01*
X11468Y-14183D01*
X11151Y-14352D01*
X10818Y-14490D01*
X10474Y-14595D01*
X10121Y-14665D01*
X9763Y-14700D01*
X9583Y-14700D01*
X-1397D01*
X-1678Y-14328D01*
X-1699Y-14200D01*
X-1631Y-14124D01*
X-1540Y-14073D01*
X-1383Y-14069D01*
X-1338Y-14087D01*
X-1271Y-14115D01*
X-1072D01*
X-888Y-14039D01*
X-771Y-13922D01*
X-655Y-14039D01*
X-471Y-14115D01*
X-272D01*
X-88Y-14039D01*
X52Y-13898D01*
X129Y-13714D01*
Y-13516D01*
X52Y-13332D01*
X-88Y-13191D01*
X-272Y-13115D01*
X-471D01*
X-655Y-13191D01*
X-771Y-13308D01*
X-888Y-13191D01*
X-1072Y-13115D01*
X-1271D01*
X-1455Y-13191D01*
X-1495Y-13231D01*
X-1582Y-13296D01*
X-1809Y-13338D01*
X-2089Y-13346D01*
X-2133Y-13328D01*
X-2201Y-13300D01*
X-2399D01*
X-2583Y-13376D01*
X-2700Y-13493D01*
X-2817Y-13376D01*
X-3001Y-13300D01*
X-3199D01*
X-3383Y-13376D01*
X-3524Y-13517D01*
X-3600Y-13701D01*
Y-13899D01*
X-3524Y-14083D01*
X-3402Y-14250D01*
X-3524Y-14417D01*
X-3600Y-14601D01*
Y-14700D01*
X-16493D01*
X-16740Y-14259D01*
X-16675Y-14193D01*
X-16675Y-14193D01*
X-16599Y-14009D01*
Y-13810D01*
X-16675Y-13626D01*
X-16815Y-13486D01*
X-16999Y-13410D01*
X-17198D01*
X-17382Y-13486D01*
X-17523Y-13626D01*
X-17599Y-13810D01*
Y-14009D01*
X-17914Y-14454D01*
X-19863D01*
X-21444Y-12873D01*
Y-6331D01*
X-20784Y-5670D01*
X-20717Y-5571D01*
X-20694Y-5454D01*
X-20694Y-5454D01*
Y-5012D01*
X-20694Y-5011D01*
X-20717Y-4894D01*
X-20784Y-4795D01*
X-20784Y-4795D01*
X-21164Y-4415D01*
Y-4248D01*
X-21240Y-4064D01*
X-21281Y-3876D01*
X-21140Y-3735D01*
X-21140Y-3735D01*
X-21064Y-3551D01*
Y-3352D01*
X-21140Y-3169D01*
X-21281Y-3028D01*
X-21465Y-2952D01*
X-21664D01*
X-21847Y-3028D01*
X-22039Y-3162D01*
X-22330Y-3128D01*
X-22514Y-3052D01*
X-22692Y-2552D01*
X-21829Y-1689D01*
X-21348Y-1544D01*
X-21207Y-1685D01*
X-21023Y-1761D01*
X-20824D01*
X-20640Y-1685D01*
X-20500Y-1544D01*
X-20424Y-1361D01*
Y-1289D01*
X-20297Y-1066D01*
X-20011Y-851D01*
X-19976D01*
X-19792Y-775D01*
X-19651Y-635D01*
X-19575Y-451D01*
Y-252D01*
X-19651Y-68D01*
X-19792Y73D01*
X-19976Y149D01*
X-19986D01*
X-20265Y308D01*
X-20424Y587D01*
Y597D01*
X-20500Y781D01*
X-20640Y921D01*
X-20824Y997D01*
X-21023D01*
X-21207Y921D01*
X-21348Y781D01*
X-21424Y597D01*
Y398D01*
X-21348Y214D01*
X-21207Y73D01*
X-21347Y-68D01*
X-21348Y-68D01*
X-21424Y-252D01*
Y-419D01*
X-23430Y-2425D01*
X-23496Y-2524D01*
X-23519Y-2641D01*
X-23519Y-2641D01*
Y-11863D01*
X-23637Y-11981D01*
X-23713Y-12165D01*
Y-12363D01*
X-23637Y-12547D01*
X-23497Y-12688D01*
X-23555Y-12820D01*
X-23565Y-12829D01*
X-23641Y-13013D01*
Y-13212D01*
X-23565Y-13396D01*
X-23424Y-13537D01*
X-23240Y-13613D01*
X-23041D01*
X-22858Y-13537D01*
X-22717Y-13396D01*
X-22504Y-13354D01*
X-21620Y-14238D01*
X-21811Y-14700D01*
X-26100D01*
X-26238Y-14700D01*
X-26508Y-14646D01*
X-26763Y-14541D01*
X-26993Y-14387D01*
X-27188Y-14192D01*
X-27341Y-13963D01*
X-27447Y-13708D01*
X-27500Y-13438D01*
X-27500Y-13300D01*
Y-4611D01*
X-27000Y-4551D01*
X-26952Y-4636D01*
X-26901Y-4687D01*
X-26811Y-4777D01*
X-26627Y-4853D01*
X-26428D01*
X-26244Y-4777D01*
X-26104Y-4636D01*
X-26028Y-4453D01*
Y-4254D01*
X-26104Y-4070D01*
X-26244Y-3929D01*
X-26428Y-3853D01*
X-26627D01*
X-26811Y-3929D01*
X-26952Y-4070D01*
X-27000Y-4155D01*
X-27500Y-4095D01*
Y4096D01*
X-27000Y4146D01*
X-26946Y4055D01*
X-26897Y4006D01*
X-26806Y3914D01*
X-26622Y3838D01*
X-26423D01*
X-26239Y3914D01*
X-26098Y4055D01*
X-26022Y4239D01*
Y4438D01*
X-26098Y4622D01*
X-26239Y4762D01*
X-26423Y4838D01*
X-26622D01*
X-26806Y4762D01*
X-26946Y4622D01*
X-27000Y4531D01*
X-27500Y4580D01*
Y13100D01*
X-27500Y13100D01*
X-27429Y13570D01*
X-27330Y13810D01*
X-27165Y14056D01*
X-26956Y14265D01*
X-26711Y14429D01*
X-26438Y14542D01*
X-26148Y14600D01*
X-26000Y14600D01*
X-19845Y14600D01*
Y14572D01*
X-19784Y14343D01*
X-19665Y14138D01*
X-19498Y13970D01*
X-19292Y13851D01*
X-19064Y13790D01*
X-18827Y13790D01*
X-18598Y13851D01*
X-18392Y13970D01*
X-18225Y14138D01*
X-17916Y14341D01*
X-17620Y14339D01*
X-17487D01*
X-17391Y14315D01*
X-17029Y14029D01*
X-17017Y14007D01*
X-16949Y13842D01*
X-16808Y13701D01*
X-16624Y13625D01*
X-16426D01*
X-16242Y13701D01*
X-16101Y13842D01*
X-16025Y14026D01*
Y14224D01*
X-15640Y14600D01*
X-15600D01*
X-15100Y14501D01*
X-15024Y14317D01*
X-14883Y14176D01*
X-14699Y14100D01*
X-14501D01*
X-14317Y14176D01*
X-14176Y14317D01*
X-13709Y14397D01*
X-13330Y14057D01*
Y11048D01*
X-17095Y7283D01*
X-17262D01*
X-17446Y7207D01*
X-17741Y7223D01*
X-17924Y7299D01*
X-18123D01*
X-18307Y7223D01*
X-18448Y7082D01*
X-18524Y6898D01*
Y6699D01*
X-18522Y6695D01*
X-18946Y6412D01*
X-20379Y7845D01*
X-20348Y8049D01*
X-20211Y8384D01*
X-20143Y8412D01*
X-20121Y8421D01*
X-19824Y8514D01*
X-19524Y8424D01*
X-19500Y8414D01*
X-19340Y8347D01*
X-19142D01*
X-18958Y8424D01*
X-18817Y8564D01*
X-18741Y8748D01*
Y8947D01*
X-18817Y9131D01*
X-18958Y9271D01*
X-19142Y9347D01*
X-19340D01*
X-19502Y9281D01*
X-19524Y9271D01*
X-19821Y9178D01*
X-20121Y9269D01*
X-20145Y9279D01*
X-20304Y9345D01*
X-20503D01*
X-20687Y9269D01*
X-20828Y9128D01*
X-20865Y9038D01*
X-21200Y8900D01*
X-21404Y8870D01*
X-22919Y10385D01*
X-22703Y10876D01*
X-22699D01*
X-22515Y10952D01*
X-22374Y11093D01*
X-22298Y11277D01*
Y11476D01*
X-22374Y11660D01*
X-22515Y11800D01*
X-22699Y11876D01*
X-22981Y12017D01*
X-23147Y12299D01*
X-23223Y12483D01*
X-23364Y12624D01*
X-23547Y12700D01*
X-23746D01*
X-23930Y12624D01*
X-24071Y12483D01*
X-24147Y12299D01*
Y12101D01*
X-24071Y11917D01*
X-23942Y11788D01*
X-24071Y11660D01*
X-24147Y11476D01*
Y11277D01*
X-24412Y10807D01*
X-24632Y10727D01*
X-24686Y10750D01*
X-24885D01*
X-25069Y10674D01*
X-25199Y10544D01*
X-25323Y10668D01*
X-25506Y10744D01*
X-25705D01*
X-25889Y10668D01*
X-26030Y10528D01*
X-26106Y10344D01*
Y10145D01*
X-26030Y9961D01*
X-25889Y9821D01*
X-25705Y9744D01*
X-25506D01*
X-25423Y9738D01*
X-25078Y9621D01*
X-24933Y9503D01*
X-24926Y9493D01*
X-23716Y8284D01*
X-23716Y8284D01*
X-23617Y8217D01*
X-23500Y8194D01*
X-22419D01*
X-16768Y2543D01*
X-16739Y2463D01*
X-16738Y1932D01*
X-16814Y1748D01*
Y1549D01*
X-16738Y1365D01*
X-16598Y1225D01*
X-16414Y1149D01*
X-16379D01*
X-16121Y1002D01*
X-15941Y721D01*
Y701D01*
X-15865Y517D01*
X-15724Y376D01*
X-15540Y300D01*
X-15341D01*
X-15157Y376D01*
X-15017Y517D01*
X-14941Y701D01*
Y899D01*
X-15017Y1083D01*
X-15157Y1224D01*
X-15017Y1365D01*
X-14941Y1549D01*
Y1748D01*
X-15017Y1932D01*
X-15136Y2104D01*
X-15017Y2275D01*
X-14941Y2459D01*
Y2658D01*
X-15017Y2842D01*
X-15157Y2982D01*
X-15341Y3059D01*
X-15540D01*
X-15724Y2982D01*
X-16257Y2960D01*
X-16317Y2978D01*
X-16591Y3354D01*
X-16395Y3794D01*
X-15001D01*
X-14883Y3676D01*
X-14699Y3600D01*
X-14501D01*
X-14317Y3676D01*
X-14200Y3793D01*
X-14083Y3676D01*
X-13899Y3600D01*
X-13701D01*
X-13517Y3676D01*
X-13376Y3817D01*
X-13300Y4001D01*
Y4199D01*
X-13322Y4252D01*
X-13304Y4316D01*
X-13108Y4628D01*
X-13013Y4714D01*
X-12990D01*
X-12806Y4791D01*
X-12665Y4931D01*
X-12589Y5115D01*
Y5314D01*
X-12665Y5498D01*
X-12806Y5638D01*
X-12990Y5714D01*
X-13189D01*
X-13372Y5638D01*
X-13513Y5498D01*
X-13589Y5314D01*
X-14062Y5050D01*
X-14130Y5071D01*
X-14176Y5183D01*
X-14317Y5324D01*
X-14501Y5400D01*
X-14667Y5900D01*
X-9384Y11184D01*
X-9317Y11283D01*
X-9294Y11400D01*
X-9294Y11400D01*
Y17081D01*
X-8999Y17500D01*
X-8801D01*
X-8617Y17576D01*
X-8476Y17717D01*
X-8400Y17901D01*
Y18099D01*
X-8476Y18283D01*
X-8617Y18424D01*
X-8801Y18500D01*
X-8999D01*
X-9294Y18919D01*
Y28805D01*
X-9016D01*
X-8736Y28880D01*
X-8485Y29025D01*
X-8280Y29230D01*
X-8006Y29458D01*
X-7679Y29402D01*
X-7641Y29395D01*
X-7374Y29323D01*
X-7084D01*
X-6804Y29398D01*
X-6553Y29543D01*
X-6349Y29747D01*
X-6303Y29826D01*
X-6085Y30001D01*
X-5683Y30009D01*
X-5683Y30009D01*
X-5444Y29945D01*
X-5683Y30837D01*
X-4911Y31044D01*
X-4671Y30152D01*
D02*
G37*
G36*
X1523Y30423D02*
X2999D01*
X4163Y30111D01*
X4234Y30375D01*
X4368Y30385D01*
X4437Y30266D01*
X4642Y30061D01*
X4893Y29916D01*
X5173Y29841D01*
X5462D01*
X5742Y29916D01*
X5993Y30061D01*
X6072Y30140D01*
X6195Y30108D01*
X6224Y29999D01*
X6369Y29748D01*
X6574Y29543D01*
X6825Y29398D01*
X7104Y29323D01*
X7394D01*
X7674Y29398D01*
X7925Y29543D01*
X8004Y29623D01*
X8127Y29590D01*
X8156Y29481D01*
X8301Y29230D01*
X8506Y29025D01*
X8756Y28881D01*
X9036Y28806D01*
X9326D01*
X9606Y28881D01*
X9856Y29025D01*
X10004Y29173D01*
X10145Y29135D01*
X10181Y29002D01*
X10313Y28774D01*
X10487Y28599D01*
X10727Y29492D01*
X11499Y29285D01*
X11260Y28392D01*
X11499Y28456D01*
X11727Y28588D01*
X11824Y28685D01*
X11966Y28647D01*
X12020Y28446D01*
X12165Y28195D01*
X12369Y27990D01*
X12620Y27845D01*
X12900Y27770D01*
X13190D01*
X13469Y27845D01*
X13720Y27990D01*
X13774Y28044D01*
X13892Y27996D01*
Y25456D01*
X13765Y25407D01*
X13599Y25475D01*
X13401D01*
X13217Y25399D01*
X13076Y25258D01*
X13000Y25074D01*
Y24876D01*
X13076Y24692D01*
X13217Y24551D01*
X13401Y24475D01*
X13599D01*
X13783Y24551D01*
X13790Y24558D01*
X13922Y24510D01*
X13936Y24373D01*
X14013Y23982D01*
X14129Y23601D01*
X14281Y23234D01*
X14469Y22883D01*
X14690Y22552D01*
X14942Y22244D01*
X15080Y22100D01*
X25078Y12101D01*
X25078Y12101D01*
X25209Y11971D01*
X25443Y11686D01*
X25648Y11379D01*
X25822Y11053D01*
X25963Y10712D01*
X26070Y10359D01*
X26142Y9997D01*
X26178Y9630D01*
X26178Y9445D01*
X26178Y-6054D01*
Y-8142D01*
X26079D01*
X25895Y-8218D01*
X25754Y-8359D01*
X25678Y-8543D01*
Y-8742D01*
X25754Y-8925D01*
X25895Y-9066D01*
X26079Y-9142D01*
X26178D01*
Y-10545D01*
X26178Y-10545D01*
X26178Y-10706D01*
X26147Y-11025D01*
X26084Y-11339D01*
X25991Y-11646D01*
X25869Y-11942D01*
X25717Y-12225D01*
X25539Y-12491D01*
X25336Y-12739D01*
X25223Y-12852D01*
X19988Y-18087D01*
X19867Y-18208D01*
X19604Y-18424D01*
X19321Y-18613D01*
X19021Y-18773D01*
X18706Y-18904D01*
X18380Y-19003D01*
X18046Y-19069D01*
X17707Y-19102D01*
X7002D01*
X6904Y-19102D01*
X6710Y-19064D01*
X6528Y-18988D01*
X6363Y-18879D01*
X6224Y-18739D01*
X6114Y-18575D01*
X6039Y-18392D01*
X6000Y-18199D01*
X6000Y-18100D01*
Y-16100D01*
X6000Y-16100D01*
X6006Y-15975D01*
X6037Y-15816D01*
X6111Y-15638D01*
X6218Y-15478D01*
X6353Y-15343D01*
X6513Y-15236D01*
X6691Y-15162D01*
X6879Y-15125D01*
X6975Y-15125D01*
X10491Y-15125D01*
X10655Y-15121D01*
X10981Y-15089D01*
X11303Y-15025D01*
X11617Y-14930D01*
X11920Y-14804D01*
X12209Y-14650D01*
X12481Y-14468D01*
X12735Y-14260D01*
X12854Y-14146D01*
X18964Y-8036D01*
X18964Y-8036D01*
X18964Y-8036D01*
X19083Y-7911D01*
X19304Y-7642D01*
X19497Y-7353D01*
X19660Y-7047D01*
X19793Y-6726D01*
X19894Y-6394D01*
X19962Y-6054D01*
X19996Y-5708D01*
X20000Y-5534D01*
X20000Y5434D01*
X20000Y5434D01*
X20000Y5434D01*
X19996Y5614D01*
X19960Y5973D01*
X19890Y6327D01*
X19785Y6672D01*
X19647Y7004D01*
X19478Y7322D01*
X19277Y7622D01*
X19049Y7901D01*
X18924Y8031D01*
X8877Y18078D01*
X8948Y18149D01*
X9024Y18332D01*
Y18531D01*
X8948Y18715D01*
X8807Y18856D01*
X8623Y18932D01*
X8424D01*
X8240Y18856D01*
X8170Y18785D01*
X7029Y19926D01*
Y20003D01*
X6953Y20187D01*
X6812Y20328D01*
X6628Y20404D01*
X6552D01*
X6450Y20506D01*
Y20642D01*
X6373Y20825D01*
X6233Y20966D01*
X6049Y21042D01*
X5850D01*
X5666Y20966D01*
X5526Y20825D01*
X5450Y20642D01*
Y20517D01*
X-34D01*
X-156Y20517D01*
X-383Y20611D01*
X-556Y20784D01*
X-650Y21011D01*
X-650Y21058D01*
X-523Y21131D01*
X-400Y21060D01*
Y22000D01*
X400D01*
Y21060D01*
X623Y21188D01*
X811Y21377D01*
X859Y21460D01*
X986Y21426D01*
Y20986D01*
X1600D01*
Y22000D01*
X2000D01*
Y22400D01*
X3014D01*
Y23014D01*
X2574D01*
X2540Y23141D01*
X2623Y23188D01*
X2811Y23377D01*
X2940Y23600D01*
X2000D01*
Y24000D01*
X1600D01*
Y24940D01*
X1377Y24811D01*
X1189Y24622D01*
X1131Y24523D01*
X984D01*
X891Y24684D01*
X684Y24891D01*
X495Y25000D01*
Y26432D01*
X622Y26445D01*
X648Y26315D01*
X752Y26160D01*
X900Y26060D01*
Y27600D01*
Y29140D01*
X752Y29040D01*
X648Y28885D01*
X622Y28755D01*
X495Y28768D01*
Y29395D01*
X495Y29395D01*
X500Y29520D01*
X534Y29695D01*
X612Y29882D01*
X725Y30051D01*
X868Y30194D01*
X1036Y30306D01*
X1223Y30384D01*
X1422Y30423D01*
X1523Y30423D01*
D02*
G37*
%LPC*%
G36*
X-6059Y18870D02*
X-6258D01*
X-6441Y18794D01*
X-6582Y18653D01*
X-6658Y18469D01*
Y18270D01*
X-6582Y18086D01*
X-6441Y17946D01*
X-6258Y17870D01*
X-6059D01*
X-5875Y17946D01*
X-5734Y18086D01*
X-5658Y18270D01*
Y18469D01*
X-5734Y18653D01*
X-5875Y18794D01*
X-6059Y18870D01*
D02*
G37*
G36*
X-6062Y16681D02*
X-6261D01*
X-6445Y16605D01*
X-6585Y16465D01*
X-6662Y16281D01*
Y16082D01*
X-6585Y15898D01*
X-6445Y15757D01*
X-6261Y15681D01*
X-6062D01*
X-5878Y15757D01*
X-5738Y15898D01*
X-5662Y16082D01*
Y16281D01*
X-5738Y16465D01*
X-5878Y16605D01*
X-6062Y16681D01*
D02*
G37*
G36*
X-8178Y13601D02*
X-8377D01*
X-8560Y13525D01*
X-8701Y13384D01*
X-8777Y13200D01*
Y13002D01*
X-8701Y12818D01*
X-8560Y12677D01*
X-8377Y12601D01*
X-8178D01*
X-7994Y12677D01*
X-7853Y12818D01*
X-7777Y13002D01*
Y13200D01*
X-7853Y13384D01*
X-7994Y13525D01*
X-8178Y13601D01*
D02*
G37*
G36*
X10399Y12500D02*
X10201D01*
X10017Y12424D01*
X9876Y12283D01*
X9800Y12099D01*
Y11901D01*
X9876Y11717D01*
X10017Y11576D01*
X10201Y11500D01*
X10399D01*
X10583Y11576D01*
X10724Y11717D01*
X10800Y11901D01*
Y12099D01*
X10724Y12283D01*
X10583Y12424D01*
X10399Y12500D01*
D02*
G37*
G36*
X-7802Y11688D02*
X-8001D01*
X-8185Y11612D01*
X-8325Y11471D01*
X-8401Y11287D01*
Y11088D01*
X-8325Y10905D01*
X-8185Y10764D01*
X-8001Y10688D01*
X-7802D01*
X-7618Y10764D01*
X-7477Y10905D01*
X-7401Y11088D01*
Y11287D01*
X-7477Y11471D01*
X-7618Y11612D01*
X-7802Y11688D01*
D02*
G37*
G36*
X-18564Y10913D02*
X-18763D01*
X-18947Y10837D01*
X-19088Y10696D01*
X-19164Y10513D01*
Y10314D01*
X-19088Y10130D01*
X-18947Y9989D01*
X-18763Y9913D01*
X-18564D01*
X-18381Y9989D01*
X-18240Y10130D01*
X-18164Y10314D01*
Y10513D01*
X-18240Y10696D01*
X-18381Y10837D01*
X-18564Y10913D01*
D02*
G37*
G36*
X-25448Y8517D02*
X-25647D01*
X-25831Y8441D01*
X-25972Y8300D01*
X-26048Y8117D01*
Y7918D01*
X-25972Y7734D01*
X-25831Y7593D01*
X-25647Y7517D01*
X-25448D01*
X-25265Y7593D01*
X-25124Y7734D01*
X-25048Y7918D01*
Y8117D01*
X-25124Y8300D01*
X-25265Y8441D01*
X-25448Y8517D01*
D02*
G37*
G36*
X15099Y6200D02*
X14901D01*
X14717Y6124D01*
X14576Y5983D01*
X14500Y5799D01*
Y5601D01*
X14576Y5417D01*
X14717Y5276D01*
X14901Y5200D01*
X15099D01*
X15283Y5276D01*
X15424Y5417D01*
X15500Y5601D01*
Y5799D01*
X15424Y5983D01*
X15283Y6124D01*
X15099Y6200D01*
D02*
G37*
G36*
X9861Y5886D02*
X9663D01*
X9479Y5810D01*
X9338Y5669D01*
X9262Y5485D01*
Y5286D01*
X9338Y5103D01*
X9479Y4962D01*
X9663Y4886D01*
X9861D01*
X10045Y4962D01*
X10186Y5103D01*
X10262Y5286D01*
Y5485D01*
X10186Y5669D01*
X10045Y5810D01*
X9861Y5886D01*
D02*
G37*
G36*
X17799Y5300D02*
X17601D01*
X17417Y5224D01*
X17276Y5083D01*
X17200Y4899D01*
Y4701D01*
X17276Y4517D01*
X17417Y4376D01*
X17601Y4300D01*
X17799D01*
X17983Y4376D01*
X18124Y4517D01*
X18200Y4701D01*
Y4899D01*
X18124Y5083D01*
X17983Y5224D01*
X17799Y5300D01*
D02*
G37*
G36*
X-24488Y4838D02*
X-24687D01*
X-24871Y4762D01*
X-25011Y4622D01*
X-25087Y4438D01*
Y4239D01*
X-25011Y4055D01*
X-24871Y3915D01*
X-24687Y3838D01*
X-24488D01*
X-24304Y3915D01*
X-24164Y4055D01*
X-24088Y4239D01*
Y4438D01*
X-24164Y4622D01*
X-24304Y4762D01*
X-24488Y4838D01*
D02*
G37*
G36*
X-2002Y3700D02*
X-2200D01*
X-2384Y3624D01*
X-2525Y3483D01*
X-2601Y3299D01*
Y3100D01*
X-2525Y2917D01*
X-2384Y2776D01*
X-2200Y2700D01*
X-2002D01*
X-1818Y2776D01*
X-1677Y2917D01*
X-1601Y3100D01*
Y3299D01*
X-1677Y3483D01*
X-1818Y3624D01*
X-2002Y3700D01*
D02*
G37*
G36*
X-20335Y3548D02*
X-20534D01*
X-20718Y3472D01*
X-20859Y3332D01*
X-20935Y3148D01*
Y2949D01*
X-20859Y2765D01*
X-20718Y2624D01*
X-20534Y2548D01*
X-20335D01*
X-20152Y2624D01*
X-20011Y2765D01*
X-19935Y2949D01*
Y3148D01*
X-20011Y3332D01*
X-20152Y3472D01*
X-20335Y3548D01*
D02*
G37*
G36*
X3299Y2600D02*
X3100D01*
X2916Y2524D01*
X2775Y2383D01*
X2699Y2200D01*
Y2001D01*
X2775Y1817D01*
X2916Y1676D01*
X3100Y1600D01*
X3299D01*
X3482Y1676D01*
X3623Y1817D01*
X3699Y2001D01*
Y2200D01*
X3623Y2383D01*
X3482Y2524D01*
X3299Y2600D01*
D02*
G37*
G36*
X-1945Y1731D02*
X-2144D01*
X-2328Y1655D01*
X-2468Y1514D01*
X-2544Y1331D01*
Y1132D01*
X-2468Y948D01*
X-2328Y807D01*
X-2144Y731D01*
X-1945D01*
X-1761Y807D01*
X-1621Y948D01*
X-1544Y1132D01*
Y1331D01*
X-1621Y1514D01*
X-1761Y1655D01*
X-1945Y1731D01*
D02*
G37*
G36*
X11095Y911D02*
X10896D01*
X10712Y835D01*
X10572Y694D01*
X10496Y510D01*
Y311D01*
X10572Y127D01*
X10712Y-13D01*
X10896Y-89D01*
X11095D01*
X11279Y-13D01*
X11420Y127D01*
X11496Y311D01*
Y510D01*
X11420Y694D01*
X11279Y835D01*
X11095Y911D01*
D02*
G37*
G36*
X17178Y-1233D02*
X16980D01*
X16796Y-1310D01*
X16655Y-1450D01*
X16579Y-1634D01*
Y-1833D01*
X16655Y-2017D01*
X16796Y-2157D01*
X16980Y-2233D01*
X17178D01*
X17362Y-2157D01*
X17503Y-2017D01*
X17579Y-1833D01*
Y-1634D01*
X17503Y-1450D01*
X17362Y-1310D01*
X17178Y-1233D01*
D02*
G37*
G36*
X992Y-1594D02*
X793D01*
X609Y-1670D01*
X468Y-1811D01*
X392Y-1994D01*
Y-2193D01*
X468Y-2377D01*
X609Y-2518D01*
X793Y-2594D01*
X992D01*
X1175Y-2518D01*
X1316Y-2377D01*
X1392Y-2193D01*
Y-1994D01*
X1316Y-1811D01*
X1175Y-1670D01*
X992Y-1594D01*
D02*
G37*
G36*
X-801Y-1600D02*
X-999D01*
X-1183Y-1676D01*
X-1324Y-1817D01*
X-1400Y-2001D01*
Y-2199D01*
X-1324Y-2383D01*
X-1183Y-2524D01*
X-999Y-2600D01*
X-801D01*
X-617Y-2524D01*
X-476Y-2383D01*
X-400Y-2199D01*
Y-2001D01*
X-476Y-1817D01*
X-617Y-1676D01*
X-801Y-1600D01*
D02*
G37*
G36*
X-16201Y-2500D02*
X-16399D01*
X-16539Y-2558D01*
X-16574Y-2572D01*
X-16587Y-2577D01*
X-16859Y-2647D01*
X-17128Y-2595D01*
X-17169Y-2583D01*
X-17204Y-2569D01*
X-17333Y-2515D01*
X-17532D01*
X-17715Y-2591D01*
X-17856Y-2732D01*
X-17932Y-2916D01*
Y-3115D01*
X-17856Y-3298D01*
X-17715Y-3439D01*
X-17532Y-3515D01*
X-17333D01*
X-17193Y-3457D01*
X-17158Y-3443D01*
X-17145Y-3438D01*
X-16874Y-3368D01*
X-16604Y-3420D01*
X-16564Y-3432D01*
X-16528Y-3447D01*
X-16399Y-3500D01*
X-16201D01*
X-16017Y-3424D01*
X-15876Y-3283D01*
X-15800Y-3099D01*
Y-2901D01*
X-15876Y-2717D01*
X-16017Y-2576D01*
X-16201Y-2500D01*
D02*
G37*
G36*
X17699Y-2700D02*
X17501D01*
X17317Y-2776D01*
X17176Y-2917D01*
X17100Y-3101D01*
Y-3299D01*
X17176Y-3483D01*
X17317Y-3624D01*
X17501Y-3700D01*
X17699D01*
X17883Y-3624D01*
X18024Y-3483D01*
X18100Y-3299D01*
Y-3101D01*
X18024Y-2917D01*
X17883Y-2776D01*
X17699Y-2700D01*
D02*
G37*
G36*
X-24466Y-3851D02*
X-24664D01*
X-24848Y-3927D01*
X-24989Y-4067D01*
X-25065Y-4251D01*
Y-4450D01*
X-24989Y-4634D01*
X-24848Y-4774D01*
X-24664Y-4851D01*
X-24466D01*
X-24282Y-4774D01*
X-24141Y-4634D01*
X-24065Y-4450D01*
Y-4251D01*
X-24141Y-4067D01*
X-24282Y-3927D01*
X-24466Y-3851D01*
D02*
G37*
G36*
X10104Y-4704D02*
X9905D01*
X9721Y-4780D01*
X9581Y-4920D01*
X9505Y-5104D01*
Y-5303D01*
X9581Y-5487D01*
X9721Y-5628D01*
X9905Y-5704D01*
X10104D01*
X10288Y-5628D01*
X10428Y-5487D01*
X10505Y-5303D01*
Y-5104D01*
X10428Y-4920D01*
X10288Y-4780D01*
X10104Y-4704D01*
D02*
G37*
G36*
X-12533Y-5909D02*
X-12732D01*
X-12916Y-5985D01*
X-13057Y-6126D01*
X-13133Y-6310D01*
Y-6509D01*
X-13057Y-6692D01*
X-12916Y-6833D01*
X-12732Y-6909D01*
X-12533D01*
X-12350Y-6833D01*
X-12209Y-6692D01*
X-12133Y-6509D01*
Y-6310D01*
X-12209Y-6126D01*
X-12350Y-5985D01*
X-12533Y-5909D01*
D02*
G37*
G36*
X-12551Y-7860D02*
X-12750D01*
X-12934Y-7936D01*
X-13074Y-8077D01*
X-13150Y-8260D01*
Y-8459D01*
X-13074Y-8643D01*
X-12934Y-8784D01*
X-12750Y-8860D01*
X-12551D01*
X-12367Y-8784D01*
X-12227Y-8643D01*
X-12150Y-8459D01*
Y-8260D01*
X-12227Y-8077D01*
X-12367Y-7936D01*
X-12551Y-7860D01*
D02*
G37*
G36*
X12799Y-8400D02*
X12601D01*
X12417Y-8476D01*
X12276Y-8617D01*
X12200Y-8801D01*
Y-8999D01*
X12276Y-9183D01*
X12417Y-9324D01*
X12601Y-9400D01*
X12799D01*
X12983Y-9324D01*
X13124Y-9183D01*
X13200Y-8999D01*
Y-8801D01*
X13124Y-8617D01*
X12983Y-8476D01*
X12799Y-8400D01*
D02*
G37*
G36*
X-19006Y-7852D02*
X-19205D01*
X-19389Y-7928D01*
X-19530Y-8069D01*
X-19606Y-8253D01*
Y-8452D01*
X-19530Y-8635D01*
X-19425Y-8851D01*
X-19530Y-9067D01*
X-19606Y-9251D01*
Y-9449D01*
X-19530Y-9633D01*
X-19423Y-9832D01*
X-19535Y-10027D01*
X-19611Y-10210D01*
Y-10409D01*
X-19535Y-10593D01*
X-19394Y-10734D01*
X-19210Y-10810D01*
X-19011D01*
X-18827Y-10734D01*
X-18709Y-10616D01*
X-17027D01*
X-16909Y-10734D01*
X-16725Y-10810D01*
X-16526D01*
X-16343Y-10734D01*
X-16202Y-10593D01*
X-16126Y-10409D01*
Y-10210D01*
X-16202Y-10027D01*
X-16312Y-9832D01*
X-16202Y-9638D01*
X-16126Y-9454D01*
Y-9256D01*
X-16202Y-9072D01*
X-16306Y-8856D01*
X-16202Y-8640D01*
X-16126Y-8457D01*
Y-8258D01*
X-16202Y-8074D01*
X-16343Y-7933D01*
X-16526Y-7857D01*
X-16725D01*
X-16909Y-7933D01*
X-17024Y-8049D01*
X-18702D01*
X-18822Y-7928D01*
X-19006Y-7852D01*
D02*
G37*
G36*
X-12551Y-9813D02*
X-12750D01*
X-12934Y-9889D01*
X-13074Y-10029D01*
X-13150Y-10213D01*
Y-10412D01*
X-13074Y-10596D01*
X-12934Y-10736D01*
X-12750Y-10813D01*
X-12551D01*
X-12367Y-10736D01*
X-12227Y-10596D01*
X-12150Y-10412D01*
Y-10213D01*
X-12227Y-10029D01*
X-12367Y-9889D01*
X-12551Y-9813D01*
D02*
G37*
G36*
X5899Y-9900D02*
X5701D01*
X5517Y-9976D01*
X5376Y-10117D01*
X5300Y-10301D01*
Y-10499D01*
X5376Y-10683D01*
X5517Y-10824D01*
X5701Y-10900D01*
X5899D01*
X6083Y-10824D01*
X6224Y-10683D01*
X6300Y-10499D01*
Y-10301D01*
X6224Y-10117D01*
X6083Y-9976D01*
X5899Y-9900D01*
D02*
G37*
G36*
X-19012Y-11758D02*
X-19211D01*
X-19395Y-11834D01*
X-19535Y-11975D01*
X-19611Y-12159D01*
Y-12358D01*
X-19535Y-12541D01*
X-19395Y-12682D01*
X-19211Y-12758D01*
X-19012D01*
X-18828Y-12682D01*
X-18687Y-12541D01*
X-18611Y-12358D01*
Y-12159D01*
X-18687Y-11975D01*
X-18828Y-11834D01*
X-19012Y-11758D01*
D02*
G37*
G36*
X-25448Y-11972D02*
X-25647D01*
X-25831Y-12048D01*
X-25972Y-12189D01*
X-26048Y-12373D01*
Y-12572D01*
X-25972Y-12755D01*
X-25831Y-12896D01*
X-25647Y-12972D01*
X-25448D01*
X-25265Y-12896D01*
X-25124Y-12755D01*
X-25048Y-12572D01*
Y-12373D01*
X-25124Y-12189D01*
X-25265Y-12048D01*
X-25448Y-11972D01*
D02*
G37*
G36*
X2900Y29140D02*
Y28600D01*
X3189D01*
Y28702D01*
X3152Y28885D01*
X3048Y29040D01*
X2900Y29140D01*
D02*
G37*
G36*
X3189Y26600D02*
X2900D01*
Y26060D01*
X3048Y26160D01*
X3152Y26315D01*
X3189Y26498D01*
Y26600D01*
D02*
G37*
G36*
X5666Y25256D02*
X5467D01*
X5283Y25180D01*
X5145Y25042D01*
X5007Y25180D01*
X4823Y25256D01*
X4624D01*
X4441Y25180D01*
X4300Y25040D01*
X4224Y24856D01*
Y24657D01*
X4300Y24473D01*
X4441Y24332D01*
X4624Y24256D01*
X4823D01*
X5007Y24332D01*
X5145Y24470D01*
X5283Y24332D01*
X5467Y24256D01*
X5666D01*
X5849Y24332D01*
X5990Y24473D01*
X6066Y24657D01*
Y24856D01*
X5990Y25040D01*
X5849Y25180D01*
X5666Y25256D01*
D02*
G37*
G36*
X8606Y25512D02*
X8407D01*
X8223Y25436D01*
X8082Y25295D01*
X8006Y25112D01*
Y24913D01*
X8082Y24729D01*
X8223Y24588D01*
X8407Y24512D01*
X8606D01*
X8789Y24588D01*
X8930Y24729D01*
X9006Y24913D01*
Y25112D01*
X8930Y25295D01*
X8789Y25436D01*
X8606Y25512D01*
D02*
G37*
G36*
X2400Y24940D02*
Y24400D01*
X2940D01*
X2811Y24622D01*
X2623Y24811D01*
X2400Y24940D01*
D02*
G37*
G36*
X10146Y22988D02*
X9947D01*
X9763Y22912D01*
X9623Y22771D01*
X9547Y22587D01*
Y22388D01*
X9623Y22205D01*
X9763Y22064D01*
X9947Y21988D01*
X10146D01*
X10330Y22064D01*
X10470Y22205D01*
X10547Y22388D01*
Y22587D01*
X10470Y22771D01*
X10330Y22912D01*
X10146Y22988D01*
D02*
G37*
G36*
X8623Y22988D02*
X8424D01*
X8240Y22912D01*
X8100Y22771D01*
X8024Y22587D01*
Y22388D01*
X8100Y22205D01*
X8240Y22064D01*
X8424Y21988D01*
X8623D01*
X8807Y22064D01*
X8948Y22205D01*
X9024Y22388D01*
Y22587D01*
X8948Y22771D01*
X8807Y22912D01*
X8623Y22988D01*
D02*
G37*
G36*
X13388Y22866D02*
X13189D01*
X13005Y22790D01*
X12864Y22650D01*
X12788Y22466D01*
Y22267D01*
X12864Y22083D01*
X13005Y21942D01*
X13189Y21866D01*
X13388D01*
X13571Y21942D01*
X13712Y22083D01*
X13788Y22267D01*
Y22466D01*
X13712Y22650D01*
X13571Y22790D01*
X13388Y22866D01*
D02*
G37*
G36*
X11706Y22463D02*
X11507D01*
X11323Y22387D01*
X11183Y22246D01*
X11107Y22062D01*
Y21863D01*
X11183Y21680D01*
X11323Y21539D01*
X11507Y21463D01*
X11706D01*
X11890Y21539D01*
X12031Y21680D01*
X12107Y21863D01*
Y22062D01*
X12031Y22246D01*
X11890Y22387D01*
X11706Y22463D01*
D02*
G37*
G36*
X3014Y21600D02*
X2400D01*
Y20986D01*
X3014D01*
Y21600D01*
D02*
G37*
G36*
X14610Y21881D02*
X14411D01*
X14227Y21805D01*
X14086Y21664D01*
X14010Y21481D01*
Y21282D01*
X14086Y21098D01*
X14227Y20957D01*
X14411Y20881D01*
X14610D01*
X14794Y20957D01*
X14934Y21098D01*
X15010Y21282D01*
Y21481D01*
X14934Y21664D01*
X14794Y21805D01*
X14610Y21881D01*
D02*
G37*
G36*
X10146Y18932D02*
X9947D01*
X9763Y18856D01*
X9623Y18715D01*
X9547Y18531D01*
Y18332D01*
X9623Y18149D01*
X9763Y18008D01*
X9947Y17932D01*
X10146D01*
X10330Y18008D01*
X10470Y18149D01*
X10547Y18332D01*
Y18531D01*
X10470Y18715D01*
X10330Y18856D01*
X10146Y18932D01*
D02*
G37*
%LPD*%
D10*
X-17067Y4100D02*
X-14600D01*
X-23213Y-2641D02*
X-20924Y-351D01*
X-22613Y-12812D02*
X-19825Y-15600D01*
X-23213Y-12264D02*
Y-2641D01*
X-22613Y-12812D02*
Y-3552D01*
X-13024Y10922D02*
Y16822D01*
Y19285D02*
Y28870D01*
Y18138D02*
Y19285D01*
X-13837Y18138D02*
X-13024D01*
X-13837Y16922D02*
Y18138D01*
Y16922D02*
X-13024D01*
Y16822D02*
Y16922D01*
X-15889Y5979D02*
X-11587Y10281D01*
Y28568D01*
X-11092Y29063D01*
X-9600Y29188D02*
X-9161Y29628D01*
X-9600Y11400D02*
Y29188D01*
X-9161Y29628D02*
Y29905D01*
X-15623Y5377D02*
X-9600Y11400D01*
X-16123Y5377D02*
X-15623D01*
X-16200Y5300D02*
X-16123Y5377D01*
X-23647Y10680D02*
X-17067Y4100D01*
X-16865Y5979D02*
X-15889D01*
X-17162Y6783D02*
X-13024Y10922D01*
X-11092Y29063D02*
Y29388D01*
X-23647Y10680D02*
Y11376D01*
X-23500Y8500D02*
X-22292D01*
X-24709Y9709D02*
X-23500Y8500D01*
X-22292D02*
X-15441Y1649D01*
X-24709Y9709D02*
Y10173D01*
X-24786Y10250D02*
X-24709Y10173D01*
X-19990Y-14760D02*
X-17099D01*
X-21750Y-13000D02*
X-19990Y-14760D01*
X-19825Y-15600D02*
X-17154D01*
X-17080Y-15674D01*
X-21000Y-5454D02*
Y-5011D01*
X-21664Y-4347D02*
X-21000Y-5011D01*
X-21750Y-13000D02*
Y-6204D01*
X-21000Y-5454D01*
X-19106Y-8352D02*
X-19103Y-8355D01*
X-16628D01*
X-19111Y-10310D02*
X-16626D01*
X-16628Y-8355D02*
X-16626Y-8357D01*
X-16626Y-10310D02*
X-16626Y-10310D01*
X-19111Y-10310D02*
X-19111Y-10310D01*
D85*
X-1860Y27600D02*
D03*
X1900Y27600D02*
D03*
D126*
X-1930Y24070D02*
Y27530D01*
X-1860Y27600D01*
X-2000Y24000D02*
X-1930Y24070D01*
X-21030Y-19700D02*
X-13302D01*
X-23059Y-21729D02*
X-21030Y-19700D01*
X-13302D02*
X-12002Y-21000D01*
X-11650D01*
X2000Y22000D02*
Y24000D01*
X0Y22000D02*
X2000D01*
X0D02*
Y22000D01*
D129*
X2175Y18950D02*
X3786D01*
X4740Y19904D02*
X6529D01*
X3786Y18950D02*
X4740Y19904D01*
D130*
X12150Y-28500D02*
D03*
Y-21000D02*
D03*
X-8150Y-28500D02*
D03*
X-4650Y-21000D02*
D03*
X-11650D02*
D03*
D131*
X-29138Y-7709D02*
D03*
Y-10249D02*
D03*
Y10240D02*
D03*
Y12780D02*
D03*
D132*
Y-12789D02*
D03*
Y7700D02*
D03*
D133*
X-3365Y31458D02*
D03*
X-11092Y29388D02*
D03*
X-9161Y29905D02*
D03*
X-7229Y30423D02*
D03*
X-5297Y30941D02*
D03*
X13045Y28870D02*
D03*
X5317Y30941D02*
D03*
X7249Y30423D02*
D03*
X9181Y29906D02*
D03*
X11113Y29388D02*
D03*
D134*
X-13024Y28870D02*
D03*
D135*
X24106Y-20688D02*
D03*
X-25630Y-18665D02*
D03*
X-24344Y-20197D02*
D03*
X25381Y19153D02*
D03*
X31344Y5210D02*
D03*
X30700Y-8200D02*
D03*
D136*
X25391Y-19156D02*
D03*
D137*
X-24141Y17690D02*
D03*
X-18945Y14690D02*
D03*
D138*
X3385Y31459D02*
D03*
D139*
X-23059Y-21729D02*
D03*
D140*
X24122Y20707D02*
D03*
D141*
X2000Y24000D02*
D03*
X-2000Y24000D02*
D03*
Y22000D02*
D03*
X0Y24000D02*
D03*
Y22000D02*
D03*
D142*
X2000Y22000D02*
D03*
D143*
X-18000Y25000D02*
D03*
X18000D02*
D03*
Y-25000D02*
D03*
X-18000D02*
D03*
D144*
X30997Y7179D02*
D03*
D145*
X31047Y-6230D02*
D03*
D146*
X-30225Y2434D02*
D03*
X-30225Y-2446D02*
D03*
D147*
X-17850Y8975D02*
D03*
X-13089Y5214D02*
D03*
X-13066Y3549D02*
D03*
X-13800Y4100D02*
D03*
X-14600D02*
D03*
X-23213Y-12264D02*
D03*
X-22613Y-3552D02*
D03*
X-23556Y-539D02*
D03*
X-17520Y14839D02*
D03*
X8524Y18432D02*
D03*
X-10251Y19275D02*
D03*
X-8900Y18000D02*
D03*
X-14600Y4900D02*
D03*
X-16200Y5300D02*
D03*
X-16865Y5979D02*
D03*
X-17162Y6783D02*
D03*
X-18024Y6799D02*
D03*
X-16223Y6657D02*
D03*
X-10441Y18067D02*
D03*
X-10900Y16800D02*
D03*
X-25896Y19545D02*
D03*
X-24329Y6239D02*
D03*
X-23101Y9258D02*
D03*
X-20172Y5302D02*
D03*
X-20435Y3048D02*
D03*
X-14600Y14600D02*
D03*
X-3655Y11408D02*
D03*
Y10658D02*
D03*
X-4403Y9908D02*
D03*
X-5150D02*
D03*
X-3655D02*
D03*
X-7901Y11188D02*
D03*
X-8277Y13101D02*
D03*
X-6158Y18370D02*
D03*
X-6162Y16181D02*
D03*
X-2324Y19275D02*
D03*
X14800Y18350D02*
D03*
X-24600Y-7700D02*
D03*
X8150Y-15750D02*
D03*
X7262D02*
D03*
X13500Y24975D02*
D03*
X13306Y18350D02*
D03*
X14053D02*
D03*
X14800Y19100D02*
D03*
Y19850D02*
D03*
X11607Y21963D02*
D03*
X-23977Y10116D02*
D03*
X-24786Y10250D02*
D03*
X-25606Y10244D02*
D03*
X-20404Y8845D02*
D03*
X-22798Y11376D02*
D03*
X-23647D02*
D03*
Y12200D02*
D03*
X-19241Y8847D02*
D03*
X-16525Y14125D02*
D03*
X-17099Y-13910D02*
D03*
X-17099Y-14760D02*
D03*
X-17080Y-15674D02*
D03*
X-17103Y-16494D02*
D03*
X-16626Y-9355D02*
D03*
X-19106Y-9350D02*
D03*
X-19254Y-13782D02*
D03*
X-21714Y-5175D02*
D03*
X-17888Y-16220D02*
D03*
X-21564Y-3452D02*
D03*
X-21664Y-4347D02*
D03*
X5950Y20542D02*
D03*
X6025Y19256D02*
D03*
X2925Y19565D02*
D03*
X3102Y18335D02*
D03*
X-726Y17693D02*
D03*
X2175Y19799D02*
D03*
X1326Y18950D02*
D03*
X2175D02*
D03*
X892Y-2094D02*
D03*
X-900Y-2100D02*
D03*
X-19106Y-8352D02*
D03*
X-16626Y-10310D02*
D03*
Y-8357D02*
D03*
X-19111Y-10310D02*
D03*
X-17432Y-3015D02*
D03*
X-16300Y-3000D02*
D03*
X-2044Y1231D02*
D03*
X-16620Y-6416D02*
D03*
X-12650Y-10313D02*
D03*
X-19111Y-12258D02*
D03*
X-1171Y-17535D02*
D03*
X-371D02*
D03*
X-1171Y-13615D02*
D03*
X-371D02*
D03*
X-2300Y-13800D02*
D03*
Y-15600D02*
D03*
Y-17400D02*
D03*
X-3100D02*
D03*
Y-16500D02*
D03*
Y-15600D02*
D03*
Y-14700D02*
D03*
Y-13800D02*
D03*
X8724Y-16341D02*
D03*
X8721Y-17122D02*
D03*
X-18664Y10413D02*
D03*
X-22200Y18800D02*
D03*
X-23138Y21498D02*
D03*
X-24440Y22201D02*
D03*
X-24546Y18937D02*
D03*
X-21900Y20500D02*
D03*
X-22100Y23000D02*
D03*
X-24030Y-10249D02*
D03*
X5800Y-10400D02*
D03*
X9515Y-13835D02*
D03*
X14000Y-11500D02*
D03*
X12700Y-8900D02*
D03*
X15659Y-17628D02*
D03*
X20034Y-19102D02*
D03*
X20709Y-19495D02*
D03*
X26178Y-8642D02*
D03*
X26947Y-8780D02*
D03*
X21577Y-8673D02*
D03*
X17600Y-3200D02*
D03*
X17079Y-1733D02*
D03*
X14468Y-7183D02*
D03*
X10005Y-5204D02*
D03*
X17700Y4800D02*
D03*
X15000Y5700D02*
D03*
X10996Y411D02*
D03*
X15900Y0D02*
D03*
X28049Y3074D02*
D03*
X27279Y2941D02*
D03*
X22900Y1400D02*
D03*
X9762Y5386D02*
D03*
X14100Y7400D02*
D03*
X13300Y12500D02*
D03*
X10300Y12000D02*
D03*
X19700Y12000D02*
D03*
X22800Y15500D02*
D03*
X23400Y16000D02*
D03*
X5566Y24756D02*
D03*
X4724D02*
D03*
X-20924Y497D02*
D03*
X-20075Y-351D02*
D03*
X-20924Y-351D02*
D03*
X-20924Y-1261D02*
D03*
X-23141Y-13113D02*
D03*
X-25548Y-12472D02*
D03*
Y8017D02*
D03*
X-25562Y12467D02*
D03*
X-16314Y1649D02*
D03*
X-15441Y800D02*
D03*
Y1649D02*
D03*
Y2559D02*
D03*
X-26522Y4338D02*
D03*
X-26528Y-4353D02*
D03*
X-24587Y4338D02*
D03*
X-12650Y-8360D02*
D03*
X-24565Y-4351D02*
D03*
X-12633Y-6409D02*
D03*
X8524Y22488D02*
D03*
X10047Y22488D02*
D03*
X10047Y18432D02*
D03*
X6529Y19904D02*
D03*
X13288Y22366D02*
D03*
X14510Y21381D02*
D03*
X8506Y25012D02*
D03*
X3199Y-2100D02*
D03*
X2099Y3200D02*
D03*
X-2101Y3200D02*
D03*
X3199Y2100D02*
D03*
M02*
