G04*
G04 #@! TF.GenerationSoftware,Altium Limited,Altium Designer,23.0.1 (38)*
G04*
G04 Layer_Physical_Order=1*
G04 Layer_Color=16776960*
%FSLAX43Y43*%
%MOMM*%
G71*
G04*
G04 #@! TF.SameCoordinates,849B8B9A-CF0B-4B68-86F2-F378DEA603F9*
G04*
G04*
G04 #@! TF.FilePolarity,Positive*
G04*
G01*
G75*
%ADD10C,0.200*%
G04:AMPARAMS|DCode=78|XSize=0.92mm|YSize=1.08mm|CornerRadius=0.115mm|HoleSize=0mm|Usage=FLASHONLY|Rotation=46.000|XOffset=0mm|YOffset=0mm|HoleType=Round|Shape=RoundedRectangle|*
%AMROUNDEDRECTD78*
21,1,0.920,0.850,0,0,46.0*
21,1,0.690,1.080,0,0,46.0*
1,1,0.230,0.545,-0.047*
1,1,0.230,0.066,-0.543*
1,1,0.230,-0.545,0.047*
1,1,0.230,-0.066,0.543*
%
%ADD78ROUNDEDRECTD78*%
G04:AMPARAMS|DCode=79|XSize=0.63mm|YSize=1.24mm|CornerRadius=0.079mm|HoleSize=0mm|Usage=FLASHONLY|Rotation=240.000|XOffset=0mm|YOffset=0mm|HoleType=Round|Shape=RoundedRectangle|*
%AMROUNDEDRECTD79*
21,1,0.630,1.083,0,0,240.0*
21,1,0.472,1.240,0,0,240.0*
1,1,0.158,-0.587,0.066*
1,1,0.158,-0.351,0.475*
1,1,0.158,0.587,-0.066*
1,1,0.158,0.351,-0.475*
%
%ADD79ROUNDEDRECTD79*%
G04:AMPARAMS|DCode=80|XSize=0.94mm|YSize=1.03mm|CornerRadius=0.118mm|HoleSize=0mm|Usage=FLASHONLY|Rotation=0.000|XOffset=0mm|YOffset=0mm|HoleType=Round|Shape=RoundedRectangle|*
%AMROUNDEDRECTD80*
21,1,0.940,0.795,0,0,0.0*
21,1,0.705,1.030,0,0,0.0*
1,1,0.235,0.353,-0.398*
1,1,0.235,-0.353,-0.398*
1,1,0.235,-0.353,0.398*
1,1,0.235,0.353,0.398*
%
%ADD80ROUNDEDRECTD80*%
G04:AMPARAMS|DCode=81|XSize=1.4mm|YSize=1.15mm|CornerRadius=0.144mm|HoleSize=0mm|Usage=FLASHONLY|Rotation=90.000|XOffset=0mm|YOffset=0mm|HoleType=Round|Shape=RoundedRectangle|*
%AMROUNDEDRECTD81*
21,1,1.400,0.863,0,0,90.0*
21,1,1.113,1.150,0,0,90.0*
1,1,0.288,0.431,0.556*
1,1,0.288,0.431,-0.556*
1,1,0.288,-0.431,-0.556*
1,1,0.288,-0.431,0.556*
%
%ADD81ROUNDEDRECTD81*%
G04:AMPARAMS|DCode=82|XSize=0.92mm|YSize=1.08mm|CornerRadius=0.115mm|HoleSize=0mm|Usage=FLASHONLY|Rotation=180.000|XOffset=0mm|YOffset=0mm|HoleType=Round|Shape=RoundedRectangle|*
%AMROUNDEDRECTD82*
21,1,0.920,0.850,0,0,180.0*
21,1,0.690,1.080,0,0,180.0*
1,1,0.230,-0.345,0.425*
1,1,0.230,0.345,0.425*
1,1,0.230,0.345,-0.425*
1,1,0.230,-0.345,-0.425*
%
%ADD82ROUNDEDRECTD82*%
G04:AMPARAMS|DCode=83|XSize=0.92mm|YSize=1.08mm|CornerRadius=0.115mm|HoleSize=0mm|Usage=FLASHONLY|Rotation=270.000|XOffset=0mm|YOffset=0mm|HoleType=Round|Shape=RoundedRectangle|*
%AMROUNDEDRECTD83*
21,1,0.920,0.850,0,0,270.0*
21,1,0.690,1.080,0,0,270.0*
1,1,0.230,-0.425,-0.345*
1,1,0.230,-0.425,0.345*
1,1,0.230,0.425,0.345*
1,1,0.230,0.425,-0.345*
%
%ADD83ROUNDEDRECTD83*%
G04:AMPARAMS|DCode=84|XSize=1.26mm|YSize=0.58mm|CornerRadius=0.072mm|HoleSize=0mm|Usage=FLASHONLY|Rotation=0.000|XOffset=0mm|YOffset=0mm|HoleType=Round|Shape=RoundedRectangle|*
%AMROUNDEDRECTD84*
21,1,1.260,0.435,0,0,0.0*
21,1,1.115,0.580,0,0,0.0*
1,1,0.145,0.558,-0.217*
1,1,0.145,-0.558,-0.217*
1,1,0.145,-0.558,0.217*
1,1,0.145,0.558,0.217*
%
%ADD84ROUNDEDRECTD84*%
G04:AMPARAMS|DCode=85|XSize=2.743mm|YSize=2.159mm|CornerRadius=0.27mm|HoleSize=0mm|Usage=FLASHONLY|Rotation=270.000|XOffset=0mm|YOffset=0mm|HoleType=Round|Shape=RoundedRectangle|*
%AMROUNDEDRECTD85*
21,1,2.743,1.619,0,0,270.0*
21,1,2.203,2.159,0,0,270.0*
1,1,0.540,-0.810,-1.102*
1,1,0.540,-0.810,1.102*
1,1,0.540,0.810,1.102*
1,1,0.540,0.810,-1.102*
%
%ADD85ROUNDEDRECTD85*%
G04:AMPARAMS|DCode=86|XSize=0.6mm|YSize=1mm|CornerRadius=0.075mm|HoleSize=0mm|Usage=FLASHONLY|Rotation=90.000|XOffset=0mm|YOffset=0mm|HoleType=Round|Shape=RoundedRectangle|*
%AMROUNDEDRECTD86*
21,1,0.600,0.850,0,0,90.0*
21,1,0.450,1.000,0,0,90.0*
1,1,0.150,0.425,0.225*
1,1,0.150,0.425,-0.225*
1,1,0.150,-0.425,-0.225*
1,1,0.150,-0.425,0.225*
%
%ADD86ROUNDEDRECTD86*%
G04:AMPARAMS|DCode=87|XSize=0.92mm|YSize=1.08mm|CornerRadius=0.115mm|HoleSize=0mm|Usage=FLASHONLY|Rotation=150.000|XOffset=0mm|YOffset=0mm|HoleType=Round|Shape=RoundedRectangle|*
%AMROUNDEDRECTD87*
21,1,0.920,0.850,0,0,150.0*
21,1,0.690,1.080,0,0,150.0*
1,1,0.230,-0.086,0.541*
1,1,0.230,0.511,0.196*
1,1,0.230,0.086,-0.541*
1,1,0.230,-0.511,-0.196*
%
%ADD87ROUNDEDRECTD87*%
G04:AMPARAMS|DCode=88|XSize=0.92mm|YSize=1.08mm|CornerRadius=0.115mm|HoleSize=0mm|Usage=FLASHONLY|Rotation=240.000|XOffset=0mm|YOffset=0mm|HoleType=Round|Shape=RoundedRectangle|*
%AMROUNDEDRECTD88*
21,1,0.920,0.850,0,0,240.0*
21,1,0.690,1.080,0,0,240.0*
1,1,0.230,-0.541,-0.086*
1,1,0.230,-0.196,0.511*
1,1,0.230,0.541,0.086*
1,1,0.230,0.196,-0.511*
%
%ADD88ROUNDEDRECTD88*%
G04:AMPARAMS|DCode=89|XSize=0.94mm|YSize=1.03mm|CornerRadius=0.118mm|HoleSize=0mm|Usage=FLASHONLY|Rotation=240.000|XOffset=0mm|YOffset=0mm|HoleType=Round|Shape=RoundedRectangle|*
%AMROUNDEDRECTD89*
21,1,0.940,0.795,0,0,240.0*
21,1,0.705,1.030,0,0,240.0*
1,1,0.235,-0.521,-0.107*
1,1,0.235,-0.168,0.504*
1,1,0.235,0.521,0.107*
1,1,0.235,0.168,-0.504*
%
%ADD89ROUNDEDRECTD89*%
G04:AMPARAMS|DCode=90|XSize=1.3mm|YSize=3.5mm|CornerRadius=0.163mm|HoleSize=0mm|Usage=FLASHONLY|Rotation=240.000|XOffset=0mm|YOffset=0mm|HoleType=Round|Shape=RoundedRectangle|*
%AMROUNDEDRECTD90*
21,1,1.300,3.175,0,0,240.0*
21,1,0.975,3.500,0,0,240.0*
1,1,0.325,-1.619,0.372*
1,1,0.325,-1.131,1.216*
1,1,0.325,1.619,-0.372*
1,1,0.325,1.131,-1.216*
%
%ADD90ROUNDEDRECTD90*%
G04:AMPARAMS|DCode=91|XSize=1.26mm|YSize=0.58mm|CornerRadius=0.072mm|HoleSize=0mm|Usage=FLASHONLY|Rotation=60.000|XOffset=0mm|YOffset=0mm|HoleType=Round|Shape=RoundedRectangle|*
%AMROUNDEDRECTD91*
21,1,1.260,0.435,0,0,60.0*
21,1,1.115,0.580,0,0,60.0*
1,1,0.145,0.467,0.374*
1,1,0.145,-0.090,-0.592*
1,1,0.145,-0.467,-0.374*
1,1,0.145,0.090,0.592*
%
%ADD91ROUNDEDRECTD91*%
G04:AMPARAMS|DCode=92|XSize=0.92mm|YSize=1.08mm|CornerRadius=0.115mm|HoleSize=0mm|Usage=FLASHONLY|Rotation=350.000|XOffset=0mm|YOffset=0mm|HoleType=Round|Shape=RoundedRectangle|*
%AMROUNDEDRECTD92*
21,1,0.920,0.850,0,0,350.0*
21,1,0.690,1.080,0,0,350.0*
1,1,0.230,0.266,-0.478*
1,1,0.230,-0.414,-0.359*
1,1,0.230,-0.266,0.478*
1,1,0.230,0.414,0.359*
%
%ADD92ROUNDEDRECTD92*%
G04:AMPARAMS|DCode=93|XSize=0.94mm|YSize=1.03mm|CornerRadius=0.118mm|HoleSize=0mm|Usage=FLASHONLY|Rotation=80.000|XOffset=0mm|YOffset=0mm|HoleType=Round|Shape=RoundedRectangle|*
%AMROUNDEDRECTD93*
21,1,0.940,0.795,0,0,80.0*
21,1,0.705,1.030,0,0,80.0*
1,1,0.235,0.453,0.278*
1,1,0.235,0.330,-0.416*
1,1,0.235,-0.453,-0.278*
1,1,0.235,-0.330,0.416*
%
%ADD93ROUNDEDRECTD93*%
G04:AMPARAMS|DCode=94|XSize=1.26mm|YSize=0.58mm|CornerRadius=0.072mm|HoleSize=0mm|Usage=FLASHONLY|Rotation=80.000|XOffset=0mm|YOffset=0mm|HoleType=Round|Shape=RoundedRectangle|*
%AMROUNDEDRECTD94*
21,1,1.260,0.435,0,0,80.0*
21,1,1.115,0.580,0,0,80.0*
1,1,0.145,0.311,0.511*
1,1,0.145,0.117,-0.587*
1,1,0.145,-0.311,-0.511*
1,1,0.145,-0.117,0.587*
%
%ADD94ROUNDEDRECTD94*%
G04:AMPARAMS|DCode=95|XSize=0.92mm|YSize=1.08mm|CornerRadius=0.115mm|HoleSize=0mm|Usage=FLASHONLY|Rotation=10.000|XOffset=0mm|YOffset=0mm|HoleType=Round|Shape=RoundedRectangle|*
%AMROUNDEDRECTD95*
21,1,0.920,0.850,0,0,10.0*
21,1,0.690,1.080,0,0,10.0*
1,1,0.230,0.414,-0.359*
1,1,0.230,-0.266,-0.478*
1,1,0.230,-0.414,0.359*
1,1,0.230,0.266,0.478*
%
%ADD95ROUNDEDRECTD95*%
G04:AMPARAMS|DCode=96|XSize=0.94mm|YSize=1.03mm|CornerRadius=0.118mm|HoleSize=0mm|Usage=FLASHONLY|Rotation=100.000|XOffset=0mm|YOffset=0mm|HoleType=Round|Shape=RoundedRectangle|*
%AMROUNDEDRECTD96*
21,1,0.940,0.795,0,0,100.0*
21,1,0.705,1.030,0,0,100.0*
1,1,0.235,0.330,0.416*
1,1,0.235,0.453,-0.278*
1,1,0.235,-0.330,-0.416*
1,1,0.235,-0.453,0.278*
%
%ADD96ROUNDEDRECTD96*%
G04:AMPARAMS|DCode=97|XSize=1.26mm|YSize=0.58mm|CornerRadius=0.072mm|HoleSize=0mm|Usage=FLASHONLY|Rotation=100.000|XOffset=0mm|YOffset=0mm|HoleType=Round|Shape=RoundedRectangle|*
%AMROUNDEDRECTD97*
21,1,1.260,0.435,0,0,100.0*
21,1,1.115,0.580,0,0,100.0*
1,1,0.145,0.117,0.587*
1,1,0.145,0.311,-0.511*
1,1,0.145,-0.117,-0.587*
1,1,0.145,-0.311,0.511*
%
%ADD97ROUNDEDRECTD97*%
G04:AMPARAMS|DCode=98|XSize=0.92mm|YSize=1.08mm|CornerRadius=0.115mm|HoleSize=0mm|Usage=FLASHONLY|Rotation=310.000|XOffset=0mm|YOffset=0mm|HoleType=Round|Shape=RoundedRectangle|*
%AMROUNDEDRECTD98*
21,1,0.920,0.850,0,0,310.0*
21,1,0.690,1.080,0,0,310.0*
1,1,0.230,-0.104,-0.537*
1,1,0.230,-0.547,-0.009*
1,1,0.230,0.104,0.537*
1,1,0.230,0.547,0.009*
%
%ADD98ROUNDEDRECTD98*%
G04:AMPARAMS|DCode=99|XSize=1.26mm|YSize=0.58mm|CornerRadius=0.072mm|HoleSize=0mm|Usage=FLASHONLY|Rotation=130.000|XOffset=0mm|YOffset=0mm|HoleType=Round|Shape=RoundedRectangle|*
%AMROUNDEDRECTD99*
21,1,1.260,0.435,0,0,130.0*
21,1,1.115,0.580,0,0,130.0*
1,1,0.145,-0.192,0.567*
1,1,0.145,0.525,-0.287*
1,1,0.145,0.192,-0.567*
1,1,0.145,-0.525,0.287*
%
%ADD99ROUNDEDRECTD99*%
G04:AMPARAMS|DCode=100|XSize=0.94mm|YSize=1.03mm|CornerRadius=0.118mm|HoleSize=0mm|Usage=FLASHONLY|Rotation=130.000|XOffset=0mm|YOffset=0mm|HoleType=Round|Shape=RoundedRectangle|*
%AMROUNDEDRECTD100*
21,1,0.940,0.795,0,0,130.0*
21,1,0.705,1.030,0,0,130.0*
1,1,0.235,0.078,0.526*
1,1,0.235,0.531,-0.015*
1,1,0.235,-0.078,-0.526*
1,1,0.235,-0.531,0.015*
%
%ADD100ROUNDEDRECTD100*%
G04:AMPARAMS|DCode=101|XSize=0.92mm|YSize=1.08mm|CornerRadius=0.115mm|HoleSize=0mm|Usage=FLASHONLY|Rotation=40.000|XOffset=0mm|YOffset=0mm|HoleType=Round|Shape=RoundedRectangle|*
%AMROUNDEDRECTD101*
21,1,0.920,0.850,0,0,40.0*
21,1,0.690,1.080,0,0,40.0*
1,1,0.230,0.537,-0.104*
1,1,0.230,0.009,-0.547*
1,1,0.230,-0.537,0.104*
1,1,0.230,-0.009,0.547*
%
%ADD101ROUNDEDRECTD101*%
G04:AMPARAMS|DCode=102|XSize=1.3mm|YSize=3.5mm|CornerRadius=0.163mm|HoleSize=0mm|Usage=FLASHONLY|Rotation=310.000|XOffset=0mm|YOffset=0mm|HoleType=Round|Shape=RoundedRectangle|*
%AMROUNDEDRECTD102*
21,1,1.300,3.175,0,0,310.0*
21,1,0.975,3.500,0,0,310.0*
1,1,0.325,-0.903,-1.394*
1,1,0.325,-1.529,-0.647*
1,1,0.325,0.903,1.394*
1,1,0.325,1.529,0.647*
%
%ADD102ROUNDEDRECTD102*%
G04:AMPARAMS|DCode=103|XSize=3mm|YSize=1.8mm|CornerRadius=0.225mm|HoleSize=0mm|Usage=FLASHONLY|Rotation=330.000|XOffset=0mm|YOffset=0mm|HoleType=Round|Shape=RoundedRectangle|*
%AMROUNDEDRECTD103*
21,1,3.000,1.350,0,0,330.0*
21,1,2.550,1.800,0,0,330.0*
1,1,0.450,0.767,-1.222*
1,1,0.450,-1.442,0.053*
1,1,0.450,-0.767,1.222*
1,1,0.450,1.442,-0.053*
%
%ADD103ROUNDEDRECTD103*%
G04:AMPARAMS|DCode=104|XSize=1.5mm|YSize=0.5mm|CornerRadius=0.063mm|HoleSize=0mm|Usage=FLASHONLY|Rotation=60.000|XOffset=0mm|YOffset=0mm|HoleType=Round|Shape=RoundedRectangle|*
%AMROUNDEDRECTD104*
21,1,1.500,0.375,0,0,60.0*
21,1,1.375,0.500,0,0,60.0*
1,1,0.125,0.506,0.502*
1,1,0.125,-0.181,-0.689*
1,1,0.125,-0.506,-0.502*
1,1,0.125,0.181,0.689*
%
%ADD104ROUNDEDRECTD104*%
G04:AMPARAMS|DCode=105|XSize=2.743mm|YSize=2.159mm|CornerRadius=0.27mm|HoleSize=0mm|Usage=FLASHONLY|Rotation=240.000|XOffset=0mm|YOffset=0mm|HoleType=Round|Shape=RoundedRectangle|*
%AMROUNDEDRECTD105*
21,1,2.743,1.619,0,0,240.0*
21,1,2.203,2.159,0,0,240.0*
1,1,0.540,-1.252,-0.549*
1,1,0.540,-0.150,1.359*
1,1,0.540,1.252,0.549*
1,1,0.540,0.150,-1.359*
%
%ADD105ROUNDEDRECTD105*%
G04:AMPARAMS|DCode=106|XSize=0.63mm|YSize=1.24mm|CornerRadius=0.079mm|HoleSize=0mm|Usage=FLASHONLY|Rotation=180.000|XOffset=0mm|YOffset=0mm|HoleType=Round|Shape=RoundedRectangle|*
%AMROUNDEDRECTD106*
21,1,0.630,1.083,0,0,180.0*
21,1,0.472,1.240,0,0,180.0*
1,1,0.158,-0.236,0.541*
1,1,0.158,0.236,0.541*
1,1,0.158,0.236,-0.541*
1,1,0.158,-0.236,-0.541*
%
%ADD106ROUNDEDRECTD106*%
G04:AMPARAMS|DCode=107|XSize=1.4mm|YSize=1.15mm|CornerRadius=0.144mm|HoleSize=0mm|Usage=FLASHONLY|Rotation=0.000|XOffset=0mm|YOffset=0mm|HoleType=Round|Shape=RoundedRectangle|*
%AMROUNDEDRECTD107*
21,1,1.400,0.863,0,0,0.0*
21,1,1.113,1.150,0,0,0.0*
1,1,0.288,0.556,-0.431*
1,1,0.288,-0.556,-0.431*
1,1,0.288,-0.556,0.431*
1,1,0.288,0.556,0.431*
%
%ADD107ROUNDEDRECTD107*%
G04:AMPARAMS|DCode=108|XSize=0.94mm|YSize=1.03mm|CornerRadius=0.118mm|HoleSize=0mm|Usage=FLASHONLY|Rotation=90.000|XOffset=0mm|YOffset=0mm|HoleType=Round|Shape=RoundedRectangle|*
%AMROUNDEDRECTD108*
21,1,0.940,0.795,0,0,90.0*
21,1,0.705,1.030,0,0,90.0*
1,1,0.235,0.398,0.353*
1,1,0.235,0.398,-0.353*
1,1,0.235,-0.398,-0.353*
1,1,0.235,-0.398,0.353*
%
%ADD108ROUNDEDRECTD108*%
G04:AMPARAMS|DCode=109|XSize=0.28mm|YSize=1.2mm|CornerRadius=0.07mm|HoleSize=0mm|Usage=FLASHONLY|Rotation=0.000|XOffset=0mm|YOffset=0mm|HoleType=Round|Shape=RoundedRectangle|*
%AMROUNDEDRECTD109*
21,1,0.280,1.060,0,0,0.0*
21,1,0.140,1.200,0,0,0.0*
1,1,0.140,0.070,-0.530*
1,1,0.140,-0.070,-0.530*
1,1,0.140,-0.070,0.530*
1,1,0.140,0.070,0.530*
%
%ADD109ROUNDEDRECTD109*%
G04:AMPARAMS|DCode=110|XSize=0.28mm|YSize=1.2mm|CornerRadius=0.07mm|HoleSize=0mm|Usage=FLASHONLY|Rotation=90.000|XOffset=0mm|YOffset=0mm|HoleType=Round|Shape=RoundedRectangle|*
%AMROUNDEDRECTD110*
21,1,0.280,1.060,0,0,90.0*
21,1,0.140,1.200,0,0,90.0*
1,1,0.140,0.530,0.070*
1,1,0.140,0.530,-0.070*
1,1,0.140,-0.530,-0.070*
1,1,0.140,-0.530,0.070*
%
%ADD110ROUNDEDRECTD110*%
G04:AMPARAMS|DCode=111|XSize=1.5mm|YSize=2.8mm|CornerRadius=0.188mm|HoleSize=0mm|Usage=FLASHONLY|Rotation=180.000|XOffset=0mm|YOffset=0mm|HoleType=Round|Shape=RoundedRectangle|*
%AMROUNDEDRECTD111*
21,1,1.500,2.425,0,0,180.0*
21,1,1.125,2.800,0,0,180.0*
1,1,0.375,-0.563,1.212*
1,1,0.375,0.563,1.212*
1,1,0.375,0.563,-1.212*
1,1,0.375,-0.563,-1.212*
%
%ADD111ROUNDEDRECTD111*%
%ADD112R,0.230X0.430*%
G04:AMPARAMS|DCode=113|XSize=0.74mm|YSize=0.32mm|CornerRadius=0.013mm|HoleSize=0mm|Usage=FLASHONLY|Rotation=180.000|XOffset=0mm|YOffset=0mm|HoleType=Round|Shape=RoundedRectangle|*
%AMROUNDEDRECTD113*
21,1,0.740,0.294,0,0,180.0*
21,1,0.714,0.320,0,0,180.0*
1,1,0.026,-0.357,0.147*
1,1,0.026,0.357,0.147*
1,1,0.026,0.357,-0.147*
1,1,0.026,-0.357,-0.147*
%
%ADD113ROUNDEDRECTD113*%
%ADD114R,1.800X2.740*%
G04:AMPARAMS|DCode=115|XSize=0.92mm|YSize=1.08mm|CornerRadius=0.115mm|HoleSize=0mm|Usage=FLASHONLY|Rotation=137.000|XOffset=0mm|YOffset=0mm|HoleType=Round|Shape=RoundedRectangle|*
%AMROUNDEDRECTD115*
21,1,0.920,0.850,0,0,137.0*
21,1,0.690,1.080,0,0,137.0*
1,1,0.230,0.038,0.546*
1,1,0.230,0.542,0.076*
1,1,0.230,-0.038,-0.546*
1,1,0.230,-0.542,-0.076*
%
%ADD115ROUNDEDRECTD115*%
%ADD116R,0.450X0.290*%
%ADD117R,0.290X0.450*%
G04:AMPARAMS|DCode=118|XSize=0.92mm|YSize=1.08mm|CornerRadius=0.115mm|HoleSize=0mm|Usage=FLASHONLY|Rotation=280.000|XOffset=0mm|YOffset=0mm|HoleType=Round|Shape=RoundedRectangle|*
%AMROUNDEDRECTD118*
21,1,0.920,0.850,0,0,280.0*
21,1,0.690,1.080,0,0,280.0*
1,1,0.230,-0.359,-0.414*
1,1,0.230,-0.478,0.266*
1,1,0.230,0.359,0.414*
1,1,0.230,0.478,-0.266*
%
%ADD118ROUNDEDRECTD118*%
G04:AMPARAMS|DCode=119|XSize=1.3mm|YSize=3.5mm|CornerRadius=0.163mm|HoleSize=0mm|Usage=FLASHONLY|Rotation=280.000|XOffset=0mm|YOffset=0mm|HoleType=Round|Shape=RoundedRectangle|*
%AMROUNDEDRECTD119*
21,1,1.300,3.175,0,0,280.0*
21,1,0.975,3.500,0,0,280.0*
1,1,0.325,-1.479,-0.756*
1,1,0.325,-1.648,0.204*
1,1,0.325,1.479,0.756*
1,1,0.325,1.648,-0.204*
%
%ADD119ROUNDEDRECTD119*%
G04:AMPARAMS|DCode=120|XSize=0.92mm|YSize=1.08mm|CornerRadius=0.115mm|HoleSize=0mm|Usage=FLASHONLY|Rotation=260.000|XOffset=0mm|YOffset=0mm|HoleType=Round|Shape=RoundedRectangle|*
%AMROUNDEDRECTD120*
21,1,0.920,0.850,0,0,260.0*
21,1,0.690,1.080,0,0,260.0*
1,1,0.230,-0.478,-0.266*
1,1,0.230,-0.359,0.414*
1,1,0.230,0.478,0.266*
1,1,0.230,0.359,-0.414*
%
%ADD120ROUNDEDRECTD120*%
G04:AMPARAMS|DCode=121|XSize=1.3mm|YSize=3.5mm|CornerRadius=0.163mm|HoleSize=0mm|Usage=FLASHONLY|Rotation=260.000|XOffset=0mm|YOffset=0mm|HoleType=Round|Shape=RoundedRectangle|*
%AMROUNDEDRECTD121*
21,1,1.300,3.175,0,0,260.0*
21,1,0.975,3.500,0,0,260.0*
1,1,0.325,-1.648,-0.204*
1,1,0.325,-1.479,0.756*
1,1,0.325,1.648,0.204*
1,1,0.325,1.479,-0.756*
%
%ADD121ROUNDEDRECTD121*%
G04:AMPARAMS|DCode=122|XSize=1mm|YSize=1.1mm|CornerRadius=0.125mm|HoleSize=0mm|Usage=FLASHONLY|Rotation=0.000|XOffset=0mm|YOffset=0mm|HoleType=Round|Shape=RoundedRectangle|*
%AMROUNDEDRECTD122*
21,1,1.000,0.850,0,0,0.0*
21,1,0.750,1.100,0,0,0.0*
1,1,0.250,0.375,-0.425*
1,1,0.250,-0.375,-0.425*
1,1,0.250,-0.375,0.425*
1,1,0.250,0.375,0.425*
%
%ADD122ROUNDEDRECTD122*%
G04:AMPARAMS|DCode=123|XSize=0.6mm|YSize=1.05mm|CornerRadius=0.075mm|HoleSize=0mm|Usage=FLASHONLY|Rotation=0.000|XOffset=0mm|YOffset=0mm|HoleType=Round|Shape=RoundedRectangle|*
%AMROUNDEDRECTD123*
21,1,0.600,0.900,0,0,0.0*
21,1,0.450,1.050,0,0,0.0*
1,1,0.150,0.225,-0.450*
1,1,0.150,-0.225,-0.450*
1,1,0.150,-0.225,0.450*
1,1,0.150,0.225,0.450*
%
%ADD123ROUNDEDRECTD123*%
G04:AMPARAMS|DCode=124|XSize=1.26mm|YSize=0.58mm|CornerRadius=0.072mm|HoleSize=0mm|Usage=FLASHONLY|Rotation=90.000|XOffset=0mm|YOffset=0mm|HoleType=Round|Shape=RoundedRectangle|*
%AMROUNDEDRECTD124*
21,1,1.260,0.435,0,0,90.0*
21,1,1.115,0.580,0,0,90.0*
1,1,0.145,0.217,0.558*
1,1,0.145,0.217,-0.558*
1,1,0.145,-0.217,-0.558*
1,1,0.145,-0.217,0.558*
%
%ADD124ROUNDEDRECTD124*%
%ADD125C,0.202*%
%ADD126C,1.000*%
%ADD127C,0.300*%
%ADD128C,0.500*%
%ADD129C,0.190*%
%ADD130C,2.300*%
%ADD131C,1.700*%
%ADD132R,1.700X1.700*%
%ADD133C,1.400*%
%ADD134P,1.980X4X60.0*%
%ADD135C,1.200*%
%ADD136P,1.697X4X275.0*%
%ADD137C,0.900*%
%ADD138P,1.980X4X390.0*%
%ADD139P,1.697X4X175.0*%
%ADD140P,1.697X4X354.0*%
%ADD141C,1.428*%
%ADD142R,1.428X1.428*%
%ADD143C,2.400*%
%ADD144P,1.697X4X325.0*%
%ADD145P,1.697X4X305.0*%
%ADD146C,1.500*%
%ADD147C,0.600*%
G36*
X-954Y-12042D02*
X-754Y-12125D01*
X-589Y-12235D01*
X-498Y-12321D01*
X-498D01*
X126Y-12945D01*
X259Y-13144D01*
X350Y-13365D01*
X397Y-13600D01*
X397Y-13720D01*
X397D01*
X397Y-13720D01*
Y-14019D01*
X270Y-14087D01*
X192Y-14035D01*
Y-15575D01*
Y-17115D01*
X270Y-17063D01*
X397Y-17131D01*
Y-17448D01*
X397Y-17567D01*
X305Y-17789D01*
X136Y-17958D01*
X-86Y-18050D01*
X-205Y-18050D01*
X-205Y-18050D01*
X-205Y-18050D01*
Y-18050D01*
X-2850Y-18050D01*
X-2921Y-18050D01*
X-3059Y-18022D01*
X-3189Y-17968D01*
X-3307Y-17890D01*
X-3406Y-17790D01*
X-3485Y-17673D01*
X-3539Y-17543D01*
X-3566Y-17404D01*
X-3566Y-17334D01*
X-3566Y-17334D01*
Y-13340D01*
X-3468Y-13260D01*
X-3425Y-13268D01*
X-3400D01*
Y-12500D01*
X-3000D01*
Y-12100D01*
X-2163D01*
X-2163Y-12098D01*
X-2083Y-12000D01*
X-1274Y-12000D01*
X-1166Y-12000D01*
X-954Y-12042D01*
D02*
G37*
G36*
X8825Y-15350D02*
X8897Y-15350D01*
X9029Y-15405D01*
X9131Y-15507D01*
X9167Y-15593D01*
X9186Y-15711D01*
D01*
X9186Y-15829D01*
X9186Y-17214D01*
X9186Y-17279D01*
X9137Y-17398D01*
X9045Y-17489D01*
X8926Y-17539D01*
X8861Y-17539D01*
X6845D01*
X6845Y-17397D01*
X6935Y-17307D01*
X7003D01*
Y-16710D01*
Y-16113D01*
X6845D01*
X6845Y-16113D01*
X6845Y-15610D01*
X6894Y-15491D01*
X6986Y-15399D01*
X7105Y-15350D01*
X7170D01*
X7170Y-15350D01*
X8825Y-15350D01*
D02*
G37*
G36*
X1975Y26025D02*
X2046Y26025D01*
X2186Y25997D01*
X2318Y25942D01*
X2437Y25863D01*
X2538Y25762D01*
X2617Y25643D01*
X2672Y25511D01*
X2691Y25418D01*
X2700Y25300D01*
Y25300D01*
X2700Y25300D01*
X2700Y25300D01*
Y24903D01*
X2573Y24840D01*
X2400Y24940D01*
Y24000D01*
X1600D01*
Y24940D01*
X1377Y24811D01*
X1189Y24622D01*
X1131Y24523D01*
X984D01*
X891Y24684D01*
X684Y24891D01*
X430Y25038D01*
X147Y25114D01*
X-147D01*
X-430Y25038D01*
X-684Y24891D01*
X-891Y24684D01*
X-936Y24606D01*
X-1063D01*
X-1109Y24684D01*
X-1316Y24891D01*
X-1570Y25038D01*
X-1853Y25114D01*
X-2147D01*
X-2430Y25038D01*
X-2684Y24891D01*
X-2891Y24684D01*
X-3038Y24430D01*
X-3114Y24147D01*
Y23853D01*
X-3038Y23570D01*
X-2891Y23316D01*
X-2684Y23109D01*
X-2606Y23063D01*
Y22937D01*
X-2684Y22891D01*
X-2891Y22684D01*
X-3038Y22430D01*
X-3114Y22147D01*
Y21853D01*
X-3038Y21570D01*
X-2891Y21316D01*
X-2684Y21109D01*
X-2430Y20962D01*
X-2147Y20886D01*
X-1853D01*
X-1570Y20962D01*
X-1316Y21109D01*
X-1109Y21316D01*
X-1016Y21477D01*
X-869D01*
X-811Y21377D01*
X-623Y21188D01*
X-400Y21060D01*
Y22000D01*
X400D01*
Y21060D01*
X623Y21188D01*
X811Y21377D01*
X859Y21460D01*
X986Y21426D01*
Y20986D01*
X1600D01*
Y22000D01*
X2400D01*
Y20986D01*
X2612D01*
X2691Y20859D01*
X2673Y20771D01*
X2620Y20643D01*
X2544Y20529D01*
X2446Y20431D01*
X2332Y20355D01*
X2204Y20302D01*
X2188Y20299D01*
X2117D01*
X2076Y20299D01*
X2000Y20275D01*
X-6624Y20275D01*
X-6794Y20309D01*
X-7656D01*
X-7826Y20275D01*
X-12927Y20275D01*
X-13084Y20265D01*
X-13388Y20185D01*
X-13661Y20030D01*
X-13886Y19810D01*
X-13976Y19680D01*
X-13976Y19680D01*
X-13976Y19680D01*
X-13976Y19680D01*
X-14860Y18202D01*
X-14930Y18084D01*
X-15121Y17890D01*
X-15353Y17747D01*
X-15613Y17663D01*
X-15749Y17652D01*
X-15749Y17652D01*
Y17652D01*
X-18166Y17472D01*
X-18242Y17594D01*
X-18150Y17753D01*
X-18632Y18032D01*
X-18432Y18378D01*
X-18731Y18550D01*
X-18387Y19146D01*
X-18354Y19245D01*
X-18358Y19307D01*
X-18227Y19534D01*
X-18236Y19549D01*
X-15274Y24479D01*
X-15168Y24655D01*
X-14913Y24978D01*
X-14619Y25264D01*
X-14290Y25511D01*
X-13932Y25713D01*
X-13552Y25868D01*
X-13155Y25972D01*
X-12747Y26025D01*
X-12542Y26025D01*
X-12542Y26025D01*
X1975Y26025D01*
D02*
G37*
G36*
X-3580Y11883D02*
X-3580Y11883D01*
X-3580D01*
X-3464Y11871D01*
X-3326Y11814D01*
X-3199Y11688D01*
X-3130Y11522D01*
X-3130Y11433D01*
X-3130Y9883D01*
X-3130Y9883D01*
X-3130Y9788D01*
X-3203Y9614D01*
X-3336Y9480D01*
X-3511Y9408D01*
X-5280D01*
X-5364Y9408D01*
X-5521Y9472D01*
X-5641Y9592D01*
X-5706Y9748D01*
X-5706Y9833D01*
X-5708Y10370D01*
X-5611Y10422D01*
X-5581Y10425D01*
X-5476Y10404D01*
Y11218D01*
X-5076D01*
Y11618D01*
X-4298D01*
X-4325Y11756D01*
X-4259Y11883D01*
X-3580D01*
X-3580Y11883D01*
D02*
G37*
G36*
X20689Y-17312D02*
X20698Y-17382D01*
X20647Y-17472D01*
X21164Y-17770D01*
X21681Y-18069D01*
X21760Y-17932D01*
X21848Y-17899D01*
X21990Y-17981D01*
X20971Y-19820D01*
X20942Y-19874D01*
X20845Y-19950D01*
X20726Y-19982D01*
X20605Y-19965D01*
X20552Y-19933D01*
X20552D01*
X19616Y-19375D01*
X19539Y-19274D01*
X19506Y-19151D01*
X19514Y-19086D01*
X19552Y-18970D01*
X19552Y-18970D01*
X19552Y-18970D01*
X19552Y-18969D01*
X20474Y-17313D01*
X20631Y-17274D01*
X20689Y-17312D01*
D02*
G37*
G36*
X26314Y-6687D02*
X26388Y-6829D01*
X26344Y-7074D01*
X26759Y-7148D01*
X27174Y-7221D01*
X27226Y-6922D01*
X27297Y-6861D01*
X27633Y-6920D01*
X27295Y-9057D01*
X27230Y-9161D01*
X27130Y-9231D01*
X27010Y-9257D01*
X26949Y-9246D01*
X26949Y-9246D01*
X25878Y-9041D01*
X25772Y-8972D01*
X25699Y-8868D01*
X25685Y-8807D01*
X25680Y-8682D01*
X25680Y-8682D01*
X25680Y-8682D01*
X25680Y-8682D01*
X25994Y-6723D01*
X26097Y-6649D01*
X26314Y-6687D01*
D02*
G37*
G36*
X28459Y2993D02*
X28471Y2933D01*
X28445Y2813D01*
X28375Y2712D01*
X28320Y2678D01*
X28210Y2637D01*
X28210Y2637D01*
X28210Y2637D01*
X27134Y2463D01*
X27010Y2491D01*
X26906Y2564D01*
X26871Y2618D01*
X26825Y2733D01*
X26825Y2733D01*
X26825Y2733D01*
X26825D01*
X26466Y4594D01*
X26561Y4725D01*
X26630Y4733D01*
X26682Y4685D01*
X26700Y4584D01*
X27288Y4687D01*
X27877Y4791D01*
X27849Y4946D01*
X27895Y5028D01*
X28057Y5057D01*
X28459Y2993D01*
D02*
G37*
G36*
X14875Y20325D02*
X14875Y20325D01*
X14875D01*
X14992Y20314D01*
X15130Y20256D01*
X15256Y20130D01*
X15325Y19965D01*
X15325Y19875D01*
X15325Y18325D01*
X15325Y18325D01*
X15325Y18231D01*
X15253Y18056D01*
X15119Y17922D01*
X14944Y17850D01*
X13176D01*
X13091Y17850D01*
X12935Y17915D01*
X12815Y18034D01*
X12750Y18190D01*
X12748Y18611D01*
X12838Y18701D01*
X12885D01*
Y19585D01*
X13285D01*
Y19985D01*
X14294D01*
Y20016D01*
X14259Y20189D01*
X14243Y20213D01*
X14303Y20325D01*
X14875D01*
X14875Y20325D01*
D02*
G37*
G36*
X23835Y16089D02*
X23873Y15972D01*
X23863Y15850D01*
X23835Y15798D01*
X23758Y15703D01*
X23758Y15703D01*
X23758Y15703D01*
X23758Y15703D01*
X22913Y15014D01*
X22792Y14976D01*
X22665Y14987D01*
X22552Y15045D01*
X21269Y16525D01*
X21286Y16686D01*
X21342Y16728D01*
X21411Y16712D01*
X21477Y16633D01*
X21935Y17017D01*
X22392Y17401D01*
X22291Y17522D01*
X22290Y17616D01*
X22415Y17721D01*
X23835Y16089D01*
D02*
G37*
%LPC*%
G36*
X-962Y-12219D02*
X-1196D01*
Y-12460D01*
X-756D01*
Y-12425D01*
X-772Y-12346D01*
X-816Y-12279D01*
X-883Y-12235D01*
X-962Y-12219D01*
D02*
G37*
G36*
X-1577D02*
X-1812D01*
X-1891Y-12235D01*
X-1958Y-12279D01*
X-2002Y-12346D01*
X-2018Y-12425D01*
Y-12460D01*
X-1577D01*
Y-12219D01*
D02*
G37*
G36*
X-756Y-12840D02*
X-1196D01*
Y-13081D01*
X-962D01*
X-883Y-13065D01*
X-816Y-13021D01*
X-772Y-12954D01*
X-756Y-12875D01*
Y-12840D01*
D02*
G37*
G36*
X-1577D02*
X-2018D01*
Y-12875D01*
X-2002Y-12954D01*
X-1958Y-13021D01*
X-1891Y-13065D01*
X-1812Y-13081D01*
X-1577D01*
Y-12840D01*
D02*
G37*
G36*
X-2163Y-12900D02*
X-2600D01*
Y-13268D01*
X-2575D01*
X-2413Y-13236D01*
X-2276Y-13144D01*
X-2184Y-13007D01*
X-2163Y-12900D01*
D02*
G37*
G36*
X-1808Y-14035D02*
X-1956Y-14135D01*
X-2060Y-14290D01*
X-2096Y-14473D01*
Y-14575D01*
X-1808D01*
Y-14035D01*
D02*
G37*
G36*
Y-16575D02*
X-2096D01*
Y-16677D01*
X-2060Y-16860D01*
X-1956Y-17015D01*
X-1808Y-17115D01*
Y-16575D01*
D02*
G37*
G36*
X7960Y-16113D02*
X7803D01*
Y-16310D01*
X8286D01*
X8229Y-16224D01*
X8105Y-16142D01*
X7960Y-16113D01*
D02*
G37*
G36*
X8286Y-17110D02*
X7803D01*
Y-17307D01*
X7960D01*
X8105Y-17278D01*
X8229Y-17196D01*
X8286Y-17110D01*
D02*
G37*
G36*
X-15677Y21738D02*
X-15855Y21727D01*
X-16022Y21644D01*
X-16146Y21503D01*
X-16196Y21415D01*
X-15946Y21271D01*
X-15677Y21738D01*
D02*
G37*
G36*
X-13945Y20738D02*
X-14214Y20271D01*
X-13964Y20127D01*
X-13914Y20215D01*
X-13853Y20392D01*
X-13866Y20578D01*
X-13945Y20738D01*
D02*
G37*
G36*
X-17196Y19683D02*
X-17247Y19595D01*
X-17307Y19418D01*
X-17295Y19232D01*
X-17216Y19072D01*
X-16946Y19539D01*
X-17196Y19683D01*
D02*
G37*
G36*
X-17595Y19028D02*
X-17886Y18524D01*
X-17750Y18446D01*
X-17606Y18695D01*
X-17560Y18831D01*
X-17569Y18975D01*
X-17595Y19028D01*
D02*
G37*
G36*
X-15214Y18539D02*
X-15484Y18072D01*
X-15306Y18083D01*
X-15138Y18166D01*
X-15015Y18307D01*
X-14964Y18395D01*
X-15214Y18539D01*
D02*
G37*
G36*
X-4298Y10818D02*
X-4676D01*
Y10404D01*
X-4560Y10427D01*
X-4422Y10519D01*
X-4330Y10657D01*
X-4298Y10818D01*
D02*
G37*
G36*
X20247Y-18164D02*
X20168Y-18301D01*
X20120Y-18441D01*
X20130Y-18589D01*
X20176Y-18682D01*
X20417Y-18263D01*
X20247Y-18164D01*
D02*
G37*
G36*
X21110Y-18663D02*
X20868Y-19082D01*
X20972Y-19075D01*
X21105Y-19009D01*
X21202Y-18898D01*
X21281Y-18762D01*
X21110Y-18663D01*
D02*
G37*
G36*
X26256Y-7575D02*
X26204Y-7874D01*
X26205Y-7953D01*
X26237Y-8026D01*
X26295Y-8081D01*
X26334Y-8096D01*
X26421Y-7604D01*
X26256Y-7575D01*
D02*
G37*
G36*
X26921Y-7692D02*
X26834Y-8184D01*
X26876Y-8183D01*
X26949Y-8151D01*
X27004Y-8094D01*
X27033Y-8020D01*
X27085Y-7721D01*
X26921Y-7692D01*
D02*
G37*
G36*
X28016Y4003D02*
X27821Y3969D01*
X27905Y3493D01*
X27980Y3564D01*
X28040Y3700D01*
X28043Y3848D01*
X28016Y4003D01*
D02*
G37*
G36*
X27033Y3830D02*
X26839Y3796D01*
X26867Y3641D01*
X26920Y3503D01*
X27023Y3396D01*
X27117Y3354D01*
X27033Y3830D01*
D02*
G37*
G36*
X14294Y19185D02*
X13685D01*
Y18701D01*
X13841D01*
X14014Y18736D01*
X14161Y18834D01*
X14259Y18980D01*
X14294Y19154D01*
Y19185D01*
D02*
G37*
G36*
X22906Y16789D02*
X22755Y16662D01*
X23066Y16291D01*
X23095Y16391D01*
X23079Y16538D01*
X23008Y16668D01*
X22906Y16789D01*
D02*
G37*
G36*
X22142Y16147D02*
X21991Y16021D01*
X22093Y15900D01*
X22208Y15807D01*
X22350Y15766D01*
X22453Y15777D01*
X22142Y16147D01*
D02*
G37*
%LPD*%
D10*
X-30059Y2268D02*
G03*
X-28263Y1524I1796J1796D01*
G01*
X-23786Y149D02*
G03*
X-25582Y-595I0J-2540D01*
G01*
X-26394Y1393D02*
G03*
X-24598Y649I1796J1796D01*
G01*
X-28265Y-1538D02*
G03*
X-30061Y-2282I0J-2540D01*
G01*
X-10283Y-9073D02*
X-9637Y-8427D01*
X-9842Y-8222D02*
X-9637Y-8427D01*
X-9842Y-8222D02*
X-8982Y-7362D01*
X-8562Y-7782D01*
X-7702Y-6922D01*
X-7917Y-6707D02*
X-7702Y-6922D01*
X-7917Y-6707D02*
X-7847Y-6636D01*
X-17850Y8975D02*
X-16984Y8109D01*
Y7982D02*
Y8109D01*
X-13932Y2649D02*
X-12036D01*
X-11874Y2811D02*
Y3561D01*
X-12036Y2649D02*
X-11874Y2811D01*
X-11928Y5214D02*
X-11874Y5161D01*
X-13089Y5214D02*
X-11928D01*
X-13066Y3549D02*
X-11926D01*
X-15392Y4100D02*
X-14600D01*
X-15432Y4140D02*
Y4149D01*
X-30225Y2434D02*
X-30059Y2268D01*
X-28263Y1524D02*
X-26525D01*
X-22613Y-2891D02*
X-22573Y-2851D01*
X-22613Y-3552D02*
Y-2891D01*
X-21887Y-12264D02*
X-21882Y-12258D01*
X-22573Y-2851D02*
X-22432D01*
X-23213Y-12264D02*
X-21887D01*
X-23095Y-2391D02*
X-22472D01*
X-23362Y-7738D02*
Y-2658D01*
Y-7738D02*
X-22753Y-8347D01*
X-23362Y-2658D02*
X-23095Y-2391D01*
X-23741Y-2402D02*
X-23189Y-1850D01*
X-23741Y-9575D02*
X-23007Y-10310D01*
X-23741Y-9575D02*
Y-2402D01*
X-24127Y-539D02*
X-23556D01*
X-24360Y-772D02*
X-24127Y-539D01*
X-24360Y-1351D02*
Y-772D01*
Y-1369D02*
Y-1351D01*
X9610Y21589D02*
Y22020D01*
Y21589D02*
X9626Y21573D01*
X8960Y21622D02*
X8962Y21620D01*
X8960Y21622D02*
Y22020D01*
X9601Y19286D02*
X9610Y19277D01*
Y18900D02*
Y19277D01*
X8948Y19322D02*
X8960Y19310D01*
Y18900D02*
Y19310D01*
X-10206Y19300D02*
X-8975D01*
X-8975Y19300D02*
X-8900Y19225D01*
Y18000D02*
Y19225D01*
X-15432Y4140D02*
X-15392Y4100D01*
X-16932Y5300D02*
X-16200D01*
X-17392Y4840D02*
X-16932Y5300D01*
X-18432Y5514D02*
X-17162Y6783D01*
X-17932Y4912D02*
X-16865Y5979D01*
X-17932Y4149D02*
Y4912D01*
X-18432Y4149D02*
Y5514D01*
X-17392Y4189D02*
Y4840D01*
X-17432Y4149D02*
X-17392Y4189D01*
X-17825Y1975D02*
X-16932Y2868D01*
X-22051Y3557D02*
X-20469Y1975D01*
X-17825D01*
X-27368Y17668D02*
Y19572D01*
X-26795Y20145D02*
Y21125D01*
X-27368Y19572D02*
X-26795Y20145D01*
Y21125D02*
X-23431Y24489D01*
X-19077Y28229D02*
X-17076D01*
X-14758Y30547D01*
X-13535D01*
X-22817Y24489D02*
X-19077Y28229D01*
X-13535Y30547D02*
X-12682Y31400D01*
X-8206D02*
X-7229Y30423D01*
X-12682Y31400D02*
X-8206D01*
X-23431Y24489D02*
X-22817D01*
X-27368Y17668D02*
X-22051Y12351D01*
Y3557D02*
Y12351D01*
X-23400Y2766D02*
X-23283Y2649D01*
X-23400Y6029D02*
X-23135Y6294D01*
X-23283Y2649D02*
X-22432D01*
X-23400Y2766D02*
Y6029D01*
X-24329Y6239D02*
X-23170D01*
X-23138Y6271D01*
X-23101Y8078D02*
Y9258D01*
X-23135Y8044D02*
X-23101Y8078D01*
X-20289Y6144D02*
X-20172Y6027D01*
X-21132Y6144D02*
X-20289D01*
X-20172Y5302D02*
Y6027D01*
X-21029Y6040D02*
X-20932Y5944D01*
X-21132Y6144D02*
X-21029Y6040D01*
X-20932Y4149D02*
Y5944D01*
X-20435Y3048D02*
X-20434Y3050D01*
Y4147D02*
X-20432Y4149D01*
X-20434Y3050D02*
Y4147D01*
X-16932Y2868D02*
Y4149D01*
X-3600Y19300D02*
X-2369D01*
X13500Y23750D02*
Y24975D01*
X13477Y23727D02*
X13500Y23750D01*
X10806Y20134D02*
X11353D01*
X12244Y21025D02*
Y23170D01*
X11353Y20134D02*
X12244Y21025D01*
X10805Y20135D02*
X10806Y20134D01*
X12228Y23186D02*
Y23377D01*
Y23186D02*
X12244Y23170D01*
X11877Y23727D02*
X12228Y23377D01*
X-24786Y9276D02*
X-24600Y9090D01*
X-24786Y9276D02*
Y10250D01*
X-21132Y7744D02*
X-20852Y8024D01*
Y8397D01*
X-20404Y8845D01*
X-24511Y11376D02*
X-23647D01*
X-24600Y11465D02*
X-24511Y11376D01*
X-19241Y7732D02*
X-19241Y7732D01*
Y8847D01*
X-18932Y4149D02*
Y5923D01*
X-19141Y6132D02*
X-18932Y5923D01*
X-12560Y-11350D02*
X-10283Y-9073D01*
X-7847Y-6636D02*
X-3925Y-2715D01*
Y-175D01*
X-16778Y-11350D02*
X-12560D01*
X-3200Y-3440D02*
Y-701D01*
X-17077Y-12004D02*
X-11764D01*
X-3200Y-3440D01*
X-8312Y-4600D02*
X-7888D01*
X-8312D02*
Y-3914D01*
X-9528D02*
X-8312D01*
X-9528Y-5135D02*
Y-3914D01*
X-10744Y-5135D02*
X-9528D01*
X-10744D02*
Y-3914D01*
X-11960D02*
X-10744D01*
X-11960Y-4600D02*
Y-3914D01*
X-12060Y-4600D02*
X-11960D01*
X-7888D02*
X-6752D01*
X-10534Y-12611D02*
X-2421Y-4498D01*
X-17364Y-12611D02*
X-10534D01*
X-2421Y-4498D02*
Y-1043D01*
X-13691Y-4600D02*
X-12060D01*
X-6752D02*
X-4696Y-2544D01*
X-19432Y-5701D02*
X-17855Y-7278D01*
Y-11225D02*
Y-7278D01*
Y-11225D02*
X-17077Y-12004D01*
X-19137Y-6738D02*
X-18400Y-7475D01*
Y-11575D02*
Y-7475D01*
X-19432Y-5701D02*
Y-4351D01*
X-19941Y-6738D02*
X-19137D01*
X-17099Y-14760D02*
X-11723D01*
X-17080Y-15674D02*
X-17006Y-15600D01*
X-11531D01*
X-11723Y-14760D02*
X-1750Y-4787D01*
X-20294Y-14194D02*
X-20280Y-14180D01*
X-19651D02*
X-19254Y-13782D01*
X-20280Y-14180D02*
X-19651D01*
X-21714Y-5262D02*
Y-5175D01*
X-21894Y-5442D02*
X-21714Y-5262D01*
X-21894Y-6384D02*
Y-5442D01*
X-13848Y-6406D02*
X-13845Y-6409D01*
X-18400Y-11575D02*
X-17364Y-12611D01*
X-11531Y-15600D02*
X-1Y-4070D01*
X-1750Y-4787D02*
Y-1494D01*
X-1Y-4070D02*
Y-1225D01*
X-21664Y-4347D02*
X-20936Y-4347D01*
X-22472Y-2391D02*
X-22432Y-2351D01*
X-13932Y-851D02*
X-10401D01*
X-2903Y6647D01*
X-24360Y-1351D02*
X-22432D01*
X-24378D02*
X-24360D01*
X-2903Y6647D02*
X7087D01*
X7927Y7487D01*
Y7580D02*
X7927D01*
X7927Y7487D02*
X7927D01*
X4644Y6029D02*
X7563Y3110D01*
X-2799Y6029D02*
X4644D01*
X-10179Y-1351D02*
X-2799Y6029D01*
X-13932Y-1351D02*
X-10179D01*
X-2575Y5425D02*
X4350D01*
X-9851Y-1851D02*
X-2575Y5425D01*
X-13932Y-1851D02*
X-9851D01*
X-2296Y4879D02*
X3948D01*
X-13932Y-2351D02*
X-9527D01*
X-2296Y4879D01*
X-8419Y-2064D02*
X-2036Y4319D01*
X-681Y17719D02*
X550D01*
X4350Y5425D02*
X6650Y3125D01*
X7563Y3110D02*
X10520D01*
X6050Y-6652D02*
Y2777D01*
X3948Y4879D02*
X6050Y2777D01*
X6650Y300D02*
Y3125D01*
Y300D02*
X9370Y-2420D01*
X10476D01*
X-2036Y4319D02*
X3681D01*
X5475Y2525D01*
X7392Y-7994D02*
X7392D01*
X6050Y-6652D02*
X7392Y-7994D01*
X5475Y-3875D02*
Y2525D01*
X350Y-9000D02*
X5475Y-3875D01*
X-1450Y-9000D02*
X350D01*
X-4696Y-2544D02*
Y279D01*
X-2913Y2062D01*
X-762D01*
X-2421Y-1043D02*
X-1878Y-500D01*
X-1226D01*
X-3925Y-175D02*
X-3250Y500D01*
X-1226D01*
X-507Y-1707D02*
Y-1231D01*
X-900Y-2100D02*
X-507Y-1707D01*
X499Y-1701D02*
X892Y-2094D01*
X499Y-1701D02*
Y-1225D01*
X-1750Y-1494D02*
X-1501Y-1245D01*
X-1021D01*
X-1001Y-1225D01*
X-3200Y-701D02*
X-2499Y0D01*
X-1261D01*
X-20294Y-8347D02*
X-20289Y-8352D01*
X-19106Y-8352D01*
X-20318Y-8352D02*
X-20289D01*
X-20320Y-8349D02*
X-20318Y-8352D01*
X-20294Y-6384D02*
X-19941Y-6738D01*
X-18932Y-5178D02*
Y-4351D01*
Y-5178D02*
X-17246Y-6865D01*
Y-10882D02*
Y-6865D01*
Y-10882D02*
X-16778Y-11350D01*
X-16626Y-10310D02*
X-15465D01*
X-16626Y-8357D02*
X-15465D01*
X-20294Y-10310D02*
X-19111Y-10310D01*
X-20323Y-10310D02*
X-20294D01*
X-15465Y-8357D02*
X-15465Y-8357D01*
X-15465Y-10310D02*
X-15465Y-10310D01*
X-20325Y-10307D02*
X-20323Y-10310D01*
X-15988Y-2303D02*
X-13691Y-4600D01*
X-19932Y-4351D02*
Y-2868D01*
X-19367Y-2303D02*
X-15988D01*
X-19932Y-2868D02*
X-19367Y-2303D01*
X-17432Y-4351D02*
Y-3015D01*
X-20282Y-12258D02*
X-19111Y-12258D01*
X-20323Y-12258D02*
X-20282D01*
X-15932Y-4351D02*
Y-3368D01*
X-16300Y-3000D02*
X-15932Y-3368D01*
X-2044Y1231D02*
X-1007D01*
X-501Y1225D02*
Y1801D01*
X-762Y2062D02*
X-501Y1801D01*
X-15452Y-6416D02*
X-15445Y-6409D01*
X-16620Y-6416D02*
X-15452D01*
X-13865Y-10310D02*
X-13862Y-10313D01*
X-12650Y-10313D01*
X-20326Y-12256D02*
X-20323Y-12258D01*
X-3050Y-10850D02*
Y-9000D01*
Y-10850D02*
X-3000Y-10900D01*
X-2850Y-10750D01*
X-1387D01*
X-18664Y10468D02*
X-17930Y11202D01*
X-17114D01*
X-16957Y11044D01*
X-18664Y10413D02*
Y10468D01*
X-23007Y-10310D02*
X-21894D01*
X9042Y-8946D02*
Y-8542D01*
X7568Y-7689D02*
X7767Y-7345D01*
X9417Y-8167D02*
Y-7617D01*
X8012Y-7100D02*
X8900D01*
X7767Y-7345D02*
X8012Y-7100D01*
X9042Y-8542D02*
X9417Y-8167D01*
X8900Y-7100D02*
X9417Y-7617D01*
X8345Y-13166D02*
X8647Y-13334D01*
X9515Y-13835D01*
X8242Y-10332D02*
X8571Y-10612D01*
X9312Y-11040D02*
X10460Y-12227D01*
X8571Y-10612D02*
X9312Y-11040D01*
X6960Y-12366D02*
X7186Y-12006D01*
X8003Y-10592D02*
X8242Y-10332D01*
X7186Y-12006D02*
X8003Y-10592D01*
X7392Y-7994D02*
X7568Y-7689D01*
X13140Y-6954D02*
X13481Y-7009D01*
X14468Y-7183D01*
X11564Y-4871D02*
X12074Y-4362D01*
X11564Y-6676D02*
Y-4871D01*
X12074Y-4362D02*
Y-4326D01*
X12374Y-4625D02*
X12988D01*
X12074Y-4326D02*
X12374Y-4625D01*
X12988D02*
X13711Y-5348D01*
X14807D01*
X10971Y-1513D02*
X11889D01*
X12370Y-2733D02*
Y-1993D01*
X11889Y-1513D02*
X12370Y-1993D01*
X10730Y-1754D02*
X10971Y-1513D01*
X10476Y-2420D02*
X10730Y-2166D01*
Y-1754D01*
X12352Y-2750D02*
X12370Y-2733D01*
X10536Y4336D02*
X11746D01*
X10323Y4123D02*
X10536Y4336D01*
X11746D02*
X11956Y4126D01*
X10323Y3306D02*
X10520Y3110D01*
X10323Y3306D02*
Y4123D01*
X11956Y4126D02*
X12026Y3727D01*
X12396Y3442D01*
X14913Y-174D02*
X15900Y0D01*
X14574Y-239D02*
X14913Y-174D01*
X12650Y1547D02*
X12946Y-131D01*
X12650Y1547D02*
X12674Y1866D01*
X12946Y-131D02*
X12999Y-517D01*
X13093Y1733D02*
X13961Y1886D01*
X12674Y1866D02*
X13093Y1733D01*
X13961Y1886D02*
X15569Y1911D01*
X8599Y9500D02*
X9386Y8713D01*
X9386D01*
X7900Y9500D02*
X8599D01*
X7207Y8807D02*
X7900Y9500D01*
X7207Y8300D02*
Y8807D01*
Y8300D02*
X7927Y7580D01*
X7927Y7487D02*
Y7580D01*
X12270Y8908D02*
X13014D01*
X10414Y7487D02*
X10849D01*
X12270Y8908D01*
X10414Y7231D02*
X11887Y5758D01*
X10414Y7231D02*
Y7487D01*
X11887Y5586D02*
Y5758D01*
X13314Y6614D02*
X14100Y7400D01*
X13113Y6614D02*
X13314D01*
X-26500Y-12987D02*
X-25274Y-14213D01*
X-21894D01*
X-26500Y-12987D02*
Y-11399D01*
X-22432Y-351D02*
X-20924Y-351D01*
X-21334Y-851D02*
X-20924Y-1261D01*
X-22432Y-851D02*
X-21334Y-851D01*
X-15031Y2149D02*
X-13932D01*
X-15441Y2559D02*
X-15031Y2149D01*
X-21892Y-14210D02*
Y-12268D01*
X-21894Y-14213D02*
X-21892Y-14210D01*
Y-12268D02*
X-21882Y-12258D01*
X-27748Y-11399D02*
X-26500D01*
X-29138Y-12789D02*
X-27748Y-11399D01*
X-25549Y-12471D02*
Y-11450D01*
Y-12471D02*
X-25548Y-12472D01*
X-25550Y-11449D02*
X-25549Y-11450D01*
X-25550Y9040D02*
X-25549Y9039D01*
Y8018D02*
X-25548Y8017D01*
X-25549Y8018D02*
Y9039D01*
X-25556Y11471D02*
X-25550Y11465D01*
X-25562Y12467D02*
X-25556Y12461D01*
Y11471D02*
Y12461D01*
X-24600Y7629D02*
Y9090D01*
X-28388Y6950D02*
X-25279D01*
X-24600Y7629D01*
X-29138Y7700D02*
X-28388Y6950D01*
X-25200Y13600D02*
X-24600Y13000D01*
Y11390D02*
Y13000D01*
X-27912Y13600D02*
X-25200D01*
X-29138Y12780D02*
X-28732D01*
X-27912Y13600D01*
X-15441Y1649D02*
X-13932Y1649D01*
X-26525Y3124D02*
X-26522Y3126D01*
X-26522Y4338D01*
X-26528Y-3141D02*
X-26528Y-4353D01*
X-26528Y-3141D02*
X-26525Y-3138D01*
X-24565Y-1538D02*
X-24378Y-1351D01*
X-28265Y-1538D02*
X-26525D01*
X-25582Y-595D01*
X-23786Y149D02*
X-22432D01*
X-24598Y649D02*
X-22432D01*
X-26525Y1524D02*
X-26394Y1393D01*
X-24565Y1524D02*
X-23770D01*
X-23150Y2143D01*
X-30225Y-2446D02*
X-30061Y-2282D01*
X-22437Y2143D02*
X-22432Y2149D01*
X-23150Y2143D02*
X-22437D01*
X-24588Y3126D02*
X-24587Y4338D01*
X-24590Y3124D02*
X-24588Y3126D01*
X-23189Y-1850D02*
X-22433D01*
X-22753Y-8347D02*
X-21894D01*
X-13865Y-8357D02*
X-13862Y-8360D01*
X-12650Y-8360D01*
X-20294Y-10310D02*
X-20294Y-10310D01*
X-20432Y-6246D02*
X-20294Y-6384D01*
X-20432Y-6246D02*
X-20432Y-4351D01*
X-24565Y-3139D02*
X-24562Y-3136D01*
X-24565Y-3139D02*
X-24565Y-4351D01*
X-13845Y-6409D02*
X-12633Y-6409D01*
X-15432Y-6396D02*
X-15432Y-4351D01*
X8506Y23756D02*
X8535Y23727D01*
X799Y3200D02*
X2099Y3200D01*
X-2101Y3200D02*
X-801Y3200D01*
X799Y3200D02*
X999Y3000D01*
X999Y1225D01*
X3199Y800D02*
Y2100D01*
X3199Y-2100D02*
X3199Y-800D01*
X2899Y-500D02*
X3199Y-800D01*
X1224Y-500D02*
X2899Y-500D01*
D78*
X-15819Y9250D02*
D03*
X-16931Y8100D02*
D03*
D79*
X-19424Y11372D02*
D03*
X-18474Y13017D02*
D03*
X-16482Y11867D02*
D03*
X-16957Y11044D02*
D03*
X-17432Y10222D02*
D03*
X-18949Y12194D02*
D03*
D80*
X-5200Y19300D02*
D03*
X-3600Y19300D02*
D03*
X-20282Y-12258D02*
D03*
X-21882Y-12258D02*
D03*
X-13845Y-6409D02*
D03*
X-15445Y-6409D02*
D03*
X799Y3200D02*
D03*
X-801Y3200D02*
D03*
X-5076Y11218D02*
D03*
X-6676Y11218D02*
D03*
D81*
X-8975Y19300D02*
D03*
X-7225Y19300D02*
D03*
X-6976Y13118D02*
D03*
X-5226Y13118D02*
D03*
D82*
X550Y17719D02*
D03*
X2150Y17719D02*
D03*
X-1450Y-9000D02*
D03*
X-3050Y-9000D02*
D03*
X-21894Y-14213D02*
D03*
X-20294Y-14213D02*
D03*
X-20294Y-6384D02*
D03*
X-21894Y-6384D02*
D03*
X-20294Y-8347D02*
D03*
X-21894Y-8347D02*
D03*
X-20294Y-10310D02*
D03*
X-21894Y-10310D02*
D03*
X8535Y23727D02*
D03*
X10135Y23727D02*
D03*
X13477Y23727D02*
D03*
X11877Y23727D02*
D03*
D83*
X-3000Y-12500D02*
D03*
X-3000Y-10900D02*
D03*
X-19241Y7732D02*
D03*
X-19241Y6132D02*
D03*
X-24565Y1524D02*
D03*
X-24565Y3124D02*
D03*
D84*
X5343Y-16710D02*
D03*
X7403Y-16710D02*
D03*
D85*
X-807Y-15575D02*
D03*
X2953D02*
D03*
D86*
X1013Y-11700D02*
D03*
X-1387Y-12650D02*
D03*
X-1387Y-10750D02*
D03*
D87*
X6960Y-12366D02*
D03*
X8345Y-13166D02*
D03*
X16843Y-18289D02*
D03*
X18228Y-19089D02*
D03*
X-19707Y21400D02*
D03*
X-21093Y22200D02*
D03*
D88*
X8242Y-10332D02*
D03*
X9042Y-8946D02*
D03*
D89*
X6592Y-9380D02*
D03*
X7392Y-7994D02*
D03*
X19421Y-16908D02*
D03*
X20221Y-15523D02*
D03*
D90*
X11730Y-10027D02*
D03*
X10460Y-12227D02*
D03*
X17987Y-13639D02*
D03*
X16717Y-15839D02*
D03*
D91*
X20964Y-18117D02*
D03*
X21994Y-16333D02*
D03*
D92*
X22901Y-8970D02*
D03*
X24477Y-9247D02*
D03*
X13140Y-6954D02*
D03*
X11564Y-6676D02*
D03*
D93*
X25129Y-5214D02*
D03*
X24852Y-6790D02*
D03*
X10198Y-3996D02*
D03*
X10476Y-2420D02*
D03*
D94*
X26715Y-7398D02*
D03*
X27073Y-5369D02*
D03*
D95*
X25888Y1790D02*
D03*
X24312Y1512D02*
D03*
X12999Y-517D02*
D03*
X14574Y-239D02*
D03*
D96*
X25121Y5803D02*
D03*
X25399Y4227D02*
D03*
X10798Y1534D02*
D03*
X10520Y3110D02*
D03*
D97*
X27358Y4294D02*
D03*
X27000Y6322D02*
D03*
D98*
X10414Y7487D02*
D03*
X9386Y8713D02*
D03*
D99*
X22192Y16711D02*
D03*
X20868Y18289D02*
D03*
D100*
X20528Y15674D02*
D03*
X19500Y16900D02*
D03*
X7927Y7487D02*
D03*
X8955Y6262D02*
D03*
D101*
X22013Y13914D02*
D03*
X20787Y12886D02*
D03*
X13113Y6614D02*
D03*
X11887Y5586D02*
D03*
D102*
X18549Y13552D02*
D03*
X16916Y15498D02*
D03*
X13014Y8908D02*
D03*
X11382Y10854D02*
D03*
D103*
X-16279Y15807D02*
D03*
X-24507Y20557D02*
D03*
D104*
X-18432Y18378D02*
D03*
X-19125Y18778D02*
D03*
X-19818Y19178D02*
D03*
X-20511Y19578D02*
D03*
X-21204Y19978D02*
D03*
D105*
X-15580Y19905D02*
D03*
X-12324Y18025D02*
D03*
D106*
X-25550Y-9099D02*
D03*
X-26500Y-11399D02*
D03*
X-25550Y-11399D02*
D03*
X-24600Y-11399D02*
D03*
X-24600Y-9099D02*
D03*
X-26500Y-9099D02*
D03*
X-25550Y11390D02*
D03*
X-26500Y9090D02*
D03*
X-25550Y9090D02*
D03*
X-24600Y9090D02*
D03*
X-24600Y11390D02*
D03*
X-26500Y11390D02*
D03*
D107*
X-23135Y6294D02*
D03*
X-23135Y8044D02*
D03*
X5145Y23402D02*
D03*
X5145Y21652D02*
D03*
X13285Y19585D02*
D03*
X13285Y21335D02*
D03*
D108*
X-21132Y7744D02*
D03*
X-21132Y6144D02*
D03*
X-24565Y-3138D02*
D03*
X-24565Y-1538D02*
D03*
X-11874Y5161D02*
D03*
X-11874Y3561D02*
D03*
X3199Y-800D02*
D03*
X3199Y800D02*
D03*
X-26525Y-3138D02*
D03*
X-26525Y-1538D02*
D03*
X-26525Y3124D02*
D03*
X-26525Y1524D02*
D03*
D109*
X-20932Y4149D02*
D03*
X-20432Y4149D02*
D03*
X-19932Y4149D02*
D03*
X-19432Y4149D02*
D03*
X-18932Y4149D02*
D03*
X-18432Y4149D02*
D03*
X-17932Y4149D02*
D03*
X-17432Y4149D02*
D03*
X-16932Y4149D02*
D03*
X-16432Y4149D02*
D03*
X-15932Y4149D02*
D03*
X-15432Y4149D02*
D03*
X-15432Y-4351D02*
D03*
X-15932Y-4351D02*
D03*
X-16432Y-4351D02*
D03*
X-16932Y-4351D02*
D03*
X-17432Y-4351D02*
D03*
X-17932D02*
D03*
X-18432Y-4351D02*
D03*
X-18932Y-4351D02*
D03*
X-19432Y-4351D02*
D03*
X-19932Y-4351D02*
D03*
X-20432Y-4351D02*
D03*
X-20932Y-4351D02*
D03*
D110*
X-13932Y2649D02*
D03*
X-13932Y2149D02*
D03*
X-13932Y1649D02*
D03*
X-13932Y1149D02*
D03*
X-13932Y649D02*
D03*
X-13932Y149D02*
D03*
X-13932Y-351D02*
D03*
Y-851D02*
D03*
X-13932Y-1351D02*
D03*
X-13932Y-1851D02*
D03*
X-13932Y-2351D02*
D03*
X-13932Y-2851D02*
D03*
X-22432Y-2851D02*
D03*
X-22432Y-2351D02*
D03*
X-22432Y-1851D02*
D03*
X-22432Y-1351D02*
D03*
X-22432Y-851D02*
D03*
X-22432Y-351D02*
D03*
X-22432Y149D02*
D03*
X-22432Y649D02*
D03*
X-22432Y1149D02*
D03*
X-22432Y1649D02*
D03*
X-22432Y2149D02*
D03*
X-22432Y2649D02*
D03*
D111*
X11785Y16327D02*
D03*
X7285Y16327D02*
D03*
D112*
X9610Y18900D02*
D03*
X8960Y18900D02*
D03*
X9610Y22020D02*
D03*
X8960Y22020D02*
D03*
D113*
X10805Y19485D02*
D03*
X10805Y20135D02*
D03*
X10805Y20785D02*
D03*
X10805Y21435D02*
D03*
X7765Y21435D02*
D03*
X7765Y20785D02*
D03*
X7765Y20135D02*
D03*
X7765Y19485D02*
D03*
D114*
X9285Y20460D02*
D03*
D115*
X-11936Y8394D02*
D03*
X-13107Y9485D02*
D03*
X-13188Y7037D02*
D03*
X-14358Y8128D02*
D03*
D116*
X-1226Y500D02*
D03*
X-1226Y0D02*
D03*
X-1226Y-500D02*
D03*
X1224Y-500D02*
D03*
X1224Y-0D02*
D03*
X1224Y500D02*
D03*
D117*
X-1001Y-1225D02*
D03*
X-501D02*
D03*
X-1Y-1225D02*
D03*
X499Y-1225D02*
D03*
X999Y-1225D02*
D03*
X999Y1225D02*
D03*
X499Y1225D02*
D03*
X-1Y1225D02*
D03*
X-501D02*
D03*
X-1001Y1225D02*
D03*
D118*
X12674Y1866D02*
D03*
X12396Y3442D02*
D03*
D119*
X15128Y4413D02*
D03*
X15569Y1911D02*
D03*
X22243Y5667D02*
D03*
X22684Y3166D02*
D03*
D120*
X12074Y-4326D02*
D03*
X12352Y-2750D02*
D03*
D121*
X15248Y-2847D02*
D03*
X14807Y-5348D02*
D03*
X22363Y-4101D02*
D03*
X21922Y-6603D02*
D03*
D122*
X-15465Y-8357D02*
D03*
X-13865Y-8357D02*
D03*
X-13865Y-10310D02*
D03*
X-15465Y-10310D02*
D03*
D123*
X-5212Y14631D02*
D03*
X-7112Y14631D02*
D03*
X-7112Y17381D02*
D03*
X-6162Y17381D02*
D03*
X-5212Y17381D02*
D03*
D124*
X5145Y17525D02*
D03*
X5145Y19585D02*
D03*
D125*
X-15990Y10588D02*
Y11264D01*
X-16482Y11756D02*
Y11867D01*
X-15990Y10588D02*
X-15110Y9708D01*
X-14407D02*
X-14232Y9533D01*
X-16482Y11756D02*
X-15990Y11264D01*
X-15110Y9708D02*
X-14407D01*
X-13546Y9485D02*
X-13107D01*
X-13781Y9250D02*
X-13546Y9485D01*
X-13949Y9250D02*
X-13781D01*
X-14157Y9458D02*
X-13949Y9250D01*
X-14232Y9533D02*
X-14157Y9458D01*
X-9825Y2575D02*
Y4316D01*
X-11677Y723D02*
X-9825Y2575D01*
X-9825Y4316D02*
X-9825Y4316D01*
X-13230Y723D02*
X-11677D01*
X-13893Y688D02*
X-13265D01*
X-13230Y723D01*
X-13932Y649D02*
X-13893Y688D01*
X-11936Y7924D02*
Y8394D01*
X-12145Y7548D02*
Y7715D01*
X-11936Y7924D01*
X-10177Y2721D02*
Y4170D01*
X-11823Y1075D02*
X-10177Y2721D01*
X-10177Y4170D02*
X-10177Y4170D01*
X-13893Y1110D02*
X-13265D01*
X-13932Y1149D02*
X-13893Y1110D01*
X-13265D02*
X-13230Y1075D01*
X-11823D01*
X-12513Y7250D02*
X-12346D01*
X-12726Y7037D02*
X-12513Y7250D01*
X-13188Y7037D02*
X-12726D01*
X-12346Y7250D02*
X-10177Y5081D01*
X-12145Y7548D02*
X-9825Y5227D01*
X-10177Y4170D02*
Y5081D01*
X-9825Y4316D02*
Y5227D01*
X-15957Y9356D02*
X-14553D01*
X-14171Y8974D01*
Y8797D02*
Y8974D01*
X-14358Y8610D02*
X-14171Y8797D01*
X-14358Y8128D02*
Y8610D01*
X-17357Y10146D02*
X-16282D01*
X-15969Y9834D01*
X-17432Y10222D02*
X-17357Y10146D01*
X-15969Y9425D02*
Y9834D01*
X-20940Y17443D02*
X-20095Y18288D01*
X-20115Y18881D02*
X-20095Y18861D01*
X-20940Y13560D02*
Y17443D01*
X-20095Y18288D02*
Y18861D01*
X-20588Y13706D02*
Y17297D01*
X-19125Y18760D01*
X-20940Y13560D02*
X-19916Y12536D01*
X-20588Y13706D02*
X-19778Y12896D01*
X-20115Y18881D02*
X-19818Y19178D01*
X-19916Y11975D02*
X-19424Y11483D01*
X-19916Y11975D02*
Y12536D01*
X-19424Y11372D02*
Y11483D01*
X-19414Y13092D02*
X-18549D01*
X-19125Y18760D02*
Y18778D01*
X-18549Y13092D02*
X-18474Y13017D01*
X-19610Y12896D02*
X-19414Y13092D01*
X-19778Y12896D02*
X-19610D01*
D126*
X-25011Y-18100D02*
X-7550D01*
X-4650Y-21000D01*
X-7200Y19325D02*
Y21100D01*
X-23836Y-19743D02*
X-16907D01*
X-8150Y-28500D01*
Y-28500D02*
Y-28500D01*
X-24290Y-20197D02*
X-23836Y-19743D01*
X-24344Y-20197D02*
X-24290D01*
X-25576Y-18665D02*
X-25011Y-18100D01*
X-25630Y-18665D02*
X-25576D01*
X2953Y-15844D02*
Y-12453D01*
X1013Y-11700D02*
X2200D01*
X2953Y-12453D01*
X3532Y-16423D02*
X5343D01*
Y-21692D02*
X12150Y-28500D01*
X5343Y-21692D02*
Y-16710D01*
X8651Y-20751D02*
X11901D01*
X7403Y-19503D02*
Y-16710D01*
Y-19503D02*
X8651Y-20751D01*
X11901D02*
X12150Y-21000D01*
X5343Y-16710D02*
Y-16630D01*
X5213Y-16500D02*
X5343Y-16630D01*
X2953Y-15844D02*
X3532Y-16423D01*
X20964Y-18117D02*
X24106Y-20688D01*
X26715Y-7398D02*
X30700Y-8200D01*
X27358Y4294D02*
X31344Y5210D01*
X22192Y16711D02*
X25381Y19153D01*
D127*
X-15807Y15807D02*
X-15325Y15325D01*
X-16553Y15807D02*
X-15807D01*
X-15325Y15325D02*
X-14600Y14600D01*
X-17520Y14839D02*
X-16553Y15807D01*
X8535Y19710D02*
X9285Y20460D01*
X8535Y18443D02*
Y19710D01*
X8524Y18432D02*
X8535Y18443D01*
X-11904Y17857D02*
X-11642Y18119D01*
X-10493D02*
X-10441Y18067D01*
X-11642Y18119D02*
X-10493D01*
X-12324Y18025D02*
X-12103Y17804D01*
X-11904D02*
X-10900Y16800D01*
X-12103Y17804D02*
X-11904D01*
X-25896Y19545D02*
X-24884Y20557D01*
X-24507D01*
X-18643Y12194D02*
X-18302Y11853D01*
X-18009D02*
X-16894Y12968D01*
X-18949Y12194D02*
X-18643D01*
X-18302Y11853D02*
X-18009D01*
X-16894Y12968D02*
X-14932D01*
X-13600Y14300D01*
Y16000D01*
X-15384Y17784D02*
X-13600Y16000D01*
X-15384Y17784D02*
Y19709D01*
X-15580Y19905D02*
X-15384Y19709D01*
X-15413Y15237D02*
Y15413D01*
X-6676Y11203D02*
X-6674Y11201D01*
X-7901Y11188D02*
X-7886Y11203D01*
X-6676D01*
X-6974Y13101D02*
X-6957Y13118D01*
X-8277Y13101D02*
X-6974D01*
X-7112Y17581D02*
Y19187D01*
X-7225Y19300D02*
X-7112Y19187D01*
X16854Y-18351D02*
X16880Y-18346D01*
X16854Y-18351D02*
X16854D01*
X16724Y-18374D02*
X16854Y-18351D01*
X22901Y-8970D02*
X22970Y-8930D01*
X22833Y-9009D02*
X22901Y-8970D01*
X-6160Y17387D02*
Y18368D01*
X-6164Y17383D02*
X-6160Y17387D01*
Y18368D02*
X-6158Y18370D01*
X-6162Y16181D02*
Y17381D01*
X-25550Y-8794D02*
X-25285Y-8529D01*
Y-8372D02*
X-24613Y-7700D01*
X-25285Y-8529D02*
Y-8372D01*
X-24613Y-7700D02*
X-24600D01*
X-29138Y-7709D02*
X-26478D01*
X-25815Y-8372D01*
Y-8529D02*
X-25550Y-8794D01*
Y-9099D02*
Y-8794D01*
X-25815Y-8529D02*
Y-8372D01*
X12927Y19943D02*
X13285Y19585D01*
X10805Y19485D02*
X10815Y19495D01*
X11943Y19943D02*
X12927D01*
X11495Y19495D02*
X11943Y19943D01*
X10815Y19495D02*
X11495D01*
X11607Y21191D02*
Y21963D01*
X11211Y20795D02*
X11607Y21191D01*
X10809Y20789D02*
X10815Y20795D01*
X11211D01*
X10805Y21435D02*
X10805Y21435D01*
Y22977D01*
X10135Y23647D02*
Y23727D01*
Y23647D02*
X10805Y22977D01*
X-16525Y14125D02*
X-15413Y15237D01*
X6592Y-9608D02*
Y-9380D01*
X6723Y21227D02*
X7165Y20785D01*
X5570Y21227D02*
X6723D01*
X7165Y20785D02*
X7765D01*
X5145Y21652D02*
X5570Y21227D01*
X13288Y21338D02*
X13308Y21358D01*
X13285Y21335D02*
X13288Y21338D01*
X-22200Y18800D02*
X-21204Y19796D01*
Y19978D01*
X-24465Y20599D02*
X-23173Y21504D01*
X-24507Y20557D02*
X-24465Y20599D01*
Y22176D02*
X-24440Y22201D01*
X-24465Y20599D02*
Y22176D01*
X-24535Y20529D02*
X-24507Y20557D01*
X-24546Y18937D02*
X-24535Y18948D01*
Y20529D01*
X-21900Y20500D02*
X-21378Y19978D01*
X-21204D01*
X-22100Y23000D02*
X-21300Y22200D01*
X-21093D01*
X-20511Y19578D02*
Y19770D01*
X-19859Y20422D02*
Y21248D01*
X-20511Y19770D02*
X-19859Y20422D01*
Y21248D02*
X-19707Y21400D01*
X-25385Y-9837D02*
X-24973Y-10249D01*
X-25550Y-9099D02*
X-25385Y-9264D01*
Y-9837D02*
Y-9264D01*
X-24973Y-10249D02*
X-24030D01*
X5800Y-10400D02*
X6592Y-9608D01*
X11730Y-9870D02*
X12700Y-8900D01*
X11730Y-10027D02*
Y-9870D01*
Y-10027D02*
X12527D01*
X14000Y-11500D01*
X22570Y-16335D02*
X25391Y-19156D01*
X17987Y-13639D02*
X18356D01*
X17614Y-15839D02*
X18545Y-16770D01*
X16717Y-15839D02*
X17614D01*
X15659Y-17628D02*
X16724Y-18374D01*
X21996Y-16335D02*
X22570D01*
X21994Y-16333D02*
X21996Y-16335D01*
X21379Y-16331D02*
X21992D01*
X20221Y-15523D02*
X20571D01*
X21992Y-16331D02*
X21994Y-16333D01*
X20571Y-15523D02*
X21379Y-16331D01*
X20221Y-15523D02*
Y-15505D01*
X18356Y-13639D02*
X20221Y-15505D01*
X18545Y-16770D02*
X19283D01*
X19403Y-17915D02*
Y-16926D01*
X19421Y-16908D01*
X19283Y-16770D02*
X19421Y-16908D01*
X18228Y-19089D02*
X19403Y-17915D01*
X24477Y-9247D02*
Y-9083D01*
X18228Y-19089D02*
Y-19089D01*
X25391Y-19156D02*
X25391D01*
X21577Y-8673D02*
X22833Y-9009D01*
X24852Y-8709D02*
Y-6790D01*
X24477Y-9083D02*
X24852Y-8709D01*
X22107Y-6788D02*
X24850D01*
X24852Y-6790D01*
X21922Y-6603D02*
X22107Y-6788D01*
X29069Y-5369D02*
X29930Y-6230D01*
X27073Y-5369D02*
X29069D01*
X29930Y-6230D02*
X31047D01*
X26926Y-5222D02*
X27073Y-5369D01*
X23415Y-4101D02*
X24199Y-4885D01*
X24660D02*
X24990Y-5214D01*
X22363Y-4101D02*
X23415D01*
X24199Y-4885D02*
X24660D01*
X24990Y-5214D02*
X25129D01*
X25137Y-5222D01*
X26926D01*
X15601Y-3200D02*
X17600D01*
X15248Y-2847D02*
X15601Y-3200D01*
X15248Y-2847D02*
X15966D01*
X17079Y-1733D01*
X10005Y-4189D02*
X10198Y-3996D01*
X10005Y-5204D02*
Y-4189D01*
X15515Y4800D02*
X17700D01*
X15128Y4413D02*
X15515Y4800D01*
X15000Y4540D02*
Y5700D01*
Y4540D02*
X15128Y4413D01*
X10798Y1534D02*
X10837Y1591D01*
X10798Y1534D02*
X10996Y411D01*
X22900Y1400D02*
X24200D01*
X24312Y1512D01*
X25399Y4157D02*
X25888Y3668D01*
X25399Y4157D02*
Y4227D01*
X25888Y1790D02*
Y3668D01*
X23275Y3757D02*
X24789D01*
X25259Y4227D02*
X25399D01*
X22684Y3166D02*
X23275Y3757D01*
X24789D02*
X25259Y4227D01*
X27000Y6322D02*
X27857Y7179D01*
X30997D01*
X27000Y6195D02*
Y6322D01*
X25280Y5961D02*
X26767D01*
X25121Y5803D02*
X25280Y5961D01*
X26767D02*
X27000Y6195D01*
X22402Y5827D02*
X25098D01*
X25121Y5803D01*
X22243Y5667D02*
X22402Y5827D01*
X8955Y6192D02*
X9762Y5386D01*
X8955Y6192D02*
Y6262D01*
X11654Y10854D02*
X13300Y12500D01*
X11382Y10854D02*
X11654D01*
X10300Y12000D02*
X11382Y10918D01*
Y10854D02*
Y10918D01*
X18933Y16841D02*
X19441D01*
X16974Y15463D02*
X17555D01*
X18933Y16841D01*
X19441D02*
X19500Y16900D01*
X20528Y15481D02*
Y15544D01*
Y15674D01*
Y15544D02*
X22013Y14060D01*
Y13914D02*
Y14060D01*
X18572Y13525D02*
X20528Y15481D01*
X18572Y13490D02*
Y13525D01*
X19700Y12000D02*
X20537Y12702D01*
X20787Y12886D01*
X19757Y17161D02*
X20857Y18084D01*
X20868Y18289D01*
X19500Y16900D02*
X19757Y17161D01*
X21058Y18280D02*
X23708Y20504D01*
X24122Y20707D01*
X20868Y18289D02*
X21058Y18280D01*
X5559Y24749D02*
X5566Y24756D01*
X4731Y23816D02*
Y24749D01*
X4724Y24756D02*
X4731Y24749D01*
X5559Y23816D02*
Y24749D01*
X5145Y23402D02*
X5559Y23816D01*
X8535Y21210D02*
Y22476D01*
X8524Y22488D02*
X8535Y22476D01*
Y21210D02*
X9285Y20460D01*
X10035Y21210D01*
X10035Y22476D02*
X10047Y22488D01*
X10035Y22476D02*
X10035Y21210D01*
X10035Y18443D02*
Y19710D01*
Y18443D02*
X10047Y18432D01*
X9285Y20460D02*
X10035Y19710D01*
X6975Y19309D02*
X7150Y19485D01*
X6975Y17395D02*
Y19309D01*
X7150Y19485D02*
X7765D01*
X4731Y23816D02*
X5145Y23402D01*
X13288Y21338D02*
Y22366D01*
X14487Y21358D02*
X14510Y21381D01*
X13308Y21358D02*
X14487D01*
X8506Y23756D02*
Y25012D01*
D128*
X-5151Y11293D02*
Y13043D01*
X-5226Y13118D02*
X-5151Y13043D01*
Y11293D02*
X-5076Y11218D01*
X-5219Y13125D02*
Y14624D01*
X-5212Y14631D01*
X-5226Y13118D02*
X-5219Y13125D01*
X-5206Y17381D02*
Y19294D01*
X-7200Y19325D02*
X-7105Y19420D01*
X-7225Y19300D02*
X-7200Y19325D01*
X-5320Y19420D02*
X-5200Y19300D01*
X-7105Y19420D02*
X-5320D01*
X-5206Y19294D02*
X-5200Y19300D01*
X12336Y19283D02*
X12983D01*
X11885Y16427D02*
Y18832D01*
X12336Y19283D01*
X12983D02*
X13285Y19585D01*
X11785Y16327D02*
X11885Y16427D01*
X-25908Y10240D02*
X-25615Y9947D01*
X-25550Y-11399D02*
Y-11094D01*
X5145Y21652D02*
X5270D01*
X5245Y21727D02*
X6259D01*
X-26103Y-10249D02*
X-25615Y-10738D01*
Y-11029D02*
X-25550Y-11094D01*
X-25615Y-11029D02*
Y-10738D01*
X-29138Y-10249D02*
X-26103D01*
X10135Y23727D02*
Y24997D01*
X5317Y29815D02*
Y30941D01*
Y29815D02*
X10135Y24997D01*
X3385Y28815D02*
X6845Y25355D01*
X3385Y28815D02*
Y31459D01*
X6845Y22313D02*
Y25355D01*
X-29138Y10240D02*
X-25908D01*
X-25615Y9155D02*
X-25550Y9090D01*
X-25615Y9155D02*
Y9947D01*
X5145Y17346D02*
Y17525D01*
X7285Y16327D02*
Y16806D01*
X5145Y17346D02*
X5185Y17306D01*
X6785D01*
X7285Y16806D01*
X5145Y19585D02*
Y21652D01*
X6259Y21727D02*
X6845Y22313D01*
X7285Y16327D02*
Y16977D01*
X6935Y17327D02*
X7285Y16977D01*
D129*
X3717Y14215D02*
Y26508D01*
X1116Y29109D02*
Y31736D01*
Y29109D02*
X3717Y26508D01*
X-11190Y149D02*
X2175Y13513D01*
X-13932Y149D02*
X-11190D01*
X2175Y13513D02*
Y17719D01*
X-13932Y-351D02*
X-10849D01*
X3717Y14215D01*
X-9207Y-2851D02*
X-8419Y-2064D01*
X-13932Y-2851D02*
X-9207D01*
X2175Y17744D02*
Y18950D01*
X2150Y17719D02*
X2175Y17744D01*
X1116Y31736D02*
X2298Y32918D01*
X8049D01*
X9181Y31787D02*
X9181Y29906D01*
X8049Y32918D02*
X9181Y31787D01*
X6830Y20135D02*
X7765D01*
X6529Y19904D02*
X6599D01*
X6830Y20135D01*
D130*
X12150Y-28500D02*
D03*
Y-21000D02*
D03*
X-8150Y-28500D02*
D03*
X-4650Y-21000D02*
D03*
X-11650D02*
D03*
D131*
X-29138Y-7709D02*
D03*
Y-10249D02*
D03*
Y10240D02*
D03*
Y12780D02*
D03*
D132*
Y-12789D02*
D03*
Y7700D02*
D03*
D133*
X-3365Y31458D02*
D03*
X-11092Y29388D02*
D03*
X-9161Y29905D02*
D03*
X-7229Y30423D02*
D03*
X-5297Y30941D02*
D03*
X13045Y28870D02*
D03*
X5317Y30941D02*
D03*
X7249Y30423D02*
D03*
X9181Y29906D02*
D03*
X11113Y29388D02*
D03*
D134*
X-13024Y28870D02*
D03*
D135*
X24106Y-20688D02*
D03*
X-25630Y-18665D02*
D03*
X-24344Y-20197D02*
D03*
X25381Y19153D02*
D03*
X31344Y5210D02*
D03*
X30700Y-8200D02*
D03*
D136*
X25391Y-19156D02*
D03*
D137*
X-24141Y17690D02*
D03*
X-18945Y14690D02*
D03*
D138*
X3385Y31459D02*
D03*
D139*
X-23059Y-21729D02*
D03*
D140*
X24122Y20707D02*
D03*
D141*
X2000Y24000D02*
D03*
X-2000Y24000D02*
D03*
Y22000D02*
D03*
X0Y24000D02*
D03*
Y22000D02*
D03*
D142*
X2000Y22000D02*
D03*
D143*
X-18000Y25000D02*
D03*
X18000D02*
D03*
Y-25000D02*
D03*
X-18000D02*
D03*
D144*
X30997Y7179D02*
D03*
D145*
X31047Y-6230D02*
D03*
D146*
X-30225Y2434D02*
D03*
X-30225Y-2446D02*
D03*
D147*
X-17850Y8975D02*
D03*
X-13089Y5214D02*
D03*
X-13066Y3549D02*
D03*
X-13800Y4100D02*
D03*
X-14600D02*
D03*
X-23213Y-12264D02*
D03*
X-22613Y-3552D02*
D03*
X-23556Y-539D02*
D03*
X-17520Y14839D02*
D03*
X8524Y18432D02*
D03*
X-10251Y19275D02*
D03*
X-8900Y18000D02*
D03*
X-14600Y4900D02*
D03*
X-16200Y5300D02*
D03*
X-16865Y5979D02*
D03*
X-17162Y6783D02*
D03*
X-18024Y6799D02*
D03*
X-16223Y6657D02*
D03*
X-10441Y18067D02*
D03*
X-10900Y16800D02*
D03*
X-25896Y19545D02*
D03*
X-24329Y6239D02*
D03*
X-23101Y9258D02*
D03*
X-20172Y5302D02*
D03*
X-20435Y3048D02*
D03*
X-14600Y14600D02*
D03*
X-3655Y11408D02*
D03*
Y10658D02*
D03*
X-4403Y9908D02*
D03*
X-5150D02*
D03*
X-3655D02*
D03*
X-7901Y11188D02*
D03*
X-8277Y13101D02*
D03*
X-6158Y18370D02*
D03*
X-6162Y16181D02*
D03*
X-2324Y19275D02*
D03*
X14800Y18350D02*
D03*
X-24600Y-7700D02*
D03*
X8150Y-15750D02*
D03*
X7262D02*
D03*
X13500Y24975D02*
D03*
X13306Y18350D02*
D03*
X14053D02*
D03*
X14800Y19100D02*
D03*
Y19850D02*
D03*
X11607Y21963D02*
D03*
X-23977Y10116D02*
D03*
X-24786Y10250D02*
D03*
X-25606Y10244D02*
D03*
X-20404Y8845D02*
D03*
X-22798Y11376D02*
D03*
X-23647D02*
D03*
Y12200D02*
D03*
X-19241Y8847D02*
D03*
X-16525Y14125D02*
D03*
X-17099Y-13910D02*
D03*
X-17099Y-14760D02*
D03*
X-17080Y-15674D02*
D03*
X-17103Y-16494D02*
D03*
X-16626Y-9355D02*
D03*
X-19106Y-9350D02*
D03*
X-19254Y-13782D02*
D03*
X-21714Y-5175D02*
D03*
X-17888Y-16220D02*
D03*
X-21564Y-3452D02*
D03*
X-21664Y-4347D02*
D03*
X5950Y20542D02*
D03*
X6025Y19256D02*
D03*
X2925Y19565D02*
D03*
X3102Y18335D02*
D03*
X-726Y17693D02*
D03*
X2175Y19799D02*
D03*
X1326Y18950D02*
D03*
X2175D02*
D03*
X892Y-2094D02*
D03*
X-900Y-2100D02*
D03*
X-19106Y-8352D02*
D03*
X-16626Y-10310D02*
D03*
Y-8357D02*
D03*
X-19111Y-10310D02*
D03*
X-17432Y-3015D02*
D03*
X-16300Y-3000D02*
D03*
X-2044Y1231D02*
D03*
X-16620Y-6416D02*
D03*
X-12650Y-10313D02*
D03*
X-19111Y-12258D02*
D03*
X-1171Y-17535D02*
D03*
X-371D02*
D03*
X-1171Y-13615D02*
D03*
X-371D02*
D03*
X-2300Y-13800D02*
D03*
Y-15600D02*
D03*
Y-17400D02*
D03*
X-3100D02*
D03*
Y-16500D02*
D03*
Y-15600D02*
D03*
Y-14700D02*
D03*
Y-13800D02*
D03*
X8724Y-16341D02*
D03*
X8721Y-17122D02*
D03*
X-18664Y10413D02*
D03*
X-22200Y18800D02*
D03*
X-23138Y21498D02*
D03*
X-24440Y22201D02*
D03*
X-24546Y18937D02*
D03*
X-21900Y20500D02*
D03*
X-22100Y23000D02*
D03*
X-24030Y-10249D02*
D03*
X5800Y-10400D02*
D03*
X9515Y-13835D02*
D03*
X14000Y-11500D02*
D03*
X12700Y-8900D02*
D03*
X15659Y-17628D02*
D03*
X20034Y-19102D02*
D03*
X20709Y-19495D02*
D03*
X26178Y-8642D02*
D03*
X26947Y-8780D02*
D03*
X21577Y-8673D02*
D03*
X17600Y-3200D02*
D03*
X17079Y-1733D02*
D03*
X14468Y-7183D02*
D03*
X10005Y-5204D02*
D03*
X17700Y4800D02*
D03*
X15000Y5700D02*
D03*
X10996Y411D02*
D03*
X15900Y0D02*
D03*
X28049Y3074D02*
D03*
X27279Y2941D02*
D03*
X22900Y1400D02*
D03*
X9762Y5386D02*
D03*
X14100Y7400D02*
D03*
X13300Y12500D02*
D03*
X10300Y12000D02*
D03*
X19700Y12000D02*
D03*
X22800Y15500D02*
D03*
X23400Y16000D02*
D03*
X5566Y24756D02*
D03*
X4724D02*
D03*
X-20924Y497D02*
D03*
X-20075Y-351D02*
D03*
X-20924Y-351D02*
D03*
X-20924Y-1261D02*
D03*
X-23141Y-13113D02*
D03*
X-25548Y-12472D02*
D03*
Y8017D02*
D03*
X-25562Y12467D02*
D03*
X-16314Y1649D02*
D03*
X-15441Y800D02*
D03*
Y1649D02*
D03*
Y2559D02*
D03*
X-26522Y4338D02*
D03*
X-26528Y-4353D02*
D03*
X-24587Y4338D02*
D03*
X-12650Y-8360D02*
D03*
X-24565Y-4351D02*
D03*
X-12633Y-6409D02*
D03*
X8524Y22488D02*
D03*
X10047Y22488D02*
D03*
X10047Y18432D02*
D03*
X6529Y19904D02*
D03*
X13288Y22366D02*
D03*
X14510Y21381D02*
D03*
X8506Y25012D02*
D03*
X3199Y-2100D02*
D03*
X2099Y3200D02*
D03*
X-2101Y3200D02*
D03*
X3199Y2100D02*
D03*
M02*
