G04*
G04 #@! TF.GenerationSoftware,Altium Limited,Altium Designer,23.0.1 (38)*
G04*
G04 Layer_Color=32896*
%FSLAX43Y43*%
%MOMM*%
G71*
G04*
G04 #@! TF.SameCoordinates,849B8B9A-CF0B-4B68-86F2-F378DEA603F9*
G04*
G04*
G04 #@! TF.FilePolarity,Positive*
G04*
G01*
G75*
%ADD10C,0.200*%
%ADD148R,13.651X4.700*%
G36*
X3176Y20824D02*
X2608D01*
X3176Y21392D01*
Y20824D01*
D02*
G37*
G36*
X5110Y-4521D02*
X5176Y-4532D01*
X5232Y-4546D01*
X5276Y-4563D01*
X5312Y-4582D01*
X5337Y-4596D01*
X5354Y-4607D01*
X5359Y-4610D01*
X5398Y-4649D01*
X5432Y-4696D01*
X5459Y-4743D01*
X5479Y-4793D01*
X5495Y-4838D01*
X5504Y-4857D01*
X5509Y-4874D01*
X5512Y-4888D01*
X5515Y-4899D01*
X5518Y-4904D01*
Y-4907D01*
X5251Y-4963D01*
X5240Y-4929D01*
X5229Y-4902D01*
X5215Y-4877D01*
X5204Y-4860D01*
X5196Y-4846D01*
X5187Y-4838D01*
X5182Y-4832D01*
X5179Y-4829D01*
X5159Y-4818D01*
X5140Y-4807D01*
X5098Y-4799D01*
X5082Y-4796D01*
X5068Y-4793D01*
X5026D01*
X5001Y-4796D01*
X4982Y-4802D01*
X4965Y-4804D01*
X4951Y-4810D01*
X4943Y-4816D01*
X4937Y-4818D01*
X4935D01*
X4907Y-4838D01*
X4887Y-4854D01*
X4876Y-4871D01*
X4874Y-4874D01*
Y-4877D01*
X4868Y-4893D01*
X4862Y-4913D01*
X4860Y-4938D01*
Y-4960D01*
X4857Y-4985D01*
Y-5004D01*
Y-5015D01*
Y-5021D01*
X4874Y-5029D01*
X4893Y-5038D01*
X4937Y-5052D01*
X4985Y-5068D01*
X5032Y-5082D01*
X5076Y-5093D01*
X5096Y-5099D01*
X5112Y-5102D01*
X5126Y-5104D01*
X5137Y-5107D01*
X5143Y-5110D01*
X5146D01*
X5204Y-5126D01*
X5257Y-5143D01*
X5298Y-5157D01*
X5332Y-5174D01*
X5359Y-5185D01*
X5379Y-5196D01*
X5390Y-5201D01*
X5393Y-5204D01*
X5420Y-5224D01*
X5443Y-5246D01*
X5462Y-5268D01*
X5479Y-5290D01*
X5493Y-5310D01*
X5501Y-5326D01*
X5507Y-5337D01*
X5509Y-5340D01*
X5523Y-5374D01*
X5534Y-5407D01*
X5540Y-5440D01*
X5545Y-5471D01*
X5548Y-5498D01*
X5551Y-5521D01*
Y-5535D01*
Y-5540D01*
X5545Y-5604D01*
X5534Y-5662D01*
X5518Y-5712D01*
X5498Y-5754D01*
X5482Y-5787D01*
X5465Y-5812D01*
X5454Y-5826D01*
X5448Y-5832D01*
X5407Y-5868D01*
X5362Y-5896D01*
X5318Y-5912D01*
X5276Y-5926D01*
X5240Y-5934D01*
X5209Y-5937D01*
X5198Y-5940D01*
X5182D01*
X5146Y-5937D01*
X5112Y-5932D01*
X5082Y-5926D01*
X5054Y-5918D01*
X5032Y-5909D01*
X5012Y-5901D01*
X5001Y-5898D01*
X4998Y-5896D01*
X4968Y-5876D01*
X4937Y-5857D01*
X4910Y-5834D01*
X4885Y-5812D01*
X4862Y-5793D01*
X4849Y-5776D01*
X4837Y-5765D01*
X4835Y-5762D01*
X4796Y-5909D01*
X4504D01*
X4518Y-5873D01*
X4529Y-5840D01*
X4538Y-5809D01*
X4546Y-5782D01*
X4551Y-5759D01*
X4554Y-5740D01*
X4557Y-5729D01*
Y-5726D01*
X4563Y-5690D01*
X4565Y-5648D01*
X4568Y-5604D01*
Y-5562D01*
X4571Y-5523D01*
Y-5490D01*
Y-5479D01*
Y-5471D01*
Y-5465D01*
Y-5462D01*
X4568Y-5043D01*
Y-4999D01*
X4571Y-4960D01*
Y-4924D01*
X4574Y-4891D01*
X4579Y-4860D01*
X4582Y-4835D01*
X4585Y-4810D01*
X4590Y-4791D01*
X4593Y-4771D01*
X4599Y-4757D01*
X4604Y-4732D01*
X4610Y-4721D01*
X4613Y-4716D01*
X4629Y-4682D01*
X4651Y-4655D01*
X4676Y-4630D01*
X4699Y-4610D01*
X4721Y-4593D01*
X4737Y-4580D01*
X4749Y-4574D01*
X4754Y-4571D01*
X4793Y-4555D01*
X4840Y-4541D01*
X4887Y-4532D01*
X4932Y-4524D01*
X4973Y-4521D01*
X5007Y-4518D01*
X5037D01*
X5110Y-4521D01*
D02*
G37*
G36*
X-5088Y-5912D02*
X-5074Y-5965D01*
X-5057Y-6007D01*
X-5043Y-6043D01*
X-5029Y-6070D01*
X-5015Y-6093D01*
X-5004Y-6107D01*
X-4999Y-6115D01*
X-4996Y-6118D01*
X-4974Y-6137D01*
X-4952Y-6151D01*
X-4929Y-6162D01*
X-4907Y-6168D01*
X-4888Y-6173D01*
X-4871Y-6176D01*
X-4857D01*
X-4815Y-6173D01*
X-4777Y-6168D01*
X-4760Y-6165D01*
X-4746Y-6162D01*
X-4738Y-6159D01*
X-4735D01*
X-4760Y-6440D01*
X-4821Y-6454D01*
X-4849Y-6456D01*
X-4874Y-6459D01*
X-4896Y-6462D01*
X-4927D01*
X-4965Y-6459D01*
X-5001Y-6456D01*
X-5035Y-6451D01*
X-5063Y-6442D01*
X-5082Y-6437D01*
X-5099Y-6431D01*
X-5110Y-6429D01*
X-5113Y-6426D01*
X-5140Y-6412D01*
X-5165Y-6395D01*
X-5187Y-6379D01*
X-5207Y-6362D01*
X-5221Y-6345D01*
X-5232Y-6334D01*
X-5237Y-6326D01*
X-5240Y-6323D01*
X-5260Y-6295D01*
X-5276Y-6262D01*
X-5293Y-6226D01*
X-5310Y-6193D01*
X-5321Y-6162D01*
X-5332Y-6134D01*
X-5337Y-6118D01*
X-5340Y-6115D01*
Y-6112D01*
X-5415Y-5859D01*
X-5809Y-4549D01*
X-5504D01*
X-5243Y-5518D01*
X-4977Y-4549D01*
X-4663D01*
X-5088Y-5912D01*
D02*
G37*
G36*
X6520Y-4008D02*
X6595Y-4019D01*
X6661Y-4038D01*
X6720Y-4058D01*
X6745Y-4069D01*
X6767Y-4077D01*
X6786Y-4088D01*
X6800Y-4097D01*
X6814Y-4102D01*
X6822Y-4108D01*
X6828Y-4113D01*
X6831D01*
X6889Y-4158D01*
X6942Y-4210D01*
X6986Y-4263D01*
X7025Y-4319D01*
X7056Y-4366D01*
X7070Y-4385D01*
X7078Y-4405D01*
X7086Y-4419D01*
X7092Y-4430D01*
X7097Y-4438D01*
Y-4441D01*
X7131Y-4527D01*
X7156Y-4616D01*
X7175Y-4705D01*
X7186Y-4788D01*
X7192Y-4827D01*
X7194Y-4860D01*
X7197Y-4893D01*
Y-4918D01*
X7200Y-4940D01*
Y-4957D01*
Y-4968D01*
Y-4971D01*
X7194Y-5079D01*
X7183Y-5179D01*
X7178Y-5226D01*
X7169Y-5268D01*
X7158Y-5310D01*
X7150Y-5346D01*
X7142Y-5379D01*
X7131Y-5410D01*
X7122Y-5435D01*
X7117Y-5457D01*
X7108Y-5474D01*
X7106Y-5485D01*
X7100Y-5493D01*
Y-5496D01*
X7058Y-5573D01*
X7014Y-5640D01*
X6967Y-5698D01*
X6922Y-5746D01*
X6884Y-5782D01*
X6850Y-5807D01*
X6839Y-5818D01*
X6831Y-5823D01*
X6825Y-5826D01*
X6822Y-5829D01*
X6756Y-5865D01*
X6686Y-5893D01*
X6617Y-5912D01*
X6556Y-5926D01*
X6528Y-5932D01*
X6500Y-5934D01*
X6478Y-5937D01*
X6459D01*
X6442Y-5940D01*
X6420D01*
X6350Y-5937D01*
X6284Y-5926D01*
X6220Y-5912D01*
X6164Y-5898D01*
X6117Y-5882D01*
X6098Y-5876D01*
X6078Y-5871D01*
X6067Y-5865D01*
X6056Y-5859D01*
X6051Y-5857D01*
X6048D01*
X5981Y-5823D01*
X5923Y-5787D01*
X5876Y-5754D01*
X5834Y-5721D01*
X5801Y-5693D01*
X5779Y-5671D01*
X5765Y-5657D01*
X5759Y-5651D01*
Y-4904D01*
X6428D01*
Y-5221D01*
X6073D01*
Y-5457D01*
X6103Y-5485D01*
X6134Y-5507D01*
X6164Y-5526D01*
X6189Y-5543D01*
X6214Y-5557D01*
X6234Y-5565D01*
X6245Y-5571D01*
X6251Y-5573D01*
X6287Y-5587D01*
X6320Y-5598D01*
X6353Y-5604D01*
X6381Y-5610D01*
X6403Y-5612D01*
X6420Y-5615D01*
X6437D01*
X6473Y-5612D01*
X6506Y-5610D01*
X6567Y-5593D01*
X6623Y-5568D01*
X6667Y-5540D01*
X6700Y-5512D01*
X6725Y-5487D01*
X6742Y-5471D01*
X6745Y-5468D01*
X6747Y-5465D01*
X6770Y-5429D01*
X6789Y-5393D01*
X6822Y-5310D01*
X6845Y-5224D01*
X6861Y-5140D01*
X6867Y-5104D01*
X6870Y-5068D01*
X6875Y-5035D01*
Y-5007D01*
X6878Y-4985D01*
Y-4965D01*
Y-4954D01*
Y-4952D01*
X6875Y-4893D01*
X6872Y-4841D01*
X6867Y-4791D01*
X6859Y-4743D01*
X6850Y-4702D01*
X6839Y-4663D01*
X6828Y-4630D01*
X6817Y-4599D01*
X6806Y-4571D01*
X6795Y-4546D01*
X6784Y-4527D01*
X6775Y-4510D01*
X6767Y-4499D01*
X6761Y-4491D01*
X6756Y-4485D01*
Y-4482D01*
X6731Y-4455D01*
X6706Y-4430D01*
X6681Y-4410D01*
X6653Y-4394D01*
X6600Y-4366D01*
X6548Y-4346D01*
X6503Y-4335D01*
X6484Y-4332D01*
X6467Y-4330D01*
X6453Y-4327D01*
X6434D01*
X6387Y-4330D01*
X6345Y-4338D01*
X6309Y-4352D01*
X6276Y-4366D01*
X6251Y-4380D01*
X6231Y-4394D01*
X6217Y-4402D01*
X6214Y-4405D01*
X6184Y-4435D01*
X6156Y-4471D01*
X6134Y-4510D01*
X6117Y-4543D01*
X6103Y-4577D01*
X6095Y-4602D01*
X6090Y-4621D01*
X6087Y-4624D01*
Y-4627D01*
X5779Y-4557D01*
X5790Y-4507D01*
X5801Y-4460D01*
X5817Y-4419D01*
X5834Y-4377D01*
X5851Y-4341D01*
X5870Y-4307D01*
X5887Y-4277D01*
X5906Y-4249D01*
X5923Y-4224D01*
X5940Y-4202D01*
X5956Y-4185D01*
X5967Y-4169D01*
X5978Y-4158D01*
X5987Y-4149D01*
X5992Y-4146D01*
X5995Y-4144D01*
X6026Y-4119D01*
X6062Y-4097D01*
X6098Y-4077D01*
X6134Y-4060D01*
X6206Y-4035D01*
X6278Y-4019D01*
X6309Y-4013D01*
X6339Y-4010D01*
X6367Y-4008D01*
X6389Y-4005D01*
X6409Y-4002D01*
X6437D01*
X6520Y-4008D01*
D02*
G37*
G36*
X3069Y-4280D02*
Y-4549D01*
X3205D01*
Y-4835D01*
X3069D01*
Y-5429D01*
Y-5471D01*
Y-5507D01*
X3066Y-5540D01*
Y-5573D01*
Y-5601D01*
X3063Y-5623D01*
Y-5646D01*
X3061Y-5665D01*
X3058Y-5696D01*
X3055Y-5715D01*
X3052Y-5729D01*
Y-5732D01*
X3041Y-5768D01*
X3030Y-5798D01*
X3013Y-5826D01*
X3000Y-5848D01*
X2986Y-5865D01*
X2975Y-5876D01*
X2966Y-5884D01*
X2963Y-5887D01*
X2936Y-5904D01*
X2905Y-5918D01*
X2875Y-5926D01*
X2847Y-5934D01*
X2819Y-5937D01*
X2800Y-5940D01*
X2780D01*
X2733Y-5937D01*
X2689Y-5932D01*
X2650Y-5923D01*
X2614Y-5912D01*
X2586Y-5904D01*
X2564Y-5896D01*
X2553Y-5890D01*
X2547Y-5887D01*
X2575Y-5607D01*
X2603Y-5618D01*
X2625Y-5626D01*
X2644Y-5632D01*
X2661Y-5635D01*
X2675Y-5637D01*
X2683Y-5640D01*
X2691D01*
X2711Y-5637D01*
X2725Y-5632D01*
X2739Y-5623D01*
X2747Y-5615D01*
X2761Y-5598D01*
X2764Y-5593D01*
Y-5590D01*
Y-5582D01*
X2766Y-5573D01*
X2769Y-5546D01*
Y-5512D01*
X2772Y-5476D01*
Y-5443D01*
Y-5412D01*
Y-5401D01*
Y-5393D01*
Y-5387D01*
Y-5385D01*
Y-4835D01*
X2572D01*
Y-4549D01*
X2772D01*
Y-4069D01*
X3069Y-4280D01*
D02*
G37*
G36*
X-1409Y-4521D02*
X-1367Y-4527D01*
X-1329Y-4535D01*
X-1290Y-4546D01*
X-1223Y-4577D01*
X-1195Y-4593D01*
X-1168Y-4610D01*
X-1143Y-4627D01*
X-1123Y-4643D01*
X-1104Y-4660D01*
X-1090Y-4674D01*
X-1079Y-4685D01*
X-1070Y-4693D01*
X-1065Y-4699D01*
X-1062Y-4702D01*
X-1037Y-4738D01*
X-1015Y-4777D01*
X-993Y-4818D01*
X-976Y-4863D01*
X-951Y-4952D01*
X-934Y-5038D01*
X-926Y-5077D01*
X-923Y-5115D01*
X-920Y-5149D01*
X-918Y-5176D01*
X-915Y-5201D01*
Y-5218D01*
Y-5232D01*
Y-5235D01*
X-918Y-5288D01*
X-920Y-5340D01*
X-934Y-5435D01*
X-945Y-5479D01*
X-957Y-5521D01*
X-968Y-5560D01*
X-982Y-5593D01*
X-993Y-5626D01*
X-1004Y-5654D01*
X-1015Y-5676D01*
X-1026Y-5698D01*
X-1034Y-5712D01*
X-1040Y-5726D01*
X-1045Y-5732D01*
Y-5734D01*
X-1070Y-5771D01*
X-1101Y-5801D01*
X-1131Y-5829D01*
X-1165Y-5854D01*
X-1198Y-5873D01*
X-1231Y-5890D01*
X-1265Y-5904D01*
X-1298Y-5915D01*
X-1356Y-5929D01*
X-1384Y-5934D01*
X-1406Y-5937D01*
X-1426D01*
X-1440Y-5940D01*
X-1451D01*
X-1490Y-5937D01*
X-1526Y-5934D01*
X-1595Y-5918D01*
X-1656Y-5896D01*
X-1712Y-5862D01*
X-1759Y-5826D01*
X-1801Y-5784D01*
X-1837Y-5740D01*
X-1867Y-5693D01*
X-1895Y-5648D01*
X-1917Y-5604D01*
X-1934Y-5562D01*
X-1945Y-5526D01*
X-1956Y-5493D01*
X-1962Y-5471D01*
X-1967Y-5454D01*
Y-5449D01*
X-1676Y-5387D01*
X-1664Y-5437D01*
X-1653Y-5482D01*
X-1639Y-5515D01*
X-1626Y-5543D01*
X-1615Y-5565D01*
X-1603Y-5579D01*
X-1598Y-5587D01*
X-1595Y-5590D01*
X-1576Y-5610D01*
X-1553Y-5623D01*
X-1528Y-5632D01*
X-1509Y-5637D01*
X-1490Y-5643D01*
X-1476Y-5646D01*
X-1462D01*
X-1420Y-5640D01*
X-1387Y-5629D01*
X-1354Y-5615D01*
X-1329Y-5596D01*
X-1309Y-5579D01*
X-1292Y-5562D01*
X-1284Y-5551D01*
X-1281Y-5548D01*
X-1270Y-5529D01*
X-1259Y-5504D01*
X-1245Y-5454D01*
X-1234Y-5396D01*
X-1226Y-5340D01*
X-1220Y-5288D01*
Y-5265D01*
X-1217Y-5246D01*
Y-5229D01*
Y-5218D01*
Y-5210D01*
Y-5207D01*
Y-5168D01*
X-1220Y-5129D01*
X-1223Y-5096D01*
X-1229Y-5065D01*
X-1234Y-5038D01*
X-1240Y-5013D01*
X-1251Y-4968D01*
X-1262Y-4938D01*
X-1273Y-4913D01*
X-1281Y-4902D01*
X-1284Y-4896D01*
X-1312Y-4866D01*
X-1340Y-4841D01*
X-1370Y-4824D01*
X-1398Y-4813D01*
X-1420Y-4807D01*
X-1442Y-4802D01*
X-1459D01*
X-1490Y-4804D01*
X-1517Y-4810D01*
X-1540Y-4821D01*
X-1562Y-4835D01*
X-1598Y-4868D01*
X-1623Y-4907D01*
X-1642Y-4949D01*
X-1653Y-4982D01*
X-1659Y-4996D01*
Y-5007D01*
X-1662Y-5013D01*
Y-5015D01*
X-1953Y-4952D01*
X-1942Y-4910D01*
X-1928Y-4874D01*
X-1917Y-4838D01*
X-1900Y-4804D01*
X-1873Y-4749D01*
X-1842Y-4705D01*
X-1814Y-4668D01*
X-1792Y-4643D01*
X-1778Y-4630D01*
X-1776Y-4624D01*
X-1773D01*
X-1723Y-4588D01*
X-1673Y-4563D01*
X-1617Y-4543D01*
X-1567Y-4532D01*
X-1523Y-4524D01*
X-1503Y-4521D01*
X-1487D01*
X-1473Y-4518D01*
X-1453D01*
X-1409Y-4521D01*
D02*
G37*
G36*
X1875Y-4521D02*
X1900Y-4524D01*
X1922Y-4532D01*
X1942Y-4541D01*
X1956Y-4549D01*
X1967Y-4555D01*
X1975Y-4560D01*
X1978Y-4563D01*
X2000Y-4582D01*
X2020Y-4610D01*
X2042Y-4641D01*
X2061Y-4668D01*
X2078Y-4699D01*
X2092Y-4721D01*
X2100Y-4738D01*
X2103Y-4741D01*
Y-4549D01*
X2378D01*
Y-5909D01*
X2081D01*
Y-5490D01*
Y-5432D01*
Y-5379D01*
X2078Y-5332D01*
Y-5288D01*
X2075Y-5246D01*
Y-5210D01*
X2072Y-5179D01*
X2070Y-5151D01*
Y-5126D01*
X2067Y-5107D01*
Y-5088D01*
X2064Y-5074D01*
Y-5065D01*
X2061Y-5057D01*
Y-5052D01*
X2053Y-5010D01*
X2042Y-4977D01*
X2031Y-4946D01*
X2020Y-4924D01*
X2011Y-4907D01*
X2003Y-4896D01*
X1997Y-4891D01*
X1995Y-4888D01*
X1975Y-4871D01*
X1959Y-4860D01*
X1939Y-4852D01*
X1922Y-4846D01*
X1909Y-4843D01*
X1897Y-4841D01*
X1886D01*
X1861Y-4843D01*
X1839Y-4849D01*
X1814Y-4860D01*
X1795Y-4871D01*
X1775Y-4882D01*
X1761Y-4893D01*
X1753Y-4899D01*
X1750Y-4902D01*
X1656Y-4588D01*
X1692Y-4566D01*
X1725Y-4549D01*
X1759Y-4535D01*
X1789Y-4527D01*
X1814Y-4521D01*
X1834Y-4518D01*
X1850D01*
X1875Y-4521D01*
D02*
G37*
G36*
X3952Y-4524D02*
X4021Y-4538D01*
X4082Y-4555D01*
X4132Y-4577D01*
X4171Y-4599D01*
X4199Y-4616D01*
X4207Y-4624D01*
X4216Y-4630D01*
X4218Y-4632D01*
X4221Y-4635D01*
X4243Y-4657D01*
X4260Y-4680D01*
X4291Y-4729D01*
X4310Y-4779D01*
X4327Y-4829D01*
X4335Y-4871D01*
X4338Y-4891D01*
Y-4907D01*
X4340Y-4918D01*
Y-4929D01*
Y-4935D01*
Y-4938D01*
X4338Y-4971D01*
X4335Y-5004D01*
X4321Y-5063D01*
X4302Y-5115D01*
X4279Y-5157D01*
X4257Y-5190D01*
X4238Y-5215D01*
X4224Y-5229D01*
X4218Y-5235D01*
X4196Y-5251D01*
X4171Y-5268D01*
X4141Y-5285D01*
X4105Y-5299D01*
X4030Y-5329D01*
X3949Y-5360D01*
X3913Y-5371D01*
X3877Y-5382D01*
X3844Y-5393D01*
X3813Y-5401D01*
X3788Y-5410D01*
X3771Y-5412D01*
X3757Y-5418D01*
X3755D01*
X3730Y-5426D01*
X3710Y-5432D01*
X3694Y-5440D01*
X3683Y-5449D01*
X3671Y-5454D01*
X3666Y-5457D01*
X3660Y-5462D01*
X3646Y-5485D01*
X3638Y-5507D01*
X3635Y-5523D01*
Y-5529D01*
Y-5532D01*
X3638Y-5557D01*
X3644Y-5576D01*
X3652Y-5596D01*
X3660Y-5610D01*
X3671Y-5623D01*
X3680Y-5632D01*
X3685Y-5637D01*
X3688Y-5640D01*
X3710Y-5654D01*
X3735Y-5662D01*
X3788Y-5673D01*
X3810Y-5676D01*
X3830Y-5679D01*
X3846D01*
X3882Y-5676D01*
X3913Y-5671D01*
X3943Y-5660D01*
X3968Y-5646D01*
X3991Y-5629D01*
X4010Y-5612D01*
X4038Y-5571D01*
X4060Y-5532D01*
X4074Y-5498D01*
X4077Y-5485D01*
X4080Y-5474D01*
X4082Y-5468D01*
Y-5465D01*
X4379Y-5521D01*
X4360Y-5593D01*
X4335Y-5657D01*
X4304Y-5709D01*
X4274Y-5754D01*
X4246Y-5790D01*
X4224Y-5815D01*
X4207Y-5829D01*
X4204Y-5834D01*
X4202D01*
X4146Y-5871D01*
X4088Y-5896D01*
X4027Y-5915D01*
X3971Y-5926D01*
X3921Y-5934D01*
X3902Y-5937D01*
X3882D01*
X3866Y-5940D01*
X3846D01*
X3802Y-5937D01*
X3763Y-5934D01*
X3688Y-5920D01*
X3624Y-5898D01*
X3571Y-5876D01*
X3549Y-5865D01*
X3530Y-5854D01*
X3513Y-5843D01*
X3499Y-5832D01*
X3488Y-5823D01*
X3480Y-5818D01*
X3477Y-5812D01*
X3474D01*
X3449Y-5787D01*
X3430Y-5762D01*
X3410Y-5734D01*
X3397Y-5707D01*
X3372Y-5654D01*
X3355Y-5601D01*
X3347Y-5557D01*
X3341Y-5537D01*
Y-5521D01*
X3338Y-5507D01*
Y-5496D01*
Y-5490D01*
Y-5487D01*
X3341Y-5429D01*
X3352Y-5376D01*
X3366Y-5332D01*
X3383Y-5293D01*
X3399Y-5263D01*
X3413Y-5243D01*
X3424Y-5229D01*
X3427Y-5224D01*
X3447Y-5207D01*
X3466Y-5188D01*
X3516Y-5157D01*
X3571Y-5129D01*
X3627Y-5104D01*
X3680Y-5085D01*
X3702Y-5077D01*
X3724Y-5068D01*
X3741Y-5065D01*
X3752Y-5060D01*
X3760Y-5057D01*
X3763D01*
X3802Y-5046D01*
X3838Y-5035D01*
X3869Y-5027D01*
X3896Y-5018D01*
X3921Y-5010D01*
X3941Y-5002D01*
X3960Y-4993D01*
X3977Y-4988D01*
X3999Y-4979D01*
X4013Y-4971D01*
X4021Y-4965D01*
X4024D01*
X4038Y-4954D01*
X4049Y-4940D01*
X4055Y-4929D01*
X4060Y-4916D01*
X4063Y-4907D01*
X4066Y-4899D01*
Y-4893D01*
Y-4891D01*
X4063Y-4874D01*
X4057Y-4857D01*
X4043Y-4832D01*
X4027Y-4816D01*
X4024Y-4810D01*
X4021D01*
X4002Y-4799D01*
X3977Y-4791D01*
X3927Y-4779D01*
X3902D01*
X3882Y-4777D01*
X3866D01*
X3835Y-4779D01*
X3807Y-4785D01*
X3780Y-4791D01*
X3757Y-4802D01*
X3721Y-4829D01*
X3694Y-4857D01*
X3674Y-4888D01*
X3660Y-4916D01*
X3658Y-4927D01*
X3655Y-4932D01*
X3652Y-4938D01*
Y-4940D01*
X3374Y-4879D01*
X3394Y-4813D01*
X3419Y-4757D01*
X3447Y-4710D01*
X3474Y-4671D01*
X3499Y-4641D01*
X3519Y-4621D01*
X3533Y-4607D01*
X3538Y-4605D01*
X3585Y-4577D01*
X3638Y-4555D01*
X3694Y-4541D01*
X3746Y-4530D01*
X3796Y-4524D01*
X3816Y-4521D01*
X3835Y-4518D01*
X3871D01*
X3952Y-4524D01*
D02*
G37*
G36*
X1084Y-4521D02*
X1140Y-4532D01*
X1187Y-4543D01*
X1231Y-4560D01*
X1264Y-4574D01*
X1292Y-4588D01*
X1309Y-4599D01*
X1312Y-4602D01*
X1314D01*
X1359Y-4635D01*
X1400Y-4677D01*
X1437Y-4716D01*
X1467Y-4757D01*
X1489Y-4793D01*
X1509Y-4821D01*
X1514Y-4832D01*
X1520Y-4841D01*
X1523Y-4846D01*
Y-4849D01*
X1548Y-4913D01*
X1567Y-4974D01*
X1581Y-5035D01*
X1589Y-5093D01*
X1595Y-5140D01*
X1598Y-5160D01*
X1600Y-5179D01*
Y-5193D01*
Y-5204D01*
Y-5210D01*
Y-5213D01*
X1598Y-5276D01*
X1592Y-5335D01*
X1586Y-5393D01*
X1575Y-5443D01*
X1561Y-5493D01*
X1548Y-5537D01*
X1534Y-5576D01*
X1517Y-5612D01*
X1503Y-5646D01*
X1489Y-5673D01*
X1475Y-5696D01*
X1462Y-5715D01*
X1450Y-5732D01*
X1445Y-5743D01*
X1439Y-5748D01*
X1437Y-5751D01*
X1406Y-5784D01*
X1373Y-5812D01*
X1337Y-5837D01*
X1303Y-5859D01*
X1267Y-5879D01*
X1234Y-5893D01*
X1170Y-5915D01*
X1140Y-5923D01*
X1112Y-5929D01*
X1087Y-5934D01*
X1067Y-5937D01*
X1051Y-5940D01*
X1026D01*
X967Y-5937D01*
X915Y-5926D01*
X867Y-5912D01*
X823Y-5898D01*
X790Y-5882D01*
X762Y-5871D01*
X745Y-5859D01*
X743Y-5857D01*
X740D01*
X693Y-5821D01*
X651Y-5782D01*
X615Y-5737D01*
X584Y-5696D01*
X562Y-5660D01*
X543Y-5629D01*
X537Y-5618D01*
X532Y-5610D01*
X529Y-5604D01*
Y-5601D01*
X501Y-5537D01*
X482Y-5471D01*
X468Y-5407D01*
X459Y-5349D01*
X451Y-5299D01*
Y-5276D01*
X448Y-5260D01*
Y-5243D01*
Y-5232D01*
Y-5226D01*
Y-5224D01*
X451Y-5171D01*
X454Y-5121D01*
X473Y-5027D01*
X484Y-4982D01*
X498Y-4943D01*
X512Y-4904D01*
X526Y-4871D01*
X540Y-4838D01*
X554Y-4810D01*
X568Y-4788D01*
X579Y-4766D01*
X590Y-4752D01*
X598Y-4738D01*
X601Y-4732D01*
X604Y-4729D01*
X634Y-4693D01*
X665Y-4660D01*
X698Y-4632D01*
X734Y-4607D01*
X770Y-4588D01*
X804Y-4571D01*
X840Y-4555D01*
X873Y-4543D01*
X904Y-4535D01*
X931Y-4530D01*
X959Y-4524D01*
X981Y-4521D01*
X1001Y-4518D01*
X1026D01*
X1084Y-4521D01*
D02*
G37*
G36*
X-110Y-4524D02*
X-40Y-4538D01*
X21Y-4555D01*
X71Y-4577D01*
X110Y-4599D01*
X137Y-4616D01*
X146Y-4624D01*
X154Y-4630D01*
X157Y-4632D01*
X160Y-4635D01*
X182Y-4657D01*
X198Y-4680D01*
X229Y-4729D01*
X248Y-4779D01*
X265Y-4829D01*
X273Y-4871D01*
X276Y-4891D01*
Y-4907D01*
X279Y-4918D01*
Y-4929D01*
Y-4935D01*
Y-4938D01*
X276Y-4971D01*
X273Y-5004D01*
X259Y-5063D01*
X240Y-5115D01*
X218Y-5157D01*
X196Y-5190D01*
X176Y-5215D01*
X162Y-5229D01*
X157Y-5235D01*
X135Y-5251D01*
X110Y-5268D01*
X79Y-5285D01*
X43Y-5299D01*
X-32Y-5329D01*
X-113Y-5360D01*
X-149Y-5371D01*
X-185Y-5382D01*
X-218Y-5393D01*
X-249Y-5401D01*
X-274Y-5410D01*
X-290Y-5412D01*
X-304Y-5418D01*
X-307D01*
X-332Y-5426D01*
X-351Y-5432D01*
X-368Y-5440D01*
X-379Y-5449D01*
X-390Y-5454D01*
X-396Y-5457D01*
X-401Y-5462D01*
X-415Y-5485D01*
X-424Y-5507D01*
X-426Y-5523D01*
Y-5529D01*
Y-5532D01*
X-424Y-5557D01*
X-418Y-5576D01*
X-410Y-5596D01*
X-401Y-5610D01*
X-390Y-5623D01*
X-382Y-5632D01*
X-376Y-5637D01*
X-374Y-5640D01*
X-351Y-5654D01*
X-326Y-5662D01*
X-274Y-5673D01*
X-251Y-5676D01*
X-232Y-5679D01*
X-215D01*
X-179Y-5676D01*
X-149Y-5671D01*
X-118Y-5660D01*
X-93Y-5646D01*
X-71Y-5629D01*
X-51Y-5612D01*
X-24Y-5571D01*
X-2Y-5532D01*
X12Y-5498D01*
X15Y-5485D01*
X18Y-5474D01*
X21Y-5468D01*
Y-5465D01*
X318Y-5521D01*
X298Y-5593D01*
X273Y-5657D01*
X243Y-5709D01*
X212Y-5754D01*
X184Y-5790D01*
X162Y-5815D01*
X146Y-5829D01*
X143Y-5834D01*
X140D01*
X85Y-5871D01*
X26Y-5896D01*
X-35Y-5915D01*
X-90Y-5926D01*
X-140Y-5934D01*
X-160Y-5937D01*
X-179D01*
X-196Y-5940D01*
X-215D01*
X-260Y-5937D01*
X-299Y-5934D01*
X-374Y-5920D01*
X-437Y-5898D01*
X-490Y-5876D01*
X-512Y-5865D01*
X-532Y-5854D01*
X-548Y-5843D01*
X-562Y-5832D01*
X-573Y-5823D01*
X-582Y-5818D01*
X-585Y-5812D01*
X-587D01*
X-612Y-5787D01*
X-632Y-5762D01*
X-651Y-5734D01*
X-665Y-5707D01*
X-690Y-5654D01*
X-707Y-5601D01*
X-715Y-5557D01*
X-721Y-5537D01*
Y-5521D01*
X-723Y-5507D01*
Y-5496D01*
Y-5490D01*
Y-5487D01*
X-721Y-5429D01*
X-709Y-5376D01*
X-696Y-5332D01*
X-679Y-5293D01*
X-662Y-5263D01*
X-648Y-5243D01*
X-637Y-5229D01*
X-634Y-5224D01*
X-615Y-5207D01*
X-596Y-5188D01*
X-546Y-5157D01*
X-490Y-5129D01*
X-435Y-5104D01*
X-382Y-5085D01*
X-360Y-5077D01*
X-337Y-5068D01*
X-321Y-5065D01*
X-310Y-5060D01*
X-301Y-5057D01*
X-299D01*
X-260Y-5046D01*
X-224Y-5035D01*
X-193Y-5027D01*
X-165Y-5018D01*
X-140Y-5010D01*
X-121Y-5002D01*
X-101Y-4993D01*
X-85Y-4988D01*
X-63Y-4979D01*
X-49Y-4971D01*
X-40Y-4965D01*
X-38D01*
X-24Y-4954D01*
X-13Y-4940D01*
X-7Y-4929D01*
X-2Y-4916D01*
X1Y-4907D01*
X4Y-4899D01*
Y-4893D01*
Y-4891D01*
X1Y-4874D01*
X-4Y-4857D01*
X-18Y-4832D01*
X-35Y-4816D01*
X-38Y-4810D01*
X-40D01*
X-60Y-4799D01*
X-85Y-4791D01*
X-135Y-4779D01*
X-160D01*
X-179Y-4777D01*
X-196D01*
X-226Y-4779D01*
X-254Y-4785D01*
X-282Y-4791D01*
X-304Y-4802D01*
X-340Y-4829D01*
X-368Y-4857D01*
X-387Y-4888D01*
X-401Y-4916D01*
X-404Y-4927D01*
X-407Y-4932D01*
X-410Y-4938D01*
Y-4940D01*
X-687Y-4879D01*
X-668Y-4813D01*
X-643Y-4757D01*
X-615Y-4710D01*
X-587Y-4671D01*
X-562Y-4641D01*
X-543Y-4621D01*
X-529Y-4607D01*
X-523Y-4605D01*
X-476Y-4577D01*
X-424Y-4555D01*
X-368Y-4541D01*
X-315Y-4530D01*
X-265Y-4524D01*
X-246Y-4521D01*
X-226Y-4518D01*
X-190D01*
X-110Y-4524D01*
D02*
G37*
G36*
X-2622Y-4521D02*
X-2567Y-4532D01*
X-2520Y-4543D01*
X-2475Y-4560D01*
X-2442Y-4574D01*
X-2414Y-4588D01*
X-2397Y-4599D01*
X-2395Y-4602D01*
X-2392D01*
X-2347Y-4635D01*
X-2306Y-4677D01*
X-2270Y-4716D01*
X-2239Y-4757D01*
X-2217Y-4793D01*
X-2197Y-4821D01*
X-2192Y-4832D01*
X-2186Y-4841D01*
X-2184Y-4846D01*
Y-4849D01*
X-2159Y-4913D01*
X-2139Y-4974D01*
X-2125Y-5035D01*
X-2117Y-5093D01*
X-2111Y-5140D01*
X-2109Y-5160D01*
X-2106Y-5179D01*
Y-5193D01*
Y-5204D01*
Y-5210D01*
Y-5213D01*
X-2109Y-5276D01*
X-2114Y-5335D01*
X-2120Y-5393D01*
X-2131Y-5443D01*
X-2145Y-5493D01*
X-2159Y-5537D01*
X-2173Y-5576D01*
X-2189Y-5612D01*
X-2203Y-5646D01*
X-2217Y-5673D01*
X-2231Y-5696D01*
X-2245Y-5715D01*
X-2256Y-5732D01*
X-2261Y-5743D01*
X-2267Y-5748D01*
X-2270Y-5751D01*
X-2300Y-5784D01*
X-2334Y-5812D01*
X-2370Y-5837D01*
X-2403Y-5859D01*
X-2439Y-5879D01*
X-2472Y-5893D01*
X-2536Y-5915D01*
X-2567Y-5923D01*
X-2595Y-5929D01*
X-2619Y-5934D01*
X-2639Y-5937D01*
X-2656Y-5940D01*
X-2681D01*
X-2739Y-5937D01*
X-2792Y-5926D01*
X-2839Y-5912D01*
X-2883Y-5898D01*
X-2917Y-5882D01*
X-2944Y-5871D01*
X-2961Y-5859D01*
X-2964Y-5857D01*
X-2967D01*
X-3014Y-5821D01*
X-3055Y-5782D01*
X-3091Y-5737D01*
X-3122Y-5696D01*
X-3144Y-5660D01*
X-3164Y-5629D01*
X-3169Y-5618D01*
X-3175Y-5610D01*
X-3178Y-5604D01*
Y-5601D01*
X-3205Y-5537D01*
X-3225Y-5471D01*
X-3239Y-5407D01*
X-3247Y-5349D01*
X-3255Y-5299D01*
Y-5276D01*
X-3258Y-5260D01*
Y-5243D01*
Y-5232D01*
Y-5226D01*
Y-5224D01*
X-3255Y-5171D01*
X-3252Y-5121D01*
X-3233Y-5027D01*
X-3222Y-4982D01*
X-3208Y-4943D01*
X-3194Y-4904D01*
X-3180Y-4871D01*
X-3166Y-4838D01*
X-3153Y-4810D01*
X-3139Y-4788D01*
X-3128Y-4766D01*
X-3116Y-4752D01*
X-3108Y-4738D01*
X-3105Y-4732D01*
X-3103Y-4729D01*
X-3072Y-4693D01*
X-3041Y-4660D01*
X-3008Y-4632D01*
X-2972Y-4607D01*
X-2936Y-4588D01*
X-2903Y-4571D01*
X-2867Y-4555D01*
X-2833Y-4543D01*
X-2803Y-4535D01*
X-2775Y-4530D01*
X-2747Y-4524D01*
X-2725Y-4521D01*
X-2706Y-4518D01*
X-2681D01*
X-2622Y-4521D01*
D02*
G37*
G36*
X-4066D02*
X-4027Y-4530D01*
X-3994Y-4538D01*
X-3963Y-4549D01*
X-3941Y-4563D01*
X-3922Y-4571D01*
X-3910Y-4580D01*
X-3905Y-4582D01*
X-3872Y-4607D01*
X-3844Y-4635D01*
X-3819Y-4663D01*
X-3797Y-4688D01*
X-3780Y-4713D01*
X-3769Y-4732D01*
X-3761Y-4743D01*
X-3758Y-4749D01*
Y-4549D01*
X-3483D01*
Y-6426D01*
X-3780D01*
Y-5743D01*
X-3810Y-5782D01*
X-3841Y-5815D01*
X-3866Y-5843D01*
X-3891Y-5862D01*
X-3910Y-5879D01*
X-3924Y-5890D01*
X-3935Y-5896D01*
X-3938Y-5898D01*
X-3969Y-5912D01*
X-3996Y-5923D01*
X-4024Y-5929D01*
X-4049Y-5934D01*
X-4071Y-5937D01*
X-4088Y-5940D01*
X-4102D01*
X-4138Y-5937D01*
X-4171Y-5932D01*
X-4205Y-5923D01*
X-4235Y-5909D01*
X-4291Y-5882D01*
X-4338Y-5846D01*
X-4380Y-5812D01*
X-4407Y-5782D01*
X-4418Y-5771D01*
X-4427Y-5762D01*
X-4430Y-5757D01*
X-4432Y-5754D01*
X-4457Y-5718D01*
X-4480Y-5676D01*
X-4496Y-5635D01*
X-4513Y-5593D01*
X-4538Y-5501D01*
X-4555Y-5415D01*
X-4560Y-5376D01*
X-4563Y-5337D01*
X-4568Y-5304D01*
Y-5276D01*
X-4571Y-5251D01*
Y-5235D01*
Y-5221D01*
Y-5218D01*
X-4568Y-5157D01*
X-4566Y-5099D01*
X-4557Y-5046D01*
X-4549Y-4996D01*
X-4538Y-4949D01*
X-4527Y-4907D01*
X-4516Y-4868D01*
X-4502Y-4835D01*
X-4488Y-4804D01*
X-4477Y-4777D01*
X-4466Y-4754D01*
X-4455Y-4735D01*
X-4446Y-4721D01*
X-4438Y-4710D01*
X-4435Y-4705D01*
X-4432Y-4702D01*
X-4405Y-4668D01*
X-4380Y-4641D01*
X-4352Y-4616D01*
X-4324Y-4596D01*
X-4296Y-4577D01*
X-4269Y-4563D01*
X-4216Y-4541D01*
X-4171Y-4527D01*
X-4152Y-4524D01*
X-4135Y-4521D01*
X-4124Y-4518D01*
X-4105D01*
X-4066Y-4521D01*
D02*
G37*
G36*
X6536Y-6840D02*
X6592Y-6848D01*
X6642Y-6859D01*
X6692Y-6873D01*
X6736Y-6893D01*
X6778Y-6912D01*
X6817Y-6934D01*
X6850Y-6954D01*
X6881Y-6976D01*
X6909Y-6998D01*
X6931Y-7018D01*
X6950Y-7037D01*
X6964Y-7051D01*
X6975Y-7062D01*
X6981Y-7070D01*
X6983Y-7073D01*
X7022Y-7126D01*
X7056Y-7184D01*
X7083Y-7243D01*
X7108Y-7304D01*
X7131Y-7367D01*
X7147Y-7429D01*
X7161Y-7490D01*
X7172Y-7551D01*
X7181Y-7606D01*
X7189Y-7656D01*
X7194Y-7703D01*
X7197Y-7745D01*
Y-7776D01*
X7200Y-7801D01*
Y-7817D01*
Y-7820D01*
Y-7823D01*
X7197Y-7906D01*
X7192Y-7984D01*
X7181Y-8059D01*
X7167Y-8128D01*
X7150Y-8192D01*
X7133Y-8250D01*
X7114Y-8306D01*
X7092Y-8353D01*
X7072Y-8397D01*
X7053Y-8436D01*
X7036Y-8470D01*
X7020Y-8495D01*
X7006Y-8517D01*
X6995Y-8533D01*
X6989Y-8542D01*
X6986Y-8545D01*
X6950Y-8586D01*
X6911Y-8620D01*
X6872Y-8650D01*
X6831Y-8678D01*
X6789Y-8700D01*
X6750Y-8719D01*
X6711Y-8733D01*
X6673Y-8747D01*
X6636Y-8756D01*
X6603Y-8764D01*
X6573Y-8767D01*
X6548Y-8772D01*
X6525D01*
X6511Y-8775D01*
X6498D01*
X6453Y-8772D01*
X6412Y-8769D01*
X6334Y-8753D01*
X6264Y-8731D01*
X6234Y-8717D01*
X6206Y-8703D01*
X6181Y-8689D01*
X6159Y-8675D01*
X6139Y-8664D01*
X6126Y-8653D01*
X6112Y-8645D01*
X6103Y-8636D01*
X6098Y-8633D01*
X6095Y-8631D01*
X6065Y-8600D01*
X6037Y-8570D01*
X5990Y-8497D01*
X5948Y-8420D01*
X5915Y-8345D01*
X5901Y-8309D01*
X5890Y-8275D01*
X5881Y-8245D01*
X5873Y-8220D01*
X5867Y-8198D01*
X5862Y-8181D01*
X5859Y-8170D01*
Y-8167D01*
X6162Y-8050D01*
X6178Y-8125D01*
X6201Y-8186D01*
X6220Y-8239D01*
X6242Y-8281D01*
X6262Y-8314D01*
X6278Y-8336D01*
X6289Y-8350D01*
X6292Y-8356D01*
X6325Y-8386D01*
X6362Y-8411D01*
X6398Y-8428D01*
X6431Y-8439D01*
X6459Y-8445D01*
X6484Y-8447D01*
X6498Y-8450D01*
X6503D01*
X6534Y-8447D01*
X6561Y-8445D01*
X6617Y-8428D01*
X6661Y-8403D01*
X6700Y-8375D01*
X6734Y-8350D01*
X6756Y-8325D01*
X6770Y-8309D01*
X6775Y-8306D01*
Y-8303D01*
X6792Y-8273D01*
X6809Y-8239D01*
X6822Y-8200D01*
X6834Y-8161D01*
X6853Y-8078D01*
X6864Y-7995D01*
X6870Y-7956D01*
X6872Y-7920D01*
X6875Y-7887D01*
Y-7859D01*
X6878Y-7834D01*
Y-7817D01*
Y-7803D01*
Y-7801D01*
Y-7739D01*
X6872Y-7681D01*
X6867Y-7628D01*
X6861Y-7581D01*
X6853Y-7537D01*
X6845Y-7495D01*
X6836Y-7459D01*
X6825Y-7429D01*
X6814Y-7401D01*
X6806Y-7376D01*
X6797Y-7356D01*
X6789Y-7340D01*
X6781Y-7329D01*
X6778Y-7317D01*
X6772Y-7315D01*
Y-7312D01*
X6750Y-7284D01*
X6728Y-7262D01*
X6706Y-7243D01*
X6684Y-7226D01*
X6636Y-7198D01*
X6592Y-7181D01*
X6553Y-7170D01*
X6523Y-7165D01*
X6511Y-7162D01*
X6495D01*
X6450Y-7165D01*
X6412Y-7176D01*
X6378Y-7187D01*
X6348Y-7204D01*
X6323Y-7218D01*
X6303Y-7231D01*
X6292Y-7243D01*
X6289Y-7245D01*
X6259Y-7279D01*
X6234Y-7315D01*
X6212Y-7354D01*
X6195Y-7392D01*
X6184Y-7426D01*
X6176Y-7454D01*
X6173Y-7465D01*
Y-7473D01*
X6170Y-7476D01*
Y-7478D01*
X5862Y-7390D01*
X5873Y-7345D01*
X5887Y-7304D01*
X5901Y-7265D01*
X5915Y-7226D01*
X5931Y-7193D01*
X5945Y-7162D01*
X5962Y-7137D01*
X5976Y-7112D01*
X5990Y-7090D01*
X6003Y-7070D01*
X6015Y-7054D01*
X6026Y-7040D01*
X6034Y-7032D01*
X6040Y-7023D01*
X6042Y-7018D01*
X6045D01*
X6078Y-6987D01*
X6115Y-6959D01*
X6151Y-6934D01*
X6187Y-6912D01*
X6223Y-6896D01*
X6259Y-6882D01*
X6328Y-6859D01*
X6359Y-6851D01*
X6387Y-6846D01*
X6412Y-6843D01*
X6434Y-6840D01*
X6453Y-6837D01*
X6478D01*
X6536Y-6840D01*
D02*
G37*
G36*
X2955D02*
X3011Y-6848D01*
X3061Y-6859D01*
X3111Y-6873D01*
X3155Y-6893D01*
X3197Y-6912D01*
X3236Y-6934D01*
X3269Y-6954D01*
X3299Y-6976D01*
X3327Y-6998D01*
X3349Y-7018D01*
X3369Y-7037D01*
X3383Y-7051D01*
X3394Y-7062D01*
X3399Y-7070D01*
X3402Y-7073D01*
X3441Y-7126D01*
X3474Y-7184D01*
X3502Y-7243D01*
X3527Y-7304D01*
X3549Y-7367D01*
X3566Y-7429D01*
X3580Y-7490D01*
X3591Y-7551D01*
X3599Y-7606D01*
X3608Y-7656D01*
X3613Y-7703D01*
X3616Y-7745D01*
Y-7776D01*
X3619Y-7801D01*
Y-7817D01*
Y-7820D01*
Y-7823D01*
X3616Y-7906D01*
X3610Y-7984D01*
X3599Y-8059D01*
X3585Y-8128D01*
X3569Y-8192D01*
X3552Y-8250D01*
X3533Y-8306D01*
X3510Y-8353D01*
X3491Y-8397D01*
X3472Y-8436D01*
X3455Y-8470D01*
X3438Y-8495D01*
X3424Y-8517D01*
X3413Y-8533D01*
X3408Y-8542D01*
X3405Y-8545D01*
X3369Y-8586D01*
X3330Y-8620D01*
X3291Y-8650D01*
X3249Y-8678D01*
X3208Y-8700D01*
X3169Y-8719D01*
X3130Y-8733D01*
X3091Y-8747D01*
X3055Y-8756D01*
X3022Y-8764D01*
X2991Y-8767D01*
X2966Y-8772D01*
X2944D01*
X2930Y-8775D01*
X2916D01*
X2872Y-8772D01*
X2830Y-8769D01*
X2753Y-8753D01*
X2683Y-8731D01*
X2653Y-8717D01*
X2625Y-8703D01*
X2600Y-8689D01*
X2578Y-8675D01*
X2558Y-8664D01*
X2544Y-8653D01*
X2530Y-8645D01*
X2522Y-8636D01*
X2517Y-8633D01*
X2514Y-8631D01*
X2483Y-8600D01*
X2455Y-8570D01*
X2408Y-8497D01*
X2367Y-8420D01*
X2333Y-8345D01*
X2319Y-8309D01*
X2308Y-8275D01*
X2300Y-8245D01*
X2292Y-8220D01*
X2286Y-8198D01*
X2281Y-8181D01*
X2278Y-8170D01*
Y-8167D01*
X2580Y-8050D01*
X2597Y-8125D01*
X2619Y-8186D01*
X2639Y-8239D01*
X2661Y-8281D01*
X2680Y-8314D01*
X2697Y-8336D01*
X2708Y-8350D01*
X2711Y-8356D01*
X2744Y-8386D01*
X2780Y-8411D01*
X2816Y-8428D01*
X2850Y-8439D01*
X2877Y-8445D01*
X2902Y-8447D01*
X2916Y-8450D01*
X2922D01*
X2952Y-8447D01*
X2980Y-8445D01*
X3036Y-8428D01*
X3080Y-8403D01*
X3119Y-8375D01*
X3152Y-8350D01*
X3174Y-8325D01*
X3188Y-8309D01*
X3194Y-8306D01*
Y-8303D01*
X3211Y-8273D01*
X3227Y-8239D01*
X3241Y-8200D01*
X3252Y-8161D01*
X3272Y-8078D01*
X3283Y-7995D01*
X3288Y-7956D01*
X3291Y-7920D01*
X3294Y-7887D01*
Y-7859D01*
X3297Y-7834D01*
Y-7817D01*
Y-7803D01*
Y-7801D01*
Y-7739D01*
X3291Y-7681D01*
X3286Y-7628D01*
X3280Y-7581D01*
X3272Y-7537D01*
X3263Y-7495D01*
X3255Y-7459D01*
X3244Y-7429D01*
X3233Y-7401D01*
X3224Y-7376D01*
X3216Y-7356D01*
X3208Y-7340D01*
X3199Y-7329D01*
X3197Y-7317D01*
X3191Y-7315D01*
Y-7312D01*
X3169Y-7284D01*
X3147Y-7262D01*
X3125Y-7243D01*
X3102Y-7226D01*
X3055Y-7198D01*
X3011Y-7181D01*
X2972Y-7170D01*
X2941Y-7165D01*
X2930Y-7162D01*
X2914D01*
X2869Y-7165D01*
X2830Y-7176D01*
X2797Y-7187D01*
X2766Y-7204D01*
X2741Y-7218D01*
X2722Y-7231D01*
X2711Y-7243D01*
X2708Y-7245D01*
X2678Y-7279D01*
X2653Y-7315D01*
X2630Y-7354D01*
X2614Y-7392D01*
X2603Y-7426D01*
X2594Y-7454D01*
X2591Y-7465D01*
Y-7473D01*
X2589Y-7476D01*
Y-7478D01*
X2281Y-7390D01*
X2292Y-7345D01*
X2306Y-7304D01*
X2319Y-7265D01*
X2333Y-7226D01*
X2350Y-7193D01*
X2364Y-7162D01*
X2380Y-7137D01*
X2394Y-7112D01*
X2408Y-7090D01*
X2422Y-7070D01*
X2433Y-7054D01*
X2444Y-7040D01*
X2453Y-7032D01*
X2458Y-7023D01*
X2461Y-7018D01*
X2464D01*
X2497Y-6987D01*
X2533Y-6959D01*
X2569Y-6934D01*
X2605Y-6912D01*
X2641Y-6896D01*
X2678Y-6882D01*
X2747Y-6859D01*
X2777Y-6851D01*
X2805Y-6846D01*
X2830Y-6843D01*
X2852Y-6840D01*
X2872Y-6837D01*
X2897D01*
X2955Y-6840D01*
D02*
G37*
G36*
X4271Y-7115D02*
Y-7384D01*
X4407D01*
Y-7670D01*
X4271D01*
Y-8264D01*
Y-8306D01*
Y-8342D01*
X4268Y-8375D01*
Y-8409D01*
Y-8436D01*
X4266Y-8459D01*
Y-8481D01*
X4263Y-8500D01*
X4260Y-8531D01*
X4257Y-8550D01*
X4254Y-8564D01*
Y-8567D01*
X4243Y-8603D01*
X4232Y-8633D01*
X4216Y-8661D01*
X4202Y-8683D01*
X4188Y-8700D01*
X4177Y-8711D01*
X4168Y-8719D01*
X4166Y-8722D01*
X4138Y-8739D01*
X4107Y-8753D01*
X4077Y-8761D01*
X4049Y-8769D01*
X4021Y-8772D01*
X4002Y-8775D01*
X3982D01*
X3935Y-8772D01*
X3891Y-8767D01*
X3852Y-8758D01*
X3816Y-8747D01*
X3788Y-8739D01*
X3766Y-8731D01*
X3755Y-8725D01*
X3749Y-8722D01*
X3777Y-8442D01*
X3805Y-8453D01*
X3827Y-8461D01*
X3846Y-8467D01*
X3863Y-8470D01*
X3877Y-8472D01*
X3885Y-8475D01*
X3894D01*
X3913Y-8472D01*
X3927Y-8467D01*
X3941Y-8459D01*
X3949Y-8450D01*
X3963Y-8434D01*
X3966Y-8428D01*
Y-8425D01*
Y-8417D01*
X3968Y-8409D01*
X3971Y-8381D01*
Y-8347D01*
X3974Y-8311D01*
Y-8278D01*
Y-8248D01*
Y-8236D01*
Y-8228D01*
Y-8223D01*
Y-8220D01*
Y-7670D01*
X3774D01*
Y-7384D01*
X3974D01*
Y-6904D01*
X4271Y-7115D01*
D02*
G37*
G36*
X-623Y-7115D02*
Y-7384D01*
X-487D01*
Y-7670D01*
X-623D01*
Y-8264D01*
Y-8306D01*
Y-8342D01*
X-626Y-8375D01*
Y-8409D01*
Y-8436D01*
X-629Y-8459D01*
Y-8481D01*
X-632Y-8500D01*
X-634Y-8531D01*
X-637Y-8550D01*
X-640Y-8564D01*
Y-8567D01*
X-651Y-8603D01*
X-662Y-8633D01*
X-679Y-8661D01*
X-693Y-8683D01*
X-707Y-8700D01*
X-718Y-8711D01*
X-726Y-8719D01*
X-729Y-8722D01*
X-757Y-8739D01*
X-787Y-8753D01*
X-818Y-8761D01*
X-845Y-8769D01*
X-873Y-8772D01*
X-893Y-8775D01*
X-912D01*
X-959Y-8772D01*
X-1004Y-8767D01*
X-1043Y-8758D01*
X-1079Y-8747D01*
X-1106Y-8739D01*
X-1129Y-8731D01*
X-1140Y-8725D01*
X-1145Y-8722D01*
X-1118Y-8442D01*
X-1090Y-8453D01*
X-1068Y-8461D01*
X-1048Y-8467D01*
X-1031Y-8470D01*
X-1018Y-8472D01*
X-1009Y-8475D01*
X-1001D01*
X-982Y-8472D01*
X-968Y-8467D01*
X-954Y-8459D01*
X-945Y-8450D01*
X-932Y-8434D01*
X-929Y-8428D01*
Y-8425D01*
Y-8417D01*
X-926Y-8409D01*
X-923Y-8381D01*
Y-8347D01*
X-920Y-8311D01*
Y-8278D01*
Y-8248D01*
Y-8236D01*
Y-8228D01*
Y-8223D01*
Y-8220D01*
Y-7670D01*
X-1120D01*
Y-7384D01*
X-920D01*
Y-6904D01*
X-623Y-7115D01*
D02*
G37*
G36*
X5601Y-8248D02*
X5598Y-8317D01*
X5595Y-8381D01*
X5587Y-8434D01*
X5579Y-8475D01*
X5573Y-8511D01*
X5565Y-8536D01*
X5562Y-8550D01*
X5559Y-8556D01*
X5543Y-8592D01*
X5520Y-8625D01*
X5501Y-8653D01*
X5479Y-8678D01*
X5462Y-8694D01*
X5445Y-8708D01*
X5434Y-8717D01*
X5432Y-8719D01*
X5398Y-8739D01*
X5362Y-8753D01*
X5329Y-8761D01*
X5298Y-8767D01*
X5273Y-8772D01*
X5254Y-8775D01*
X5234D01*
X5196Y-8772D01*
X5157Y-8767D01*
X5121Y-8756D01*
X5090Y-8744D01*
X5062Y-8733D01*
X5043Y-8722D01*
X5032Y-8717D01*
X5026Y-8714D01*
X4990Y-8689D01*
X4960Y-8661D01*
X4932Y-8633D01*
X4907Y-8606D01*
X4890Y-8581D01*
X4876Y-8561D01*
X4868Y-8547D01*
X4865Y-8542D01*
Y-8744D01*
X4588D01*
Y-7384D01*
X4885D01*
Y-7959D01*
Y-8009D01*
Y-8053D01*
X4887Y-8095D01*
Y-8131D01*
X4890Y-8164D01*
Y-8195D01*
X4893Y-8220D01*
X4896Y-8242D01*
X4899Y-8261D01*
Y-8278D01*
X4901Y-8289D01*
X4904Y-8300D01*
X4907Y-8314D01*
Y-8317D01*
X4915Y-8345D01*
X4926Y-8372D01*
X4940Y-8395D01*
X4954Y-8414D01*
X4968Y-8428D01*
X4976Y-8442D01*
X4985Y-8447D01*
X4987Y-8450D01*
X5010Y-8467D01*
X5035Y-8478D01*
X5057Y-8489D01*
X5079Y-8495D01*
X5096Y-8497D01*
X5110Y-8500D01*
X5123D01*
X5146Y-8497D01*
X5168Y-8495D01*
X5187Y-8489D01*
X5204Y-8481D01*
X5215Y-8472D01*
X5226Y-8467D01*
X5232Y-8464D01*
X5234Y-8461D01*
X5248Y-8445D01*
X5262Y-8428D01*
X5279Y-8392D01*
X5287Y-8375D01*
X5290Y-8361D01*
X5293Y-8353D01*
Y-8350D01*
X5296Y-8334D01*
Y-8314D01*
X5298Y-8292D01*
Y-8267D01*
X5301Y-8211D01*
Y-8153D01*
X5304Y-8098D01*
Y-8073D01*
Y-8053D01*
Y-8034D01*
Y-8020D01*
Y-8012D01*
Y-8009D01*
Y-7384D01*
X5601D01*
Y-8248D01*
D02*
G37*
G36*
X-5057Y-7356D02*
X-5018Y-7362D01*
X-4982Y-7370D01*
X-4949Y-7381D01*
X-4890Y-7409D01*
X-4838Y-7440D01*
X-4799Y-7473D01*
X-4782Y-7487D01*
X-4768Y-7501D01*
X-4757Y-7512D01*
X-4749Y-7520D01*
X-4746Y-7526D01*
X-4743Y-7528D01*
X-4716Y-7567D01*
X-4691Y-7612D01*
X-4671Y-7656D01*
X-4652Y-7701D01*
X-4638Y-7745D01*
X-4624Y-7792D01*
X-4604Y-7878D01*
X-4599Y-7917D01*
X-4593Y-7953D01*
X-4591Y-7987D01*
X-4588Y-8017D01*
X-4585Y-8039D01*
Y-8059D01*
Y-8070D01*
Y-8073D01*
X-4588Y-8136D01*
X-4591Y-8195D01*
X-4599Y-8250D01*
X-4610Y-8303D01*
X-4621Y-8350D01*
X-4635Y-8395D01*
X-4649Y-8436D01*
X-4666Y-8472D01*
X-4679Y-8503D01*
X-4693Y-8533D01*
X-4707Y-8556D01*
X-4718Y-8575D01*
X-4729Y-8592D01*
X-4738Y-8603D01*
X-4741Y-8608D01*
X-4743Y-8611D01*
X-4768Y-8639D01*
X-4799Y-8664D01*
X-4827Y-8686D01*
X-4860Y-8706D01*
X-4890Y-8722D01*
X-4921Y-8736D01*
X-4985Y-8756D01*
X-5038Y-8767D01*
X-5063Y-8769D01*
X-5082Y-8772D01*
X-5101Y-8775D01*
X-5124D01*
X-5187Y-8769D01*
X-5246Y-8758D01*
X-5299Y-8744D01*
X-5343Y-8725D01*
X-5379Y-8708D01*
X-5404Y-8692D01*
X-5421Y-8681D01*
X-5426Y-8678D01*
X-5471Y-8636D01*
X-5507Y-8589D01*
X-5540Y-8536D01*
X-5565Y-8486D01*
X-5587Y-8442D01*
X-5596Y-8422D01*
X-5601Y-8406D01*
X-5607Y-8392D01*
X-5609Y-8381D01*
X-5612Y-8375D01*
Y-8372D01*
X-5318Y-8311D01*
X-5307Y-8345D01*
X-5296Y-8375D01*
X-5282Y-8400D01*
X-5268Y-8422D01*
X-5251Y-8442D01*
X-5235Y-8459D01*
X-5218Y-8472D01*
X-5204Y-8481D01*
X-5174Y-8495D01*
X-5149Y-8503D01*
X-5132Y-8506D01*
X-5126D01*
X-5090Y-8503D01*
X-5060Y-8492D01*
X-5029Y-8478D01*
X-5004Y-8461D01*
X-4985Y-8447D01*
X-4971Y-8434D01*
X-4960Y-8422D01*
X-4957Y-8420D01*
X-4935Y-8384D01*
X-4918Y-8342D01*
X-4904Y-8300D01*
X-4896Y-8259D01*
X-4890Y-8223D01*
X-4888Y-8195D01*
Y-8184D01*
Y-8175D01*
Y-8170D01*
Y-8167D01*
X-5626D01*
Y-8128D01*
X-5623Y-8056D01*
X-5621Y-7989D01*
X-5612Y-7925D01*
X-5601Y-7867D01*
X-5590Y-7814D01*
X-5576Y-7767D01*
X-5562Y-7723D01*
X-5548Y-7681D01*
X-5535Y-7648D01*
X-5521Y-7617D01*
X-5507Y-7590D01*
X-5496Y-7570D01*
X-5485Y-7553D01*
X-5476Y-7540D01*
X-5473Y-7534D01*
X-5471Y-7531D01*
X-5443Y-7501D01*
X-5415Y-7473D01*
X-5385Y-7448D01*
X-5354Y-7429D01*
X-5324Y-7412D01*
X-5293Y-7398D01*
X-5232Y-7376D01*
X-5179Y-7362D01*
X-5154Y-7359D01*
X-5135Y-7356D01*
X-5118Y-7354D01*
X-5096D01*
X-5057Y-7356D01*
D02*
G37*
G36*
X107Y-7356D02*
X143Y-7362D01*
X179Y-7373D01*
X207Y-7381D01*
X232Y-7392D01*
X251Y-7404D01*
X262Y-7409D01*
X268Y-7412D01*
X301Y-7437D01*
X332Y-7465D01*
X359Y-7492D01*
X384Y-7520D01*
X404Y-7545D01*
X418Y-7565D01*
X429Y-7578D01*
X432Y-7584D01*
Y-7384D01*
X706D01*
Y-8744D01*
X409D01*
Y-8128D01*
Y-8087D01*
Y-8048D01*
X407Y-8012D01*
Y-7981D01*
X404Y-7950D01*
X401Y-7925D01*
Y-7903D01*
X398Y-7881D01*
X393Y-7851D01*
X390Y-7828D01*
X387Y-7814D01*
Y-7812D01*
X376Y-7781D01*
X362Y-7753D01*
X351Y-7731D01*
X337Y-7712D01*
X323Y-7698D01*
X312Y-7687D01*
X307Y-7681D01*
X304Y-7678D01*
X282Y-7662D01*
X257Y-7651D01*
X234Y-7640D01*
X215Y-7634D01*
X196Y-7631D01*
X182Y-7628D01*
X171D01*
X148Y-7631D01*
X129Y-7634D01*
X98Y-7648D01*
X85Y-7656D01*
X76Y-7662D01*
X71Y-7665D01*
X68Y-7667D01*
X51Y-7681D01*
X37Y-7698D01*
X18Y-7734D01*
X12Y-7748D01*
X7Y-7762D01*
X4Y-7770D01*
Y-7773D01*
X1Y-7787D01*
X-2Y-7803D01*
X-7Y-7845D01*
X-10Y-7892D01*
Y-7937D01*
X-13Y-7981D01*
Y-8000D01*
Y-8017D01*
Y-8031D01*
Y-8042D01*
Y-8048D01*
Y-8050D01*
Y-8744D01*
X-310Y-8744D01*
Y-7900D01*
X-307Y-7831D01*
X-304Y-7767D01*
X-299Y-7717D01*
X-293Y-7673D01*
X-285Y-7640D01*
X-279Y-7615D01*
X-276Y-7601D01*
X-274Y-7595D01*
X-260Y-7556D01*
X-240Y-7523D01*
X-221Y-7495D01*
X-201Y-7470D01*
X-182Y-7451D01*
X-165Y-7434D01*
X-154Y-7426D01*
X-151Y-7423D01*
X-115Y-7401D01*
X-79Y-7384D01*
X-43Y-7370D01*
X-10Y-7362D01*
X21Y-7356D01*
X43Y-7354D01*
X65D01*
X107Y-7356D01*
D02*
G37*
G36*
X-1817Y-7356D02*
X-1792Y-7359D01*
X-1770Y-7367D01*
X-1751Y-7376D01*
X-1737Y-7384D01*
X-1726Y-7390D01*
X-1717Y-7395D01*
X-1714Y-7398D01*
X-1692Y-7417D01*
X-1673Y-7445D01*
X-1651Y-7476D01*
X-1631Y-7503D01*
X-1615Y-7534D01*
X-1601Y-7556D01*
X-1592Y-7573D01*
X-1590Y-7576D01*
Y-7384D01*
X-1315D01*
Y-8744D01*
X-1612D01*
Y-8325D01*
Y-8267D01*
Y-8214D01*
X-1615Y-8167D01*
Y-8123D01*
X-1617Y-8081D01*
Y-8045D01*
X-1620Y-8014D01*
X-1623Y-7987D01*
Y-7962D01*
X-1626Y-7942D01*
Y-7923D01*
X-1628Y-7909D01*
Y-7900D01*
X-1631Y-7892D01*
Y-7887D01*
X-1639Y-7845D01*
X-1651Y-7812D01*
X-1662Y-7781D01*
X-1673Y-7759D01*
X-1681Y-7742D01*
X-1689Y-7731D01*
X-1695Y-7726D01*
X-1698Y-7723D01*
X-1717Y-7706D01*
X-1734Y-7695D01*
X-1753Y-7687D01*
X-1770Y-7681D01*
X-1784Y-7678D01*
X-1795Y-7676D01*
X-1806D01*
X-1831Y-7678D01*
X-1853Y-7684D01*
X-1878Y-7695D01*
X-1898Y-7706D01*
X-1917Y-7717D01*
X-1931Y-7728D01*
X-1939Y-7734D01*
X-1942Y-7737D01*
X-2036Y-7423D01*
X-2000Y-7401D01*
X-1967Y-7384D01*
X-1934Y-7370D01*
X-1903Y-7362D01*
X-1878Y-7356D01*
X-1859Y-7354D01*
X-1842D01*
X-1817Y-7356D01*
D02*
G37*
G36*
X-3477Y-8744D02*
X-3774D01*
Y-6868D01*
X-3477D01*
Y-8744D01*
D02*
G37*
G36*
X-4074D02*
X-4371D01*
Y-6868D01*
X-4074D01*
Y-8744D01*
D02*
G37*
G36*
X-6356Y-7356D02*
X-6331Y-7359D01*
X-6309Y-7367D01*
X-6290Y-7376D01*
X-6276Y-7384D01*
X-6265Y-7390D01*
X-6256Y-7395D01*
X-6254Y-7398D01*
X-6231Y-7417D01*
X-6212Y-7445D01*
X-6190Y-7476D01*
X-6170Y-7503D01*
X-6154Y-7534D01*
X-6140Y-7556D01*
X-6131Y-7573D01*
X-6129Y-7576D01*
Y-7384D01*
X-5854D01*
Y-8744D01*
X-6151D01*
Y-8325D01*
Y-8267D01*
Y-8214D01*
X-6154Y-8167D01*
Y-8123D01*
X-6156Y-8081D01*
Y-8045D01*
X-6159Y-8014D01*
X-6162Y-7987D01*
Y-7962D01*
X-6165Y-7942D01*
Y-7923D01*
X-6168Y-7909D01*
Y-7900D01*
X-6170Y-7892D01*
Y-7887D01*
X-6179Y-7845D01*
X-6190Y-7812D01*
X-6201Y-7781D01*
X-6212Y-7759D01*
X-6220Y-7742D01*
X-6229Y-7731D01*
X-6234Y-7726D01*
X-6237Y-7723D01*
X-6256Y-7706D01*
X-6273Y-7695D01*
X-6292Y-7687D01*
X-6309Y-7681D01*
X-6323Y-7678D01*
X-6334Y-7676D01*
X-6345D01*
X-6370Y-7678D01*
X-6392Y-7684D01*
X-6417Y-7695D01*
X-6437Y-7706D01*
X-6456Y-7717D01*
X-6470Y-7728D01*
X-6478Y-7734D01*
X-6481Y-7737D01*
X-6576Y-7423D01*
X-6540Y-7401D01*
X-6506Y-7384D01*
X-6473Y-7370D01*
X-6442Y-7362D01*
X-6417Y-7356D01*
X-6398Y-7354D01*
X-6381D01*
X-6356Y-7356D01*
D02*
G37*
G36*
X1570Y-7356D02*
X1625Y-7367D01*
X1673Y-7379D01*
X1717Y-7395D01*
X1750Y-7409D01*
X1778Y-7423D01*
X1795Y-7434D01*
X1797Y-7437D01*
X1800D01*
X1845Y-7470D01*
X1886Y-7512D01*
X1922Y-7551D01*
X1953Y-7592D01*
X1975Y-7628D01*
X1995Y-7656D01*
X2000Y-7667D01*
X2006Y-7676D01*
X2008Y-7681D01*
Y-7684D01*
X2033Y-7748D01*
X2053Y-7809D01*
X2067Y-7870D01*
X2075Y-7928D01*
X2081Y-7975D01*
X2083Y-7995D01*
X2086Y-8014D01*
Y-8028D01*
Y-8039D01*
Y-8045D01*
Y-8048D01*
X2083Y-8111D01*
X2078Y-8170D01*
X2072Y-8228D01*
X2061Y-8278D01*
X2047Y-8328D01*
X2033Y-8372D01*
X2020Y-8411D01*
X2003Y-8447D01*
X1989Y-8481D01*
X1975Y-8508D01*
X1961Y-8531D01*
X1947Y-8550D01*
X1936Y-8567D01*
X1931Y-8578D01*
X1925Y-8583D01*
X1922Y-8586D01*
X1892Y-8620D01*
X1859Y-8647D01*
X1822Y-8672D01*
X1789Y-8694D01*
X1753Y-8714D01*
X1720Y-8728D01*
X1656Y-8750D01*
X1625Y-8758D01*
X1598Y-8764D01*
X1573Y-8769D01*
X1553Y-8772D01*
X1537Y-8775D01*
X1512D01*
X1453Y-8772D01*
X1400Y-8761D01*
X1353Y-8747D01*
X1309Y-8733D01*
X1276Y-8717D01*
X1248Y-8706D01*
X1231Y-8694D01*
X1228Y-8692D01*
X1226D01*
X1178Y-8656D01*
X1137Y-8617D01*
X1101Y-8572D01*
X1070Y-8531D01*
X1048Y-8495D01*
X1028Y-8464D01*
X1023Y-8453D01*
X1017Y-8445D01*
X1015Y-8439D01*
Y-8436D01*
X987Y-8372D01*
X967Y-8306D01*
X954Y-8242D01*
X945Y-8184D01*
X937Y-8134D01*
Y-8111D01*
X934Y-8095D01*
Y-8078D01*
Y-8067D01*
Y-8062D01*
Y-8059D01*
X937Y-8006D01*
X940Y-7956D01*
X959Y-7862D01*
X970Y-7817D01*
X984Y-7778D01*
X998Y-7739D01*
X1012Y-7706D01*
X1026Y-7673D01*
X1040Y-7645D01*
X1053Y-7623D01*
X1065Y-7601D01*
X1076Y-7587D01*
X1084Y-7573D01*
X1087Y-7567D01*
X1090Y-7565D01*
X1120Y-7528D01*
X1151Y-7495D01*
X1184Y-7467D01*
X1220Y-7442D01*
X1256Y-7423D01*
X1289Y-7406D01*
X1326Y-7390D01*
X1359Y-7379D01*
X1389Y-7370D01*
X1417Y-7365D01*
X1445Y-7359D01*
X1467Y-7356D01*
X1487Y-7354D01*
X1512D01*
X1570Y-7356D01*
D02*
G37*
G36*
X-2608Y-7356D02*
X-2553Y-7367D01*
X-2506Y-7379D01*
X-2461Y-7395D01*
X-2428Y-7409D01*
X-2400Y-7423D01*
X-2384Y-7434D01*
X-2381Y-7437D01*
X-2378D01*
X-2334Y-7470D01*
X-2292Y-7512D01*
X-2256Y-7551D01*
X-2225Y-7592D01*
X-2203Y-7628D01*
X-2184Y-7656D01*
X-2178Y-7667D01*
X-2173Y-7676D01*
X-2170Y-7681D01*
Y-7684D01*
X-2145Y-7748D01*
X-2125Y-7809D01*
X-2111Y-7870D01*
X-2103Y-7928D01*
X-2098Y-7975D01*
X-2095Y-7995D01*
X-2092Y-8014D01*
Y-8028D01*
Y-8039D01*
Y-8045D01*
Y-8048D01*
X-2095Y-8111D01*
X-2100Y-8170D01*
X-2106Y-8228D01*
X-2117Y-8278D01*
X-2131Y-8328D01*
X-2145Y-8372D01*
X-2159Y-8411D01*
X-2175Y-8447D01*
X-2189Y-8481D01*
X-2203Y-8508D01*
X-2217Y-8531D01*
X-2231Y-8550D01*
X-2242Y-8567D01*
X-2247Y-8578D01*
X-2253Y-8583D01*
X-2256Y-8586D01*
X-2286Y-8620D01*
X-2320Y-8647D01*
X-2356Y-8672D01*
X-2389Y-8694D01*
X-2425Y-8714D01*
X-2458Y-8728D01*
X-2522Y-8750D01*
X-2553Y-8758D01*
X-2581Y-8764D01*
X-2606Y-8769D01*
X-2625Y-8772D01*
X-2642Y-8775D01*
X-2667D01*
X-2725Y-8772D01*
X-2778Y-8761D01*
X-2825Y-8747D01*
X-2869Y-8733D01*
X-2903Y-8717D01*
X-2930Y-8706D01*
X-2947Y-8694D01*
X-2950Y-8692D01*
X-2953D01*
X-3000Y-8656D01*
X-3041Y-8617D01*
X-3078Y-8572D01*
X-3108Y-8531D01*
X-3130Y-8495D01*
X-3150Y-8464D01*
X-3155Y-8453D01*
X-3161Y-8445D01*
X-3164Y-8439D01*
Y-8436D01*
X-3191Y-8372D01*
X-3211Y-8306D01*
X-3225Y-8242D01*
X-3233Y-8184D01*
X-3241Y-8134D01*
Y-8111D01*
X-3244Y-8095D01*
Y-8078D01*
Y-8067D01*
Y-8062D01*
Y-8059D01*
X-3241Y-8006D01*
X-3239Y-7956D01*
X-3219Y-7862D01*
X-3208Y-7817D01*
X-3194Y-7778D01*
X-3180Y-7739D01*
X-3166Y-7706D01*
X-3153Y-7673D01*
X-3139Y-7645D01*
X-3125Y-7623D01*
X-3114Y-7601D01*
X-3103Y-7587D01*
X-3094Y-7573D01*
X-3091Y-7567D01*
X-3089Y-7565D01*
X-3058Y-7528D01*
X-3028Y-7495D01*
X-2994Y-7467D01*
X-2958Y-7442D01*
X-2922Y-7423D01*
X-2889Y-7406D01*
X-2853Y-7390D01*
X-2819Y-7379D01*
X-2789Y-7370D01*
X-2761Y-7365D01*
X-2733Y-7359D01*
X-2711Y-7356D01*
X-2692Y-7354D01*
X-2667D01*
X-2608Y-7356D01*
D02*
G37*
G36*
X-1450Y-16964D02*
X-1423Y-17019D01*
X-1392Y-17069D01*
X-1361Y-17111D01*
X-1334Y-17147D01*
X-1312Y-17175D01*
X-1295Y-17191D01*
X-1292Y-17194D01*
X-1289Y-17197D01*
X-1239Y-17241D01*
X-1192Y-17277D01*
X-1151Y-17308D01*
X-1112Y-17333D01*
X-1078Y-17350D01*
X-1056Y-17363D01*
X-1039Y-17369D01*
X-1037Y-17372D01*
X-1034D01*
Y-17699D01*
X-1112Y-17663D01*
X-1187Y-17622D01*
X-1250Y-17574D01*
X-1306Y-17530D01*
X-1331Y-17511D01*
X-1353Y-17491D01*
X-1373Y-17472D01*
X-1386Y-17458D01*
X-1400Y-17444D01*
X-1409Y-17436D01*
X-1414Y-17430D01*
X-1417Y-17427D01*
Y-18785D01*
X-1714D01*
Y-16903D01*
X-1473D01*
X-1450Y-16964D01*
D02*
G37*
G36*
X1667Y-18785D02*
X1401D01*
X954Y-17424D01*
X1256D01*
X1470Y-18121D01*
X1534Y-18352D01*
X1595Y-18121D01*
X1803Y-17424D01*
X2114D01*
X1667Y-18785D01*
D02*
G37*
G36*
X5060Y-16880D02*
X5115Y-16889D01*
X5165Y-16900D01*
X5215Y-16914D01*
X5260Y-16933D01*
X5301Y-16953D01*
X5340Y-16975D01*
X5374Y-16994D01*
X5404Y-17016D01*
X5432Y-17039D01*
X5454Y-17058D01*
X5474Y-17077D01*
X5487Y-17091D01*
X5499Y-17102D01*
X5504Y-17111D01*
X5507Y-17114D01*
X5546Y-17166D01*
X5579Y-17225D01*
X5607Y-17283D01*
X5632Y-17344D01*
X5654Y-17408D01*
X5671Y-17469D01*
X5685Y-17530D01*
X5696Y-17591D01*
X5704Y-17647D01*
X5712Y-17697D01*
X5718Y-17744D01*
X5721Y-17785D01*
Y-17816D01*
X5723Y-17841D01*
Y-17858D01*
Y-17860D01*
Y-17863D01*
X5721Y-17946D01*
X5715Y-18024D01*
X5704Y-18099D01*
X5690Y-18169D01*
X5673Y-18232D01*
X5657Y-18291D01*
X5637Y-18346D01*
X5615Y-18393D01*
X5596Y-18438D01*
X5576Y-18477D01*
X5560Y-18510D01*
X5543Y-18535D01*
X5529Y-18557D01*
X5518Y-18574D01*
X5512Y-18582D01*
X5510Y-18585D01*
X5474Y-18627D01*
X5435Y-18660D01*
X5396Y-18690D01*
X5354Y-18718D01*
X5313Y-18740D01*
X5274Y-18760D01*
X5235Y-18774D01*
X5196Y-18788D01*
X5160Y-18796D01*
X5127Y-18804D01*
X5096Y-18807D01*
X5071Y-18813D01*
X5049D01*
X5035Y-18815D01*
X5021D01*
X4977Y-18813D01*
X4935Y-18810D01*
X4857Y-18793D01*
X4788Y-18771D01*
X4757Y-18757D01*
X4730Y-18743D01*
X4705Y-18729D01*
X4682Y-18715D01*
X4663Y-18704D01*
X4649Y-18693D01*
X4635Y-18685D01*
X4627Y-18677D01*
X4621Y-18674D01*
X4618Y-18671D01*
X4588Y-18640D01*
X4560Y-18610D01*
X4513Y-18538D01*
X4471Y-18460D01*
X4438Y-18385D01*
X4424Y-18349D01*
X4413Y-18316D01*
X4405Y-18285D01*
X4396Y-18260D01*
X4391Y-18238D01*
X4385Y-18221D01*
X4383Y-18210D01*
Y-18207D01*
X4685Y-18091D01*
X4702Y-18166D01*
X4724Y-18227D01*
X4743Y-18280D01*
X4766Y-18321D01*
X4785Y-18355D01*
X4802Y-18377D01*
X4813Y-18391D01*
X4816Y-18396D01*
X4849Y-18427D01*
X4885Y-18452D01*
X4921Y-18468D01*
X4954Y-18479D01*
X4982Y-18485D01*
X5007Y-18488D01*
X5021Y-18491D01*
X5027D01*
X5057Y-18488D01*
X5085Y-18485D01*
X5140Y-18468D01*
X5185Y-18443D01*
X5224Y-18416D01*
X5257Y-18391D01*
X5279Y-18366D01*
X5293Y-18349D01*
X5299Y-18346D01*
Y-18343D01*
X5315Y-18313D01*
X5332Y-18280D01*
X5346Y-18241D01*
X5357Y-18202D01*
X5376Y-18119D01*
X5387Y-18035D01*
X5393Y-17996D01*
X5396Y-17960D01*
X5399Y-17927D01*
Y-17899D01*
X5401Y-17874D01*
Y-17858D01*
Y-17844D01*
Y-17841D01*
Y-17780D01*
X5396Y-17722D01*
X5390Y-17669D01*
X5385Y-17622D01*
X5376Y-17577D01*
X5368Y-17536D01*
X5360Y-17499D01*
X5349Y-17469D01*
X5338Y-17441D01*
X5329Y-17416D01*
X5321Y-17397D01*
X5313Y-17380D01*
X5304Y-17369D01*
X5301Y-17358D01*
X5296Y-17355D01*
Y-17352D01*
X5274Y-17325D01*
X5251Y-17302D01*
X5229Y-17283D01*
X5207Y-17266D01*
X5160Y-17239D01*
X5115Y-17222D01*
X5077Y-17211D01*
X5046Y-17205D01*
X5035Y-17202D01*
X5018D01*
X4974Y-17205D01*
X4935Y-17216D01*
X4902Y-17227D01*
X4871Y-17244D01*
X4846Y-17258D01*
X4827Y-17272D01*
X4816Y-17283D01*
X4813Y-17286D01*
X4782Y-17319D01*
X4757Y-17355D01*
X4735Y-17394D01*
X4718Y-17433D01*
X4707Y-17466D01*
X4699Y-17494D01*
X4696Y-17505D01*
Y-17513D01*
X4693Y-17516D01*
Y-17519D01*
X4385Y-17430D01*
X4396Y-17386D01*
X4410Y-17344D01*
X4424Y-17305D01*
X4438Y-17266D01*
X4455Y-17233D01*
X4469Y-17202D01*
X4485Y-17177D01*
X4499Y-17152D01*
X4513Y-17130D01*
X4527Y-17111D01*
X4538Y-17094D01*
X4549Y-17080D01*
X4557Y-17072D01*
X4563Y-17064D01*
X4566Y-17058D01*
X4569D01*
X4602Y-17028D01*
X4638Y-17000D01*
X4674Y-16975D01*
X4710Y-16953D01*
X4746Y-16936D01*
X4782Y-16922D01*
X4852Y-16900D01*
X4882Y-16891D01*
X4910Y-16886D01*
X4935Y-16883D01*
X4957Y-16880D01*
X4977Y-16878D01*
X5002D01*
X5060Y-16880D01*
D02*
G37*
G36*
X7106Y-18785D02*
X6795D01*
Y-18077D01*
X6542D01*
X6495Y-18074D01*
X6451Y-18071D01*
X6412Y-18069D01*
X6376Y-18063D01*
X6345Y-18060D01*
X6315Y-18055D01*
X6290Y-18049D01*
X6268Y-18044D01*
X6248Y-18038D01*
X6234Y-18035D01*
X6220Y-18030D01*
X6209Y-18027D01*
X6204Y-18024D01*
X6198Y-18021D01*
X6157Y-17996D01*
X6118Y-17969D01*
X6084Y-17935D01*
X6057Y-17905D01*
X6034Y-17877D01*
X6018Y-17852D01*
X6007Y-17835D01*
X6004Y-17833D01*
Y-17830D01*
X5979Y-17774D01*
X5959Y-17719D01*
X5946Y-17660D01*
X5934Y-17608D01*
X5929Y-17561D01*
Y-17538D01*
X5926Y-17522D01*
Y-17508D01*
Y-17497D01*
Y-17491D01*
Y-17488D01*
X5929Y-17408D01*
X5940Y-17336D01*
X5954Y-17275D01*
X5971Y-17222D01*
X5982Y-17197D01*
X5990Y-17177D01*
X5995Y-17161D01*
X6004Y-17147D01*
X6009Y-17136D01*
X6015Y-17127D01*
X6018Y-17125D01*
Y-17122D01*
X6054Y-17072D01*
X6090Y-17033D01*
X6129Y-17000D01*
X6162Y-16975D01*
X6195Y-16958D01*
X6220Y-16944D01*
X6237Y-16939D01*
X6240Y-16936D01*
X6243D01*
X6262Y-16930D01*
X6284Y-16928D01*
X6309Y-16922D01*
X6337Y-16919D01*
X6395Y-16914D01*
X6459Y-16911D01*
X6515Y-16908D01*
X7106D01*
Y-18785D01*
D02*
G37*
G36*
X4119D02*
X3480D01*
X3430Y-18782D01*
X3386D01*
X3344Y-18779D01*
X3308Y-18777D01*
X3278D01*
X3250Y-18774D01*
X3228Y-18771D01*
X3208Y-18768D01*
X3194D01*
X3180Y-18765D01*
X3172D01*
X3167Y-18763D01*
X3161D01*
X3114Y-18746D01*
X3069Y-18721D01*
X3028Y-18693D01*
X2994Y-18663D01*
X2967Y-18635D01*
X2944Y-18610D01*
X2933Y-18593D01*
X2928Y-18591D01*
Y-18588D01*
X2894Y-18532D01*
X2869Y-18474D01*
X2853Y-18416D01*
X2839Y-18360D01*
X2833Y-18313D01*
X2831Y-18293D01*
Y-18274D01*
X2828Y-18260D01*
Y-18249D01*
Y-18243D01*
Y-18241D01*
X2831Y-18180D01*
X2839Y-18124D01*
X2853Y-18077D01*
X2867Y-18035D01*
X2881Y-17999D01*
X2894Y-17974D01*
X2903Y-17960D01*
X2906Y-17955D01*
X2936Y-17913D01*
X2972Y-17877D01*
X3008Y-17849D01*
X3042Y-17827D01*
X3075Y-17810D01*
X3100Y-17797D01*
X3117Y-17791D01*
X3119Y-17788D01*
X3122D01*
X3086Y-17766D01*
X3055Y-17741D01*
X3030Y-17713D01*
X3006Y-17688D01*
X2989Y-17663D01*
X2975Y-17644D01*
X2967Y-17633D01*
X2964Y-17627D01*
X2944Y-17586D01*
X2928Y-17541D01*
X2917Y-17499D01*
X2911Y-17461D01*
X2906Y-17430D01*
X2903Y-17402D01*
Y-17386D01*
Y-17383D01*
Y-17380D01*
X2906Y-17327D01*
X2914Y-17277D01*
X2925Y-17233D01*
X2939Y-17194D01*
X2953Y-17164D01*
X2964Y-17139D01*
X2972Y-17125D01*
X2975Y-17119D01*
X3003Y-17077D01*
X3030Y-17044D01*
X3061Y-17016D01*
X3086Y-16994D01*
X3111Y-16978D01*
X3130Y-16964D01*
X3142Y-16958D01*
X3147Y-16955D01*
X3169Y-16947D01*
X3192Y-16939D01*
X3247Y-16928D01*
X3305Y-16919D01*
X3364Y-16914D01*
X3416Y-16911D01*
X3441Y-16908D01*
X4119D01*
Y-18785D01*
D02*
G37*
G36*
X-420Y-18785D02*
X-715D01*
Y-18424D01*
X-420D01*
Y-18785D01*
D02*
G37*
G36*
X-2214D02*
X-2508D01*
Y-18424D01*
X-2214D01*
Y-18785D01*
D02*
G37*
G36*
X382Y-16905D02*
X421Y-16911D01*
X457Y-16922D01*
X490Y-16936D01*
X551Y-16969D01*
X604Y-17008D01*
X646Y-17050D01*
X662Y-17066D01*
X676Y-17083D01*
X687Y-17097D01*
X696Y-17108D01*
X698Y-17114D01*
X701Y-17116D01*
X726Y-17161D01*
X746Y-17211D01*
X765Y-17263D01*
X779Y-17322D01*
X804Y-17444D01*
X821Y-17566D01*
X826Y-17624D01*
X829Y-17680D01*
X832Y-17730D01*
X835Y-17772D01*
X837Y-17808D01*
Y-17835D01*
Y-17844D01*
Y-17852D01*
Y-17855D01*
Y-17858D01*
X835Y-17955D01*
X832Y-18044D01*
X823Y-18127D01*
X815Y-18202D01*
X807Y-18271D01*
X793Y-18332D01*
X782Y-18385D01*
X768Y-18435D01*
X757Y-18477D01*
X743Y-18513D01*
X732Y-18541D01*
X723Y-18566D01*
X712Y-18585D01*
X707Y-18596D01*
X704Y-18604D01*
X701Y-18607D01*
X673Y-18643D01*
X646Y-18677D01*
X615Y-18704D01*
X585Y-18727D01*
X554Y-18749D01*
X526Y-18765D01*
X496Y-18779D01*
X468Y-18790D01*
X415Y-18804D01*
X393Y-18810D01*
X374Y-18813D01*
X360D01*
X349Y-18815D01*
X338D01*
X296Y-18813D01*
X257Y-18807D01*
X221Y-18796D01*
X188Y-18782D01*
X127Y-18749D01*
X74Y-18710D01*
X32Y-18671D01*
X16Y-18654D01*
X2Y-18638D01*
X-9Y-18624D01*
X-18Y-18613D01*
X-21Y-18607D01*
X-23Y-18604D01*
X-48Y-18560D01*
X-71Y-18510D01*
X-87Y-18457D01*
X-104Y-18399D01*
X-129Y-18274D01*
X-146Y-18152D01*
X-151Y-18094D01*
X-154Y-18038D01*
X-159Y-17991D01*
Y-17946D01*
X-162Y-17910D01*
Y-17883D01*
Y-17874D01*
Y-17866D01*
Y-17863D01*
Y-17860D01*
X-159Y-17763D01*
X-157Y-17677D01*
X-148Y-17594D01*
X-140Y-17522D01*
X-129Y-17452D01*
X-118Y-17391D01*
X-107Y-17338D01*
X-93Y-17288D01*
X-79Y-17247D01*
X-68Y-17211D01*
X-57Y-17183D01*
X-46Y-17158D01*
X-37Y-17139D01*
X-29Y-17127D01*
X-26Y-17119D01*
X-23Y-17116D01*
X4Y-17077D01*
X32Y-17047D01*
X63Y-17016D01*
X93Y-16991D01*
X124Y-16972D01*
X152Y-16955D01*
X182Y-16941D01*
X210Y-16930D01*
X263Y-16914D01*
X285Y-16908D01*
X304Y-16905D01*
X318Y-16903D01*
X340D01*
X382Y-16905D01*
D02*
G37*
G36*
X-3205Y-16905D02*
X-3166Y-16911D01*
X-3130Y-16922D01*
X-3097Y-16936D01*
X-3036Y-16969D01*
X-2983Y-17008D01*
X-2941Y-17050D01*
X-2924Y-17066D01*
X-2911Y-17083D01*
X-2900Y-17097D01*
X-2891Y-17108D01*
X-2888Y-17114D01*
X-2886Y-17116D01*
X-2861Y-17161D01*
X-2841Y-17211D01*
X-2822Y-17263D01*
X-2808Y-17322D01*
X-2783Y-17444D01*
X-2766Y-17566D01*
X-2761Y-17624D01*
X-2758Y-17680D01*
X-2755Y-17730D01*
X-2752Y-17772D01*
X-2750Y-17808D01*
Y-17835D01*
Y-17844D01*
Y-17852D01*
Y-17855D01*
Y-17858D01*
X-2752Y-17955D01*
X-2755Y-18044D01*
X-2763Y-18127D01*
X-2772Y-18202D01*
X-2780Y-18271D01*
X-2794Y-18332D01*
X-2805Y-18385D01*
X-2819Y-18435D01*
X-2830Y-18477D01*
X-2844Y-18513D01*
X-2855Y-18541D01*
X-2863Y-18566D01*
X-2875Y-18585D01*
X-2880Y-18596D01*
X-2883Y-18604D01*
X-2886Y-18607D01*
X-2913Y-18643D01*
X-2941Y-18677D01*
X-2972Y-18704D01*
X-3002Y-18727D01*
X-3033Y-18749D01*
X-3061Y-18765D01*
X-3091Y-18779D01*
X-3119Y-18790D01*
X-3172Y-18804D01*
X-3194Y-18810D01*
X-3213Y-18813D01*
X-3227D01*
X-3238Y-18815D01*
X-3249D01*
X-3291Y-18813D01*
X-3330Y-18807D01*
X-3366Y-18796D01*
X-3399Y-18782D01*
X-3460Y-18749D01*
X-3513Y-18710D01*
X-3555Y-18671D01*
X-3571Y-18654D01*
X-3585Y-18638D01*
X-3596Y-18624D01*
X-3605Y-18613D01*
X-3607Y-18607D01*
X-3610Y-18604D01*
X-3635Y-18560D01*
X-3657Y-18510D01*
X-3674Y-18457D01*
X-3691Y-18399D01*
X-3716Y-18274D01*
X-3732Y-18152D01*
X-3738Y-18094D01*
X-3741Y-18038D01*
X-3746Y-17991D01*
Y-17946D01*
X-3749Y-17910D01*
Y-17883D01*
Y-17874D01*
Y-17866D01*
Y-17863D01*
Y-17860D01*
X-3746Y-17763D01*
X-3743Y-17677D01*
X-3735Y-17594D01*
X-3727Y-17522D01*
X-3716Y-17452D01*
X-3705Y-17391D01*
X-3694Y-17338D01*
X-3680Y-17288D01*
X-3666Y-17247D01*
X-3655Y-17211D01*
X-3644Y-17183D01*
X-3632Y-17158D01*
X-3624Y-17139D01*
X-3616Y-17127D01*
X-3613Y-17119D01*
X-3610Y-17116D01*
X-3582Y-17077D01*
X-3555Y-17047D01*
X-3524Y-17016D01*
X-3494Y-16991D01*
X-3463Y-16972D01*
X-3435Y-16955D01*
X-3405Y-16941D01*
X-3377Y-16930D01*
X-3324Y-16914D01*
X-3302Y-16908D01*
X-3283Y-16905D01*
X-3269Y-16903D01*
X-3247D01*
X-3205Y-16905D01*
D02*
G37*
G36*
X-1931Y-14564D02*
X-1903Y-14619D01*
X-1872Y-14669D01*
X-1842Y-14711D01*
X-1814Y-14747D01*
X-1792Y-14775D01*
X-1775Y-14791D01*
X-1772Y-14794D01*
X-1770Y-14797D01*
X-1720Y-14841D01*
X-1672Y-14877D01*
X-1631Y-14908D01*
X-1592Y-14933D01*
X-1559Y-14950D01*
X-1536Y-14963D01*
X-1520Y-14969D01*
X-1517Y-14972D01*
X-1514D01*
Y-15299D01*
X-1592Y-15263D01*
X-1667Y-15222D01*
X-1731Y-15174D01*
X-1786Y-15130D01*
X-1811Y-15111D01*
X-1833Y-15091D01*
X-1853Y-15072D01*
X-1867Y-15058D01*
X-1881Y-15044D01*
X-1889Y-15036D01*
X-1895Y-15030D01*
X-1897Y-15027D01*
Y-16385D01*
X-2194D01*
Y-14503D01*
X-1953D01*
X-1931Y-14564D01*
D02*
G37*
G36*
X3883Y-16385D02*
X3594D01*
Y-14905D01*
X3289Y-16385D01*
X2992D01*
X2681Y-14905D01*
Y-16385D01*
X2392D01*
Y-14508D01*
X2861D01*
X3139Y-15794D01*
X3419Y-14508D01*
X3883D01*
Y-16385D01*
D02*
G37*
G36*
X1187D02*
X921D01*
X474Y-15025D01*
X776D01*
X990Y-15721D01*
X1054Y-15952D01*
X1115Y-15721D01*
X1323Y-15025D01*
X1634D01*
X1187Y-16385D01*
D02*
G37*
G36*
X7106D02*
X6467D01*
X6417Y-16382D01*
X6373D01*
X6331Y-16379D01*
X6295Y-16377D01*
X6265D01*
X6237Y-16374D01*
X6215Y-16371D01*
X6195Y-16368D01*
X6181D01*
X6168Y-16365D01*
X6159D01*
X6154Y-16363D01*
X6148D01*
X6101Y-16346D01*
X6057Y-16321D01*
X6015Y-16293D01*
X5982Y-16263D01*
X5954Y-16235D01*
X5932Y-16210D01*
X5921Y-16193D01*
X5915Y-16191D01*
Y-16188D01*
X5882Y-16132D01*
X5857Y-16074D01*
X5840Y-16016D01*
X5826Y-15960D01*
X5821Y-15913D01*
X5818Y-15893D01*
Y-15874D01*
X5815Y-15860D01*
Y-15849D01*
Y-15843D01*
Y-15841D01*
X5818Y-15780D01*
X5826Y-15724D01*
X5840Y-15677D01*
X5854Y-15635D01*
X5868Y-15599D01*
X5882Y-15574D01*
X5890Y-15560D01*
X5893Y-15555D01*
X5923Y-15513D01*
X5959Y-15477D01*
X5995Y-15449D01*
X6029Y-15427D01*
X6062Y-15410D01*
X6087Y-15397D01*
X6104Y-15391D01*
X6107Y-15388D01*
X6109D01*
X6073Y-15366D01*
X6043Y-15341D01*
X6018Y-15313D01*
X5993Y-15288D01*
X5976Y-15263D01*
X5962Y-15244D01*
X5954Y-15233D01*
X5951Y-15227D01*
X5932Y-15186D01*
X5915Y-15141D01*
X5904Y-15099D01*
X5898Y-15061D01*
X5893Y-15030D01*
X5890Y-15002D01*
Y-14986D01*
Y-14983D01*
Y-14980D01*
X5893Y-14927D01*
X5901Y-14877D01*
X5912Y-14833D01*
X5926Y-14794D01*
X5940Y-14764D01*
X5951Y-14739D01*
X5959Y-14725D01*
X5962Y-14719D01*
X5990Y-14677D01*
X6018Y-14644D01*
X6048Y-14616D01*
X6073Y-14594D01*
X6098Y-14578D01*
X6118Y-14564D01*
X6129Y-14558D01*
X6134Y-14555D01*
X6157Y-14547D01*
X6179Y-14539D01*
X6234Y-14528D01*
X6293Y-14519D01*
X6351Y-14514D01*
X6404Y-14511D01*
X6429Y-14508D01*
X7106D01*
Y-16385D01*
D02*
G37*
G36*
X-901Y-16385D02*
X-1195D01*
Y-16024D01*
X-901D01*
Y-16385D01*
D02*
G37*
G36*
X-2694D02*
X-2988D01*
Y-16024D01*
X-2694D01*
Y-16385D01*
D02*
G37*
G36*
X4952Y-14483D02*
X5027Y-14494D01*
X5093Y-14511D01*
X5152Y-14530D01*
X5174Y-14541D01*
X5196Y-14553D01*
X5215Y-14561D01*
X5232Y-14569D01*
X5243Y-14575D01*
X5251Y-14580D01*
X5257Y-14586D01*
X5260D01*
X5315Y-14630D01*
X5368Y-14680D01*
X5410Y-14733D01*
X5449Y-14786D01*
X5479Y-14833D01*
X5490Y-14855D01*
X5499Y-14872D01*
X5507Y-14888D01*
X5512Y-14900D01*
X5518Y-14905D01*
Y-14908D01*
X5535Y-14950D01*
X5551Y-14994D01*
X5574Y-15086D01*
X5590Y-15177D01*
X5604Y-15266D01*
X5607Y-15305D01*
X5610Y-15344D01*
X5612Y-15377D01*
Y-15405D01*
X5615Y-15427D01*
Y-15446D01*
Y-15458D01*
Y-15460D01*
X5612Y-15544D01*
X5607Y-15624D01*
X5596Y-15699D01*
X5582Y-15769D01*
X5565Y-15832D01*
X5546Y-15891D01*
X5526Y-15946D01*
X5504Y-15996D01*
X5485Y-16038D01*
X5465Y-16077D01*
X5446Y-16110D01*
X5429Y-16138D01*
X5415Y-16157D01*
X5404Y-16174D01*
X5399Y-16182D01*
X5396Y-16185D01*
X5357Y-16227D01*
X5318Y-16260D01*
X5274Y-16290D01*
X5232Y-16318D01*
X5188Y-16340D01*
X5143Y-16360D01*
X5102Y-16374D01*
X5060Y-16388D01*
X5021Y-16396D01*
X4985Y-16404D01*
X4952Y-16407D01*
X4924Y-16413D01*
X4902D01*
X4882Y-16415D01*
X4868D01*
X4807Y-16413D01*
X4752Y-16404D01*
X4696Y-16393D01*
X4646Y-16379D01*
X4599Y-16360D01*
X4557Y-16340D01*
X4519Y-16321D01*
X4482Y-16299D01*
X4449Y-16277D01*
X4421Y-16257D01*
X4399Y-16235D01*
X4380Y-16218D01*
X4363Y-16204D01*
X4352Y-16193D01*
X4346Y-16185D01*
X4344Y-16182D01*
X4305Y-16129D01*
X4271Y-16074D01*
X4241Y-16016D01*
X4216Y-15955D01*
X4194Y-15893D01*
X4174Y-15832D01*
X4160Y-15774D01*
X4149Y-15716D01*
X4141Y-15660D01*
X4133Y-15610D01*
X4127Y-15563D01*
X4124Y-15524D01*
X4122Y-15491D01*
Y-15466D01*
Y-15452D01*
Y-15446D01*
X4124Y-15363D01*
X4130Y-15283D01*
X4141Y-15208D01*
X4155Y-15138D01*
X4169Y-15074D01*
X4188Y-15016D01*
X4205Y-14963D01*
X4224Y-14913D01*
X4244Y-14872D01*
X4263Y-14836D01*
X4283Y-14802D01*
X4296Y-14777D01*
X4310Y-14755D01*
X4321Y-14741D01*
X4327Y-14733D01*
X4330Y-14730D01*
X4371Y-14686D01*
X4413Y-14647D01*
X4457Y-14614D01*
X4502Y-14583D01*
X4546Y-14561D01*
X4591Y-14539D01*
X4635Y-14522D01*
X4677Y-14508D01*
X4716Y-14500D01*
X4752Y-14491D01*
X4785Y-14486D01*
X4813Y-14480D01*
X4835D01*
X4854Y-14478D01*
X4868D01*
X4952Y-14483D01*
D02*
G37*
G36*
X-98Y-14505D02*
X-59Y-14511D01*
X-23Y-14522D01*
X10Y-14536D01*
X71Y-14569D01*
X124Y-14608D01*
X165Y-14650D01*
X182Y-14666D01*
X196Y-14683D01*
X207Y-14697D01*
X215Y-14708D01*
X218Y-14714D01*
X221Y-14716D01*
X246Y-14761D01*
X265Y-14811D01*
X285Y-14863D01*
X299Y-14922D01*
X324Y-15044D01*
X340Y-15166D01*
X346Y-15224D01*
X349Y-15280D01*
X351Y-15330D01*
X354Y-15372D01*
X357Y-15408D01*
Y-15435D01*
Y-15444D01*
Y-15452D01*
Y-15455D01*
Y-15458D01*
X354Y-15555D01*
X351Y-15644D01*
X343Y-15727D01*
X335Y-15802D01*
X326Y-15871D01*
X313Y-15932D01*
X301Y-15985D01*
X288Y-16035D01*
X276Y-16077D01*
X263Y-16113D01*
X252Y-16141D01*
X243Y-16166D01*
X232Y-16185D01*
X227Y-16196D01*
X224Y-16204D01*
X221Y-16207D01*
X193Y-16243D01*
X165Y-16277D01*
X135Y-16304D01*
X104Y-16327D01*
X74Y-16349D01*
X46Y-16365D01*
X16Y-16379D01*
X-12Y-16390D01*
X-65Y-16404D01*
X-87Y-16410D01*
X-107Y-16413D01*
X-121D01*
X-132Y-16415D01*
X-143D01*
X-184Y-16413D01*
X-223Y-16407D01*
X-259Y-16396D01*
X-293Y-16382D01*
X-354Y-16349D01*
X-406Y-16310D01*
X-448Y-16271D01*
X-465Y-16254D01*
X-479Y-16238D01*
X-490Y-16224D01*
X-498Y-16213D01*
X-501Y-16207D01*
X-504Y-16204D01*
X-529Y-16160D01*
X-551Y-16110D01*
X-567Y-16057D01*
X-584Y-15999D01*
X-609Y-15874D01*
X-626Y-15752D01*
X-631Y-15694D01*
X-634Y-15638D01*
X-640Y-15591D01*
Y-15546D01*
X-642Y-15510D01*
Y-15483D01*
Y-15474D01*
Y-15466D01*
Y-15463D01*
Y-15460D01*
X-640Y-15363D01*
X-637Y-15277D01*
X-629Y-15194D01*
X-620Y-15122D01*
X-609Y-15052D01*
X-598Y-14991D01*
X-587Y-14938D01*
X-573Y-14888D01*
X-559Y-14847D01*
X-548Y-14811D01*
X-537Y-14783D01*
X-526Y-14758D01*
X-518Y-14739D01*
X-509Y-14727D01*
X-506Y-14719D01*
X-504Y-14716D01*
X-476Y-14677D01*
X-448Y-14647D01*
X-418Y-14616D01*
X-387Y-14591D01*
X-356Y-14572D01*
X-329Y-14555D01*
X-298Y-14541D01*
X-270Y-14530D01*
X-218Y-14514D01*
X-195Y-14508D01*
X-176Y-14505D01*
X-162Y-14503D01*
X-140Y-14503D01*
X-98Y-14505D01*
D02*
G37*
G36*
X-3685Y-14505D02*
X-3646Y-14511D01*
X-3610Y-14522D01*
X-3577Y-14536D01*
X-3516Y-14569D01*
X-3463Y-14608D01*
X-3421Y-14650D01*
X-3405Y-14666D01*
X-3391Y-14683D01*
X-3380Y-14697D01*
X-3371Y-14708D01*
X-3369Y-14714D01*
X-3366Y-14716D01*
X-3341Y-14761D01*
X-3322Y-14811D01*
X-3302Y-14863D01*
X-3288Y-14922D01*
X-3263Y-15044D01*
X-3247Y-15166D01*
X-3241Y-15224D01*
X-3238Y-15280D01*
X-3235Y-15330D01*
X-3233Y-15372D01*
X-3230Y-15408D01*
Y-15435D01*
Y-15444D01*
Y-15452D01*
Y-15455D01*
Y-15458D01*
X-3233Y-15555D01*
X-3235Y-15644D01*
X-3244Y-15727D01*
X-3252Y-15802D01*
X-3260Y-15871D01*
X-3274Y-15932D01*
X-3285Y-15985D01*
X-3299Y-16035D01*
X-3310Y-16077D01*
X-3324Y-16113D01*
X-3335Y-16141D01*
X-3344Y-16166D01*
X-3355Y-16185D01*
X-3360Y-16196D01*
X-3363Y-16204D01*
X-3366Y-16207D01*
X-3394Y-16243D01*
X-3421Y-16277D01*
X-3452Y-16304D01*
X-3483Y-16327D01*
X-3513Y-16349D01*
X-3541Y-16365D01*
X-3571Y-16379D01*
X-3599Y-16390D01*
X-3652Y-16404D01*
X-3674Y-16410D01*
X-3694Y-16413D01*
X-3707D01*
X-3718Y-16415D01*
X-3730D01*
X-3771Y-16413D01*
X-3810Y-16407D01*
X-3846Y-16396D01*
X-3880Y-16382D01*
X-3941Y-16349D01*
X-3993Y-16310D01*
X-4035Y-16271D01*
X-4052Y-16254D01*
X-4066Y-16238D01*
X-4077Y-16224D01*
X-4085Y-16213D01*
X-4088Y-16207D01*
X-4091Y-16204D01*
X-4115Y-16160D01*
X-4138Y-16110D01*
X-4154Y-16057D01*
X-4171Y-15999D01*
X-4196Y-15874D01*
X-4213Y-15752D01*
X-4218Y-15694D01*
X-4221Y-15638D01*
X-4227Y-15591D01*
Y-15546D01*
X-4229Y-15510D01*
Y-15483D01*
Y-15474D01*
Y-15466D01*
Y-15463D01*
Y-15460D01*
X-4227Y-15363D01*
X-4224Y-15277D01*
X-4215Y-15194D01*
X-4207Y-15122D01*
X-4196Y-15052D01*
X-4185Y-14991D01*
X-4174Y-14938D01*
X-4160Y-14888D01*
X-4146Y-14847D01*
X-4135Y-14811D01*
X-4124Y-14783D01*
X-4113Y-14758D01*
X-4104Y-14739D01*
X-4096Y-14727D01*
X-4093Y-14719D01*
X-4091Y-14716D01*
X-4063Y-14677D01*
X-4035Y-14647D01*
X-4004Y-14616D01*
X-3974Y-14591D01*
X-3943Y-14572D01*
X-3916Y-14555D01*
X-3885Y-14541D01*
X-3857Y-14530D01*
X-3805Y-14514D01*
X-3782Y-14508D01*
X-3763Y-14505D01*
X-3749Y-14503D01*
X-3727D01*
X-3685Y-14505D01*
D02*
G37*
G36*
X-5115Y20928D02*
X-5405D01*
Y21695D01*
X-5972D01*
Y20928D01*
X-6263D01*
Y22680D01*
X-5972D01*
Y21991D01*
X-5405D01*
Y22680D01*
X-5115D01*
Y20928D01*
D02*
G37*
G36*
X-4234Y22706D02*
X-4182Y22698D01*
X-4135Y22688D01*
X-4089Y22675D01*
X-4047Y22657D01*
X-4009Y22638D01*
X-3972Y22618D01*
X-3941Y22600D01*
X-3913Y22579D01*
X-3887Y22558D01*
X-3866Y22540D01*
X-3848Y22522D01*
X-3835Y22509D01*
X-3825Y22499D01*
X-3819Y22491D01*
X-3817Y22488D01*
X-3781Y22439D01*
X-3749Y22385D01*
X-3724Y22330D01*
X-3700Y22273D01*
X-3680Y22214D01*
X-3664Y22157D01*
X-3651Y22100D01*
X-3641Y22043D01*
X-3633Y21991D01*
X-3625Y21944D01*
X-3620Y21900D01*
X-3617Y21861D01*
Y21833D01*
X-3615Y21809D01*
Y21794D01*
Y21791D01*
Y21789D01*
X-3617Y21711D01*
X-3623Y21638D01*
X-3633Y21568D01*
X-3646Y21504D01*
X-3661Y21444D01*
X-3677Y21390D01*
X-3695Y21338D01*
X-3716Y21294D01*
X-3734Y21252D01*
X-3752Y21216D01*
X-3768Y21185D01*
X-3783Y21162D01*
X-3796Y21141D01*
X-3806Y21125D01*
X-3812Y21118D01*
X-3814Y21115D01*
X-3848Y21076D01*
X-3884Y21045D01*
X-3920Y21017D01*
X-3959Y20991D01*
X-3998Y20970D01*
X-4034Y20952D01*
X-4071Y20939D01*
X-4107Y20926D01*
X-4141Y20918D01*
X-4172Y20910D01*
X-4200Y20908D01*
X-4224Y20903D01*
X-4244D01*
X-4257Y20900D01*
X-4270D01*
X-4312Y20903D01*
X-4351Y20905D01*
X-4423Y20921D01*
X-4488Y20941D01*
X-4516Y20954D01*
X-4542Y20967D01*
X-4566Y20980D01*
X-4586Y20993D01*
X-4604Y21004D01*
X-4617Y21014D01*
X-4630Y21022D01*
X-4638Y21030D01*
X-4643Y21032D01*
X-4646Y21035D01*
X-4674Y21063D01*
X-4700Y21092D01*
X-4744Y21159D01*
X-4783Y21232D01*
X-4814Y21302D01*
X-4827Y21335D01*
X-4838Y21366D01*
X-4845Y21395D01*
X-4853Y21418D01*
X-4858Y21439D01*
X-4864Y21454D01*
X-4866Y21465D01*
Y21467D01*
X-4584Y21576D01*
X-4568Y21506D01*
X-4547Y21449D01*
X-4529Y21400D01*
X-4509Y21361D01*
X-4490Y21330D01*
X-4475Y21309D01*
X-4465Y21296D01*
X-4462Y21291D01*
X-4431Y21263D01*
X-4397Y21239D01*
X-4363Y21224D01*
X-4332Y21213D01*
X-4306Y21208D01*
X-4283Y21206D01*
X-4270Y21203D01*
X-4265D01*
X-4237Y21206D01*
X-4211Y21208D01*
X-4159Y21224D01*
X-4117Y21247D01*
X-4081Y21273D01*
X-4050Y21296D01*
X-4029Y21320D01*
X-4016Y21335D01*
X-4011Y21338D01*
Y21340D01*
X-3996Y21369D01*
X-3980Y21400D01*
X-3967Y21436D01*
X-3957Y21473D01*
X-3939Y21550D01*
X-3928Y21628D01*
X-3923Y21664D01*
X-3920Y21698D01*
X-3918Y21729D01*
Y21755D01*
X-3915Y21778D01*
Y21794D01*
Y21807D01*
Y21809D01*
Y21866D01*
X-3920Y21921D01*
X-3926Y21970D01*
X-3931Y22014D01*
X-3939Y22056D01*
X-3946Y22094D01*
X-3954Y22128D01*
X-3964Y22157D01*
X-3975Y22182D01*
X-3983Y22206D01*
X-3990Y22224D01*
X-3998Y22239D01*
X-4006Y22250D01*
X-4009Y22260D01*
X-4014Y22263D01*
Y22265D01*
X-4034Y22291D01*
X-4055Y22312D01*
X-4076Y22330D01*
X-4097Y22346D01*
X-4141Y22372D01*
X-4182Y22387D01*
X-4218Y22397D01*
X-4247Y22403D01*
X-4257Y22405D01*
X-4273D01*
X-4314Y22403D01*
X-4351Y22392D01*
X-4382Y22382D01*
X-4410Y22366D01*
X-4433Y22353D01*
X-4452Y22340D01*
X-4462Y22330D01*
X-4465Y22328D01*
X-4493Y22296D01*
X-4516Y22263D01*
X-4537Y22226D01*
X-4553Y22190D01*
X-4563Y22159D01*
X-4571Y22133D01*
X-4573Y22123D01*
Y22115D01*
X-4576Y22112D01*
Y22110D01*
X-4864Y22193D01*
X-4853Y22234D01*
X-4840Y22273D01*
X-4827Y22309D01*
X-4814Y22346D01*
X-4799Y22377D01*
X-4786Y22405D01*
X-4770Y22429D01*
X-4757Y22452D01*
X-4744Y22473D01*
X-4731Y22491D01*
X-4721Y22506D01*
X-4711Y22519D01*
X-4703Y22527D01*
X-4698Y22535D01*
X-4695Y22540D01*
X-4693D01*
X-4661Y22568D01*
X-4628Y22594D01*
X-4594Y22618D01*
X-4560Y22638D01*
X-4527Y22654D01*
X-4493Y22667D01*
X-4428Y22688D01*
X-4400Y22695D01*
X-4374Y22701D01*
X-4351Y22703D01*
X-4330Y22706D01*
X-4312Y22708D01*
X-4288D01*
X-4234Y22706D01*
D02*
G37*
G36*
X-10043Y22703D02*
X-9973Y22693D01*
X-9910Y22675D01*
X-9856Y22657D01*
X-9833Y22646D01*
X-9812Y22638D01*
X-9794Y22628D01*
X-9781Y22620D01*
X-9768Y22615D01*
X-9760Y22610D01*
X-9755Y22605D01*
X-9752D01*
X-9698Y22563D01*
X-9649Y22514D01*
X-9607Y22465D01*
X-9571Y22413D01*
X-9542Y22369D01*
X-9530Y22351D01*
X-9522Y22333D01*
X-9514Y22320D01*
X-9509Y22309D01*
X-9504Y22302D01*
Y22299D01*
X-9473Y22219D01*
X-9449Y22136D01*
X-9431Y22053D01*
X-9421Y21975D01*
X-9416Y21939D01*
X-9413Y21908D01*
X-9410Y21877D01*
Y21853D01*
X-9408Y21833D01*
Y21817D01*
Y21807D01*
Y21804D01*
X-9413Y21703D01*
X-9423Y21610D01*
X-9429Y21566D01*
X-9436Y21527D01*
X-9447Y21488D01*
X-9454Y21454D01*
X-9462Y21423D01*
X-9473Y21395D01*
X-9480Y21372D01*
X-9486Y21351D01*
X-9493Y21335D01*
X-9496Y21325D01*
X-9501Y21317D01*
Y21315D01*
X-9540Y21242D01*
X-9581Y21180D01*
X-9625Y21125D01*
X-9667Y21081D01*
X-9703Y21048D01*
X-9734Y21024D01*
X-9745Y21014D01*
X-9752Y21009D01*
X-9758Y21006D01*
X-9760Y21004D01*
X-9822Y20970D01*
X-9887Y20944D01*
X-9952Y20926D01*
X-10009Y20913D01*
X-10035Y20908D01*
X-10061Y20905D01*
X-10081Y20903D01*
X-10100D01*
X-10115Y20900D01*
X-10136D01*
X-10201Y20903D01*
X-10263Y20913D01*
X-10322Y20926D01*
X-10374Y20939D01*
X-10418Y20954D01*
X-10436Y20960D01*
X-10454Y20965D01*
X-10465Y20970D01*
X-10475Y20975D01*
X-10480Y20978D01*
X-10483D01*
X-10545Y21009D01*
X-10600Y21042D01*
X-10644Y21074D01*
X-10682Y21105D01*
X-10714Y21131D01*
X-10734Y21151D01*
X-10747Y21164D01*
X-10752Y21169D01*
Y21866D01*
X-10128D01*
Y21571D01*
X-10460D01*
Y21351D01*
X-10431Y21325D01*
X-10403Y21304D01*
X-10374Y21286D01*
X-10351Y21270D01*
X-10328Y21258D01*
X-10309Y21250D01*
X-10299Y21245D01*
X-10294Y21242D01*
X-10260Y21229D01*
X-10229Y21219D01*
X-10198Y21213D01*
X-10172Y21208D01*
X-10151Y21206D01*
X-10136Y21203D01*
X-10120D01*
X-10087Y21206D01*
X-10055Y21208D01*
X-9998Y21224D01*
X-9947Y21247D01*
X-9905Y21273D01*
X-9874Y21299D01*
X-9851Y21322D01*
X-9835Y21338D01*
X-9833Y21340D01*
X-9830Y21343D01*
X-9809Y21377D01*
X-9791Y21410D01*
X-9760Y21488D01*
X-9739Y21568D01*
X-9724Y21646D01*
X-9719Y21680D01*
X-9716Y21714D01*
X-9711Y21745D01*
Y21771D01*
X-9708Y21791D01*
Y21809D01*
Y21820D01*
Y21822D01*
X-9711Y21877D01*
X-9713Y21926D01*
X-9719Y21973D01*
X-9726Y22017D01*
X-9734Y22056D01*
X-9745Y22092D01*
X-9755Y22123D01*
X-9765Y22151D01*
X-9776Y22177D01*
X-9786Y22201D01*
X-9796Y22219D01*
X-9804Y22234D01*
X-9812Y22245D01*
X-9817Y22252D01*
X-9822Y22258D01*
Y22260D01*
X-9846Y22286D01*
X-9869Y22309D01*
X-9892Y22328D01*
X-9918Y22343D01*
X-9967Y22369D01*
X-10017Y22387D01*
X-10058Y22397D01*
X-10076Y22400D01*
X-10092Y22403D01*
X-10105Y22405D01*
X-10123D01*
X-10167Y22403D01*
X-10206Y22395D01*
X-10239Y22382D01*
X-10271Y22369D01*
X-10294Y22356D01*
X-10312Y22343D01*
X-10325Y22335D01*
X-10328Y22333D01*
X-10356Y22304D01*
X-10382Y22271D01*
X-10403Y22234D01*
X-10418Y22203D01*
X-10431Y22172D01*
X-10439Y22149D01*
X-10444Y22131D01*
X-10447Y22128D01*
Y22125D01*
X-10734Y22190D01*
X-10724Y22237D01*
X-10714Y22281D01*
X-10698Y22320D01*
X-10682Y22359D01*
X-10667Y22392D01*
X-10649Y22423D01*
X-10633Y22452D01*
X-10615Y22478D01*
X-10600Y22501D01*
X-10584Y22522D01*
X-10568Y22537D01*
X-10558Y22553D01*
X-10548Y22563D01*
X-10540Y22571D01*
X-10535Y22574D01*
X-10532Y22576D01*
X-10504Y22600D01*
X-10470Y22620D01*
X-10436Y22638D01*
X-10403Y22654D01*
X-10335Y22677D01*
X-10268Y22693D01*
X-10239Y22698D01*
X-10211Y22701D01*
X-10185Y22703D01*
X-10164Y22706D01*
X-10146Y22708D01*
X-10120D01*
X-10043Y22703D01*
D02*
G37*
G36*
X-6415Y20928D02*
X-6724D01*
X-6840Y21325D01*
X-7421D01*
X-7545Y20928D01*
X-7858D01*
X-7281Y22680D01*
X-6972D01*
X-6415Y20928D01*
D02*
G37*
G36*
X-8011D02*
X-8302D01*
Y21659D01*
X-8395D01*
X-8423Y21657D01*
X-8449Y21654D01*
X-8470Y21649D01*
X-8485Y21646D01*
X-8496Y21641D01*
X-8501Y21638D01*
X-8504D01*
X-8522Y21631D01*
X-8537Y21618D01*
X-8563Y21594D01*
X-8574Y21584D01*
X-8581Y21574D01*
X-8586Y21568D01*
X-8589Y21566D01*
X-8597Y21555D01*
X-8607Y21540D01*
X-8620Y21524D01*
X-8631Y21506D01*
X-8656Y21462D01*
X-8682Y21418D01*
X-8706Y21377D01*
X-8716Y21359D01*
X-8726Y21343D01*
X-8734Y21330D01*
X-8739Y21320D01*
X-8745Y21312D01*
Y21309D01*
X-8952Y20928D01*
X-9302D01*
X-9125Y21268D01*
X-9107Y21304D01*
X-9089Y21340D01*
X-9071Y21372D01*
X-9055Y21400D01*
X-9040Y21426D01*
X-9027Y21449D01*
X-9004Y21488D01*
X-8985Y21517D01*
X-8970Y21537D01*
X-8962Y21550D01*
X-8960Y21553D01*
X-8936Y21581D01*
X-8910Y21610D01*
X-8884Y21636D01*
X-8861Y21657D01*
X-8840Y21675D01*
X-8822Y21688D01*
X-8812Y21698D01*
X-8807Y21701D01*
X-8871Y21716D01*
X-8926Y21737D01*
X-8975Y21763D01*
X-9014Y21791D01*
X-9045Y21815D01*
X-9068Y21835D01*
X-9081Y21851D01*
X-9087Y21853D01*
Y21856D01*
X-9120Y21908D01*
X-9146Y21962D01*
X-9164Y22017D01*
X-9175Y22068D01*
X-9182Y22115D01*
X-9185Y22136D01*
Y22154D01*
X-9188Y22167D01*
Y22180D01*
Y22185D01*
Y22188D01*
X-9185Y22247D01*
X-9177Y22299D01*
X-9167Y22348D01*
X-9156Y22390D01*
X-9144Y22421D01*
X-9133Y22447D01*
X-9125Y22462D01*
X-9123Y22467D01*
X-9097Y22509D01*
X-9068Y22543D01*
X-9042Y22571D01*
X-9017Y22592D01*
X-8993Y22610D01*
X-8975Y22623D01*
X-8962Y22628D01*
X-8957Y22631D01*
X-8936Y22638D01*
X-8913Y22646D01*
X-8861Y22659D01*
X-8807Y22667D01*
X-8752Y22675D01*
X-8703Y22677D01*
X-8680D01*
X-8662Y22680D01*
X-8011D01*
Y20928D01*
D02*
G37*
G36*
X-11022D02*
X-12115D01*
Y21224D01*
X-11312D01*
Y21701D01*
X-12035D01*
Y21996D01*
X-11312D01*
Y22385D01*
X-12089D01*
Y22680D01*
X-11022D01*
Y20928D01*
D02*
G37*
G36*
X-12361D02*
X-12651D01*
Y21659D01*
X-12745D01*
X-12773Y21657D01*
X-12799Y21654D01*
X-12820Y21649D01*
X-12835Y21646D01*
X-12846Y21641D01*
X-12851Y21638D01*
X-12854D01*
X-12872Y21631D01*
X-12887Y21618D01*
X-12913Y21594D01*
X-12923Y21584D01*
X-12931Y21574D01*
X-12936Y21568D01*
X-12939Y21566D01*
X-12947Y21555D01*
X-12957Y21540D01*
X-12970Y21524D01*
X-12980Y21506D01*
X-13006Y21462D01*
X-13032Y21418D01*
X-13056Y21377D01*
X-13066Y21359D01*
X-13076Y21343D01*
X-13084Y21330D01*
X-13089Y21320D01*
X-13094Y21312D01*
Y21309D01*
X-13302Y20928D01*
X-13651D01*
X-13475Y21268D01*
X-13457Y21304D01*
X-13439Y21340D01*
X-13421Y21372D01*
X-13405Y21400D01*
X-13390Y21426D01*
X-13377Y21449D01*
X-13354Y21488D01*
X-13335Y21517D01*
X-13320Y21537D01*
X-13312Y21550D01*
X-13310Y21553D01*
X-13286Y21581D01*
X-13260Y21610D01*
X-13234Y21636D01*
X-13211Y21657D01*
X-13190Y21675D01*
X-13172Y21688D01*
X-13162Y21698D01*
X-13157Y21701D01*
X-13221Y21716D01*
X-13276Y21737D01*
X-13325Y21763D01*
X-13364Y21791D01*
X-13395Y21815D01*
X-13418Y21835D01*
X-13431Y21851D01*
X-13436Y21853D01*
Y21856D01*
X-13470Y21908D01*
X-13496Y21962D01*
X-13514Y22017D01*
X-13525Y22068D01*
X-13532Y22115D01*
X-13535Y22136D01*
Y22154D01*
X-13538Y22167D01*
Y22180D01*
Y22185D01*
Y22188D01*
X-13535Y22247D01*
X-13527Y22299D01*
X-13517Y22348D01*
X-13506Y22390D01*
X-13493Y22421D01*
X-13483Y22447D01*
X-13475Y22462D01*
X-13473Y22467D01*
X-13447Y22509D01*
X-13418Y22543D01*
X-13392Y22571D01*
X-13367Y22592D01*
X-13343Y22610D01*
X-13325Y22623D01*
X-13312Y22628D01*
X-13307Y22631D01*
X-13286Y22638D01*
X-13263Y22646D01*
X-13211Y22659D01*
X-13157Y22667D01*
X-13102Y22675D01*
X-13053Y22677D01*
X-13030D01*
X-13012Y22680D01*
X-12361D01*
Y20928D01*
D02*
G37*
G36*
X-6783Y24067D02*
Y23329D01*
X-7073D01*
Y24064D01*
X-7599Y25080D01*
X-7263D01*
X-6934Y24388D01*
X-6597Y25080D01*
X-6257D01*
X-6783Y24067D01*
D02*
G37*
G36*
X-12322Y23329D02*
X-12613D01*
Y23857D01*
X-12848Y24150D01*
X-13240Y23329D01*
X-13618D01*
X-13053Y24401D01*
X-13592Y25080D01*
X-13201D01*
X-12613Y24297D01*
Y25080D01*
X-12322D01*
Y23329D01*
D02*
G37*
G36*
X-11436Y25106D02*
X-11385Y25098D01*
X-11338Y25088D01*
X-11291Y25075D01*
X-11250Y25057D01*
X-11211Y25038D01*
X-11175Y25018D01*
X-11144Y25000D01*
X-11115Y24979D01*
X-11089Y24958D01*
X-11068Y24940D01*
X-11050Y24922D01*
X-11037Y24909D01*
X-11027Y24899D01*
X-11022Y24891D01*
X-11019Y24888D01*
X-10983Y24839D01*
X-10952Y24785D01*
X-10926Y24730D01*
X-10903Y24673D01*
X-10882Y24614D01*
X-10866Y24557D01*
X-10853Y24500D01*
X-10843Y24443D01*
X-10835Y24391D01*
X-10828Y24344D01*
X-10822Y24300D01*
X-10820Y24261D01*
Y24233D01*
X-10817Y24209D01*
Y24194D01*
Y24191D01*
Y24189D01*
X-10820Y24111D01*
X-10825Y24038D01*
X-10835Y23968D01*
X-10848Y23904D01*
X-10864Y23844D01*
X-10879Y23790D01*
X-10897Y23738D01*
X-10918Y23694D01*
X-10936Y23652D01*
X-10954Y23616D01*
X-10970Y23585D01*
X-10986Y23562D01*
X-10999Y23541D01*
X-11009Y23525D01*
X-11014Y23518D01*
X-11017Y23515D01*
X-11050Y23476D01*
X-11087Y23445D01*
X-11123Y23417D01*
X-11162Y23391D01*
X-11201Y23370D01*
X-11237Y23352D01*
X-11273Y23339D01*
X-11309Y23326D01*
X-11343Y23318D01*
X-11374Y23310D01*
X-11403Y23308D01*
X-11426Y23303D01*
X-11447D01*
X-11460Y23300D01*
X-11473D01*
X-11514Y23303D01*
X-11553Y23305D01*
X-11625Y23321D01*
X-11690Y23341D01*
X-11719Y23354D01*
X-11745Y23367D01*
X-11768Y23380D01*
X-11789Y23393D01*
X-11807Y23404D01*
X-11820Y23414D01*
X-11833Y23422D01*
X-11841Y23430D01*
X-11846Y23432D01*
X-11848Y23435D01*
X-11877Y23463D01*
X-11903Y23492D01*
X-11947Y23559D01*
X-11986Y23632D01*
X-12017Y23702D01*
X-12030Y23735D01*
X-12040Y23766D01*
X-12048Y23795D01*
X-12056Y23818D01*
X-12061Y23839D01*
X-12066Y23854D01*
X-12069Y23865D01*
Y23867D01*
X-11786Y23976D01*
X-11771Y23906D01*
X-11750Y23849D01*
X-11732Y23800D01*
X-11711Y23761D01*
X-11693Y23730D01*
X-11677Y23709D01*
X-11667Y23696D01*
X-11664Y23691D01*
X-11633Y23663D01*
X-11600Y23639D01*
X-11566Y23624D01*
X-11535Y23613D01*
X-11509Y23608D01*
X-11486Y23606D01*
X-11473Y23603D01*
X-11467D01*
X-11439Y23606D01*
X-11413Y23608D01*
X-11361Y23624D01*
X-11320Y23647D01*
X-11284Y23673D01*
X-11252Y23696D01*
X-11232Y23720D01*
X-11219Y23735D01*
X-11214Y23738D01*
Y23740D01*
X-11198Y23769D01*
X-11182Y23800D01*
X-11170Y23836D01*
X-11159Y23873D01*
X-11141Y23950D01*
X-11131Y24028D01*
X-11125Y24064D01*
X-11123Y24098D01*
X-11120Y24129D01*
Y24155D01*
X-11118Y24178D01*
Y24194D01*
Y24207D01*
Y24209D01*
Y24266D01*
X-11123Y24321D01*
X-11128Y24370D01*
X-11133Y24414D01*
X-11141Y24455D01*
X-11149Y24494D01*
X-11157Y24528D01*
X-11167Y24557D01*
X-11177Y24582D01*
X-11185Y24606D01*
X-11193Y24624D01*
X-11201Y24639D01*
X-11208Y24650D01*
X-11211Y24660D01*
X-11216Y24663D01*
Y24665D01*
X-11237Y24691D01*
X-11258Y24712D01*
X-11278Y24730D01*
X-11299Y24746D01*
X-11343Y24772D01*
X-11385Y24787D01*
X-11421Y24797D01*
X-11449Y24803D01*
X-11460Y24805D01*
X-11475D01*
X-11517Y24803D01*
X-11553Y24792D01*
X-11584Y24782D01*
X-11613Y24766D01*
X-11636Y24753D01*
X-11654Y24740D01*
X-11664Y24730D01*
X-11667Y24728D01*
X-11695Y24696D01*
X-11719Y24663D01*
X-11739Y24626D01*
X-11755Y24590D01*
X-11765Y24559D01*
X-11773Y24533D01*
X-11776Y24523D01*
Y24515D01*
X-11778Y24512D01*
Y24510D01*
X-12066Y24593D01*
X-12056Y24634D01*
X-12043Y24673D01*
X-12030Y24709D01*
X-12017Y24746D01*
X-12001Y24777D01*
X-11988Y24805D01*
X-11973Y24829D01*
X-11960Y24852D01*
X-11947Y24873D01*
X-11934Y24891D01*
X-11923Y24906D01*
X-11913Y24919D01*
X-11905Y24927D01*
X-11900Y24935D01*
X-11898Y24940D01*
X-11895D01*
X-11864Y24968D01*
X-11830Y24994D01*
X-11796Y25018D01*
X-11763Y25038D01*
X-11729Y25054D01*
X-11695Y25067D01*
X-11631Y25088D01*
X-11602Y25095D01*
X-11576Y25101D01*
X-11553Y25103D01*
X-11532Y25106D01*
X-11514Y25108D01*
X-11491D01*
X-11436Y25106D01*
D02*
G37*
G36*
X-8983Y24785D02*
X-9410D01*
Y23329D01*
X-9701D01*
Y24785D01*
X-10125D01*
Y25080D01*
X-8983D01*
Y24785D01*
D02*
G37*
G36*
X-10302Y23329D02*
X-10592D01*
Y25080D01*
X-10302D01*
Y23329D01*
D02*
G37*
G36*
X-4244Y23948D02*
Y23909D01*
X-4242Y23873D01*
X-4239Y23841D01*
X-4237Y23813D01*
X-4234Y23787D01*
X-4231Y23764D01*
X-4226Y23743D01*
X-4224Y23725D01*
X-4213Y23696D01*
X-4208Y23678D01*
X-4203Y23668D01*
X-4200Y23665D01*
X-4182Y23645D01*
X-4161Y23629D01*
X-4138Y23619D01*
X-4117Y23611D01*
X-4097Y23606D01*
X-4081Y23603D01*
X-4066D01*
X-4034Y23606D01*
X-4006Y23616D01*
X-3983Y23632D01*
X-3962Y23647D01*
X-3949Y23663D01*
X-3936Y23678D01*
X-3931Y23689D01*
X-3928Y23691D01*
X-3915Y23720D01*
X-3908Y23753D01*
X-3900Y23790D01*
X-3895Y23826D01*
X-3892Y23860D01*
X-3889Y23886D01*
Y23896D01*
Y23904D01*
Y23909D01*
Y23911D01*
X-3615Y23873D01*
X-3617Y23821D01*
X-3620Y23772D01*
X-3625Y23725D01*
X-3633Y23683D01*
X-3641Y23645D01*
X-3651Y23611D01*
X-3661Y23577D01*
X-3674Y23549D01*
X-3685Y23525D01*
X-3695Y23502D01*
X-3705Y23484D01*
X-3713Y23468D01*
X-3721Y23458D01*
X-3726Y23450D01*
X-3731Y23445D01*
Y23442D01*
X-3755Y23417D01*
X-3778Y23396D01*
X-3804Y23378D01*
X-3832Y23360D01*
X-3884Y23334D01*
X-3936Y23318D01*
X-3983Y23308D01*
X-4003Y23305D01*
X-4022Y23303D01*
X-4034Y23300D01*
X-4055D01*
X-4112Y23303D01*
X-4161Y23310D01*
X-4205Y23323D01*
X-4244Y23336D01*
X-4275Y23347D01*
X-4299Y23360D01*
X-4312Y23367D01*
X-4317Y23370D01*
X-4356Y23398D01*
X-4389Y23430D01*
X-4415Y23463D01*
X-4439Y23497D01*
X-4457Y23525D01*
X-4470Y23549D01*
X-4477Y23564D01*
X-4480Y23567D01*
Y23569D01*
X-4490Y23595D01*
X-4498Y23624D01*
X-4511Y23689D01*
X-4522Y23753D01*
X-4527Y23821D01*
X-4529Y23849D01*
X-4532Y23878D01*
Y23904D01*
X-4534Y23927D01*
Y23945D01*
Y23958D01*
Y23968D01*
Y23971D01*
Y25080D01*
X-4244D01*
Y23948D01*
D02*
G37*
G36*
X-5405Y25103D02*
X-5335Y25093D01*
X-5273Y25077D01*
X-5218Y25059D01*
X-5198Y25049D01*
X-5177Y25038D01*
X-5159Y25031D01*
X-5143Y25023D01*
X-5133Y25018D01*
X-5125Y25013D01*
X-5120Y25007D01*
X-5117D01*
X-5066Y24966D01*
X-5016Y24919D01*
X-4978Y24870D01*
X-4941Y24821D01*
X-4913Y24777D01*
X-4902Y24756D01*
X-4895Y24740D01*
X-4887Y24725D01*
X-4882Y24715D01*
X-4876Y24709D01*
Y24707D01*
X-4861Y24668D01*
X-4845Y24626D01*
X-4825Y24541D01*
X-4809Y24455D01*
X-4796Y24373D01*
X-4794Y24336D01*
X-4791Y24300D01*
X-4788Y24269D01*
Y24243D01*
X-4786Y24222D01*
Y24204D01*
Y24194D01*
Y24191D01*
X-4788Y24114D01*
X-4794Y24038D01*
X-4804Y23968D01*
X-4817Y23904D01*
X-4832Y23844D01*
X-4851Y23790D01*
X-4869Y23738D01*
X-4889Y23691D01*
X-4908Y23652D01*
X-4926Y23616D01*
X-4944Y23585D01*
X-4959Y23559D01*
X-4972Y23541D01*
X-4983Y23525D01*
X-4988Y23518D01*
X-4990Y23515D01*
X-5027Y23476D01*
X-5063Y23445D01*
X-5104Y23417D01*
X-5143Y23391D01*
X-5185Y23370D01*
X-5226Y23352D01*
X-5265Y23339D01*
X-5304Y23326D01*
X-5340Y23318D01*
X-5374Y23310D01*
X-5405Y23308D01*
X-5431Y23303D01*
X-5452D01*
X-5470Y23300D01*
X-5483D01*
X-5540Y23303D01*
X-5592Y23310D01*
X-5643Y23321D01*
X-5690Y23334D01*
X-5734Y23352D01*
X-5773Y23370D01*
X-5809Y23388D01*
X-5843Y23409D01*
X-5874Y23430D01*
X-5900Y23448D01*
X-5921Y23468D01*
X-5939Y23484D01*
X-5954Y23497D01*
X-5965Y23507D01*
X-5970Y23515D01*
X-5972Y23518D01*
X-6009Y23567D01*
X-6040Y23619D01*
X-6068Y23673D01*
X-6092Y23730D01*
X-6112Y23787D01*
X-6130Y23844D01*
X-6143Y23898D01*
X-6154Y23953D01*
X-6161Y24005D01*
X-6169Y24051D01*
X-6174Y24095D01*
X-6177Y24132D01*
X-6180Y24163D01*
Y24186D01*
Y24199D01*
Y24204D01*
X-6177Y24282D01*
X-6172Y24357D01*
X-6161Y24427D01*
X-6149Y24492D01*
X-6136Y24551D01*
X-6117Y24606D01*
X-6102Y24655D01*
X-6084Y24702D01*
X-6066Y24740D01*
X-6048Y24774D01*
X-6029Y24805D01*
X-6016Y24829D01*
X-6003Y24849D01*
X-5993Y24862D01*
X-5988Y24870D01*
X-5985Y24873D01*
X-5946Y24914D01*
X-5908Y24950D01*
X-5866Y24981D01*
X-5825Y25010D01*
X-5783Y25031D01*
X-5742Y25051D01*
X-5700Y25067D01*
X-5661Y25080D01*
X-5625Y25088D01*
X-5592Y25095D01*
X-5560Y25101D01*
X-5535Y25106D01*
X-5514D01*
X-5496Y25108D01*
X-5483D01*
X-5405Y25103D01*
D02*
G37*
G36*
X-8193Y25106D02*
X-8136Y25098D01*
X-8089Y25090D01*
X-8048Y25080D01*
X-8014Y25067D01*
X-7988Y25059D01*
X-7972Y25051D01*
X-7970Y25049D01*
X-7967D01*
X-7926Y25025D01*
X-7892Y24997D01*
X-7861Y24968D01*
X-7835Y24940D01*
X-7814Y24914D01*
X-7801Y24893D01*
X-7791Y24880D01*
X-7789Y24878D01*
Y24875D01*
X-7768Y24831D01*
X-7752Y24787D01*
X-7739Y24743D01*
X-7732Y24704D01*
X-7726Y24671D01*
X-7724Y24642D01*
Y24632D01*
Y24624D01*
Y24621D01*
Y24619D01*
X-7726Y24575D01*
X-7732Y24531D01*
X-7739Y24492D01*
X-7750Y24458D01*
X-7757Y24430D01*
X-7765Y24406D01*
X-7770Y24393D01*
X-7773Y24388D01*
X-7794Y24349D01*
X-7817Y24316D01*
X-7840Y24287D01*
X-7861Y24264D01*
X-7882Y24243D01*
X-7897Y24230D01*
X-7908Y24220D01*
X-7910Y24217D01*
X-7947Y24194D01*
X-7988Y24171D01*
X-8035Y24150D01*
X-8079Y24132D01*
X-8120Y24116D01*
X-8136Y24111D01*
X-8151Y24106D01*
X-8164Y24101D01*
X-8175Y24098D01*
X-8180Y24095D01*
X-8182D01*
X-8219Y24085D01*
X-8252Y24075D01*
X-8283Y24064D01*
X-8309Y24054D01*
X-8335Y24046D01*
X-8356Y24038D01*
X-8374Y24033D01*
X-8390Y24028D01*
X-8413Y24018D01*
X-8431Y24010D01*
X-8439Y24007D01*
X-8441Y24005D01*
X-8460Y23994D01*
X-8478Y23984D01*
X-8491Y23971D01*
X-8501Y23961D01*
X-8517Y23945D01*
X-8522Y23940D01*
Y23937D01*
X-8532Y23922D01*
X-8537Y23904D01*
X-8548Y23873D01*
Y23857D01*
X-8550Y23847D01*
Y23839D01*
Y23836D01*
X-8548Y23800D01*
X-8537Y23766D01*
X-8527Y23738D01*
X-8511Y23712D01*
X-8498Y23694D01*
X-8485Y23678D01*
X-8475Y23668D01*
X-8472Y23665D01*
X-8441Y23642D01*
X-8408Y23626D01*
X-8374Y23613D01*
X-8343Y23606D01*
X-8312Y23601D01*
X-8289Y23598D01*
X-8268D01*
X-8221Y23601D01*
X-8177Y23613D01*
X-8141Y23629D01*
X-8107Y23650D01*
X-8076Y23676D01*
X-8050Y23704D01*
X-8029Y23735D01*
X-8011Y23766D01*
X-7996Y23797D01*
X-7983Y23829D01*
X-7972Y23857D01*
X-7965Y23883D01*
X-7960Y23904D01*
X-7957Y23919D01*
X-7954Y23932D01*
Y23935D01*
X-7672Y23901D01*
X-7680Y23847D01*
X-7687Y23795D01*
X-7700Y23748D01*
X-7713Y23702D01*
X-7732Y23660D01*
X-7750Y23621D01*
X-7768Y23588D01*
X-7789Y23554D01*
X-7812Y23523D01*
X-7835Y23494D01*
X-7884Y23448D01*
X-7936Y23406D01*
X-7988Y23375D01*
X-8040Y23349D01*
X-8089Y23331D01*
X-8136Y23318D01*
X-8177Y23310D01*
X-8211Y23305D01*
X-8237Y23300D01*
X-8260D01*
X-8314Y23303D01*
X-8364Y23308D01*
X-8410Y23313D01*
X-8454Y23323D01*
X-8493Y23336D01*
X-8529Y23349D01*
X-8563Y23362D01*
X-8592Y23378D01*
X-8615Y23391D01*
X-8638Y23404D01*
X-8656Y23417D01*
X-8672Y23430D01*
X-8682Y23440D01*
X-8690Y23445D01*
X-8695Y23450D01*
X-8698Y23453D01*
X-8724Y23484D01*
X-8745Y23515D01*
X-8765Y23546D01*
X-8781Y23577D01*
X-8807Y23642D01*
X-8822Y23704D01*
X-8827Y23730D01*
X-8833Y23756D01*
X-8835Y23779D01*
X-8838Y23797D01*
X-8840Y23816D01*
Y23826D01*
Y23834D01*
Y23836D01*
X-8838Y23893D01*
X-8833Y23945D01*
X-8825Y23992D01*
X-8814Y24031D01*
X-8804Y24062D01*
X-8796Y24085D01*
X-8791Y24101D01*
X-8789Y24106D01*
X-8768Y24145D01*
X-8745Y24181D01*
X-8719Y24212D01*
X-8695Y24238D01*
X-8672Y24259D01*
X-8654Y24272D01*
X-8643Y24282D01*
X-8638Y24285D01*
X-8620Y24297D01*
X-8597Y24310D01*
X-8548Y24336D01*
X-8496Y24357D01*
X-8444Y24378D01*
X-8397Y24396D01*
X-8377Y24401D01*
X-8358Y24409D01*
X-8343Y24414D01*
X-8333Y24417D01*
X-8325Y24419D01*
X-8322D01*
X-8286Y24430D01*
X-8252Y24440D01*
X-8221Y24450D01*
X-8195Y24461D01*
X-8169Y24471D01*
X-8149Y24479D01*
X-8131Y24489D01*
X-8112Y24497D01*
X-8086Y24510D01*
X-8071Y24520D01*
X-8061Y24525D01*
X-8058Y24528D01*
X-8040Y24546D01*
X-8024Y24567D01*
X-8014Y24585D01*
X-8009Y24603D01*
X-8004Y24621D01*
X-8001Y24634D01*
Y24642D01*
Y24645D01*
X-8004Y24671D01*
X-8011Y24694D01*
X-8022Y24715D01*
X-8032Y24733D01*
X-8042Y24748D01*
X-8053Y24759D01*
X-8061Y24764D01*
X-8063Y24766D01*
X-8089Y24782D01*
X-8120Y24795D01*
X-8149Y24803D01*
X-8177Y24810D01*
X-8203Y24813D01*
X-8226Y24816D01*
X-8245D01*
X-8286Y24813D01*
X-8322Y24808D01*
X-8353Y24797D01*
X-8379Y24787D01*
X-8400Y24777D01*
X-8415Y24766D01*
X-8423Y24761D01*
X-8426Y24759D01*
X-8449Y24733D01*
X-8467Y24704D01*
X-8480Y24671D01*
X-8493Y24639D01*
X-8501Y24608D01*
X-8506Y24585D01*
X-8509Y24575D01*
X-8511Y24567D01*
Y24564D01*
Y24562D01*
X-8802Y24577D01*
X-8799Y24624D01*
X-8791Y24668D01*
X-8783Y24707D01*
X-8773Y24746D01*
X-8763Y24779D01*
X-8750Y24813D01*
X-8734Y24842D01*
X-8721Y24867D01*
X-8708Y24891D01*
X-8695Y24911D01*
X-8682Y24930D01*
X-8672Y24943D01*
X-8662Y24953D01*
X-8654Y24963D01*
X-8651Y24966D01*
X-8649Y24968D01*
X-8620Y24994D01*
X-8592Y25015D01*
X-8558Y25033D01*
X-8527Y25049D01*
X-8460Y25075D01*
X-8397Y25090D01*
X-8366Y25098D01*
X-8340Y25101D01*
X-8314Y25103D01*
X-8294Y25106D01*
X-8276Y25108D01*
X-8252D01*
X-8193Y25106D01*
D02*
G37*
G36*
X3987Y27972D02*
X4002Y27944D01*
X4017Y27918D01*
X4033Y27897D01*
X4047Y27879D01*
X4058Y27865D01*
X4066Y27856D01*
X4068Y27855D01*
X4069Y27853D01*
X4095Y27831D01*
X4119Y27813D01*
X4140Y27797D01*
X4159Y27784D01*
X4176Y27776D01*
X4188Y27769D01*
X4196Y27766D01*
X4198Y27765D01*
X4199D01*
Y27598D01*
X4159Y27617D01*
X4121Y27638D01*
X4089Y27662D01*
X4061Y27684D01*
X4048Y27694D01*
X4037Y27704D01*
X4027Y27714D01*
X4020Y27721D01*
X4013Y27728D01*
X4009Y27732D01*
X4006Y27735D01*
X4004Y27736D01*
Y27047D01*
X3854D01*
Y28003D01*
X3976D01*
X3987Y27972D01*
D02*
G37*
G36*
X3380D02*
X3394Y27944D01*
X3410Y27918D01*
X3425Y27897D01*
X3439Y27879D01*
X3450Y27865D01*
X3459Y27856D01*
X3460Y27855D01*
X3462Y27853D01*
X3487Y27831D01*
X3511Y27813D01*
X3532Y27797D01*
X3552Y27784D01*
X3569Y27776D01*
X3580Y27769D01*
X3589Y27766D01*
X3590Y27765D01*
X3591D01*
Y27598D01*
X3552Y27617D01*
X3514Y27638D01*
X3481Y27662D01*
X3453Y27684D01*
X3441Y27694D01*
X3429Y27704D01*
X3419Y27714D01*
X3412Y27721D01*
X3405Y27728D01*
X3401Y27732D01*
X3398Y27735D01*
X3397Y27736D01*
Y27047D01*
X3246D01*
Y28003D01*
X3369D01*
X3380Y27972D01*
D02*
G37*
G36*
X4994Y27047D02*
X4698D01*
X4664Y27048D01*
X4633Y27051D01*
X4606Y27056D01*
X4584Y27061D01*
X4565Y27065D01*
X4553Y27070D01*
X4544Y27072D01*
X4542Y27074D01*
X4519Y27085D01*
X4499Y27098D01*
X4482Y27111D01*
X4467Y27123D01*
X4456Y27134D01*
X4446Y27144D01*
X4440Y27150D01*
X4439Y27153D01*
X4423Y27174D01*
X4409Y27198D01*
X4396Y27222D01*
X4386Y27246D01*
X4378Y27266D01*
X4372Y27282D01*
X4370Y27290D01*
X4368Y27294D01*
X4367Y27297D01*
Y27298D01*
X4357Y27333D01*
X4350Y27370D01*
X4346Y27407D01*
X4341Y27440D01*
Y27456D01*
X4340Y27470D01*
Y27483D01*
X4339Y27493D01*
Y27501D01*
Y27508D01*
Y27512D01*
Y27514D01*
X4340Y27563D01*
X4343Y27607D01*
X4344Y27628D01*
X4347Y27646D01*
X4350Y27663D01*
X4351Y27679D01*
X4354Y27693D01*
X4357Y27705D01*
X4360Y27717D01*
X4361Y27725D01*
X4362Y27732D01*
X4364Y27738D01*
X4365Y27741D01*
Y27742D01*
X4377Y27776D01*
X4388Y27806D01*
X4401Y27831D01*
X4413Y27852D01*
X4423Y27870D01*
X4432Y27883D01*
X4437Y27890D01*
X4440Y27893D01*
X4458Y27913D01*
X4475Y27930D01*
X4494Y27944D01*
X4509Y27955D01*
X4523Y27963D01*
X4533Y27970D01*
X4540Y27973D01*
X4543Y27975D01*
X4565Y27983D01*
X4592Y27989D01*
X4619Y27994D01*
X4646Y27997D01*
X4670Y27999D01*
X4680D01*
X4688Y28000D01*
X4994D01*
Y27047D01*
D02*
G37*
G36*
X3624Y25155D02*
X3638Y25126D01*
X3653Y25101D01*
X3669Y25080D01*
X3683Y25062D01*
X3694Y25047D01*
X3703Y25039D01*
X3704Y25038D01*
X3705Y25036D01*
X3731Y25014D01*
X3755Y24995D01*
X3776Y24980D01*
X3796Y24967D01*
X3813Y24959D01*
X3824Y24952D01*
X3832Y24949D01*
X3834Y24947D01*
X3835D01*
Y24781D01*
X3796Y24799D01*
X3758Y24821D01*
X3725Y24844D01*
X3697Y24867D01*
X3684Y24877D01*
X3673Y24887D01*
X3663Y24897D01*
X3656Y24904D01*
X3649Y24911D01*
X3645Y24915D01*
X3642Y24918D01*
X3641Y24919D01*
Y24230D01*
X3490D01*
Y25186D01*
X3612D01*
X3624Y25155D01*
D02*
G37*
G36*
X4168Y24567D02*
Y24546D01*
X4169Y24526D01*
X4171Y24509D01*
X4172Y24493D01*
X4173Y24479D01*
X4175Y24467D01*
X4178Y24455D01*
X4179Y24446D01*
X4185Y24430D01*
X4187Y24420D01*
X4190Y24415D01*
X4192Y24413D01*
X4202Y24402D01*
X4213Y24393D01*
X4226Y24388D01*
X4237Y24384D01*
X4248Y24381D01*
X4257Y24379D01*
X4265D01*
X4282Y24381D01*
X4297Y24386D01*
X4310Y24395D01*
X4321Y24403D01*
X4328Y24412D01*
X4336Y24420D01*
X4338Y24426D01*
X4340Y24427D01*
X4347Y24443D01*
X4351Y24461D01*
X4355Y24481D01*
X4358Y24501D01*
X4359Y24519D01*
X4361Y24533D01*
Y24539D01*
Y24543D01*
Y24546D01*
Y24547D01*
X4510Y24526D01*
X4509Y24498D01*
X4507Y24471D01*
X4505Y24446D01*
X4500Y24423D01*
X4496Y24402D01*
X4491Y24384D01*
X4485Y24365D01*
X4478Y24350D01*
X4472Y24337D01*
X4467Y24324D01*
X4461Y24314D01*
X4457Y24306D01*
X4453Y24300D01*
X4450Y24296D01*
X4447Y24293D01*
Y24292D01*
X4434Y24278D01*
X4422Y24267D01*
X4407Y24257D01*
X4392Y24247D01*
X4364Y24233D01*
X4336Y24224D01*
X4310Y24219D01*
X4299Y24217D01*
X4289Y24216D01*
X4282Y24214D01*
X4271D01*
X4240Y24216D01*
X4213Y24220D01*
X4189Y24227D01*
X4168Y24234D01*
X4151Y24240D01*
X4138Y24247D01*
X4131Y24251D01*
X4128Y24252D01*
X4107Y24268D01*
X4089Y24285D01*
X4075Y24303D01*
X4062Y24322D01*
X4052Y24337D01*
X4045Y24350D01*
X4041Y24358D01*
X4039Y24360D01*
Y24361D01*
X4034Y24375D01*
X4030Y24391D01*
X4023Y24426D01*
X4017Y24461D01*
X4014Y24498D01*
X4013Y24513D01*
X4011Y24529D01*
Y24543D01*
X4010Y24556D01*
Y24565D01*
Y24572D01*
Y24578D01*
Y24579D01*
Y25183D01*
X4168D01*
Y24567D01*
D02*
G37*
%LPC*%
G36*
X4860Y-5254D02*
X4857D01*
Y-5326D01*
Y-5382D01*
X4860Y-5426D01*
X4865Y-5465D01*
X4868Y-5493D01*
X4874Y-5515D01*
X4879Y-5532D01*
X4882Y-5540D01*
Y-5543D01*
X4893Y-5565D01*
X4907Y-5585D01*
X4935Y-5615D01*
X4948Y-5629D01*
X4957Y-5637D01*
X4965Y-5643D01*
X4968Y-5646D01*
X4990Y-5660D01*
X5012Y-5671D01*
X5035Y-5676D01*
X5051Y-5682D01*
X5068Y-5685D01*
X5079Y-5687D01*
X5090D01*
X5115Y-5685D01*
X5140Y-5679D01*
X5159Y-5671D01*
X5176Y-5660D01*
X5190Y-5651D01*
X5201Y-5643D01*
X5207Y-5637D01*
X5209Y-5635D01*
X5223Y-5612D01*
X5234Y-5593D01*
X5243Y-5571D01*
X5248Y-5548D01*
X5251Y-5532D01*
X5254Y-5518D01*
Y-5507D01*
Y-5504D01*
X5251Y-5479D01*
X5248Y-5457D01*
X5240Y-5437D01*
X5232Y-5421D01*
X5226Y-5407D01*
X5218Y-5399D01*
X5215Y-5393D01*
X5212Y-5390D01*
X5193Y-5374D01*
X5168Y-5360D01*
X5137Y-5346D01*
X5107Y-5332D01*
X5079Y-5324D01*
X5057Y-5315D01*
X5040Y-5312D01*
X5037Y-5310D01*
X5035D01*
X4993Y-5299D01*
X4957Y-5288D01*
X4926Y-5279D01*
X4901Y-5271D01*
X4882Y-5263D01*
X4868Y-5260D01*
X4860Y-5254D01*
D02*
G37*
G36*
X1031Y-4813D02*
X1026D01*
X987Y-4818D01*
X948Y-4829D01*
X917Y-4846D01*
X887Y-4866D01*
X865Y-4888D01*
X848Y-4904D01*
X837Y-4916D01*
X834Y-4921D01*
X806Y-4965D01*
X787Y-5013D01*
X770Y-5065D01*
X762Y-5115D01*
X756Y-5160D01*
X754Y-5179D01*
X751Y-5196D01*
Y-5210D01*
Y-5221D01*
Y-5226D01*
Y-5229D01*
X754Y-5301D01*
X762Y-5365D01*
X776Y-5418D01*
X790Y-5462D01*
X806Y-5496D01*
X817Y-5521D01*
X829Y-5535D01*
X831Y-5540D01*
X862Y-5576D01*
X895Y-5601D01*
X929Y-5621D01*
X956Y-5632D01*
X984Y-5640D01*
X1003Y-5643D01*
X1017Y-5646D01*
X1023D01*
X1065Y-5640D01*
X1101Y-5629D01*
X1134Y-5612D01*
X1162Y-5593D01*
X1187Y-5576D01*
X1203Y-5560D01*
X1214Y-5548D01*
X1217Y-5543D01*
X1245Y-5498D01*
X1264Y-5449D01*
X1278Y-5399D01*
X1287Y-5346D01*
X1292Y-5301D01*
X1295Y-5282D01*
X1298Y-5263D01*
Y-5249D01*
Y-5238D01*
Y-5232D01*
Y-5229D01*
X1295Y-5157D01*
X1287Y-5096D01*
X1273Y-5043D01*
X1259Y-4999D01*
X1245Y-4965D01*
X1231Y-4940D01*
X1223Y-4927D01*
X1220Y-4921D01*
X1189Y-4885D01*
X1156Y-4857D01*
X1123Y-4838D01*
X1092Y-4827D01*
X1065Y-4818D01*
X1045Y-4816D01*
X1031Y-4813D01*
D02*
G37*
G36*
X-2675Y-4813D02*
X-2681D01*
X-2719Y-4818D01*
X-2758Y-4829D01*
X-2789Y-4846D01*
X-2819Y-4866D01*
X-2842Y-4888D01*
X-2858Y-4904D01*
X-2869Y-4916D01*
X-2872Y-4921D01*
X-2900Y-4965D01*
X-2919Y-5013D01*
X-2936Y-5065D01*
X-2944Y-5115D01*
X-2950Y-5160D01*
X-2953Y-5179D01*
X-2955Y-5196D01*
Y-5210D01*
Y-5221D01*
Y-5226D01*
Y-5229D01*
X-2953Y-5301D01*
X-2944Y-5365D01*
X-2930Y-5418D01*
X-2917Y-5462D01*
X-2900Y-5496D01*
X-2889Y-5521D01*
X-2878Y-5535D01*
X-2875Y-5540D01*
X-2844Y-5576D01*
X-2811Y-5601D01*
X-2778Y-5621D01*
X-2750Y-5632D01*
X-2722Y-5640D01*
X-2703Y-5643D01*
X-2689Y-5646D01*
X-2683D01*
X-2642Y-5640D01*
X-2606Y-5629D01*
X-2572Y-5612D01*
X-2545Y-5593D01*
X-2520Y-5576D01*
X-2503Y-5560D01*
X-2492Y-5548D01*
X-2489Y-5543D01*
X-2461Y-5499D01*
X-2442Y-5449D01*
X-2428Y-5399D01*
X-2420Y-5346D01*
X-2414Y-5301D01*
X-2411Y-5282D01*
X-2408Y-5263D01*
Y-5249D01*
Y-5238D01*
Y-5232D01*
Y-5229D01*
X-2411Y-5157D01*
X-2420Y-5096D01*
X-2433Y-5043D01*
X-2447Y-4999D01*
X-2461Y-4965D01*
X-2475Y-4940D01*
X-2483Y-4927D01*
X-2486Y-4921D01*
X-2517Y-4885D01*
X-2550Y-4857D01*
X-2583Y-4838D01*
X-2614Y-4827D01*
X-2642Y-4818D01*
X-2661Y-4816D01*
X-2675Y-4813D01*
D02*
G37*
G36*
X-4019Y-4802D02*
X-4024D01*
X-4060Y-4807D01*
X-4094Y-4818D01*
X-4124Y-4835D01*
X-4149Y-4854D01*
X-4169Y-4874D01*
X-4185Y-4891D01*
X-4194Y-4902D01*
X-4196Y-4907D01*
X-4221Y-4952D01*
X-4238Y-5002D01*
X-4252Y-5054D01*
X-4260Y-5104D01*
X-4266Y-5151D01*
Y-5174D01*
X-4269Y-5190D01*
Y-5207D01*
Y-5218D01*
Y-5224D01*
Y-5226D01*
Y-5268D01*
X-4266Y-5307D01*
X-4263Y-5340D01*
X-4257Y-5374D01*
X-4252Y-5404D01*
X-4246Y-5429D01*
X-4235Y-5476D01*
X-4221Y-5510D01*
X-4210Y-5535D01*
X-4202Y-5548D01*
X-4199Y-5554D01*
X-4171Y-5587D01*
X-4144Y-5612D01*
X-4116Y-5629D01*
X-4088Y-5640D01*
X-4066Y-5648D01*
X-4046Y-5651D01*
X-4035Y-5654D01*
X-4030D01*
X-3991Y-5648D01*
X-3958Y-5637D01*
X-3927Y-5621D01*
X-3899Y-5598D01*
X-3880Y-5579D01*
X-3863Y-5562D01*
X-3852Y-5551D01*
X-3849Y-5546D01*
X-3835Y-5523D01*
X-3824Y-5501D01*
X-3805Y-5446D01*
X-3794Y-5390D01*
X-3783Y-5335D01*
X-3777Y-5285D01*
Y-5263D01*
X-3774Y-5246D01*
Y-5229D01*
Y-5218D01*
Y-5210D01*
Y-5207D01*
X-3777Y-5135D01*
X-3786Y-5074D01*
X-3797Y-5021D01*
X-3810Y-4979D01*
X-3822Y-4946D01*
X-3833Y-4924D01*
X-3841Y-4910D01*
X-3844Y-4904D01*
X-3872Y-4871D01*
X-3902Y-4846D01*
X-3933Y-4827D01*
X-3960Y-4816D01*
X-3985Y-4807D01*
X-4008Y-4804D01*
X-4019Y-4802D01*
D02*
G37*
G36*
X-5096Y-7628D02*
X-5113D01*
X-5146Y-7631D01*
X-5174Y-7640D01*
X-5199Y-7653D01*
X-5224Y-7667D01*
X-5240Y-7684D01*
X-5254Y-7695D01*
X-5262Y-7706D01*
X-5265Y-7709D01*
X-5287Y-7742D01*
X-5304Y-7781D01*
X-5315Y-7820D01*
X-5324Y-7859D01*
X-5329Y-7892D01*
X-5332Y-7923D01*
X-5335Y-7934D01*
Y-7939D01*
Y-7945D01*
Y-7948D01*
X-4890D01*
X-4893Y-7895D01*
X-4902Y-7848D01*
X-4910Y-7809D01*
X-4924Y-7776D01*
X-4935Y-7748D01*
X-4943Y-7728D01*
X-4952Y-7717D01*
X-4954Y-7714D01*
X-4979Y-7687D01*
X-5007Y-7665D01*
X-5032Y-7651D01*
X-5057Y-7640D01*
X-5079Y-7634D01*
X-5096Y-7628D01*
D02*
G37*
G36*
X1517Y-7648D02*
X1512D01*
X1473Y-7653D01*
X1434Y-7665D01*
X1403Y-7681D01*
X1373Y-7701D01*
X1351Y-7723D01*
X1334Y-7739D01*
X1323Y-7751D01*
X1320Y-7756D01*
X1292Y-7801D01*
X1273Y-7848D01*
X1256Y-7900D01*
X1248Y-7950D01*
X1242Y-7995D01*
X1239Y-8014D01*
X1237Y-8031D01*
Y-8045D01*
Y-8056D01*
Y-8062D01*
Y-8064D01*
X1239Y-8136D01*
X1248Y-8200D01*
X1262Y-8253D01*
X1276Y-8297D01*
X1292Y-8331D01*
X1303Y-8356D01*
X1314Y-8370D01*
X1317Y-8375D01*
X1348Y-8411D01*
X1381Y-8436D01*
X1414Y-8456D01*
X1442Y-8467D01*
X1470Y-8475D01*
X1489Y-8478D01*
X1503Y-8481D01*
X1509D01*
X1550Y-8475D01*
X1586Y-8464D01*
X1620Y-8447D01*
X1648Y-8428D01*
X1673Y-8411D01*
X1689Y-8395D01*
X1700Y-8384D01*
X1703Y-8378D01*
X1731Y-8334D01*
X1750Y-8284D01*
X1764Y-8234D01*
X1772Y-8181D01*
X1778Y-8136D01*
X1781Y-8117D01*
X1784Y-8098D01*
Y-8084D01*
Y-8073D01*
Y-8067D01*
Y-8064D01*
X1781Y-7992D01*
X1772Y-7931D01*
X1759Y-7878D01*
X1745Y-7834D01*
X1731Y-7801D01*
X1717Y-7776D01*
X1709Y-7762D01*
X1706Y-7756D01*
X1675Y-7720D01*
X1642Y-7692D01*
X1609Y-7673D01*
X1578Y-7662D01*
X1550Y-7653D01*
X1531Y-7651D01*
X1517Y-7648D01*
D02*
G37*
G36*
X-2661Y-7648D02*
X-2667D01*
X-2706Y-7653D01*
X-2744Y-7665D01*
X-2775Y-7681D01*
X-2806Y-7701D01*
X-2828Y-7723D01*
X-2844Y-7739D01*
X-2855Y-7751D01*
X-2858Y-7756D01*
X-2886Y-7801D01*
X-2905Y-7848D01*
X-2922Y-7900D01*
X-2930Y-7950D01*
X-2936Y-7995D01*
X-2939Y-8014D01*
X-2942Y-8031D01*
Y-8045D01*
Y-8056D01*
Y-8062D01*
Y-8064D01*
X-2939Y-8136D01*
X-2930Y-8200D01*
X-2917Y-8253D01*
X-2903Y-8297D01*
X-2886Y-8331D01*
X-2875Y-8356D01*
X-2864Y-8370D01*
X-2861Y-8375D01*
X-2830Y-8411D01*
X-2797Y-8436D01*
X-2764Y-8456D01*
X-2736Y-8467D01*
X-2708Y-8475D01*
X-2689Y-8478D01*
X-2675Y-8481D01*
X-2669D01*
X-2628Y-8475D01*
X-2592Y-8464D01*
X-2558Y-8447D01*
X-2531Y-8428D01*
X-2506Y-8411D01*
X-2489Y-8395D01*
X-2478Y-8384D01*
X-2475Y-8378D01*
X-2447Y-8334D01*
X-2428Y-8284D01*
X-2414Y-8234D01*
X-2406Y-8181D01*
X-2400Y-8136D01*
X-2397Y-8117D01*
X-2395Y-8098D01*
Y-8084D01*
Y-8073D01*
Y-8067D01*
Y-8064D01*
X-2397Y-7992D01*
X-2406Y-7931D01*
X-2420Y-7878D01*
X-2433Y-7834D01*
X-2447Y-7801D01*
X-2461Y-7776D01*
X-2470Y-7762D01*
X-2472Y-7756D01*
X-2503Y-7720D01*
X-2536Y-7692D01*
X-2570Y-7673D01*
X-2600Y-7662D01*
X-2628Y-7653D01*
X-2647Y-7651D01*
X-2661Y-7648D01*
D02*
G37*
G36*
X6795Y-17225D02*
X6578D01*
X6551Y-17227D01*
X6523D01*
X6479Y-17230D01*
X6445Y-17236D01*
X6420Y-17239D01*
X6404Y-17244D01*
X6395Y-17247D01*
X6392D01*
X6370Y-17258D01*
X6351Y-17269D01*
X6334Y-17286D01*
X6318Y-17300D01*
X6306Y-17313D01*
X6298Y-17325D01*
X6293Y-17333D01*
X6290Y-17336D01*
X6276Y-17361D01*
X6265Y-17388D01*
X6259Y-17413D01*
X6254Y-17438D01*
X6251Y-17461D01*
X6248Y-17477D01*
Y-17488D01*
Y-17494D01*
X6251Y-17527D01*
X6254Y-17558D01*
X6262Y-17583D01*
X6268Y-17605D01*
X6276Y-17624D01*
X6284Y-17638D01*
X6287Y-17647D01*
X6290Y-17649D01*
X6306Y-17672D01*
X6323Y-17691D01*
X6340Y-17705D01*
X6356Y-17719D01*
X6370Y-17727D01*
X6381Y-17733D01*
X6390Y-17738D01*
X6392D01*
X6420Y-17747D01*
X6454Y-17752D01*
X6492Y-17755D01*
X6531Y-17758D01*
X6567Y-17760D01*
X6795D01*
Y-17225D01*
D02*
G37*
G36*
X3808Y-17222D02*
X3511D01*
X3480Y-17225D01*
X3452D01*
X3427Y-17227D01*
X3389D01*
X3375Y-17230D01*
X3361D01*
X3344Y-17233D01*
X3336Y-17236D01*
X3333D01*
X3314Y-17241D01*
X3297Y-17252D01*
X3269Y-17275D01*
X3258Y-17286D01*
X3250Y-17294D01*
X3247Y-17300D01*
X3244Y-17302D01*
X3230Y-17322D01*
X3222Y-17344D01*
X3211Y-17386D01*
X3208Y-17405D01*
X3205Y-17419D01*
Y-17430D01*
Y-17433D01*
X3208Y-17466D01*
X3214Y-17497D01*
X3219Y-17522D01*
X3228Y-17544D01*
X3239Y-17561D01*
X3244Y-17572D01*
X3250Y-17580D01*
X3253Y-17583D01*
X3269Y-17599D01*
X3291Y-17616D01*
X3311Y-17627D01*
X3330Y-17635D01*
X3347Y-17641D01*
X3361Y-17644D01*
X3372Y-17647D01*
X3386D01*
X3397Y-17649D01*
X3466D01*
X3505Y-17652D01*
X3808D01*
Y-17222D01*
D02*
G37*
G36*
Y-17966D02*
X3489D01*
X3458Y-17969D01*
X3433D01*
X3386Y-17974D01*
X3350Y-17977D01*
X3325Y-17983D01*
X3308Y-17988D01*
X3297Y-17991D01*
X3294D01*
X3272Y-18002D01*
X3250Y-18013D01*
X3233Y-18027D01*
X3219Y-18041D01*
X3208Y-18055D01*
X3200Y-18063D01*
X3194Y-18071D01*
X3192Y-18074D01*
X3178Y-18096D01*
X3167Y-18121D01*
X3161Y-18146D01*
X3155Y-18171D01*
X3153Y-18191D01*
X3150Y-18207D01*
Y-18221D01*
Y-18224D01*
X3153Y-18255D01*
X3155Y-18285D01*
X3161Y-18310D01*
X3169Y-18330D01*
X3178Y-18349D01*
X3183Y-18360D01*
X3186Y-18368D01*
X3189Y-18371D01*
X3203Y-18391D01*
X3219Y-18407D01*
X3233Y-18421D01*
X3247Y-18432D01*
X3261Y-18441D01*
X3272Y-18446D01*
X3278Y-18449D01*
X3280D01*
X3291Y-18452D01*
X3305Y-18454D01*
X3341Y-18460D01*
X3380Y-18463D01*
X3422Y-18466D01*
X3458Y-18468D01*
X3808D01*
Y-17966D01*
D02*
G37*
G36*
X340Y-17202D02*
X338D01*
X307Y-17208D01*
X279Y-17222D01*
X257Y-17239D01*
X238Y-17261D01*
X221Y-17283D01*
X210Y-17300D01*
X204Y-17313D01*
X202Y-17319D01*
X193Y-17344D01*
X185Y-17375D01*
X177Y-17411D01*
X171Y-17452D01*
X165Y-17494D01*
X163Y-17541D01*
X154Y-17633D01*
Y-17677D01*
X152Y-17719D01*
Y-17758D01*
X149Y-17791D01*
Y-17819D01*
Y-17841D01*
Y-17855D01*
Y-17860D01*
Y-17938D01*
X152Y-18008D01*
X154Y-18069D01*
X157Y-18124D01*
X160Y-18174D01*
X165Y-18219D01*
X171Y-18257D01*
X174Y-18291D01*
X179Y-18318D01*
X185Y-18343D01*
X190Y-18363D01*
X193Y-18377D01*
X196Y-18388D01*
X199Y-18396D01*
X202Y-18399D01*
Y-18402D01*
X221Y-18441D01*
X243Y-18468D01*
X265Y-18488D01*
X288Y-18502D01*
X307Y-18510D01*
X324Y-18513D01*
X335Y-18516D01*
X338D01*
X368Y-18510D01*
X396Y-18499D01*
X421Y-18479D01*
X440Y-18457D01*
X457Y-18438D01*
X468Y-18418D01*
X474Y-18407D01*
X476Y-18402D01*
X485Y-18377D01*
X493Y-18346D01*
X499Y-18310D01*
X504Y-18268D01*
X510Y-18227D01*
X515Y-18180D01*
X521Y-18088D01*
Y-18044D01*
X524Y-18002D01*
Y-17963D01*
X526Y-17930D01*
Y-17899D01*
Y-17880D01*
Y-17866D01*
Y-17860D01*
Y-17783D01*
X524Y-17713D01*
X521Y-17652D01*
X518Y-17597D01*
X515Y-17547D01*
X510Y-17502D01*
X507Y-17463D01*
X501Y-17430D01*
X496Y-17402D01*
X493Y-17377D01*
X487Y-17358D01*
X485Y-17344D01*
X482Y-17333D01*
X479Y-17325D01*
X476Y-17319D01*
X457Y-17280D01*
X435Y-17252D01*
X410Y-17230D01*
X388Y-17216D01*
X368Y-17208D01*
X351Y-17205D01*
X340Y-17202D01*
D02*
G37*
G36*
X-3247Y-17202D02*
X-3249D01*
X-3280Y-17208D01*
X-3308Y-17222D01*
X-3330Y-17239D01*
X-3349Y-17261D01*
X-3366Y-17283D01*
X-3377Y-17300D01*
X-3383Y-17313D01*
X-3385Y-17319D01*
X-3394Y-17344D01*
X-3402Y-17375D01*
X-3410Y-17411D01*
X-3416Y-17452D01*
X-3421Y-17494D01*
X-3424Y-17541D01*
X-3433Y-17633D01*
Y-17677D01*
X-3435Y-17719D01*
Y-17758D01*
X-3438Y-17791D01*
Y-17819D01*
Y-17841D01*
Y-17855D01*
Y-17860D01*
Y-17938D01*
X-3435Y-18008D01*
X-3433Y-18069D01*
X-3430Y-18124D01*
X-3427Y-18174D01*
X-3421Y-18219D01*
X-3416Y-18257D01*
X-3413Y-18291D01*
X-3408Y-18318D01*
X-3402Y-18343D01*
X-3396Y-18363D01*
X-3394Y-18377D01*
X-3391Y-18388D01*
X-3388Y-18396D01*
X-3385Y-18399D01*
Y-18402D01*
X-3366Y-18441D01*
X-3344Y-18468D01*
X-3322Y-18488D01*
X-3299Y-18502D01*
X-3280Y-18510D01*
X-3263Y-18513D01*
X-3252Y-18516D01*
X-3249D01*
X-3219Y-18510D01*
X-3191Y-18499D01*
X-3166Y-18479D01*
X-3147Y-18457D01*
X-3130Y-18438D01*
X-3119Y-18418D01*
X-3113Y-18407D01*
X-3111Y-18402D01*
X-3102Y-18377D01*
X-3094Y-18346D01*
X-3088Y-18310D01*
X-3083Y-18268D01*
X-3077Y-18227D01*
X-3072Y-18180D01*
X-3066Y-18088D01*
Y-18044D01*
X-3063Y-18002D01*
Y-17963D01*
X-3061Y-17930D01*
Y-17899D01*
Y-17880D01*
Y-17866D01*
Y-17860D01*
Y-17783D01*
X-3063Y-17713D01*
X-3066Y-17652D01*
X-3069Y-17597D01*
X-3072Y-17547D01*
X-3077Y-17502D01*
X-3080Y-17463D01*
X-3086Y-17430D01*
X-3091Y-17402D01*
X-3094Y-17377D01*
X-3099Y-17358D01*
X-3102Y-17344D01*
X-3105Y-17333D01*
X-3108Y-17325D01*
X-3111Y-17319D01*
X-3130Y-17280D01*
X-3152Y-17252D01*
X-3177Y-17230D01*
X-3199Y-17216D01*
X-3219Y-17208D01*
X-3235Y-17205D01*
X-3247Y-17202D01*
D02*
G37*
G36*
X6795Y-14822D02*
X6498D01*
X6467Y-14825D01*
X6440D01*
X6415Y-14827D01*
X6376D01*
X6362Y-14830D01*
X6348D01*
X6331Y-14833D01*
X6323Y-14836D01*
X6320D01*
X6301Y-14841D01*
X6284Y-14852D01*
X6256Y-14875D01*
X6245Y-14886D01*
X6237Y-14894D01*
X6234Y-14900D01*
X6231Y-14902D01*
X6218Y-14922D01*
X6209Y-14944D01*
X6198Y-14986D01*
X6195Y-15005D01*
X6193Y-15019D01*
Y-15030D01*
Y-15033D01*
X6195Y-15066D01*
X6201Y-15097D01*
X6206Y-15122D01*
X6215Y-15144D01*
X6226Y-15161D01*
X6231Y-15172D01*
X6237Y-15180D01*
X6240Y-15183D01*
X6256Y-15199D01*
X6279Y-15216D01*
X6298Y-15227D01*
X6318Y-15236D01*
X6334Y-15241D01*
X6348Y-15244D01*
X6359Y-15247D01*
X6373D01*
X6384Y-15249D01*
X6454D01*
X6492Y-15252D01*
X6795D01*
Y-14822D01*
D02*
G37*
G36*
Y-15566D02*
X6476D01*
X6445Y-15569D01*
X6420D01*
X6373Y-15574D01*
X6337Y-15577D01*
X6312Y-15583D01*
X6295Y-15588D01*
X6284Y-15591D01*
X6281D01*
X6259Y-15602D01*
X6237Y-15613D01*
X6220Y-15627D01*
X6206Y-15641D01*
X6195Y-15655D01*
X6187Y-15663D01*
X6181Y-15671D01*
X6179Y-15674D01*
X6165Y-15696D01*
X6154Y-15721D01*
X6148Y-15746D01*
X6143Y-15771D01*
X6140Y-15791D01*
X6137Y-15807D01*
Y-15821D01*
Y-15824D01*
X6140Y-15855D01*
X6143Y-15885D01*
X6148Y-15910D01*
X6157Y-15930D01*
X6165Y-15949D01*
X6170Y-15960D01*
X6173Y-15968D01*
X6176Y-15971D01*
X6190Y-15991D01*
X6206Y-16007D01*
X6220Y-16021D01*
X6234Y-16032D01*
X6248Y-16041D01*
X6259Y-16046D01*
X6265Y-16049D01*
X6268D01*
X6279Y-16052D01*
X6293Y-16054D01*
X6329Y-16060D01*
X6368Y-16063D01*
X6409Y-16066D01*
X6445Y-16068D01*
X6795D01*
Y-15566D01*
D02*
G37*
G36*
X4888Y-14802D02*
X4868D01*
X4835Y-14805D01*
X4802Y-14808D01*
X4771Y-14816D01*
X4741Y-14827D01*
X4688Y-14852D01*
X4643Y-14880D01*
X4610Y-14911D01*
X4585Y-14936D01*
X4574Y-14947D01*
X4569Y-14955D01*
X4563Y-14958D01*
Y-14961D01*
X4541Y-14991D01*
X4524Y-15025D01*
X4494Y-15102D01*
X4471Y-15180D01*
X4457Y-15258D01*
X4455Y-15297D01*
X4449Y-15330D01*
X4446Y-15360D01*
Y-15388D01*
X4444Y-15410D01*
Y-15427D01*
Y-15438D01*
Y-15441D01*
Y-15502D01*
X4449Y-15558D01*
X4455Y-15608D01*
X4463Y-15657D01*
X4471Y-15702D01*
X4482Y-15741D01*
X4494Y-15777D01*
X4505Y-15810D01*
X4516Y-15838D01*
X4527Y-15863D01*
X4538Y-15885D01*
X4546Y-15902D01*
X4555Y-15916D01*
X4560Y-15924D01*
X4563Y-15930D01*
X4566Y-15932D01*
X4588Y-15960D01*
X4613Y-15985D01*
X4638Y-16005D01*
X4663Y-16024D01*
X4688Y-16038D01*
X4713Y-16052D01*
X4763Y-16071D01*
X4805Y-16082D01*
X4821Y-16085D01*
X4838Y-16088D01*
X4852Y-16091D01*
X4868D01*
X4902Y-16088D01*
X4932Y-16082D01*
X4963Y-16077D01*
X4990Y-16066D01*
X5043Y-16041D01*
X5088Y-16010D01*
X5124Y-15980D01*
X5149Y-15955D01*
X5157Y-15943D01*
X5165Y-15935D01*
X5168Y-15932D01*
X5171Y-15930D01*
X5193Y-15896D01*
X5210Y-15863D01*
X5240Y-15785D01*
X5263Y-15705D01*
X5276Y-15627D01*
X5282Y-15591D01*
X5288Y-15558D01*
X5290Y-15527D01*
Y-15499D01*
X5293Y-15477D01*
Y-15460D01*
Y-15449D01*
Y-15446D01*
X5290Y-15388D01*
X5288Y-15333D01*
X5282Y-15280D01*
X5274Y-15233D01*
X5265Y-15188D01*
X5257Y-15149D01*
X5246Y-15113D01*
X5235Y-15080D01*
X5224Y-15052D01*
X5213Y-15027D01*
X5204Y-15008D01*
X5196Y-14991D01*
X5188Y-14977D01*
X5182Y-14969D01*
X5177Y-14963D01*
Y-14961D01*
X5154Y-14933D01*
X5129Y-14908D01*
X5104Y-14888D01*
X5077Y-14869D01*
X5052Y-14852D01*
X5027Y-14841D01*
X4977Y-14822D01*
X4935Y-14811D01*
X4916Y-14808D01*
X4899Y-14805D01*
X4888Y-14802D01*
D02*
G37*
G36*
X-140D02*
X-143D01*
X-173Y-14808D01*
X-201Y-14822D01*
X-223Y-14839D01*
X-243Y-14861D01*
X-259Y-14883D01*
X-270Y-14900D01*
X-276Y-14913D01*
X-279Y-14919D01*
X-287Y-14944D01*
X-295Y-14975D01*
X-304Y-15011D01*
X-309Y-15052D01*
X-315Y-15094D01*
X-318Y-15141D01*
X-326Y-15233D01*
Y-15277D01*
X-329Y-15319D01*
Y-15358D01*
X-332Y-15391D01*
Y-15419D01*
Y-15441D01*
Y-15455D01*
Y-15460D01*
Y-15538D01*
X-329Y-15608D01*
X-326Y-15669D01*
X-323Y-15724D01*
X-320Y-15774D01*
X-315Y-15819D01*
X-309Y-15857D01*
X-307Y-15891D01*
X-301Y-15918D01*
X-295Y-15943D01*
X-290Y-15963D01*
X-287Y-15977D01*
X-284Y-15988D01*
X-282Y-15996D01*
X-279Y-15999D01*
Y-16002D01*
X-259Y-16041D01*
X-237Y-16068D01*
X-215Y-16088D01*
X-193Y-16102D01*
X-173Y-16110D01*
X-157Y-16113D01*
X-146Y-16116D01*
X-143D01*
X-112Y-16110D01*
X-84Y-16099D01*
X-59Y-16079D01*
X-40Y-16057D01*
X-23Y-16038D01*
X-12Y-16018D01*
X-7Y-16007D01*
X-4Y-16002D01*
X4Y-15977D01*
X13Y-15946D01*
X18Y-15910D01*
X24Y-15868D01*
X29Y-15827D01*
X35Y-15780D01*
X41Y-15688D01*
Y-15644D01*
X43Y-15602D01*
Y-15563D01*
X46Y-15530D01*
Y-15499D01*
Y-15480D01*
Y-15466D01*
Y-15460D01*
Y-15383D01*
X43Y-15313D01*
X41Y-15252D01*
X38Y-15197D01*
X35Y-15147D01*
X29Y-15102D01*
X27Y-15063D01*
X21Y-15030D01*
X16Y-15002D01*
X13Y-14977D01*
X7Y-14958D01*
X4Y-14944D01*
X2Y-14933D01*
X-1Y-14925D01*
X-4Y-14919D01*
X-23Y-14880D01*
X-46Y-14852D01*
X-71Y-14830D01*
X-93Y-14816D01*
X-112Y-14808D01*
X-129Y-14805D01*
X-140Y-14802D01*
D02*
G37*
G36*
X-3727Y-14802D02*
X-3730D01*
X-3760Y-14808D01*
X-3788Y-14822D01*
X-3810Y-14839D01*
X-3830Y-14861D01*
X-3846Y-14883D01*
X-3857Y-14900D01*
X-3863Y-14913D01*
X-3866Y-14919D01*
X-3874Y-14944D01*
X-3882Y-14975D01*
X-3891Y-15011D01*
X-3896Y-15052D01*
X-3902Y-15094D01*
X-3905Y-15141D01*
X-3913Y-15233D01*
Y-15277D01*
X-3916Y-15319D01*
Y-15358D01*
X-3918Y-15391D01*
Y-15419D01*
Y-15441D01*
Y-15455D01*
Y-15460D01*
Y-15538D01*
X-3916Y-15608D01*
X-3913Y-15669D01*
X-3910Y-15724D01*
X-3907Y-15774D01*
X-3902Y-15819D01*
X-3896Y-15857D01*
X-3893Y-15891D01*
X-3888Y-15918D01*
X-3882Y-15943D01*
X-3877Y-15963D01*
X-3874Y-15977D01*
X-3871Y-15988D01*
X-3868Y-15996D01*
X-3866Y-15999D01*
Y-16002D01*
X-3846Y-16041D01*
X-3824Y-16068D01*
X-3802Y-16088D01*
X-3780Y-16102D01*
X-3760Y-16110D01*
X-3743Y-16113D01*
X-3732Y-16116D01*
X-3730D01*
X-3699Y-16110D01*
X-3671Y-16099D01*
X-3646Y-16079D01*
X-3627Y-16057D01*
X-3610Y-16038D01*
X-3599Y-16018D01*
X-3594Y-16007D01*
X-3591Y-16002D01*
X-3582Y-15977D01*
X-3574Y-15946D01*
X-3569Y-15910D01*
X-3563Y-15868D01*
X-3557Y-15827D01*
X-3552Y-15780D01*
X-3546Y-15688D01*
Y-15644D01*
X-3544Y-15602D01*
Y-15563D01*
X-3541Y-15530D01*
Y-15499D01*
Y-15480D01*
Y-15466D01*
Y-15460D01*
Y-15383D01*
X-3544Y-15313D01*
X-3546Y-15252D01*
X-3549Y-15197D01*
X-3552Y-15147D01*
X-3557Y-15102D01*
X-3560Y-15063D01*
X-3566Y-15030D01*
X-3571Y-15002D01*
X-3574Y-14977D01*
X-3580Y-14958D01*
X-3582Y-14944D01*
X-3585Y-14933D01*
X-3588Y-14925D01*
X-3591Y-14919D01*
X-3610Y-14880D01*
X-3632Y-14852D01*
X-3657Y-14830D01*
X-3680Y-14816D01*
X-3699Y-14808D01*
X-3716Y-14805D01*
X-3727Y-14802D01*
D02*
G37*
G36*
X-7125Y22271D02*
X-7325Y21620D01*
X-6931D01*
X-7125Y22271D01*
D02*
G37*
G36*
X-8302Y22385D02*
X-8592D01*
X-8620Y22382D01*
X-8667D01*
X-8688Y22379D01*
X-8703D01*
X-8719Y22377D01*
X-8739Y22374D01*
X-8752Y22372D01*
X-8760Y22369D01*
X-8763D01*
X-8783Y22361D01*
X-8802Y22351D01*
X-8817Y22338D01*
X-8830Y22328D01*
X-8840Y22317D01*
X-8848Y22307D01*
X-8851Y22302D01*
X-8853Y22299D01*
X-8864Y22278D01*
X-8874Y22258D01*
X-8882Y22214D01*
X-8884Y22193D01*
X-8887Y22177D01*
Y22167D01*
Y22164D01*
X-8884Y22133D01*
X-8882Y22107D01*
X-8877Y22081D01*
X-8871Y22063D01*
X-8864Y22045D01*
X-8859Y22035D01*
X-8856Y22027D01*
X-8853Y22024D01*
X-8840Y22006D01*
X-8825Y21991D01*
X-8812Y21980D01*
X-8796Y21970D01*
X-8783Y21962D01*
X-8776Y21957D01*
X-8768Y21954D01*
X-8765D01*
X-8752Y21952D01*
X-8739Y21949D01*
X-8703Y21947D01*
X-8662Y21941D01*
X-8620D01*
X-8579Y21939D01*
X-8302D01*
Y22385D01*
D02*
G37*
G36*
X-12651D02*
X-12942D01*
X-12970Y22382D01*
X-13017D01*
X-13037Y22379D01*
X-13053D01*
X-13069Y22377D01*
X-13089Y22374D01*
X-13102Y22372D01*
X-13110Y22369D01*
X-13113D01*
X-13133Y22361D01*
X-13151Y22351D01*
X-13167Y22338D01*
X-13180Y22328D01*
X-13190Y22317D01*
X-13198Y22307D01*
X-13201Y22302D01*
X-13203Y22299D01*
X-13214Y22278D01*
X-13224Y22258D01*
X-13232Y22214D01*
X-13234Y22193D01*
X-13237Y22177D01*
Y22167D01*
Y22164D01*
X-13234Y22133D01*
X-13232Y22107D01*
X-13227Y22081D01*
X-13221Y22063D01*
X-13214Y22045D01*
X-13208Y22035D01*
X-13206Y22027D01*
X-13203Y22024D01*
X-13190Y22006D01*
X-13175Y21991D01*
X-13162Y21980D01*
X-13146Y21970D01*
X-13133Y21962D01*
X-13126Y21957D01*
X-13118Y21954D01*
X-13115D01*
X-13102Y21952D01*
X-13089Y21949D01*
X-13053Y21947D01*
X-13012Y21941D01*
X-12970D01*
X-12929Y21939D01*
X-12651D01*
Y22385D01*
D02*
G37*
G36*
X-5465Y24805D02*
X-5483D01*
X-5514Y24803D01*
X-5545Y24800D01*
X-5573Y24792D01*
X-5602Y24782D01*
X-5651Y24759D01*
X-5693Y24733D01*
X-5724Y24704D01*
X-5747Y24681D01*
X-5757Y24671D01*
X-5763Y24663D01*
X-5768Y24660D01*
Y24658D01*
X-5788Y24629D01*
X-5804Y24598D01*
X-5832Y24525D01*
X-5853Y24453D01*
X-5866Y24380D01*
X-5869Y24344D01*
X-5874Y24313D01*
X-5877Y24285D01*
Y24259D01*
X-5879Y24238D01*
Y24222D01*
Y24212D01*
Y24209D01*
Y24152D01*
X-5874Y24101D01*
X-5869Y24054D01*
X-5861Y24007D01*
X-5853Y23966D01*
X-5843Y23930D01*
X-5832Y23896D01*
X-5822Y23865D01*
X-5812Y23839D01*
X-5801Y23816D01*
X-5791Y23795D01*
X-5783Y23779D01*
X-5775Y23766D01*
X-5770Y23759D01*
X-5768Y23753D01*
X-5765Y23751D01*
X-5744Y23725D01*
X-5721Y23702D01*
X-5698Y23683D01*
X-5674Y23665D01*
X-5651Y23652D01*
X-5628Y23639D01*
X-5581Y23621D01*
X-5542Y23611D01*
X-5527Y23608D01*
X-5511Y23606D01*
X-5498Y23603D01*
X-5483D01*
X-5452Y23606D01*
X-5423Y23611D01*
X-5395Y23616D01*
X-5369Y23626D01*
X-5319Y23650D01*
X-5278Y23678D01*
X-5244Y23707D01*
X-5221Y23730D01*
X-5213Y23740D01*
X-5206Y23748D01*
X-5203Y23751D01*
X-5200Y23753D01*
X-5180Y23784D01*
X-5164Y23816D01*
X-5136Y23888D01*
X-5115Y23963D01*
X-5102Y24036D01*
X-5097Y24069D01*
X-5091Y24101D01*
X-5089Y24129D01*
Y24155D01*
X-5086Y24176D01*
Y24191D01*
Y24202D01*
Y24204D01*
X-5089Y24259D01*
X-5091Y24310D01*
X-5097Y24360D01*
X-5104Y24404D01*
X-5112Y24445D01*
X-5120Y24481D01*
X-5130Y24515D01*
X-5141Y24546D01*
X-5151Y24572D01*
X-5161Y24595D01*
X-5169Y24614D01*
X-5177Y24629D01*
X-5185Y24642D01*
X-5190Y24650D01*
X-5195Y24655D01*
Y24658D01*
X-5216Y24683D01*
X-5239Y24707D01*
X-5262Y24725D01*
X-5288Y24743D01*
X-5312Y24759D01*
X-5335Y24769D01*
X-5382Y24787D01*
X-5421Y24797D01*
X-5439Y24800D01*
X-5454Y24803D01*
X-5465Y24805D01*
D02*
G37*
G36*
X4836Y27839D02*
X4733D01*
X4705Y27838D01*
X4684Y27837D01*
X4666Y27835D01*
X4653Y27834D01*
X4644Y27832D01*
X4639Y27831D01*
X4637D01*
X4622Y27825D01*
X4608Y27820D01*
X4595Y27811D01*
X4584Y27804D01*
X4575Y27796D01*
X4568Y27790D01*
X4564Y27786D01*
X4563Y27784D01*
X4551Y27770D01*
X4543Y27755D01*
X4534Y27738D01*
X4529Y27722D01*
X4523Y27708D01*
X4520Y27697D01*
X4518Y27690D01*
Y27688D01*
Y27687D01*
X4512Y27663D01*
X4509Y27635D01*
X4506Y27608D01*
X4503Y27581D01*
Y27557D01*
X4502Y27548D01*
Y27538D01*
Y27531D01*
Y27525D01*
Y27522D01*
Y27521D01*
Y27484D01*
X4505Y27452D01*
X4506Y27423D01*
X4509Y27399D01*
X4512Y27381D01*
X4515Y27367D01*
X4516Y27359D01*
X4518Y27357D01*
Y27356D01*
X4523Y27335D01*
X4529Y27315D01*
X4536Y27299D01*
X4542Y27287D01*
X4546Y27277D01*
X4550Y27270D01*
X4553Y27266D01*
X4554Y27264D01*
X4571Y27246D01*
X4589Y27233D01*
X4598Y27228D01*
X4604Y27225D01*
X4608Y27223D01*
X4609Y27222D01*
X4623Y27218D01*
X4640Y27213D01*
X4659Y27211D01*
X4677Y27209D01*
X4694D01*
X4706Y27208D01*
X4836D01*
Y27839D01*
D02*
G37*
%LPD*%
D10*
X-1027Y-3277D02*
X1031D01*
X-1154Y-3252D02*
X1158D01*
X-1255Y-3227D02*
X1259D01*
X-1332Y-3201D02*
X1335D01*
X-1382Y-3176D02*
X1386D01*
X-1459Y-3150D02*
X1462D01*
X-1509Y-3125D02*
X1513D01*
X-1560Y-3100D02*
X1564D01*
X-1586Y-3074D02*
X1615D01*
X-1636Y-3049D02*
X1640D01*
X-1687Y-3023D02*
X1691D01*
X-1713Y-2998D02*
X1716D01*
X-1738Y-2973D02*
X1767D01*
X-1789Y-2947D02*
X1793D01*
X-1814Y-2922D02*
X1818D01*
X-1840Y-2896D02*
X1843D01*
X-1865Y-2871D02*
X1869D01*
X-1890Y-2846D02*
X1894D01*
X-1916Y-2820D02*
X1920D01*
X-1941Y-2795D02*
X1945D01*
X-1967Y-2769D02*
X1970D01*
X-1992Y-2744D02*
X1996D01*
X-2017Y-2719D02*
X2021D01*
X-2043Y-2693D02*
X2047D01*
X-2068Y-2668D02*
X2072D01*
X-2068Y-2642D02*
X2072D01*
X-2094Y-2617D02*
X2097D01*
X-2119Y-2592D02*
X2123D01*
X-2119Y-2566D02*
X2123D01*
X-2144Y-2541D02*
X2148D01*
X-2170Y-2515D02*
X2174D01*
X-2170Y-2490D02*
X2174D01*
X-2195Y-2465D02*
X2199D01*
X-2195Y-2439D02*
X2199D01*
X-2221Y-2414D02*
X2224D01*
X-2221Y-2388D02*
X2224D01*
X-2246Y-2363D02*
X2250D01*
X-2246Y-2338D02*
X2250D01*
X-2271Y-2312D02*
X2275D01*
X-2271Y-2287D02*
X2275D01*
X-2271Y-2261D02*
X2301D01*
X-2297Y-2236D02*
X2301D01*
X-2297Y-2211D02*
X2301D01*
X-2297Y-2185D02*
X2326D01*
X-2322Y-2160D02*
X2326D01*
X-2322Y-2134D02*
X2326D01*
X-2322Y-2109D02*
X2326D01*
X-2348Y-2084D02*
X2351D01*
X-2348Y-2058D02*
X2351D01*
X-2348Y-2033D02*
X2351D01*
X-2348Y-2007D02*
X2351D01*
X-2348Y-1982D02*
X2377D01*
X-2373Y-1957D02*
X2377D01*
X-2373Y-1931D02*
X2377D01*
X-2373Y-1906D02*
X2377D01*
X-2373Y-1880D02*
X2377D01*
X-2373Y-1855D02*
X2377D01*
X-2373Y-1830D02*
X2377D01*
X-2373Y-1804D02*
X2377D01*
X-2373Y-1779D02*
X2377D01*
X-2373Y-1753D02*
X2377D01*
X-2373Y-1728D02*
X2377D01*
X-2373Y-1703D02*
X2377D01*
X-2373Y-1677D02*
X2402D01*
X-2373Y-1652D02*
X2402D01*
X-2373Y-1626D02*
X2402D01*
X-2373Y-1601D02*
X2377D01*
X-2373Y-1576D02*
X2377D01*
X-2373Y-1550D02*
X2377D01*
X-2373Y-1525D02*
X2402D01*
X-2373Y-1499D02*
X2377D01*
X-2373Y-1474D02*
X2402D01*
X-2373Y-1449D02*
X2402D01*
X-2373Y-1423D02*
X2377D01*
X-3592Y-1398D02*
X-3541D01*
X-2373D02*
X2402D01*
X3545D02*
X3596D01*
X-3668Y-1372D02*
X-3541D01*
X-2373D02*
X2377D01*
X3545D02*
X3672D01*
X-3719Y-1347D02*
X-3541D01*
X-2373D02*
X2377D01*
X3545D02*
X3723D01*
X-3770Y-1322D02*
X-3541D01*
X-2373D02*
X2377D01*
X3545D02*
X3774D01*
X-3795Y-1296D02*
X-3541D01*
X-2373D02*
X2377D01*
X3545D02*
X3799D01*
X-3846Y-1271D02*
X-3541D01*
X-2373D02*
X2402D01*
X3545D02*
X3850D01*
X-3897Y-1245D02*
X-3541D01*
X-2373D02*
X2402D01*
X3545D02*
X3901D01*
X-3922Y-1220D02*
X-3541D01*
X-2373D02*
X2402D01*
X3545D02*
X3926D01*
X-3948Y-1195D02*
X-3541D01*
X-2373D02*
X2377D01*
X3545D02*
X3952D01*
X-3999Y-1169D02*
X-3541D01*
X-2373D02*
X2377D01*
X3545D02*
X4002D01*
X-4024Y-1144D02*
X-3541D01*
X-2373D02*
X2377D01*
X3545D02*
X4028D01*
X-4049Y-1118D02*
X-3541D01*
X-2373D02*
X2402D01*
X3545D02*
X4053D01*
X-4075Y-1093D02*
X-3541D01*
X-2373D02*
X2377D01*
X3545D02*
X4079D01*
X-4100Y-1068D02*
X-3541D01*
X-2373D02*
X2402D01*
X3545D02*
X4104D01*
X-4126Y-1042D02*
X-3541D01*
X-2373D02*
X2402D01*
X3545D02*
X4129D01*
X-4151Y-1017D02*
X-3541D01*
X-2373D02*
X2377D01*
X3545D02*
X4155D01*
X-4176Y-991D02*
X-3541D01*
X-2373D02*
X2402D01*
X3545D02*
X4180D01*
X-4202Y-966D02*
X-3541D01*
X-2373D02*
X2377D01*
X3545D02*
X4206D01*
X-4227Y-941D02*
X-3541D01*
X-2373D02*
X2377D01*
X3545D02*
X4231D01*
X-4253Y-915D02*
X-3541D01*
X-2373D02*
X2377D01*
X3545D02*
X4256D01*
X-4278Y-890D02*
X-3541D01*
X-2373D02*
X2377D01*
X3545D02*
X4282D01*
X-4303Y-864D02*
X-3541D01*
X-2373D02*
X2402D01*
X3545D02*
X4307D01*
X-4303Y-839D02*
X-3541D01*
X-2373D02*
X2402D01*
X3545D02*
X4307D01*
X-4329Y-814D02*
X-3541D01*
X-2373D02*
X2402D01*
X3545D02*
X4333D01*
X-4354Y-788D02*
X-3541D01*
X-2373D02*
X2377D01*
X3545D02*
X4358D01*
X-4354Y-763D02*
X-3541D01*
X-2373D02*
X2377D01*
X3545D02*
X4383D01*
X-4380Y-737D02*
X-3541D01*
X-2373D02*
X2377D01*
X3545D02*
X4383D01*
X-4405Y-712D02*
X-3541D01*
X-2373D02*
X2402D01*
X3545D02*
X4409D01*
X-4405Y-687D02*
X-3541D01*
X-2373D02*
X2377D01*
X3545D02*
X4409D01*
X-4430Y-661D02*
X-3541D01*
X-2373D02*
X2402D01*
X3545D02*
X4434D01*
X-4430Y-636D02*
X-3541D01*
X-2373D02*
X2402D01*
X3545D02*
X4460D01*
X-4456Y-610D02*
X-3541D01*
X-2373D02*
X2377D01*
X3545D02*
X4460D01*
X-4481Y-585D02*
X-3541D01*
X-2373D02*
X2402D01*
X3545D02*
X4485D01*
X-4481Y-560D02*
X-3541D01*
X-2373D02*
X2377D01*
X3545D02*
X4485D01*
X-4481Y-534D02*
X-3541D01*
X-2373D02*
X2377D01*
X3545D02*
X4510D01*
X-4507Y-509D02*
X-3541D01*
X-2373D02*
X2377D01*
X3545D02*
X4510D01*
X-4507Y-483D02*
X-3541D01*
X-2373D02*
X2377D01*
X3545D02*
X4510D01*
X-4532Y-458D02*
X-3541D01*
X-2373D02*
X2402D01*
X3545D02*
X4536D01*
X-4532Y-433D02*
X-3541D01*
X-2373D02*
X2402D01*
X3545D02*
X4536D01*
X-4557Y-407D02*
X-3541D01*
X-2373D02*
X2402D01*
X3545D02*
X4561D01*
X-4557Y-382D02*
X-3541D01*
X-2373D02*
X2377D01*
X3545D02*
X4561D01*
X-4557Y-356D02*
X-3541D01*
X-2373D02*
X2377D01*
X3545D02*
X4561D01*
X-4583Y-331D02*
X-3541D01*
X-2373D02*
X2402D01*
X3545D02*
X4587D01*
X-4583Y-306D02*
X-3541D01*
X-2373D02*
X2377D01*
X3545D02*
X4587D01*
X-4583Y-280D02*
X-3541D01*
X-2373D02*
X2377D01*
X3545D02*
X4587D01*
X-4583Y-255D02*
X-3541D01*
X-2373D02*
X2402D01*
X3545D02*
X4612D01*
X-4608Y-229D02*
X-3541D01*
X-2373D02*
X2402D01*
X3545D02*
X4612D01*
X-4608Y-204D02*
X-3541D01*
X-2373D02*
X2402D01*
X3545D02*
X4612D01*
X-4608Y-179D02*
X-3541D01*
X-2373D02*
X2377D01*
X3545D02*
X4612D01*
X-4608Y-153D02*
X-3541D01*
X-2373D02*
X2377D01*
X3545D02*
X4612D01*
X-4608Y-128D02*
X-3541D01*
X-2373D02*
X2377D01*
X3545D02*
X4637D01*
X-4634Y-102D02*
X-3541D01*
X-2373D02*
X2377D01*
X3545D02*
X4637D01*
X-4634Y-77D02*
X-3541D01*
X-2373D02*
X2402D01*
X3545D02*
X4637D01*
X-4634Y-52D02*
X-3541D01*
X-2373D02*
X2402D01*
X3545D02*
X4637D01*
X-4634Y-26D02*
X-3541D01*
X-2373D02*
X2402D01*
X3545D02*
X4637D01*
X-4634Y-1D02*
X-3541D01*
X-2373D02*
X-11D01*
X15D02*
X2402D01*
X3545D02*
X4637D01*
X-4634Y25D02*
X-3541D01*
X-2373D02*
X-36D01*
X40D02*
X2377D01*
X3545D02*
X4637D01*
X-4634Y50D02*
X-3541D01*
X-2373D02*
X-62D01*
X65D02*
X2377D01*
X3545D02*
X4637D01*
X-4634Y75D02*
X-3541D01*
X-2373D02*
X-87D01*
X91D02*
X2377D01*
X3545D02*
X4663D01*
X-4634Y101D02*
X-3541D01*
X-2373D02*
X-112D01*
X116D02*
X2377D01*
X3545D02*
X4663D01*
X-4659Y126D02*
X-3541D01*
X-2373D02*
X-138D01*
X142D02*
X2402D01*
X3545D02*
X4663D01*
X-4659Y152D02*
X-3541D01*
X-2373D02*
X-163D01*
X167D02*
X2402D01*
X3545D02*
X4663D01*
X-4659Y177D02*
X-3541D01*
X-2373D02*
X-189D01*
X192D02*
X2377D01*
X3545D02*
X4663D01*
X-4659Y202D02*
X-3541D01*
X-2373D02*
X-214D01*
X218D02*
X2377D01*
X3545D02*
X4663D01*
X-4659Y228D02*
X-3541D01*
X-2373D02*
X-239D01*
X243D02*
X2402D01*
X3545D02*
X4663D01*
X-4659Y253D02*
X-3541D01*
X-2373D02*
X-265D01*
X269D02*
X2402D01*
X3545D02*
X4663D01*
X-4659Y279D02*
X-3541D01*
X-2373D02*
X-290D01*
X294D02*
X2402D01*
X3545D02*
X4663D01*
X-4659Y304D02*
X-3541D01*
X-2373D02*
X-316D01*
X319D02*
X2402D01*
X3545D02*
X4663D01*
X-4659Y329D02*
X-3541D01*
X-2373D02*
X-341D01*
X345D02*
X2377D01*
X3545D02*
X4663D01*
X-4659Y355D02*
X-3541D01*
X-2373D02*
X-366D01*
X370D02*
X2377D01*
X3545D02*
X4663D01*
X-4659Y380D02*
X-3541D01*
X-2373D02*
X-392D01*
X396D02*
X2377D01*
X3545D02*
X4663D01*
X-4659Y406D02*
X-3541D01*
X-2373D02*
X-417D01*
X421D02*
X2377D01*
X3545D02*
X4663D01*
X-4659Y431D02*
X-3541D01*
X-2373D02*
X-443D01*
X446D02*
X2402D01*
X3545D02*
X4663D01*
X-4659Y456D02*
X-3541D01*
X-2373D02*
X-468D01*
X472D02*
X2402D01*
X3545D02*
X4663D01*
X-4659Y482D02*
X-3541D01*
X-2373D02*
X-493D01*
X497D02*
X2377D01*
X3545D02*
X4663D01*
X-4659Y507D02*
X-3541D01*
X-2373D02*
X-519D01*
X523D02*
X2377D01*
X3545D02*
X4663D01*
X-4659Y533D02*
X-3541D01*
X-2373D02*
X-544D01*
X548D02*
X2402D01*
X3545D02*
X4663D01*
X-4659Y558D02*
X-3541D01*
X-2373D02*
X-570D01*
X573D02*
X2402D01*
X3545D02*
X4663D01*
X-4659Y583D02*
X-3541D01*
X-2373D02*
X-595D01*
X599D02*
X2402D01*
X3545D02*
X4663D01*
X-4659Y609D02*
X-3541D01*
X-2373D02*
X-620D01*
X624D02*
X2402D01*
X3545D02*
X4663D01*
X-4659Y634D02*
X-3541D01*
X-2373D02*
X-646D01*
X650D02*
X2377D01*
X3545D02*
X4663D01*
X-4659Y660D02*
X-3541D01*
X-2373D02*
X-671D01*
X675D02*
X2377D01*
X3545D02*
X4663D01*
X-4659Y685D02*
X-3541D01*
X-2373D02*
X-697D01*
X700D02*
X2377D01*
X3545D02*
X4663D01*
X-4659Y710D02*
X-3541D01*
X-2373D02*
X-722D01*
X726D02*
X2377D01*
X3545D02*
X4663D01*
X-4659Y736D02*
X-3541D01*
X-2373D02*
X-747D01*
X751D02*
X2402D01*
X3545D02*
X4663D01*
X-4659Y761D02*
X-3541D01*
X-2373D02*
X-773D01*
X777D02*
X2402D01*
X3545D02*
X4663D01*
X-4659Y787D02*
X-3541D01*
X-2373D02*
X-798D01*
X802D02*
X2377D01*
X3545D02*
X4663D01*
X-4659Y812D02*
X-3541D01*
X-2373D02*
X-824D01*
X827D02*
X2377D01*
X3545D02*
X4663D01*
X-4659Y837D02*
X-3541D01*
X-2373D02*
X-849D01*
X853D02*
X2402D01*
X3545D02*
X4663D01*
X-4659Y863D02*
X-3541D01*
X-2373D02*
X-874D01*
X878D02*
X2402D01*
X3545D02*
X4663D01*
X-4659Y888D02*
X-3541D01*
X-2373D02*
X-900D01*
X904D02*
X2402D01*
X3545D02*
X4663D01*
X-4659Y914D02*
X-3541D01*
X-2373D02*
X-925D01*
X929D02*
X2402D01*
X3545D02*
X4663D01*
X-4659Y939D02*
X-3541D01*
X-2373D02*
X-951D01*
X954D02*
X2377D01*
X3545D02*
X4663D01*
X-4659Y964D02*
X-3541D01*
X-2373D02*
X-976D01*
X980D02*
X2377D01*
X3545D02*
X4663D01*
X-4659Y990D02*
X-3541D01*
X-2373D02*
X-1001D01*
X1005D02*
X2377D01*
X3545D02*
X4663D01*
X-4659Y1015D02*
X-3541D01*
X-2373D02*
X-1027D01*
X1031D02*
X2377D01*
X3545D02*
X4663D01*
X-4659Y1041D02*
X-3541D01*
X-2373D02*
X-1052D01*
X1056D02*
X2402D01*
X3545D02*
X4663D01*
X-4659Y1066D02*
X-3541D01*
X-2373D02*
X-1078D01*
X1081D02*
X2402D01*
X3545D02*
X4663D01*
X-4659Y1091D02*
X-3541D01*
X-2373D02*
X-1103D01*
X1107D02*
X2377D01*
X3545D02*
X4663D01*
X-4659Y1117D02*
X-3541D01*
X-2373D02*
X-1128D01*
X1132D02*
X2377D01*
X3545D02*
X4663D01*
X-4659Y1142D02*
X-3541D01*
X-2373D02*
X-1154D01*
X1158D02*
X2402D01*
X3545D02*
X4663D01*
X-4659Y1168D02*
X-3541D01*
X-2373D02*
X-1179D01*
X1183D02*
X2402D01*
X3545D02*
X4663D01*
X-4659Y1193D02*
X-3541D01*
X-2373D02*
X-1205D01*
X1208D02*
X2402D01*
X3545D02*
X4663D01*
X-4659Y1218D02*
X-3541D01*
X-2373D02*
X-1230D01*
X1234D02*
X2402D01*
X3545D02*
X4663D01*
X-4659Y1244D02*
X-3541D01*
X-2373D02*
X-1255D01*
X1259D02*
X2377D01*
X3545D02*
X4663D01*
X-4659Y1269D02*
X-3541D01*
X-2373D02*
X-1281D01*
X1285D02*
X2377D01*
X3545D02*
X4663D01*
X-4659Y1295D02*
X-3541D01*
X-2373D02*
X-1306D01*
X1310D02*
X2377D01*
X3545D02*
X4663D01*
X-4659Y1320D02*
X-3541D01*
X-2373D02*
X-1332D01*
X1335D02*
X2377D01*
X3545D02*
X4663D01*
X-4659Y1345D02*
X-3541D01*
X-2373D02*
X-1357D01*
X1361D02*
X2402D01*
X3545D02*
X4663D01*
X-4659Y1371D02*
X-3541D01*
X-2373D02*
X-1382D01*
X1386D02*
X2402D01*
X3545D02*
X4663D01*
X-4659Y1396D02*
X-3541D01*
X-2373D02*
X-1408D01*
X1412D02*
X2377D01*
X3545D02*
X4663D01*
X-4659Y1422D02*
X-3541D01*
X-2373D02*
X-1433D01*
X1437D02*
X2377D01*
X3545D02*
X4663D01*
X-4659Y1447D02*
X-3541D01*
X-2373D02*
X-1459D01*
X1462D02*
X2402D01*
X3545D02*
X4663D01*
X-4659Y1472D02*
X-3541D01*
X-2373D02*
X-1484D01*
X1488D02*
X2402D01*
X3545D02*
X4663D01*
X-4659Y1498D02*
X-3541D01*
X-2373D02*
X-1509D01*
X1513D02*
X2402D01*
X3545D02*
X4663D01*
X-4659Y1523D02*
X-3541D01*
X-2373D02*
X-1535D01*
X1539D02*
X2402D01*
X3545D02*
X4663D01*
X-4659Y1549D02*
X-3541D01*
X-2373D02*
X-1560D01*
X1564D02*
X2377D01*
X3545D02*
X4663D01*
X-4659Y1574D02*
X-3541D01*
X-2373D02*
X-1586D01*
X1589D02*
X2377D01*
X3545D02*
X4663D01*
X-4659Y1599D02*
X-3541D01*
X-2373D02*
X-1611D01*
X1615D02*
X2377D01*
X3545D02*
X4663D01*
X-4659Y1625D02*
X-3541D01*
X-2373D02*
X-1636D01*
X1640D02*
X2377D01*
X3545D02*
X4663D01*
X-4659Y1650D02*
X-3541D01*
X-2373D02*
X-1662D01*
X-11D02*
X15D01*
X1666D02*
X2402D01*
X3545D02*
X4663D01*
X-4659Y1676D02*
X-3541D01*
X-2373D02*
X-1687D01*
X-36D02*
X40D01*
X1691D02*
X2402D01*
X3545D02*
X4663D01*
X-4659Y1701D02*
X-3541D01*
X-2373D02*
X-1713D01*
X-62D02*
X65D01*
X1716D02*
X2377D01*
X3545D02*
X4663D01*
X-4659Y1726D02*
X-3541D01*
X-2373D02*
X-1738D01*
X-87D02*
X91D01*
X1742D02*
X2377D01*
X3545D02*
X4663D01*
X-4659Y1752D02*
X-3541D01*
X-2373D02*
X-1763D01*
X-112D02*
X116D01*
X1767D02*
X2402D01*
X3545D02*
X4663D01*
X-4659Y1777D02*
X-3541D01*
X-2373D02*
X-1789D01*
X-138D02*
X142D01*
X1793D02*
X2402D01*
X3545D02*
X4663D01*
X-4659Y1803D02*
X-3541D01*
X-2373D02*
X-1814D01*
X-163D02*
X167D01*
X1818D02*
X2402D01*
X3545D02*
X4663D01*
X-4659Y1828D02*
X-3541D01*
X-2373D02*
X-1840D01*
X-189D02*
X192D01*
X1843D02*
X2402D01*
X3545D02*
X4663D01*
X-4659Y1853D02*
X-3541D01*
X-2373D02*
X-1865D01*
X-214D02*
X218D01*
X1869D02*
X2377D01*
X3545D02*
X4663D01*
X-4659Y1879D02*
X-3541D01*
X-2373D02*
X-1890D01*
X-239D02*
X243D01*
X1894D02*
X2377D01*
X3545D02*
X4663D01*
X-4659Y1904D02*
X-3541D01*
X-2373D02*
X-1916D01*
X-265D02*
X269D01*
X1920D02*
X2377D01*
X3545D02*
X4663D01*
X-4634Y1930D02*
X-3541D01*
X-2373D02*
X-1941D01*
X-290D02*
X294D01*
X1945D02*
X2377D01*
X3545D02*
X4663D01*
X-4634Y1955D02*
X-3541D01*
X-2373D02*
X-1967D01*
X-316D02*
X319D01*
X1970D02*
X2402D01*
X3545D02*
X4663D01*
X-4634Y1980D02*
X-3541D01*
X-2373D02*
X-1992D01*
X-341D02*
X345D01*
X1996D02*
X2402D01*
X3545D02*
X4663D01*
X-4634Y2006D02*
X-3541D01*
X-2373D02*
X-2017D01*
X-366D02*
X370D01*
X2021D02*
X2377D01*
X3545D02*
X4637D01*
X-4634Y2031D02*
X-3541D01*
X-2373D02*
X-2043D01*
X-392D02*
X396D01*
X2047D02*
X2377D01*
X3545D02*
X4637D01*
X-4634Y2057D02*
X-3541D01*
X-2373D02*
X-2068D01*
X-417D02*
X421D01*
X2072D02*
X2402D01*
X3545D02*
X4637D01*
X-4634Y2082D02*
X-3541D01*
X-2373D02*
X-2094D01*
X-443D02*
X446D01*
X2097D02*
X2402D01*
X3545D02*
X4637D01*
X-4634Y2107D02*
X-3541D01*
X-2373D02*
X-2119D01*
X-468D02*
X472D01*
X2123D02*
X2402D01*
X3545D02*
X4637D01*
X-4634Y2133D02*
X-3541D01*
X-2373D02*
X-2144D01*
X-493D02*
X497D01*
X2148D02*
X2402D01*
X3545D02*
X4637D01*
X-4634Y2158D02*
X-3541D01*
X-2373D02*
X-2170D01*
X-519D02*
X523D01*
X2174D02*
X2377D01*
X3545D02*
X4637D01*
X-4608Y2184D02*
X-3541D01*
X-2373D02*
X-2195D01*
X-544D02*
X548D01*
X2199D02*
X2377D01*
X3545D02*
X4637D01*
X-4608Y2209D02*
X-3541D01*
X-2373D02*
X-2221D01*
X-570D02*
X573D01*
X2224D02*
X2377D01*
X3545D02*
X4612D01*
X-4608Y2234D02*
X-3541D01*
X-2373D02*
X-2246D01*
X-595D02*
X599D01*
X2250D02*
X2377D01*
X3545D02*
X4612D01*
X-4608Y2260D02*
X-3541D01*
X-2373D02*
X-2271D01*
X-620D02*
X624D01*
X2275D02*
X2402D01*
X3545D02*
X4612D01*
X-4608Y2285D02*
X-3541D01*
X-2373D02*
X-2297D01*
X-646D02*
X650D01*
X2301D02*
X2402D01*
X3545D02*
X4612D01*
X-4583Y2311D02*
X-3541D01*
X-2373D02*
X-2322D01*
X-671D02*
X675D01*
X2326D02*
X2377D01*
X3545D02*
X4587D01*
X-4583Y2336D02*
X-3541D01*
X-2373D02*
X-2348D01*
X-697D02*
X700D01*
X2351D02*
X2377D01*
X3545D02*
X4587D01*
X-4583Y2361D02*
X-3541D01*
X-722D02*
X726D01*
X3545D02*
X4587D01*
X-4557Y2387D02*
X-3541D01*
X-747D02*
X751D01*
X3545D02*
X4587D01*
X-4557Y2412D02*
X-3541D01*
X-773D02*
X777D01*
X3545D02*
X4561D01*
X-4557Y2438D02*
X-3541D01*
X-798D02*
X802D01*
X3545D02*
X4561D01*
X-4532Y2463D02*
X-3541D01*
X-824D02*
X827D01*
X3545D02*
X4561D01*
X-4532Y2488D02*
X-3541D01*
X-849D02*
X853D01*
X3545D02*
X4536D01*
X-4532Y2514D02*
X-3541D01*
X-874D02*
X878D01*
X3545D02*
X4536D01*
X-4507Y2539D02*
X-3541D01*
X-900D02*
X904D01*
X3545D02*
X4510D01*
X-4507Y2565D02*
X-3541D01*
X-925D02*
X929D01*
X3545D02*
X4510D01*
X-4481Y2590D02*
X-3541D01*
X-951D02*
X954D01*
X3545D02*
X4485D01*
X-4481Y2615D02*
X-3541D01*
X-976D02*
X980D01*
X3545D02*
X4485D01*
X-4456Y2641D02*
X-3541D01*
X-1001D02*
X1005D01*
X3545D02*
X4485D01*
X-4456Y2666D02*
X-3541D01*
X-1027D02*
X1031D01*
X3545D02*
X4460D01*
X-4430Y2692D02*
X-3541D01*
X-1052D02*
X1056D01*
X3545D02*
X4434D01*
X-4430Y2717D02*
X-3541D01*
X-1078D02*
X1081D01*
X3545D02*
X4434D01*
X-4405Y2742D02*
X-3541D01*
X-1103D02*
X1107D01*
X3545D02*
X4409D01*
X-4405Y2768D02*
X-3541D01*
X-1128D02*
X1132D01*
X3545D02*
X4409D01*
X-4380Y2793D02*
X-3541D01*
X-1154D02*
X1158D01*
X3545D02*
X4383D01*
X-4354Y2819D02*
X-3541D01*
X-1179D02*
X1183D01*
X3545D02*
X4358D01*
X-4354Y2844D02*
X-3541D01*
X-1205D02*
X1208D01*
X3545D02*
X4358D01*
X-4329Y2869D02*
X-3541D01*
X-1230D02*
X1234D01*
X3545D02*
X4333D01*
X-4303Y2895D02*
X-3541D01*
X-1255D02*
X1259D01*
X3545D02*
X4307D01*
X-4278Y2920D02*
X-3541D01*
X-1281D02*
X1285D01*
X3545D02*
X4307D01*
X-4278Y2946D02*
X-3541D01*
X-1306D02*
X1310D01*
X3545D02*
X4282D01*
X-4253Y2971D02*
X-3541D01*
X-1332D02*
X1335D01*
X3545D02*
X4256D01*
X-4227Y2996D02*
X-3541D01*
X-1357D02*
X1361D01*
X3545D02*
X4231D01*
X-4202Y3022D02*
X-3541D01*
X-1382D02*
X1386D01*
X3545D02*
X4206D01*
X-4176Y3047D02*
X-3541D01*
X-1408D02*
X1412D01*
X3545D02*
X4180D01*
X-4151Y3073D02*
X-3541D01*
X-1433D02*
X1437D01*
X3545D02*
X4155D01*
X-4126Y3098D02*
X-3541D01*
X-1459D02*
X1462D01*
X3545D02*
X4129D01*
X-4100Y3123D02*
X-3541D01*
X-1484D02*
X1488D01*
X3545D02*
X4104D01*
X-4075Y3149D02*
X-3541D01*
X-1509D02*
X1513D01*
X3545D02*
X4079D01*
X-4049Y3174D02*
X-3541D01*
X-1535D02*
X1539D01*
X3545D02*
X4053D01*
X-4024Y3200D02*
X-3541D01*
X-1560D02*
X1564D01*
X3545D02*
X4028D01*
X-3973Y3225D02*
X-3541D01*
X-1586D02*
X1589D01*
X3545D02*
X3977D01*
X-3948Y3250D02*
X-3541D01*
X-1611D02*
X1615D01*
X3545D02*
X3952D01*
X-3922Y3276D02*
X-3541D01*
X-1636D02*
X1640D01*
X3545D02*
X3926D01*
X-3872Y3301D02*
X-3541D01*
X-1662D02*
X1666D01*
X3545D02*
X3875D01*
X-3846Y3327D02*
X-3541D01*
X-1687D02*
X1691D01*
X3545D02*
X3850D01*
X-3795Y3352D02*
X-3541D01*
X-1713D02*
X1716D01*
X3545D02*
X3799D01*
X-3745Y3377D02*
X-3541D01*
X-1738D02*
X1742D01*
X3545D02*
X3748D01*
X-3694Y3403D02*
X-3541D01*
X-1763D02*
X1767D01*
X3545D02*
X3698D01*
X-3643Y3428D02*
X-3541D01*
X-1789D02*
X1793D01*
X3545D02*
X3647D01*
X-3592Y3454D02*
X-3541D01*
X-1814D02*
X1818D01*
X3545D02*
X3596D01*
X-1840Y3479D02*
X1843D01*
X-1865Y3504D02*
X1869D01*
X-1890Y3530D02*
X1894D01*
X-1916Y3555D02*
X1920D01*
X-1941Y3581D02*
X1945D01*
X-1967Y3606D02*
X1970D01*
X-1992Y3631D02*
X1996D01*
X-2017Y3657D02*
X2021D01*
X-2043Y3682D02*
X2047D01*
X-2068Y3708D02*
X2072D01*
X-2094Y3733D02*
X2097D01*
X-2119Y3758D02*
X2123D01*
X-2144Y3784D02*
X2148D01*
X-2170Y3809D02*
X2174D01*
X-2195Y3835D02*
X2199D01*
X-2221Y3860D02*
X2224D01*
X-2246Y3885D02*
X2250D01*
X-2271Y3911D02*
X2275D01*
X-2297Y3936D02*
X2301D01*
X-2322Y3962D02*
X2326D01*
X-2348Y3987D02*
X2351D01*
X-2373Y4012D02*
X2377D01*
X-2348Y4038D02*
X2377D01*
X-2348Y4063D02*
X2351D01*
X-2348Y4089D02*
X2351D01*
X-2348Y4114D02*
X2351D01*
X-2348Y4139D02*
X2351D01*
X-2322Y4165D02*
X2326D01*
X-2322Y4190D02*
X2326D01*
X-2322Y4216D02*
X2326D01*
X-2297Y4241D02*
X2301D01*
X-2297Y4266D02*
X2301D01*
X-2297Y4292D02*
X2301D01*
X-2271Y4317D02*
X2275D01*
X-2271Y4343D02*
X2275D01*
X-2271Y4368D02*
X2275D01*
X-2246Y4393D02*
X2250D01*
X-2246Y4419D02*
X2250D01*
X-2221Y4444D02*
X2224D01*
X-2221Y4470D02*
X2224D01*
X-2195Y4495D02*
X2199D01*
X-2195Y4520D02*
X2199D01*
X-2170Y4546D02*
X2174D01*
X-2144Y4571D02*
X2174D01*
X-2144Y4597D02*
X2148D01*
X-2119Y4622D02*
X2123D01*
X-2119Y4647D02*
X2123D01*
X-2094Y4673D02*
X2097D01*
X-2068Y4698D02*
X2072D01*
X-2043Y4724D02*
X2047D01*
X-2043Y4749D02*
X2047D01*
X-2017Y4774D02*
X2021D01*
X-1992Y4800D02*
X1996D01*
X-1967Y4825D02*
X1970D01*
X-1941Y4851D02*
X1945D01*
X-1916Y4876D02*
X1920D01*
X-1890Y4901D02*
X1894D01*
X-1865Y4927D02*
X1869D01*
X-1840Y4952D02*
X1843D01*
X-1814Y4978D02*
X1818D01*
X-1763Y5003D02*
X1793D01*
X-1738Y5028D02*
X1742D01*
X-1713Y5054D02*
X1716D01*
X-1662Y5079D02*
X1666D01*
X-1636Y5105D02*
X1640D01*
X-1586Y5130D02*
X1589D01*
X-1535Y5155D02*
X1539D01*
X-1484Y5181D02*
X1488D01*
X-1433Y5206D02*
X1437D01*
X-1382Y5232D02*
X1386D01*
X-1306Y5257D02*
X1310D01*
X-1230Y5282D02*
X1234D01*
X-1128Y5308D02*
X1132D01*
X-951Y5333D02*
X980D01*
X2685Y25875D02*
X2685Y25640D01*
X-2620Y25930D02*
X-2620Y25640D01*
X-2620Y29270D02*
X-2620Y29560D01*
X2635Y29560D01*
X-2620Y25640D02*
X2685D01*
X2635Y29270D02*
X2635Y29560D01*
X495Y29550D02*
X495Y25675D01*
X3176Y20824D02*
Y25173D01*
X-3176Y20824D02*
X3176D01*
X-3176D02*
Y25173D01*
X3176D01*
D148*
X350Y-11662D02*
D03*
M02*
