M48
;Layer_Color=9474304
;FILE_FORMAT=4:3
METRIC,LZ
;TYPE=PLATED
T1F00S00C0.300
T2F00S00C0.700
T3F00S00C0.800
T4F00S00C0.900
T5F00S00C1.320
;TYPE=NON_PLATED
T6F00S00C1.000
T7F00S00C2.400
%
T01
X0020034Y-0019102
X0020709Y-0019495
X0015659Y-0017628
X0008721Y-0017122
X0008724Y-0016341
X000815Y-001575
X0007262
X-0000371Y-0017535
X-0001171
X-00023Y-00174
X-00031
Y-00165
Y-00156
X-00023
X-00031Y-00147
X-0017099Y-001476
X-001708Y-0015674
X-0017103Y-0016494
X-0017888Y-001622
X-0023141Y-0013113
X-0023213Y-0012264
X-0025548Y-0012472
X-002403Y-0010249
X-00246Y-00077
X-0024565Y-0004351
X-0026528Y-0004353
X-0022613Y-0003552
X-0021564Y-0003452
X-0021664Y-0004347
X-0021714Y-0005175
X-0023556Y-0000539
X-0024587Y0004338
X-0026522Y0004338
X-0024329Y0006239
X-0025548Y0008017
X-0025606Y0010244
X-0024786Y001025
X-0023977Y0010116
X-0023647Y0011376
Y00122
X-0022798Y0011376
X-0023101Y0009258
X-0025562Y0012467
X-0025896Y0019545
X-0024546Y0018937
X-00222Y00188
X-00219Y00205
X-0023138Y0021498
X-002444Y0022201
X-00221Y0023
X-001752Y0014839
X-0016525Y0014125
X-00146Y00146
X-00109Y00168
X-0010441Y0018067
X-0010251Y0019275
X-00089Y0018
X-0006158Y001837
X-0006162Y0016181
X-0008277Y0013101
X-0007901Y0011188
X-000515Y0009908
X-0004403
X-0003655
Y0010658
Y0011408
X-0002324Y0019275
X-0000726Y0017693
X0001326Y001895
X0002175
Y0019799
X0002925Y0019565
X0003102Y0018335
X0006025Y0019256
X0006529Y0019904
X000595Y0020542
X0008524Y0022488
X0010047Y0022488
X0011607Y0021963
X0013288Y0022366
X001451Y0021381
X00148Y001985
Y00191
Y001835
X0014053
X0013306
X0010047Y0018432
X0008524
X0008506Y0025012
X0005566Y0024756
X0004724
X00135Y0024975
X00133Y00125
X00103Y0012
X0009762Y0005386
X0015Y00057
X00141Y00074
X00177Y00048
X00159Y0
X0017079Y-0001733
X00176Y-00032
X0014468Y-0007183
X00127Y-00089
X0014Y-00115
X0009515Y-0013835
X00058Y-00104
X-0000371Y-0013615
X-0001171
X-00023Y-00138
X-00031
X-001265Y-0010313
X-001265Y-000836
X-0012633Y-0006409
X-001662Y-0006416
X-0016626Y-0008357
Y-0009355
Y-001031
X-0019111Y-001031
X-0019106Y-000935
Y-0008352
X-0019111Y-0012258
X-0019254Y-0013782
X-0017099Y-001391
X-0017432Y-0003015
X-00163Y-0003
X-0015441Y00008
Y0001649
X-0016314
X-0015441Y0002559
X-00146Y00041
X-00138
X-0013066Y0003549
X-0013089Y0005214
X-00146Y00049
X-00162Y00053
X-0016865Y0005979
X-0017162Y0006783
X-0018024Y0006799
X-0016223Y0006657
X-001785Y0008975
X-0019241Y0008847
X-0020404Y0008845
X-0018664Y0010413
X-0020172Y0005302
X-0020435Y0003048
X-0020924Y0000497
X-0020924Y-0000351
X-0020075Y-0000351
X-0020924Y-0001261
X-00009Y-00021
X0000892Y-0002094
X0003199Y-00021
X0003199Y00021
X0002099Y00032
X-0002101Y00032
X-0002044Y0001231
X0010996Y0000411
X0010005Y-0005204
X0021577Y-0008673
X0026178Y-0008642
X0026947Y-000878
X0027279Y0002941
X0028049Y0003074
X00229Y00014
X00197Y0012
X00228Y00155
X00234Y0016
T02
X0024106Y-0020688
X0025391Y-0019156
X-0024344Y-0020197
X-0023059Y-0021729
X-002563Y-0018665
X-0030225Y-0002446
X-0030225Y0002434
X0031344Y000521
X0030997Y0007179
X0031047Y-000623
X00307Y-00082
X0025381Y0019153
X0024122Y0020707
T03
X-0013024Y002887
X-0011092Y0029388
X-0009161Y0029905
X-0007229Y0030423
X-0005297Y0030941
X-0003365Y0031458
X0003385Y0031459
X0005317Y0030941
X0007249Y0030423
X0009181Y0029906
X0011113Y0029388
X0013045Y002887
T04
X-0029138Y-0012789
Y-0010249
Y-0007709
Y00077
Y001024
Y001278
X-0002Y0022
Y0024
X0Y0024
Y0022
X0002Y0022
Y0024
T05
X-000815Y-00285
X-000465Y-0021
X-001165
X001215
Y-00285
T06
X-0024141Y001769
X-0018945Y001469
T07
X-0018Y-0025
X0018
Y0025
X-0018
M30
